# MagicaVoxel @ Ephtracy

# material
mtllib BigDoorBlueOpen.mtl
usemtl palette

# normals
vn -1 0 0
vn 1 0 0
vn 0 0 1
vn 0 0 -1
vn 0 -1 0
vn 0 1 0

# texcoords
vt 0.251953 0.5
vt 0.271484 0.5
vt 0.283203 0.5
vt 0.349609 0.5
vt 0.357422 0.5

# verts
v -24 0 -3
v -24 0 -8
v -24 3 -3
v -24 3 -8
v -24 31 -2
v -24 31 -3
v -24 32 -2
v -24 32 -8
v 17 3 -6
v 17 3 -8
v 17 7 -6
v 17 7 -8
v 17 11 -6
v 17 11 -8
v 17 13 -5
v 17 13 -6
v 17 15 -6
v 17 15 -8
v 17 17 -5
v 17 17 -6
v 17 19 -6
v 17 19 -8
v 17 23 -6
v 17 23 -8
v 18 0 -6
v 18 0 -8
v 18 3 -6
v 18 3 -8
v 18 7 -6
v 18 7 -8
v 18 11 -6
v 18 11 -8
v 18 15 -6
v 18 15 -8
v 18 17 -6
v 18 19 -6
v 18 19 -8
v 18 23 -6
v 18 23 -8
v 18 27 -6
v 18 27 -8
v 19 0 -3
v 19 0 -6
v 19 3 -3
v 19 3 -6
v 19 4 -3
v 19 4 -4
v 19 13 -5
v 19 13 -6
v 19 17 -5
v 19 17 -6
v 19 27 -3
v 19 27 -4
v 19 27 -6
v -19 0 -3
v -19 0 -6
v -19 3 -3
v -19 3 -6
v -19 4 -3
v -19 4 -4
v -19 13 -5
v -19 13 -6
v -19 17 -5
v -19 17 -6
v -19 27 -3
v -19 27 -4
v -19 27 -6
v -18 3 -6
v -18 3 -8
v -18 7 -6
v -18 7 -8
v -18 11 -6
v -18 11 -8
v -18 13 -6
v -18 15 -6
v -18 15 -8
v -18 19 -6
v -18 19 -8
v -18 23 -6
v -18 23 -8
v -17 0 -6
v -17 0 -8
v -17 3 -6
v -17 3 -8
v -17 7 -6
v -17 7 -8
v -17 11 -6
v -17 11 -8
v -17 13 -5
v -17 13 -6
v -17 15 -6
v -17 15 -8
v -17 17 -5
v -17 17 -6
v -17 19 -6
v -17 19 -8
v -17 23 -6
v -17 23 -8
v -17 27 -6
v -17 27 -8
v 24 0 -3
v 24 0 -8
v 24 3 -3
v 24 3 -8
v 24 31 -2
v 24 31 -3
v 24 32 -2
v 24 32 -8
v -24 31 -2
v -24 32 -2
v 24 31 -2
v 24 32 -2
v -24 0 -3
v -24 3 -3
v -24 31 -3
v -22 4 -3
v -22 28 -3
v -21 4 -3
v -21 28 -3
v -20 4 -3
v -20 28 -3
v -19 0 -3
v -19 3 -3
v -19 4 -3
v -19 27 -3
v 19 0 -3
v 19 3 -3
v 19 4 -3
v 19 27 -3
v 20 4 -3
v 20 28 -3
v 21 4 -3
v 21 28 -3
v 22 4 -3
v 22 28 -3
v 24 0 -3
v 24 3 -3
v 24 31 -3
v -19 13 -5
v -19 17 -5
v -17 13 -5
v -17 17 -5
v 17 13 -5
v 17 17 -5
v 19 13 -5
v 19 17 -5
v -19 0 -6
v -19 3 -6
v -19 13 -6
v -19 17 -6
v -19 27 -6
v -18 3 -6
v -18 7 -6
v -18 11 -6
v -18 13 -6
v -18 19 -6
v -18 23 -6
v -17 0 -6
v -17 3 -6
v -17 7 -6
v -17 11 -6
v -17 17 -6
v -17 19 -6
v -17 23 -6
v -17 27 -6
v 17 3 -6
v 17 7 -6
v 17 11 -6
v 17 13 -6
v 17 19 -6
v 17 23 -6
v 18 0 -6
v 18 3 -6
v 18 7 -6
v 18 11 -6
v 18 17 -6
v 18 19 -6
v 18 23 -6
v 18 27 -6
v 19 0 -6
v 19 3 -6
v 19 13 -6
v 19 17 -6
v 19 27 -6
v -18 13 -6
v -18 15 -6
v -17 13 -6
v -17 15 -6
v 17 15 -6
v 17 17 -6
v 18 15 -6
v 18 17 -6
v -24 0 -8
v -24 3 -8
v -24 32 -8
v -19 0 -8
v -19 3 -8
v -19 27 -8
v -18 3 -8
v -18 7 -8
v -18 11 -8
v -18 15 -8
v -18 19 -8
v -18 23 -8
v -17 0 -8
v -17 3 -8
v -17 7 -8
v -17 11 -8
v -17 15 -8
v -17 19 -8
v -17 23 -8
v -17 27 -8
v 17 3 -8
v 17 7 -8
v 17 11 -8
v 17 15 -8
v 17 19 -8
v 17 23 -8
v 18 0 -8
v 18 3 -8
v 18 7 -8
v 18 11 -8
v 18 15 -8
v 18 19 -8
v 18 23 -8
v 18 27 -8
v 19 0 -8
v 19 3 -8
v 19 27 -8
v 24 0 -8
v 24 3 -8
v 24 32 -8
v -24 0 -3
v -19 0 -3
v 19 0 -3
v 24 0 -3
v -19 0 -6
v -17 0 -6
v 18 0 -6
v 19 0 -6
v -24 0 -8
v -19 0 -8
v -17 0 -8
v 18 0 -8
v 19 0 -8
v 24 0 -8
v 17 3 -6
v 18 3 -6
v 17 3 -8
v 18 3 -8
v -18 7 -6
v -17 7 -6
v -18 7 -8
v -17 7 -8
v 17 11 -6
v 18 11 -6
v 17 11 -8
v 18 11 -8
v -19 13 -5
v -17 13 -5
v 17 13 -5
v 19 13 -5
v -19 13 -6
v -18 13 -6
v -17 13 -6
v 17 13 -6
v 19 13 -6
v -18 15 -6
v -17 15 -6
v -18 15 -8
v -17 15 -8
v 17 19 -6
v 18 19 -6
v 17 19 -8
v 18 19 -8
v -18 23 -6
v -17 23 -6
v -18 23 -8
v -17 23 -8
v -19 27 -3
v 19 27 -3
v -19 27 -4
v 19 27 -4
v -19 27 -6
v -17 27 -6
v 18 27 -6
v 19 27 -6
v -17 27 -8
v 18 27 -8
v -24 31 -2
v 24 31 -2
v -24 31 -3
v 24 31 -3
v -18 3 -6
v -17 3 -6
v -18 3 -8
v -17 3 -8
v 17 7 -6
v 18 7 -6
v 17 7 -8
v 18 7 -8
v -18 11 -6
v -17 11 -6
v -18 11 -8
v -17 11 -8
v 17 15 -6
v 18 15 -6
v 17 15 -8
v 18 15 -8
v -19 17 -5
v -17 17 -5
v 17 17 -5
v 19 17 -5
v -19 17 -6
v -17 17 -6
v 17 17 -6
v 18 17 -6
v 19 17 -6
v -18 19 -6
v -17 19 -6
v -18 19 -8
v -17 19 -8
v 17 23 -6
v 18 23 -6
v 17 23 -8
v 18 23 -8
v -24 32 -2
v 24 32 -2
v -24 32 -8
v 24 32 -8

# faces
f 3/2/1 2/2/1 1/2/1
f 4/2/1 2/2/1 3/2/1
f 6/5/1 4/5/1 3/5/1
f 7/5/1 6/5/1 5/5/1
f 8/5/1 4/5/1 6/5/1
f 8/5/1 6/5/1 7/5/1
f 11/4/1 10/4/1 9/4/1
f 12/4/1 10/4/1 11/4/1
f 16/4/1 14/4/1 13/4/1
f 17/4/1 14/4/1 16/4/1
f 17/1/1 16/1/1 15/1/1
f 18/4/1 14/4/1 17/4/1
f 19/1/1 17/1/1 15/1/1
f 20/1/1 17/1/1 19/1/1
f 23/4/1 22/4/1 21/4/1
f 24/4/1 22/4/1 23/4/1
f 27/4/1 26/4/1 25/4/1
f 28/4/1 26/4/1 27/4/1
f 31/4/1 30/4/1 29/4/1
f 32/4/1 30/4/1 31/4/1
f 35/4/1 34/4/1 33/4/1
f 36/4/1 34/4/1 35/4/1
f 37/4/1 34/4/1 36/4/1
f 40/4/1 39/4/1 38/4/1
f 41/4/1 39/4/1 40/4/1
f 44/2/1 43/2/1 42/2/1
f 45/2/1 43/2/1 44/2/1
f 46/5/1 45/5/1 44/5/1
f 47/5/1 45/5/1 46/5/1
f 48/5/1 45/5/1 47/5/1
f 49/5/1 45/5/1 48/5/1
f 50/5/1 48/5/1 47/5/1
f 52/3/1 47/3/1 46/3/1
f 53/5/1 51/5/1 50/5/1
f 53/3/1 47/3/1 52/3/1
f 53/5/1 50/5/1 47/5/1
f 54/5/1 51/5/1 53/5/1
f 55/2/2 56/2/2 57/2/2
f 57/2/2 56/2/2 58/2/2
f 57/5/2 58/5/2 59/5/2
f 59/5/2 58/5/2 60/5/2
f 60/5/2 58/5/2 61/5/2
f 61/5/2 58/5/2 62/5/2
f 60/5/2 61/5/2 63/5/2
f 59/3/2 60/3/2 65/3/2
f 63/5/2 64/5/2 66/5/2
f 65/3/2 60/3/2 66/3/2
f 60/5/2 63/5/2 66/5/2
f 66/5/2 64/5/2 67/5/2
f 68/4/2 69/4/2 70/4/2
f 70/4/2 69/4/2 71/4/2
f 72/4/2 73/4/2 74/4/2
f 74/4/2 73/4/2 75/4/2
f 75/4/2 73/4/2 76/4/2
f 77/4/2 78/4/2 79/4/2
f 79/4/2 78/4/2 80/4/2
f 81/4/2 82/4/2 83/4/2
f 83/4/2 82/4/2 84/4/2
f 85/4/2 86/4/2 87/4/2
f 87/4/2 86/4/2 88/4/2
f 89/1/2 90/1/2 91/1/2
f 89/1/2 91/1/2 93/1/2
f 91/4/2 92/4/2 94/4/2
f 93/1/2 91/1/2 94/1/2
f 94/4/2 92/4/2 95/4/2
f 95/4/2 92/4/2 96/4/2
f 97/4/2 98/4/2 99/4/2
f 99/4/2 98/4/2 100/4/2
f 101/2/2 102/2/2 103/2/2
f 103/2/2 102/2/2 104/2/2
f 103/5/2 104/5/2 106/5/2
f 105/5/2 106/5/2 107/5/2
f 106/5/2 104/5/2 108/5/2
f 107/5/2 106/5/2 108/5/2
f 111/5/3 110/5/3 109/5/3
f 112/5/3 110/5/3 111/5/3
f 116/5/3 115/5/3 114/5/3
f 117/5/3 115/5/3 116/5/3
f 118/5/3 116/5/3 114/5/3
f 118/3/3 117/3/3 116/3/3
f 119/5/3 115/5/3 117/5/3
f 119/3/3 117/3/3 118/3/3
f 120/5/3 118/5/3 114/5/3
f 120/5/3 119/5/3 118/5/3
f 121/5/3 115/5/3 119/5/3
f 121/5/3 119/5/3 120/5/3
f 122/2/3 114/2/3 113/2/3
f 123/5/3 120/5/3 114/5/3
f 123/2/3 114/2/3 122/2/3
f 124/3/3 121/3/3 120/3/3
f 124/5/3 120/5/3 123/5/3
f 125/3/3 121/3/3 124/3/3
f 129/3/3 121/3/3 125/3/3
f 130/5/3 128/5/3 127/5/3
f 130/3/3 129/3/3 128/3/3
f 131/5/3 115/5/3 121/5/3
f 131/3/3 129/3/3 130/3/3
f 131/3/3 121/3/3 129/3/3
f 132/5/3 130/5/3 127/5/3
f 132/5/3 131/5/3 130/5/3
f 133/5/3 115/5/3 131/5/3
f 133/5/3 131/5/3 132/5/3
f 134/5/3 132/5/3 127/5/3
f 134/3/3 133/3/3 132/3/3
f 135/5/3 115/5/3 133/5/3
f 135/3/3 133/3/3 134/3/3
f 136/2/3 127/2/3 126/2/3
f 137/5/3 134/5/3 127/5/3
f 137/2/3 127/2/3 136/2/3
f 137/5/3 135/5/3 134/5/3
f 138/5/3 115/5/3 135/5/3
f 138/5/3 135/5/3 137/5/3
f 141/1/3 140/1/3 139/1/3
f 142/1/3 140/1/3 141/1/3
f 145/1/3 144/1/3 143/1/3
f 146/1/3 144/1/3 145/1/3
f 152/4/3 148/4/3 147/4/3
f 152/4/3 149/4/3 148/4/3
f 153/4/3 149/4/3 152/4/3
f 154/4/3 149/4/3 153/4/3
f 155/4/3 149/4/3 154/4/3
f 156/4/3 151/4/3 150/4/3
f 157/4/3 151/4/3 156/4/3
f 158/4/3 152/4/3 147/4/3
f 159/4/3 152/4/3 158/4/3
f 160/4/3 154/4/3 153/4/3
f 161/4/3 154/4/3 160/4/3
f 162/4/3 156/4/3 150/4/3
f 163/4/3 156/4/3 162/4/3
f 164/4/3 151/4/3 157/4/3
f 165/4/3 151/4/3 164/4/3
f 173/4/3 167/4/3 166/4/3
f 174/4/3 167/4/3 173/4/3
f 175/4/3 169/4/3 168/4/3
f 177/4/3 171/4/3 170/4/3
f 178/4/3 171/4/3 177/4/3
f 180/4/3 175/4/3 174/4/3
f 180/4/3 174/4/3 173/4/3
f 180/4/3 173/4/3 172/4/3
f 181/4/3 175/4/3 180/4/3
f 182/4/3 169/4/3 175/4/3
f 182/4/3 175/4/3 181/4/3
f 183/4/3 179/4/3 178/4/3
f 183/4/3 178/4/3 177/4/3
f 183/4/3 177/4/3 176/4/3
f 184/4/3 179/4/3 183/4/3
f 185/1/4 186/1/4 187/1/4
f 187/1/4 186/1/4 188/1/4
f 189/1/4 190/1/4 191/1/4
f 191/1/4 190/1/4 192/1/4
f 193/2/4 194/2/4 196/2/4
f 194/5/4 195/5/4 197/5/4
f 196/2/4 194/2/4 197/2/4
f 197/5/4 195/5/4 198/5/4
f 196/4/4 197/4/4 199/4/4
f 197/4/4 198/4/4 199/4/4
f 199/4/4 198/4/4 200/4/4
f 200/4/4 198/4/4 201/4/4
f 201/4/4 198/4/4 202/4/4
f 202/4/4 198/4/4 203/4/4
f 203/4/4 198/4/4 204/4/4
f 196/4/4 199/4/4 205/4/4
f 205/4/4 199/4/4 206/4/4
f 200/4/4 201/4/4 207/4/4
f 207/4/4 201/4/4 208/4/4
f 202/4/4 203/4/4 209/4/4
f 209/4/4 203/4/4 210/4/4
f 204/4/4 198/4/4 211/4/4
f 198/5/4 195/5/4 212/5/4
f 211/4/4 198/4/4 212/4/4
f 213/4/4 214/4/4 220/4/4
f 220/4/4 214/4/4 221/4/4
f 215/4/4 216/4/4 222/4/4
f 222/4/4 216/4/4 223/4/4
f 217/4/4 218/4/4 224/4/4
f 224/4/4 218/4/4 225/4/4
f 212/5/4 195/5/4 226/5/4
f 224/4/4 225/4/4 227/4/4
f 225/4/4 226/4/4 227/4/4
f 222/4/4 223/4/4 227/4/4
f 220/4/4 221/4/4 227/4/4
f 223/4/4 224/4/4 227/4/4
f 219/4/4 220/4/4 227/4/4
f 221/4/4 222/4/4 227/4/4
f 227/4/4 226/4/4 228/4/4
f 226/5/4 195/5/4 229/5/4
f 228/4/4 226/4/4 229/4/4
f 227/2/4 228/2/4 230/2/4
f 228/5/4 229/5/4 231/5/4
f 230/2/4 228/2/4 231/2/4
f 229/5/4 195/5/4 232/5/4
f 231/5/4 229/5/4 232/5/4
f 237/2/5 234/2/5 233/2/5
f 240/2/5 236/2/5 235/2/5
f 241/2/5 237/2/5 233/2/5
f 242/4/5 238/4/5 237/4/5
f 242/2/5 237/2/5 241/2/5
f 243/4/5 238/4/5 242/4/5
f 244/4/5 240/4/5 239/4/5
f 245/2/5 236/2/5 240/2/5
f 245/4/5 240/4/5 244/4/5
f 246/2/5 236/2/5 245/2/5
f 249/4/5 248/4/5 247/4/5
f 250/4/5 248/4/5 249/4/5
f 253/4/5 252/4/5 251/4/5
f 254/4/5 252/4/5 253/4/5
f 257/4/5 256/4/5 255/4/5
f 258/4/5 256/4/5 257/4/5
f 263/1/5 260/1/5 259/1/5
f 264/1/5 260/1/5 263/1/5
f 265/1/5 260/1/5 264/1/5
f 266/1/5 262/1/5 261/1/5
f 267/1/5 262/1/5 266/1/5
f 270/4/5 269/4/5 268/4/5
f 271/4/5 269/4/5 270/4/5
f 274/4/5 273/4/5 272/4/5
f 275/4/5 273/4/5 274/4/5
f 278/4/5 277/4/5 276/4/5
f 279/4/5 277/4/5 278/4/5
f 282/3/5 281/3/5 280/3/5
f 283/3/5 281/3/5 282/3/5
f 284/5/5 283/5/5 282/5/5
f 285/5/5 283/5/5 284/5/5
f 286/5/5 283/5/5 285/5/5
f 287/5/5 283/5/5 286/5/5
f 288/5/5 286/5/5 285/5/5
f 289/5/5 286/5/5 288/5/5
f 292/5/5 291/5/5 290/5/5
f 293/5/5 291/5/5 292/5/5
f 294/4/6 295/4/6 296/4/6
f 296/4/6 295/4/6 297/4/6
f 298/4/6 299/4/6 300/4/6
f 300/4/6 299/4/6 301/4/6
f 302/4/6 303/4/6 304/4/6
f 304/4/6 303/4/6 305/4/6
f 306/4/6 307/4/6 308/4/6
f 308/4/6 307/4/6 309/4/6
f 310/1/6 311/1/6 314/1/6
f 314/1/6 311/1/6 315/1/6
f 312/1/6 313/1/6 316/1/6
f 316/1/6 313/1/6 317/1/6
f 317/1/6 313/1/6 318/1/6
f 319/4/6 320/4/6 321/4/6
f 321/4/6 320/4/6 322/4/6
f 323/4/6 324/4/6 325/4/6
f 325/4/6 324/4/6 326/4/6
f 327/5/6 328/5/6 329/5/6
f 329/5/6 328/5/6 330/5/6
