# MagicaVoxel @ Ephtracy

# material
mtllib BigDoorBlueClosed.mtl
usemtl palette

# normals
vn -1 0 0
vn 1 0 0
vn 0 0 1
vn 0 0 -1
vn 0 -1 0
vn 0 1 0

# texcoords
vt 0.251953 0.5
vt 0.271484 0.5
vt 0.283203 0.5
vt 0.345703 0.5
vt 0.349609 0.5
vt 0.353516 0.5
vt 0.357422 0.5

# verts
v -24 0 -3
v -24 0 -8
v -24 3 -3
v -24 3 -8
v -24 31 -2
v -24 31 -3
v -24 32 -2
v -24 32 -8
v -18 1 -5
v -18 1 -6
v -18 2 -5
v -18 2 -6
v -18 25 -5
v -18 25 -6
v -18 26 -5
v -18 26 -6
v -17 13 -5
v -17 13 -6
v -17 17 -5
v -17 17 -6
v -3 1 -5
v -3 1 -6
v -3 2 -5
v -3 2 -6
v -3 25 -5
v -3 25 -6
v -3 26 -5
v -3 26 -6
v -2 13 -4
v -2 13 -5
v -2 17 -4
v -2 17 -5
v 0 3 -6
v 0 3 -7
v 0 7 -6
v 0 7 -7
v 0 11 -6
v 0 11 -7
v 0 13 -6
v 0 14 -6
v 0 15 -6
v 0 15 -7
v 0 19 -6
v 0 19 -7
v 0 23 -6
v 0 23 -7
v 1 0 -6
v 1 0 -7
v 1 3 -6
v 1 3 -7
v 1 7 -6
v 1 7 -7
v 1 11 -6
v 1 11 -7
v 1 15 -6
v 1 15 -7
v 1 16 -6
v 1 17 -6
v 1 19 -6
v 1 19 -7
v 1 23 -6
v 1 23 -7
v 1 27 -6
v 1 27 -7
v 2 1 -5
v 2 1 -6
v 2 2 -5
v 2 2 -6
v 2 25 -5
v 2 25 -6
v 2 26 -5
v 2 26 -6
v 17 1 -5
v 17 1 -6
v 17 2 -5
v 17 2 -6
v 17 25 -5
v 17 25 -6
v 17 26 -5
v 17 26 -6
v 19 0 -3
v 19 0 -6
v 19 3 -3
v 19 3 -6
v 19 4 -3
v 19 4 -4
v 19 27 -3
v 19 27 -4
v 19 27 -6
v -19 0 -3
v -19 0 -6
v -19 3 -3
v -19 3 -6
v -19 4 -3
v -19 4 -4
v -19 27 -3
v -19 27 -4
v -19 27 -6
v -17 1 -5
v -17 1 -6
v -17 2 -5
v -17 2 -6
v -17 25 -5
v -17 25 -6
v -17 26 -5
v -17 26 -6
v -2 1 -5
v -2 1 -6
v -2 2 -5
v -2 2 -6
v -2 25 -5
v -2 25 -6
v -2 26 -5
v -2 26 -6
v -1 3 -6
v -1 3 -7
v -1 7 -6
v -1 7 -7
v -1 11 -6
v -1 11 -7
v -1 13 -6
v -1 14 -6
v -1 15 -6
v -1 15 -7
v -1 19 -6
v -1 19 -7
v -1 23 -6
v -1 23 -7
v 0 0 -6
v 0 0 -7
v 0 3 -6
v 0 3 -7
v 0 7 -6
v 0 7 -7
v 0 11 -6
v 0 11 -7
v 0 15 -6
v 0 15 -7
v 0 16 -6
v 0 17 -6
v 0 19 -6
v 0 19 -7
v 0 23 -6
v 0 23 -7
v 0 27 -6
v 0 27 -7
v 2 13 -4
v 2 13 -5
v 2 17 -4
v 2 17 -5
v 3 1 -5
v 3 1 -6
v 3 2 -5
v 3 2 -6
v 3 25 -5
v 3 25 -6
v 3 26 -5
v 3 26 -6
v 17 13 -5
v 17 13 -6
v 17 17 -5
v 17 17 -6
v 18 1 -5
v 18 1 -6
v 18 2 -5
v 18 2 -6
v 18 25 -5
v 18 25 -6
v 18 26 -5
v 18 26 -6
v 24 0 -3
v 24 0 -8
v 24 3 -3
v 24 3 -8
v 24 31 -2
v 24 31 -3
v 24 32 -2
v 24 32 -8
v -24 31 -2
v -24 32 -2
v 24 31 -2
v 24 32 -2
v -24 0 -3
v -24 3 -3
v -24 31 -3
v -22 4 -3
v -22 28 -3
v -21 4 -3
v -21 28 -3
v -20 4 -3
v -20 28 -3
v -19 0 -3
v -19 3 -3
v -19 4 -3
v -19 27 -3
v 19 0 -3
v 19 3 -3
v 19 4 -3
v 19 27 -3
v 20 4 -3
v 20 28 -3
v 21 4 -3
v 21 28 -3
v 22 4 -3
v 22 28 -3
v 24 0 -3
v 24 3 -3
v 24 31 -3
v -2 13 -4
v -2 17 -4
v 2 13 -4
v 2 17 -4
v -18 1 -5
v -18 2 -5
v -18 25 -5
v -18 26 -5
v -17 1 -5
v -17 2 -5
v -17 13 -5
v -17 17 -5
v -17 25 -5
v -17 26 -5
v -15 13 -5
v -15 17 -5
v -3 1 -5
v -3 2 -5
v -3 25 -5
v -3 26 -5
v -2 1 -5
v -2 2 -5
v -2 13 -5
v -2 17 -5
v -2 25 -5
v -2 26 -5
v 2 1 -5
v 2 2 -5
v 2 13 -5
v 2 17 -5
v 2 25 -5
v 2 26 -5
v 3 1 -5
v 3 2 -5
v 3 25 -5
v 3 26 -5
v 15 13 -5
v 15 17 -5
v 17 1 -5
v 17 2 -5
v 17 13 -5
v 17 17 -5
v 17 25 -5
v 17 26 -5
v 18 1 -5
v 18 2 -5
v 18 25 -5
v 18 26 -5
v -19 0 -6
v -19 3 -6
v -19 27 -6
v -18 1 -6
v -18 2 -6
v -18 25 -6
v -18 26 -6
v -17 1 -6
v -17 2 -6
v -17 13 -6
v -17 17 -6
v -17 25 -6
v -17 26 -6
v -15 13 -6
v -15 17 -6
v -3 1 -6
v -3 2 -6
v -3 25 -6
v -3 26 -6
v -2 1 -6
v -2 2 -6
v -2 13 -6
v -2 17 -6
v -2 25 -6
v -2 26 -6
v -1 3 -6
v -1 7 -6
v -1 11 -6
v -1 13 -6
v -1 19 -6
v -1 23 -6
v 0 0 -6
v 0 3 -6
v 0 7 -6
v 0 11 -6
v 0 13 -6
v 0 17 -6
v 0 19 -6
v 0 23 -6
v 0 27 -6
v 1 0 -6
v 1 3 -6
v 1 7 -6
v 1 11 -6
v 1 17 -6
v 1 19 -6
v 1 23 -6
v 1 27 -6
v 2 1 -6
v 2 2 -6
v 2 13 -6
v 2 17 -6
v 2 25 -6
v 2 26 -6
v 3 1 -6
v 3 2 -6
v 3 25 -6
v 3 26 -6
v 15 13 -6
v 15 17 -6
v 17 1 -6
v 17 2 -6
v 17 13 -6
v 17 17 -6
v 17 25 -6
v 17 26 -6
v 18 1 -6
v 18 2 -6
v 18 25 -6
v 18 26 -6
v 19 0 -6
v 19 3 -6
v 19 27 -6
v -1 3 -7
v -1 7 -7
v -1 11 -7
v -1 15 -7
v -1 19 -7
v -1 23 -7
v 0 0 -7
v 0 3 -7
v 0 7 -7
v 0 11 -7
v 0 15 -7
v 0 19 -7
v 0 23 -7
v 0 27 -7
v 1 0 -7
v 1 3 -7
v 1 7 -7
v 1 11 -7
v 1 15 -7
v 1 19 -7
v 1 23 -7
v 1 27 -7
v -1 13 -6
v -1 14 -6
v -1 15 -6
v 0 13 -6
v 0 14 -6
v 0 15 -6
v 0 16 -6
v 0 17 -6
v 1 15 -6
v 1 16 -6
v 1 17 -6
v -24 0 -8
v -24 3 -8
v -24 32 -8
v -19 0 -8
v -19 3 -8
v -19 27 -8
v -1 3 -8
v -1 7 -8
v -1 11 -8
v -1 15 -8
v -1 19 -8
v -1 23 -8
v 0 0 -8
v 0 3 -8
v 0 7 -8
v 0 11 -8
v 0 15 -8
v 0 19 -8
v 0 23 -8
v 0 27 -8
v 1 0 -8
v 1 3 -8
v 1 7 -8
v 1 11 -8
v 1 15 -8
v 1 19 -8
v 1 23 -8
v 1 27 -8
v 19 0 -8
v 19 3 -8
v 19 27 -8
v 24 0 -8
v 24 3 -8
v 24 32 -8
v -24 0 -3
v -19 0 -3
v 19 0 -3
v 24 0 -3
v -19 0 -6
v 0 0 -6
v 1 0 -6
v 19 0 -6
v 0 0 -7
v 1 0 -7
v -24 0 -8
v -19 0 -8
v 0 0 -8
v 1 0 -8
v 19 0 -8
v 24 0 -8
v -18 1 -5
v -17 1 -5
v -3 1 -5
v -2 1 -5
v 2 1 -5
v 3 1 -5
v 17 1 -5
v 18 1 -5
v -18 1 -6
v -17 1 -6
v -3 1 -6
v -2 1 -6
v 2 1 -6
v 3 1 -6
v 17 1 -6
v 18 1 -6
v 0 3 -6
v 1 3 -6
v 0 3 -7
v 1 3 -7
v -1 7 -6
v 0 7 -6
v -1 7 -7
v 0 7 -7
v 0 11 -6
v 1 11 -6
v 0 11 -7
v 1 11 -7
v -2 13 -4
v 2 13 -4
v -17 13 -5
v -15 13 -5
v -2 13 -5
v 2 13 -5
v 15 13 -5
v 17 13 -5
v -17 13 -6
v -15 13 -6
v -2 13 -6
v -1 13 -6
v 0 13 -6
v 2 13 -6
v 15 13 -6
v 17 13 -6
v -1 15 -6
v 0 15 -6
v -1 15 -7
v 0 15 -7
v 0 19 -6
v 1 19 -6
v 0 19 -7
v 1 19 -7
v -1 23 -6
v 0 23 -6
v -1 23 -7
v 0 23 -7
v -18 25 -5
v -17 25 -5
v -3 25 -5
v -2 25 -5
v 2 25 -5
v 3 25 -5
v 17 25 -5
v 18 25 -5
v -18 25 -6
v -17 25 -6
v -3 25 -6
v -2 25 -6
v 2 25 -6
v 3 25 -6
v 17 25 -6
v 18 25 -6
v -19 27 -3
v 19 27 -3
v -19 27 -4
v 19 27 -4
v -19 27 -6
v 0 27 -6
v 1 27 -6
v 19 27 -6
v 0 27 -7
v 1 27 -7
v -24 31 -2
v 24 31 -2
v -24 31 -3
v 24 31 -3
v -18 2 -5
v -17 2 -5
v -3 2 -5
v -2 2 -5
v 2 2 -5
v 3 2 -5
v 17 2 -5
v 18 2 -5
v -18 2 -6
v -17 2 -6
v -3 2 -6
v -2 2 -6
v 2 2 -6
v 3 2 -6
v 17 2 -6
v 18 2 -6
v -1 3 -6
v 0 3 -6
v -1 3 -7
v 0 3 -7
v 0 7 -6
v 1 7 -6
v 0 7 -7
v 1 7 -7
v -1 11 -6
v 0 11 -6
v -1 11 -7
v 0 11 -7
v 0 15 -6
v 1 15 -6
v 0 15 -7
v 1 15 -7
v -2 17 -4
v 2 17 -4
v -17 17 -5
v -15 17 -5
v -2 17 -5
v 2 17 -5
v 15 17 -5
v 17 17 -5
v -17 17 -6
v -15 17 -6
v -2 17 -6
v 0 17 -6
v 1 17 -6
v 2 17 -6
v 15 17 -6
v 17 17 -6
v -1 19 -6
v 0 19 -6
v -1 19 -7
v 0 19 -7
v 0 23 -6
v 1 23 -6
v 0 23 -7
v 1 23 -7
v -18 26 -5
v -17 26 -5
v -3 26 -5
v -2 26 -5
v 2 26 -5
v 3 26 -5
v 17 26 -5
v 18 26 -5
v -18 26 -6
v -17 26 -6
v -3 26 -6
v -2 26 -6
v 2 26 -6
v 3 26 -6
v 17 26 -6
v 18 26 -6
v -24 32 -2
v 24 32 -2
v -24 32 -8
v 24 32 -8

# faces
f 3/2/1 2/2/1 1/2/1
f 4/2/1 2/2/1 3/2/1
f 6/7/1 4/7/1 3/7/1
f 7/7/1 6/7/1 5/7/1
f 8/7/1 4/7/1 6/7/1
f 8/7/1 6/7/1 7/7/1
f 11/4/1 10/4/1 9/4/1
f 12/4/1 10/4/1 11/4/1
f 15/4/1 14/4/1 13/4/1
f 16/4/1 14/4/1 15/4/1
f 19/1/1 18/1/1 17/1/1
f 20/1/1 18/1/1 19/1/1
f 23/4/1 22/4/1 21/4/1
f 24/4/1 22/4/1 23/4/1
f 27/4/1 26/4/1 25/4/1
f 28/4/1 26/4/1 27/4/1
f 31/1/1 30/1/1 29/1/1
f 32/1/1 30/1/1 31/1/1
f 35/5/1 34/5/1 33/5/1
f 36/5/1 34/5/1 35/5/1
f 39/5/1 38/5/1 37/5/1
f 40/5/1 38/5/1 39/5/1
f 41/5/1 38/5/1 40/5/1
f 42/5/1 38/5/1 41/5/1
f 45/5/1 44/5/1 43/5/1
f 46/5/1 44/5/1 45/5/1
f 49/5/1 48/5/1 47/5/1
f 50/5/1 48/5/1 49/5/1
f 53/5/1 52/5/1 51/5/1
f 54/5/1 52/5/1 53/5/1
f 57/5/1 56/5/1 55/5/1
f 58/5/1 56/5/1 57/5/1
f 59/5/1 56/5/1 58/5/1
f 60/5/1 56/5/1 59/5/1
f 63/5/1 62/5/1 61/5/1
f 64/5/1 62/5/1 63/5/1
f 67/4/1 66/4/1 65/4/1
f 68/4/1 66/4/1 67/4/1
f 71/4/1 70/4/1 69/4/1
f 72/4/1 70/4/1 71/4/1
f 75/4/1 74/4/1 73/4/1
f 76/4/1 74/4/1 75/4/1
f 79/4/1 78/4/1 77/4/1
f 80/4/1 78/4/1 79/4/1
f 83/2/1 82/2/1 81/2/1
f 84/2/1 82/2/1 83/2/1
f 85/7/1 84/7/1 83/7/1
f 86/7/1 84/7/1 85/7/1
f 87/3/1 86/3/1 85/3/1
f 88/7/1 84/7/1 86/7/1
f 88/3/1 86/3/1 87/3/1
f 89/7/1 84/7/1 88/7/1
f 90/2/2 91/2/2 92/2/2
f 92/2/2 91/2/2 93/2/2
f 92/7/2 93/7/2 94/7/2
f 94/7/2 93/7/2 95/7/2
f 94/3/2 95/3/2 96/3/2
f 95/7/2 93/7/2 97/7/2
f 96/3/2 95/3/2 97/3/2
f 97/7/2 93/7/2 98/7/2
f 99/4/2 100/4/2 101/4/2
f 101/4/2 100/4/2 102/4/2
f 103/4/2 104/4/2 105/4/2
f 105/4/2 104/4/2 106/4/2
f 107/4/2 108/4/2 109/4/2
f 109/4/2 108/4/2 110/4/2
f 111/4/2 112/4/2 113/4/2
f 113/4/2 112/4/2 114/4/2
f 115/5/2 116/5/2 117/5/2
f 117/5/2 116/5/2 118/5/2
f 119/5/2 120/5/2 121/5/2
f 121/5/2 120/5/2 122/5/2
f 122/5/2 120/5/2 123/5/2
f 123/5/2 120/5/2 124/5/2
f 125/5/2 126/5/2 127/5/2
f 127/5/2 126/5/2 128/5/2
f 129/5/2 130/5/2 131/5/2
f 131/5/2 130/5/2 132/5/2
f 133/5/2 134/5/2 135/5/2
f 135/5/2 134/5/2 136/5/2
f 137/5/2 138/5/2 139/5/2
f 139/5/2 138/5/2 140/5/2
f 140/5/2 138/5/2 141/5/2
f 141/5/2 138/5/2 142/5/2
f 143/5/2 144/5/2 145/5/2
f 145/5/2 144/5/2 146/5/2
f 147/1/2 148/1/2 149/1/2
f 149/1/2 148/1/2 150/1/2
f 151/4/2 152/4/2 153/4/2
f 153/4/2 152/4/2 154/4/2
f 155/4/2 156/4/2 157/4/2
f 157/4/2 156/4/2 158/4/2
f 159/1/2 160/1/2 161/1/2
f 161/1/2 160/1/2 162/1/2
f 163/4/2 164/4/2 165/4/2
f 165/4/2 164/4/2 166/4/2
f 167/4/2 168/4/2 169/4/2
f 169/4/2 168/4/2 170/4/2
f 171/2/2 172/2/2 173/2/2
f 173/2/2 172/2/2 174/2/2
f 173/7/2 174/7/2 176/7/2
f 175/7/2 176/7/2 177/7/2
f 176/7/2 174/7/2 178/7/2
f 177/7/2 176/7/2 178/7/2
f 181/7/3 180/7/3 179/7/3
f 182/7/3 180/7/3 181/7/3
f 186/7/3 185/7/3 184/7/3
f 187/7/3 185/7/3 186/7/3
f 188/7/3 186/7/3 184/7/3
f 188/3/3 187/3/3 186/3/3
f 189/7/3 185/7/3 187/7/3
f 189/3/3 187/3/3 188/3/3
f 190/7/3 188/7/3 184/7/3
f 190/7/3 189/7/3 188/7/3
f 191/7/3 185/7/3 189/7/3
f 191/7/3 189/7/3 190/7/3
f 192/2/3 184/2/3 183/2/3
f 193/7/3 190/7/3 184/7/3
f 193/2/3 184/2/3 192/2/3
f 194/3/3 191/3/3 190/3/3
f 194/7/3 190/7/3 193/7/3
f 195/3/3 191/3/3 194/3/3
f 199/3/3 191/3/3 195/3/3
f 200/7/3 198/7/3 197/7/3
f 200/3/3 199/3/3 198/3/3
f 201/7/3 185/7/3 191/7/3
f 201/3/3 199/3/3 200/3/3
f 201/3/3 191/3/3 199/3/3
f 202/7/3 200/7/3 197/7/3
f 202/7/3 201/7/3 200/7/3
f 203/7/3 185/7/3 201/7/3
f 203/7/3 201/7/3 202/7/3
f 204/7/3 202/7/3 197/7/3
f 204/3/3 203/3/3 202/3/3
f 205/7/3 185/7/3 203/7/3
f 205/3/3 203/3/3 204/3/3
f 206/2/3 197/2/3 196/2/3
f 207/7/3 204/7/3 197/7/3
f 207/2/3 197/2/3 206/2/3
f 207/7/3 205/7/3 204/7/3
f 208/7/3 185/7/3 205/7/3
f 208/7/3 205/7/3 207/7/3
f 211/1/3 210/1/3 209/1/3
f 212/1/3 210/1/3 211/1/3
f 217/4/3 214/4/3 213/4/3
f 218/4/3 214/4/3 217/4/3
f 221/4/3 216/4/3 215/4/3
f 222/4/3 216/4/3 221/4/3
f 223/1/3 220/1/3 219/1/3
f 224/1/3 220/1/3 223/1/3
f 229/4/3 226/4/3 225/4/3
f 230/4/3 226/4/3 229/4/3
f 231/7/3 224/7/3 223/7/3
f 232/7/3 224/7/3 231/7/3
f 233/4/3 228/4/3 227/4/3
f 234/4/3 228/4/3 233/4/3
f 241/4/3 236/4/3 235/4/3
f 242/4/3 236/4/3 241/4/3
f 243/4/3 240/4/3 239/4/3
f 244/4/3 240/4/3 243/4/3
f 245/7/3 238/7/3 237/7/3
f 246/7/3 238/7/3 245/7/3
f 249/1/3 246/1/3 245/1/3
f 250/1/3 246/1/3 249/1/3
f 253/4/3 248/4/3 247/4/3
f 254/4/3 248/4/3 253/4/3
f 255/4/3 252/4/3 251/4/3
f 256/4/3 252/4/3 255/4/3
f 260/5/3 258/5/3 257/5/3
f 260/5/3 259/5/3 258/5/3
f 261/5/3 259/5/3 260/5/3
f 262/5/3 259/5/3 261/5/3
f 263/5/3 259/5/3 262/5/3
f 264/5/3 260/5/3 257/5/3
f 265/5/3 262/5/3 261/5/3
f 266/5/3 262/5/3 265/5/3
f 267/5/3 262/5/3 266/5/3
f 268/5/3 262/5/3 267/5/3
f 269/5/3 259/5/3 263/5/3
f 270/5/3 265/5/3 264/5/3
f 270/5/3 266/5/3 265/5/3
f 271/5/3 268/5/3 267/5/3
f 271/5/3 269/5/3 268/5/3
f 272/5/3 270/5/3 264/5/3
f 272/5/3 264/5/3 257/5/3
f 273/5/3 270/5/3 272/5/3
f 274/5/3 269/5/3 271/5/3
f 275/5/3 259/5/3 269/5/3
f 275/5/3 269/5/3 274/5/3
f 276/5/3 272/5/3 257/5/3
f 277/5/3 270/5/3 273/5/3
f 278/5/3 270/5/3 277/5/3
f 279/5/3 274/5/3 271/5/3
f 280/5/3 274/5/3 279/5/3
f 281/5/3 259/5/3 275/5/3
f 282/5/3 278/5/3 277/5/3
f 282/5/3 277/5/3 276/5/3
f 283/5/3 278/5/3 282/5/3
f 284/5/3 278/5/3 283/5/3
f 285/5/3 278/5/3 284/5/3
f 286/5/3 281/5/3 280/5/3
f 286/5/3 280/5/3 279/5/3
f 287/5/3 281/5/3 286/5/3
f 288/5/3 276/5/3 257/5/3
f 288/5/3 282/5/3 276/5/3
f 289/5/3 282/5/3 288/5/3
f 290/5/3 284/5/3 283/5/3
f 291/5/3 284/5/3 290/5/3
f 293/5/3 286/5/3 279/5/3
f 294/5/3 286/5/3 293/5/3
f 295/5/3 281/5/3 287/5/3
f 296/5/3 259/5/3 281/5/3
f 296/5/3 281/5/3 295/5/3
f 298/5/3 290/5/3 289/5/3
f 299/5/3 290/5/3 298/5/3
f 300/5/3 292/5/3 291/5/3
f 302/5/3 295/5/3 294/5/3
f 303/5/3 295/5/3 302/5/3
f 305/5/3 299/5/3 298/5/3
f 305/5/3 300/5/3 299/5/3
f 305/5/3 298/5/3 297/5/3
f 306/5/3 300/5/3 305/5/3
f 307/5/3 292/5/3 300/5/3
f 307/5/3 300/5/3 306/5/3
f 308/5/3 304/5/3 303/5/3
f 308/5/3 303/5/3 302/5/3
f 308/5/3 302/5/3 301/5/3
f 309/5/3 304/5/3 308/5/3
f 310/5/3 304/5/3 309/5/3
f 311/5/3 305/5/3 297/5/3
f 312/5/3 307/5/3 306/5/3
f 313/5/3 309/5/3 308/5/3
f 314/5/3 304/5/3 310/5/3
f 315/5/3 312/5/3 311/5/3
f 315/5/3 307/5/3 312/5/3
f 316/5/3 313/5/3 308/5/3
f 316/5/3 314/5/3 313/5/3
f 317/5/3 311/5/3 297/5/3
f 317/5/3 315/5/3 311/5/3
f 318/5/3 315/5/3 317/5/3
f 319/5/3 315/5/3 318/5/3
f 320/5/3 314/5/3 316/5/3
f 321/5/3 314/5/3 320/5/3
f 322/5/3 304/5/3 314/5/3
f 322/5/3 314/5/3 321/5/3
f 323/5/3 317/5/3 297/5/3
f 324/5/3 319/5/3 318/5/3
f 324/5/3 321/5/3 320/5/3
f 324/5/3 320/5/3 319/5/3
f 325/5/3 321/5/3 324/5/3
f 326/5/3 304/5/3 322/5/3
f 327/5/3 323/5/3 297/5/3
f 327/5/3 326/5/3 325/5/3
f 327/5/3 325/5/3 324/5/3
f 327/5/3 324/5/3 323/5/3
f 328/5/3 326/5/3 327/5/3
f 329/5/3 304/5/3 326/5/3
f 329/5/3 326/5/3 328/5/3
f 337/6/3 331/6/3 330/6/3
f 338/6/3 331/6/3 337/6/3
f 339/6/3 333/6/3 332/6/3
f 340/6/3 333/6/3 339/6/3
f 341/6/3 335/6/3 334/6/3
f 342/6/3 335/6/3 341/6/3
f 344/6/3 337/6/3 336/6/3
f 345/6/3 337/6/3 344/6/3
f 346/6/3 339/6/3 338/6/3
f 347/6/3 339/6/3 346/6/3
f 348/6/3 341/6/3 340/6/3
f 349/6/3 341/6/3 348/6/3
f 350/6/3 343/6/3 342/6/3
f 351/6/3 343/6/3 350/6/3
f 352/1/4 353/1/4 355/1/4
f 353/7/4 354/7/4 356/7/4
f 355/1/4 353/1/4 356/1/4
f 356/7/4 354/7/4 357/7/4
f 357/7/4 358/7/4 360/7/4
f 358/1/4 359/1/4 361/1/4
f 360/7/4 358/7/4 361/7/4
f 361/1/4 359/1/4 362/1/4
f 363/2/4 364/2/4 366/2/4
f 364/7/4 365/7/4 367/7/4
f 366/2/4 364/2/4 367/2/4
f 367/7/4 365/7/4 368/7/4
f 366/5/4 367/5/4 369/5/4
f 367/5/4 368/5/4 369/5/4
f 369/5/4 368/5/4 370/5/4
f 370/5/4 368/5/4 371/5/4
f 371/5/4 368/5/4 372/5/4
f 372/5/4 368/5/4 373/5/4
f 373/5/4 368/5/4 374/5/4
f 366/5/4 369/5/4 375/5/4
f 369/6/4 370/6/4 376/6/4
f 375/5/4 369/5/4 376/5/4
f 370/5/4 371/5/4 377/5/4
f 376/6/4 370/6/4 377/6/4
f 371/6/4 372/6/4 378/6/4
f 377/5/4 371/5/4 378/5/4
f 372/5/4 373/5/4 379/5/4
f 378/6/4 372/6/4 379/6/4
f 373/6/4 374/6/4 380/6/4
f 379/5/4 373/5/4 380/5/4
f 374/5/4 368/5/4 381/5/4
f 380/6/4 374/6/4 381/6/4
f 368/7/4 365/7/4 382/7/4
f 381/5/4 368/5/4 382/5/4
f 375/6/4 376/6/4 383/6/4
f 376/5/4 377/5/4 384/5/4
f 383/6/4 376/6/4 384/6/4
f 377/6/4 378/6/4 385/6/4
f 384/5/4 377/5/4 385/5/4
f 378/5/4 379/5/4 386/5/4
f 385/6/4 378/6/4 386/6/4
f 379/6/4 380/6/4 387/6/4
f 386/5/4 379/5/4 387/5/4
f 380/5/4 381/5/4 388/5/4
f 387/6/4 380/6/4 388/6/4
f 381/6/4 382/6/4 389/6/4
f 388/5/4 381/5/4 389/5/4
f 382/7/4 365/7/4 390/7/4
f 389/6/4 382/6/4 390/6/4
f 386/5/4 387/5/4 391/5/4
f 385/5/4 386/5/4 391/5/4
f 389/5/4 390/5/4 391/5/4
f 387/5/4 388/5/4 391/5/4
f 384/5/4 385/5/4 391/5/4
f 383/5/4 384/5/4 391/5/4
f 388/5/4 389/5/4 391/5/4
f 391/5/4 390/5/4 392/5/4
f 390/7/4 365/7/4 393/7/4
f 392/5/4 390/5/4 393/5/4
f 391/2/4 392/2/4 394/2/4
f 392/7/4 393/7/4 395/7/4
f 394/2/4 392/2/4 395/2/4
f 393/7/4 365/7/4 396/7/4
f 395/7/4 393/7/4 396/7/4
f 401/2/5 398/2/5 397/2/5
f 404/2/5 400/2/5 399/2/5
f 405/5/5 402/5/5 401/5/5
f 406/5/5 404/5/5 403/5/5
f 407/2/5 401/2/5 397/2/5
f 408/5/5 405/5/5 401/5/5
f 408/2/5 401/2/5 407/2/5
f 409/6/5 406/6/5 405/6/5
f 409/5/5 405/5/5 408/5/5
f 410/5/5 404/5/5 406/5/5
f 410/6/5 406/6/5 409/6/5
f 411/2/5 400/2/5 404/2/5
f 411/5/5 404/5/5 410/5/5
f 412/2/5 400/2/5 411/2/5
f 421/4/5 414/4/5 413/4/5
f 422/4/5 414/4/5 421/4/5
f 423/4/5 416/4/5 415/4/5
f 424/4/5 416/4/5 423/4/5
f 425/4/5 418/4/5 417/4/5
f 426/4/5 418/4/5 425/4/5
f 427/4/5 420/4/5 419/4/5
f 428/4/5 420/4/5 427/4/5
f 431/5/5 430/5/5 429/5/5
f 432/5/5 430/5/5 431/5/5
f 435/5/5 434/5/5 433/5/5
f 436/5/5 434/5/5 435/5/5
f 439/5/5 438/5/5 437/5/5
f 440/5/5 438/5/5 439/5/5
f 445/1/5 442/1/5 441/1/5
f 446/1/5 442/1/5 445/1/5
f 449/1/5 444/1/5 443/1/5
f 450/7/5 445/7/5 444/7/5
f 450/1/5 444/1/5 449/1/5
f 451/1/5 446/1/5 445/1/5
f 451/7/5 445/7/5 450/7/5
f 452/1/5 446/1/5 451/1/5
f 453/1/5 446/1/5 452/1/5
f 454/7/5 447/7/5 446/7/5
f 454/1/5 446/1/5 453/1/5
f 455/1/5 448/1/5 447/1/5
f 455/7/5 447/7/5 454/7/5
f 456/1/5 448/1/5 455/1/5
f 459/5/5 458/5/5 457/5/5
f 460/5/5 458/5/5 459/5/5
f 463/5/5 462/5/5 461/5/5
f 464/5/5 462/5/5 463/5/5
f 467/5/5 466/5/5 465/5/5
f 468/5/5 466/5/5 467/5/5
f 477/4/5 470/4/5 469/4/5
f 478/4/5 470/4/5 477/4/5
f 479/4/5 472/4/5 471/4/5
f 480/4/5 472/4/5 479/4/5
f 481/4/5 474/4/5 473/4/5
f 482/4/5 474/4/5 481/4/5
f 483/4/5 476/4/5 475/4/5
f 484/4/5 476/4/5 483/4/5
f 487/3/5 486/3/5 485/3/5
f 488/3/5 486/3/5 487/3/5
f 489/7/5 488/7/5 487/7/5
f 490/7/5 488/7/5 489/7/5
f 491/7/5 488/7/5 490/7/5
f 492/7/5 488/7/5 491/7/5
f 493/7/5 491/7/5 490/7/5
f 494/7/5 491/7/5 493/7/5
f 497/7/5 496/7/5 495/7/5
f 498/7/5 496/7/5 497/7/5
f 499/4/6 500/4/6 507/4/6
f 507/4/6 500/4/6 508/4/6
f 501/4/6 502/4/6 509/4/6
f 509/4/6 502/4/6 510/4/6
f 503/4/6 504/4/6 511/4/6
f 511/4/6 504/4/6 512/4/6
f 505/4/6 506/4/6 513/4/6
f 513/4/6 506/4/6 514/4/6
f 515/5/6 516/5/6 517/5/6
f 517/5/6 516/5/6 518/5/6
f 519/5/6 520/5/6 521/5/6
f 521/5/6 520/5/6 522/5/6
f 523/5/6 524/5/6 525/5/6
f 525/5/6 524/5/6 526/5/6
f 527/5/6 528/5/6 529/5/6
f 529/5/6 528/5/6 530/5/6
f 531/1/6 532/1/6 535/1/6
f 535/1/6 532/1/6 536/1/6
f 533/1/6 534/1/6 539/1/6
f 534/7/6 535/7/6 540/7/6
f 539/1/6 534/1/6 540/1/6
f 535/1/6 536/1/6 541/1/6
f 540/7/6 535/7/6 541/7/6
f 541/1/6 536/1/6 542/1/6
f 542/1/6 536/1/6 543/1/6
f 536/7/6 537/7/6 544/7/6
f 543/1/6 536/1/6 544/1/6
f 537/1/6 538/1/6 545/1/6
f 544/7/6 537/7/6 545/7/6
f 545/1/6 538/1/6 546/1/6
f 547/5/6 548/5/6 549/5/6
f 549/5/6 548/5/6 550/5/6
f 551/5/6 552/5/6 553/5/6
f 553/5/6 552/5/6 554/5/6
f 555/4/6 556/4/6 563/4/6
f 563/4/6 556/4/6 564/4/6
f 557/4/6 558/4/6 565/4/6
f 565/4/6 558/4/6 566/4/6
f 559/4/6 560/4/6 567/4/6
f 567/4/6 560/4/6 568/4/6
f 561/4/6 562/4/6 569/4/6
f 569/4/6 562/4/6 570/4/6
f 571/7/6 572/7/6 573/7/6
f 573/7/6 572/7/6 574/7/6
