# MagicaVoxel @ Ephtracy

# material
mtllib KeycardBlue.mtl
usemtl palette

# normals
vn -1 0 0
vn 1 0 0
vn 0 0 1
vn 0 0 -1
vn 0 -1 0
vn 0 1 0

# texcoords
vt 0.00195313 0.5
vt 0.251953 0.5
vt 0.291016 0.5

# verts
v -3 2 3
v -3 2 2
v -3 4 3
v -3 4 2
v -3 6 3
v -3 6 2
v -3 7 3
v -3 7 2
v -2 1 3
v -2 1 2
v -2 2 3
v -2 2 2
v -2 7 3
v -2 7 2
v -2 8 3
v -2 8 2
v 2 1 3
v 2 1 2
v 2 2 3
v 2 2 2
v 2 7 3
v 2 7 2
v 2 8 3
v 2 8 2
v 3 2 3
v 3 2 2
v 3 4 3
v 3 4 2
v 3 6 3
v 3 6 2
v 3 7 3
v 3 7 2
v -3 2 3
v -3 4 3
v -3 6 3
v -3 7 3
v -2 1 3
v -2 2 3
v -2 4 3
v -2 6 3
v -2 7 3
v -2 8 3
v 0 4 3
v 0 6 3
v 2 1 3
v 2 2 3
v 2 7 3
v 2 8 3
v 3 2 3
v 3 4 3
v 3 6 3
v 3 7 3
v -3 2 2
v -3 4 2
v -3 6 2
v -3 7 2
v -2 1 2
v -2 2 2
v -2 4 2
v -2 6 2
v -2 7 2
v -2 8 2
v 0 4 2
v 0 6 2
v 2 1 2
v 2 2 2
v 2 7 2
v 2 8 2
v 3 2 2
v 3 4 2
v 3 6 2
v 3 7 2
v -2 1 3
v 2 1 3
v -2 1 2
v 2 1 2
v -3 2 3
v -2 2 3
v 2 2 3
v 3 2 3
v -3 2 2
v -2 2 2
v 2 2 2
v 3 2 2
v -3 7 3
v -2 7 3
v 2 7 3
v 3 7 3
v -3 7 2
v -2 7 2
v 2 7 2
v 3 7 2
v -2 8 3
v 2 8 3
v -2 8 2
v 2 8 2

# faces
f 3/2/1 2/2/1 1/2/1
f 4/2/1 2/2/1 3/2/1
f 5/1/1 4/1/1 3/1/1
f 6/1/1 4/1/1 5/1/1
f 7/2/1 6/2/1 5/2/1
f 8/2/1 6/2/1 7/2/1
f 11/2/1 10/2/1 9/2/1
f 12/2/1 10/2/1 11/2/1
f 15/2/1 14/2/1 13/2/1
f 16/2/1 14/2/1 15/2/1
f 17/2/2 18/2/2 19/2/2
f 19/2/2 18/2/2 20/2/2
f 21/2/2 22/2/2 23/2/2
f 23/2/2 22/2/2 24/2/2
f 25/2/2 26/2/2 27/2/2
f 27/2/2 26/2/2 28/2/2
f 27/1/2 28/1/2 29/1/2
f 29/1/2 28/1/2 30/1/2
f 29/2/2 30/2/2 31/2/2
f 31/2/2 30/2/2 32/2/2
f 38/2/3 34/2/3 33/2/3
f 39/1/3 35/1/3 34/1/3
f 39/2/3 34/2/3 38/2/3
f 40/2/3 36/2/3 35/2/3
f 40/1/3 35/1/3 39/1/3
f 41/2/3 36/2/3 40/2/3
f 43/2/3 39/2/3 38/2/3
f 43/2/3 38/2/3 37/2/3
f 43/3/3 40/3/3 39/3/3
f 44/2/3 42/2/3 41/2/3
f 44/3/3 40/3/3 43/3/3
f 44/2/3 41/2/3 40/2/3
f 45/2/3 43/2/3 37/2/3
f 46/2/3 43/2/3 45/2/3
f 47/2/3 42/2/3 44/2/3
f 48/2/3 42/2/3 47/2/3
f 49/2/3 43/2/3 46/2/3
f 50/1/3 44/1/3 43/1/3
f 50/2/3 43/2/3 49/2/3
f 51/2/3 47/2/3 44/2/3
f 51/1/3 44/1/3 50/1/3
f 52/2/3 47/2/3 51/2/3
f 53/2/4 54/2/4 58/2/4
f 54/1/4 55/1/4 59/1/4
f 58/2/4 54/2/4 59/2/4
f 55/2/4 56/2/4 60/2/4
f 59/1/4 55/1/4 60/1/4
f 60/2/4 56/2/4 61/2/4
f 58/2/4 59/2/4 63/2/4
f 57/2/4 58/2/4 63/2/4
f 59/3/4 60/3/4 63/3/4
f 61/2/4 62/2/4 64/2/4
f 63/3/4 60/3/4 64/3/4
f 60/2/4 61/2/4 64/2/4
f 57/2/4 63/2/4 65/2/4
f 65/2/4 63/2/4 66/2/4
f 64/2/4 62/2/4 67/2/4
f 67/2/4 62/2/4 68/2/4
f 66/2/4 63/2/4 69/2/4
f 63/1/4 64/1/4 70/1/4
f 69/2/4 63/2/4 70/2/4
f 64/2/4 67/2/4 71/2/4
f 70/1/4 64/1/4 71/1/4
f 71/2/4 67/2/4 72/2/4
f 75/2/5 74/2/5 73/2/5
f 76/2/5 74/2/5 75/2/5
f 81/2/5 78/2/5 77/2/5
f 82/2/5 78/2/5 81/2/5
f 83/2/5 80/2/5 79/2/5
f 84/2/5 80/2/5 83/2/5
f 85/2/6 86/2/6 89/2/6
f 89/2/6 86/2/6 90/2/6
f 87/2/6 88/2/6 91/2/6
f 91/2/6 88/2/6 92/2/6
f 93/2/6 94/2/6 95/2/6
f 95/2/6 94/2/6 96/2/6
