# MagicaVoxel @ Ephtracy

# material
mtllib BigTable.mtl
usemtl palette

# normals
vn -1 0 0
vn 1 0 0
vn 0 0 1
vn 0 0 -1
vn 0 -1 0
vn 0 1 0

# texcoords
vt 0.275391 0.5
vt 0.283203 0.5
vt 0.306641 0.5

# verts
v -12 7 9
v -12 7 -9
v -12 8 9
v -12 8 -9
v -11 0 8
v -11 0 5
v -11 0 -5
v -11 0 -8
v -11 1 8
v -11 1 5
v -11 1 -5
v -11 1 -8
v -10 1 7
v -10 1 5
v -10 1 -5
v -10 1 -7
v -10 7 7
v -10 7 5
v -10 7 -5
v -10 7 -7
v 8 0 8
v 8 0 5
v 8 0 -5
v 8 0 -8
v 8 1 8
v 8 1 7
v 8 1 -7
v 8 1 -8
v 8 7 7
v 8 7 5
v 8 7 -5
v 8 7 -7
v -8 0 8
v -8 0 5
v -8 0 -5
v -8 0 -8
v -8 1 8
v -8 1 7
v -8 1 -7
v -8 1 -8
v -8 7 7
v -8 7 6
v -8 7 5
v -8 7 -5
v -8 7 -7
v 10 1 7
v 10 1 5
v 10 1 -5
v 10 1 -7
v 10 7 7
v 10 7 5
v 10 7 -5
v 10 7 -7
v 11 0 8
v 11 0 5
v 11 0 -5
v 11 0 -8
v 11 1 8
v 11 1 5
v 11 1 -5
v 11 1 -8
v 12 7 9
v 12 7 -9
v 12 8 9
v 12 8 -9
v -12 7 9
v -12 8 9
v 12 7 9
v 12 8 9
v -11 0 8
v -11 1 8
v -8 0 8
v -8 1 8
v 8 0 8
v 8 1 8
v 11 0 8
v 11 1 8
v -10 1 7
v -10 7 7
v -8 1 7
v -8 7 7
v 8 1 7
v 8 7 7
v 10 1 7
v 10 7 7
v -11 0 -5
v -11 1 -5
v -10 1 -5
v -10 7 -5
v -8 0 -5
v -8 7 -5
v 8 0 -5
v 8 7 -5
v 10 1 -5
v 10 7 -5
v 11 0 -5
v 11 1 -5
v -11 0 5
v -11 1 5
v -10 1 5
v -10 7 5
v -8 0 5
v -8 7 5
v 8 0 5
v 8 7 5
v 10 1 5
v 10 7 5
v 11 0 5
v 11 1 5
v -10 1 -7
v -10 7 -7
v -8 1 -7
v -8 7 -7
v 8 1 -7
v 8 7 -7
v 10 1 -7
v 10 7 -7
v -11 0 -8
v -11 1 -8
v -8 0 -8
v -8 1 -8
v 8 0 -8
v 8 1 -8
v 11 0 -8
v 11 1 -8
v -12 7 -9
v -12 8 -9
v 12 7 -9
v 12 8 -9
v -11 0 8
v -8 0 8
v 8 0 8
v 11 0 8
v -11 0 5
v -8 0 5
v 8 0 5
v 11 0 5
v -11 0 -5
v -8 0 -5
v 8 0 -5
v 11 0 -5
v -11 0 -8
v -8 0 -8
v 8 0 -8
v 11 0 -8
v -12 7 9
v 12 7 9
v -11 7 8
v 11 7 8
v -10 7 7
v -8 7 7
v -2 7 7
v 6 7 7
v 8 7 7
v 10 7 7
v -8 7 6
v -2 7 6
v 6 7 6
v -10 7 5
v -8 7 5
v -2 7 5
v 8 7 5
v 10 7 5
v 1 7 2
v 5 7 2
v -3 7 1
v 1 7 1
v 5 7 1
v 9 7 1
v -3 7 -0
v 1 7 -0
v 5 7 -0
v 9 7 -0
v 1 7 -1
v 5 7 -1
v -9 7 -3
v -5 7 -3
v -9 7 -4
v -5 7 -4
v -1 7 -4
v 2 7 -4
v 5 7 -4
v 6 7 -4
v 8 7 -4
v -10 7 -5
v -8 7 -5
v -5 7 -5
v -1 7 -5
v 2 7 -5
v 5 7 -5
v 6 7 -5
v 8 7 -5
v 10 7 -5
v -10 7 -7
v -8 7 -7
v 8 7 -7
v 10 7 -7
v -11 7 -8
v 11 7 -8
v -12 7 -9
v 12 7 -9
v -11 1 8
v -8 1 8
v 8 1 8
v 11 1 8
v -10 1 7
v -8 1 7
v 8 1 7
v 10 1 7
v -11 1 5
v -10 1 5
v 10 1 5
v 11 1 5
v -11 1 -5
v -10 1 -5
v 10 1 -5
v 11 1 -5
v -10 1 -7
v -8 1 -7
v 8 1 -7
v 10 1 -7
v -11 1 -8
v -8 1 -8
v 8 1 -8
v 11 1 -8
v -12 8 9
v 12 8 9
v -11 8 8
v 11 8 8
v -2 8 7
v 6 8 7
v -10 8 6
v -2 8 6
v 6 8 6
v -10 8 5
v -2 8 5
v 1 8 2
v 5 8 2
v -3 8 1
v 1 8 1
v 5 8 1
v 9 8 1
v -3 8 -0
v 1 8 -0
v 5 8 -0
v 9 8 -0
v 1 8 -1
v 5 8 -1
v -9 8 -3
v -5 8 -3
v -9 8 -4
v -5 8 -4
v -1 8 -4
v 2 8 -4
v 5 8 -4
v 6 8 -4
v 8 8 -4
v -5 8 -5
v -1 8 -5
v 2 8 -5
v 5 8 -5
v 6 8 -5
v 8 8 -5
v -11 8 -8
v 11 8 -8
v -12 8 -9
v 12 8 -9

# faces
f 3/2/1 2/2/1 1/2/1
f 4/2/1 2/2/1 3/2/1
f 9/3/1 6/3/1 5/3/1
f 10/3/1 6/3/1 9/3/1
f 11/3/1 8/3/1 7/3/1
f 12/3/1 8/3/1 11/3/1
f 17/3/1 14/3/1 13/3/1
f 18/3/1 14/3/1 17/3/1
f 19/3/1 16/3/1 15/3/1
f 20/3/1 16/3/1 19/3/1
f 25/3/1 22/3/1 21/3/1
f 26/3/1 22/3/1 25/3/1
f 27/3/1 24/3/1 23/3/1
f 28/3/1 24/3/1 27/3/1
f 29/3/1 22/3/1 26/3/1
f 30/3/1 22/3/1 29/3/1
f 31/3/1 27/3/1 23/3/1
f 32/3/1 27/3/1 31/3/1
f 33/3/2 34/3/2 37/3/2
f 37/3/2 34/3/2 38/3/2
f 35/3/2 36/3/2 39/3/2
f 39/3/2 36/3/2 40/3/2
f 38/3/2 34/3/2 41/3/2
f 41/3/2 34/3/2 42/3/2
f 42/3/2 34/3/2 43/3/2
f 35/3/2 39/3/2 44/3/2
f 44/3/2 39/3/2 45/3/2
f 46/3/2 47/3/2 50/3/2
f 50/3/2 47/3/2 51/3/2
f 48/3/2 49/3/2 52/3/2
f 52/3/2 49/3/2 53/3/2
f 54/3/2 55/3/2 58/3/2
f 58/3/2 55/3/2 59/3/2
f 56/3/2 57/3/2 60/3/2
f 60/3/2 57/3/2 61/3/2
f 62/2/2 63/2/2 64/2/2
f 64/2/2 63/2/2 65/2/2
f 68/2/3 67/2/3 66/2/3
f 69/2/3 67/2/3 68/2/3
f 72/3/3 71/3/3 70/3/3
f 73/3/3 71/3/3 72/3/3
f 76/3/3 75/3/3 74/3/3
f 77/3/3 75/3/3 76/3/3
f 80/3/3 79/3/3 78/3/3
f 81/3/3 79/3/3 80/3/3
f 84/3/3 83/3/3 82/3/3
f 85/3/3 83/3/3 84/3/3
f 88/3/3 87/3/3 86/3/3
f 90/3/3 88/3/3 86/3/3
f 90/3/3 89/3/3 88/3/3
f 91/3/3 89/3/3 90/3/3
f 94/3/3 93/3/3 92/3/3
f 95/3/3 93/3/3 94/3/3
f 96/3/3 94/3/3 92/3/3
f 97/3/3 94/3/3 96/3/3
f 98/3/4 99/3/4 100/3/4
f 98/3/4 100/3/4 102/3/4
f 100/3/4 101/3/4 102/3/4
f 102/3/4 101/3/4 103/3/4
f 104/3/4 105/3/4 106/3/4
f 106/3/4 105/3/4 107/3/4
f 104/3/4 106/3/4 108/3/4
f 108/3/4 106/3/4 109/3/4
f 110/3/4 111/3/4 112/3/4
f 112/3/4 111/3/4 113/3/4
f 114/3/4 115/3/4 116/3/4
f 116/3/4 115/3/4 117/3/4
f 118/3/4 119/3/4 120/3/4
f 120/3/4 119/3/4 121/3/4
f 122/3/4 123/3/4 124/3/4
f 124/3/4 123/3/4 125/3/4
f 126/2/4 127/2/4 128/2/4
f 128/2/4 127/2/4 129/2/4
f 134/3/5 131/3/5 130/3/5
f 135/3/5 131/3/5 134/3/5
f 136/3/5 133/3/5 132/3/5
f 137/3/5 133/3/5 136/3/5
f 142/3/5 139/3/5 138/3/5
f 143/3/5 139/3/5 142/3/5
f 144/3/5 141/3/5 140/3/5
f 145/3/5 141/3/5 144/3/5
f 148/2/5 147/2/5 146/2/5
f 149/2/5 147/2/5 148/2/5
f 150/3/5 149/3/5 148/3/5
f 151/3/5 149/3/5 150/3/5
f 152/3/5 149/3/5 151/3/5
f 153/3/5 149/3/5 152/3/5
f 154/3/5 149/3/5 153/3/5
f 155/3/5 149/3/5 154/3/5
f 156/3/5 152/3/5 151/3/5
f 157/1/5 153/1/5 152/1/5
f 157/3/5 152/3/5 156/3/5
f 158/3/5 154/3/5 153/3/5
f 158/1/5 153/1/5 157/1/5
f 159/3/5 150/3/5 148/3/5
f 160/1/5 157/1/5 156/1/5
f 161/3/5 158/3/5 157/3/5
f 161/1/5 157/1/5 160/1/5
f 162/3/5 154/3/5 158/3/5
f 162/3/5 158/3/5 161/3/5
f 163/3/5 149/3/5 155/3/5
f 164/3/5 161/3/5 160/3/5
f 164/3/5 163/3/5 162/3/5
f 164/3/5 162/3/5 161/3/5
f 164/3/5 160/3/5 159/3/5
f 165/3/5 163/3/5 164/3/5
f 166/3/5 164/3/5 159/3/5
f 167/1/5 165/1/5 164/1/5
f 167/3/5 164/3/5 166/3/5
f 168/3/5 163/3/5 165/3/5
f 168/1/5 165/1/5 167/1/5
f 169/3/5 163/3/5 168/3/5
f 170/1/5 167/1/5 166/1/5
f 170/3/5 166/3/5 159/3/5
f 171/3/5 168/3/5 167/3/5
f 171/1/5 167/1/5 170/1/5
f 172/1/5 169/1/5 168/1/5
f 172/3/5 168/3/5 171/3/5
f 173/3/5 163/3/5 169/3/5
f 173/1/5 169/1/5 172/1/5
f 174/1/5 172/1/5 171/1/5
f 174/3/5 171/3/5 170/3/5
f 175/3/5 173/3/5 172/3/5
f 175/1/5 172/1/5 174/1/5
f 176/3/5 174/3/5 170/3/5
f 176/3/5 170/3/5 159/3/5
f 176/3/5 175/3/5 174/3/5
f 177/3/5 175/3/5 176/3/5
f 178/3/5 176/3/5 159/3/5
f 178/1/5 177/1/5 176/1/5
f 179/3/5 175/3/5 177/3/5
f 179/1/5 177/1/5 178/1/5
f 180/3/5 175/3/5 179/3/5
f 181/3/5 175/3/5 180/3/5
f 182/3/5 173/3/5 175/3/5
f 182/3/5 175/3/5 181/3/5
f 183/3/5 173/3/5 182/3/5
f 184/3/5 173/3/5 183/3/5
f 185/3/5 159/3/5 148/3/5
f 185/3/5 178/3/5 159/3/5
f 185/3/5 179/3/5 178/3/5
f 186/3/5 179/3/5 185/3/5
f 187/1/5 180/1/5 179/1/5
f 187/3/5 179/3/5 186/3/5
f 188/3/5 181/3/5 180/3/5
f 188/1/5 180/1/5 187/1/5
f 189/1/5 182/1/5 181/1/5
f 189/3/5 181/3/5 188/3/5
f 190/3/5 183/3/5 182/3/5
f 190/1/5 182/1/5 189/1/5
f 191/1/5 184/1/5 183/1/5
f 191/3/5 183/3/5 190/3/5
f 192/3/5 173/3/5 184/3/5
f 192/1/5 184/1/5 191/1/5
f 193/3/5 149/3/5 163/3/5
f 193/3/5 173/3/5 192/3/5
f 193/3/5 163/3/5 173/3/5
f 194/3/5 185/3/5 148/3/5
f 195/3/5 192/3/5 191/3/5
f 195/3/5 191/3/5 190/3/5
f 195/3/5 188/3/5 187/3/5
f 195/3/5 189/3/5 188/3/5
f 195/3/5 190/3/5 189/3/5
f 195/3/5 187/3/5 186/3/5
f 196/3/5 192/3/5 195/3/5
f 197/3/5 149/3/5 193/3/5
f 198/2/5 148/2/5 146/2/5
f 198/3/5 197/3/5 196/3/5
f 198/3/5 194/3/5 148/3/5
f 198/3/5 196/3/5 195/3/5
f 198/3/5 195/3/5 194/3/5
f 199/3/5 149/3/5 197/3/5
f 199/3/5 197/3/5 198/3/5
f 199/2/5 147/2/5 149/2/5
f 200/2/5 198/2/5 146/2/5
f 200/2/5 199/2/5 198/2/5
f 201/2/5 147/2/5 199/2/5
f 201/2/5 199/2/5 200/2/5
f 202/3/6 203/3/6 206/3/6
f 206/3/6 203/3/6 207/3/6
f 204/3/6 205/3/6 208/3/6
f 208/3/6 205/3/6 209/3/6
f 202/3/6 206/3/6 210/3/6
f 210/3/6 206/3/6 211/3/6
f 209/3/6 205/3/6 212/3/6
f 212/3/6 205/3/6 213/3/6
f 214/3/6 215/3/6 218/3/6
f 216/3/6 217/3/6 221/3/6
f 218/3/6 219/3/6 222/3/6
f 214/3/6 218/3/6 222/3/6
f 222/3/6 219/3/6 223/3/6
f 220/3/6 221/3/6 224/3/6
f 221/3/6 217/3/6 225/3/6
f 224/3/6 221/3/6 225/3/6
f 226/2/6 227/2/6 228/2/6
f 228/2/6 227/2/6 229/2/6
f 228/3/6 229/3/6 230/3/6
f 230/3/6 229/3/6 231/3/6
f 228/3/6 230/3/6 232/3/6
f 230/1/6 231/1/6 233/1/6
f 232/3/6 230/3/6 233/3/6
f 231/3/6 229/3/6 234/3/6
f 233/1/6 231/1/6 234/1/6
f 232/1/6 233/1/6 235/1/6
f 228/3/6 232/3/6 235/3/6
f 233/3/6 234/3/6 236/3/6
f 235/1/6 233/1/6 236/1/6
f 235/3/6 236/3/6 237/3/6
f 236/3/6 234/3/6 237/3/6
f 237/3/6 234/3/6 238/3/6
f 235/3/6 237/3/6 239/3/6
f 237/1/6 238/1/6 240/1/6
f 239/3/6 237/3/6 240/3/6
f 238/3/6 234/3/6 241/3/6
f 240/1/6 238/1/6 241/1/6
f 234/3/6 229/3/6 242/3/6
f 241/3/6 234/3/6 242/3/6
f 239/1/6 240/1/6 243/1/6
f 235/3/6 239/3/6 243/3/6
f 240/3/6 241/3/6 244/3/6
f 243/1/6 240/1/6 244/1/6
f 241/1/6 242/1/6 245/1/6
f 244/3/6 241/3/6 245/3/6
f 242/3/6 229/3/6 246/3/6
f 245/1/6 242/1/6 246/1/6
f 244/1/6 245/1/6 247/1/6
f 243/3/6 244/3/6 247/3/6
f 245/3/6 246/3/6 248/3/6
f 247/1/6 245/1/6 248/1/6
f 235/3/6 243/3/6 249/3/6
f 243/3/6 247/3/6 249/3/6
f 247/3/6 248/3/6 249/3/6
f 249/3/6 248/3/6 250/3/6
f 235/3/6 249/3/6 251/3/6
f 249/1/6 250/1/6 251/1/6
f 250/3/6 248/3/6 252/3/6
f 251/1/6 250/1/6 252/1/6
f 252/3/6 248/3/6 253/3/6
f 253/3/6 248/3/6 254/3/6
f 248/3/6 246/3/6 255/3/6
f 254/3/6 248/3/6 255/3/6
f 255/3/6 246/3/6 256/3/6
f 256/3/6 246/3/6 257/3/6
f 251/3/6 252/3/6 258/3/6
f 252/1/6 253/1/6 258/1/6
f 253/3/6 254/3/6 259/3/6
f 258/1/6 253/1/6 259/1/6
f 254/1/6 255/1/6 260/1/6
f 259/3/6 254/3/6 260/3/6
f 255/3/6 256/3/6 261/3/6
f 260/1/6 255/1/6 261/1/6
f 256/1/6 257/1/6 262/1/6
f 261/3/6 256/3/6 262/3/6
f 257/3/6 246/3/6 263/3/6
f 262/1/6 257/1/6 263/1/6
f 226/2/6 228/2/6 264/2/6
f 251/3/6 258/3/6 264/3/6
f 262/3/6 263/3/6 264/3/6
f 259/3/6 260/3/6 264/3/6
f 258/3/6 259/3/6 264/3/6
f 260/3/6 261/3/6 264/3/6
f 261/3/6 262/3/6 264/3/6
f 235/3/6 251/3/6 264/3/6
f 228/3/6 235/3/6 264/3/6
f 263/3/6 246/3/6 265/3/6
f 264/3/6 263/3/6 265/3/6
f 229/2/6 227/2/6 265/2/6
f 246/3/6 229/3/6 265/3/6
f 226/2/6 264/2/6 266/2/6
f 264/2/6 265/2/6 266/2/6
f 265/2/6 227/2/6 267/2/6
f 266/2/6 265/2/6 267/2/6
