# MagicaVoxel @ Ephtracy

# material
mtllib Sink.mtl
usemtl palette

# normals
vn -1 0 0
vn 1 0 0
vn 0 0 1
vn 0 0 -1
vn 0 -1 0
vn 0 1 0

# texcoords
vt 0.00195313 0.5
vt 0.259766 0.5
vt 0.283203 0.5

# verts
v -6 11 1
v -6 11 -6
v -6 12 1
v -6 12 -6
v -5 10 1
v -5 10 -6
v -5 11 2
v -5 11 1
v -5 11 -6
v -5 12 2
v -5 12 1
v -4 9 1
v -4 9 -6
v -4 10 2
v -4 10 1
v -4 10 -6
v -4 11 3
v -4 11 2
v -4 11 1
v -4 12 3
v -4 12 2
v -3 9 2
v -3 9 1
v -3 10 3
v -3 10 2
v -3 10 1
v -3 11 4
v -3 11 3
v -3 11 2
v -3 12 4
v -3 12 3
v -3 12 -5
v -3 12 -6
v -3 15 -3
v -3 15 -4
v -3 16 -3
v -3 16 -4
v -3 16 -5
v -3 16 -6
v -3 17 -4
v -3 17 -5
v -1 8 -3
v -1 8 -4
v -1 9 -3
v -1 9 -4
v 1 9 -3
v 1 9 -4
v 1 10 -3
v 1 10 -4
v 2 12 -5
v 2 12 -6
v 2 15 -3
v 2 15 -4
v 2 16 -3
v 2 16 -4
v 2 16 -5
v 2 16 -6
v 2 17 -4
v 2 17 -5
v 3 10 2
v 3 10 1
v 3 11 3
v 3 11 2
v 3 11 1
v 3 12 3
v 3 12 2
v 4 10 1
v 4 10 -5
v 4 11 2
v 4 11 1
v 4 11 -5
v 4 12 2
v 4 12 1
v 5 11 1
v 5 11 -5
v 5 12 1
v 5 12 -5
v -5 11 1
v -5 11 -5
v -5 12 1
v -5 12 -5
v -4 10 1
v -4 10 -5
v -4 11 2
v -4 11 1
v -4 11 -5
v -4 12 2
v -4 12 1
v -3 10 2
v -3 10 1
v -3 11 3
v -3 11 2
v -3 11 1
v -3 12 3
v -3 12 2
v -2 12 -5
v -2 12 -6
v -2 15 -3
v -2 15 -4
v -2 16 -3
v -2 16 -4
v -2 16 -5
v -2 16 -6
v -2 17 -4
v -2 17 -5
v -1 9 -3
v -1 9 -4
v -1 10 -3
v -1 10 -4
v 1 8 -3
v 1 8 -4
v 1 9 -3
v 1 9 -4
v 3 9 2
v 3 9 1
v 3 10 3
v 3 10 2
v 3 10 1
v 3 11 4
v 3 11 3
v 3 11 2
v 3 12 4
v 3 12 3
v 3 12 -5
v 3 12 -6
v 3 15 -3
v 3 15 -4
v 3 16 -3
v 3 16 -4
v 3 16 -5
v 3 16 -6
v 3 17 -4
v 3 17 -5
v 4 9 1
v 4 9 -6
v 4 10 2
v 4 10 1
v 4 10 -6
v 4 11 3
v 4 11 2
v 4 11 1
v 4 12 3
v 4 12 2
v 5 10 1
v 5 10 -6
v 5 11 2
v 5 11 1
v 5 11 -6
v 5 12 2
v 5 12 1
v 6 11 1
v 6 11 -6
v 6 12 1
v 6 12 -6
v -3 11 4
v -3 12 4
v 3 11 4
v 3 12 4
v -4 11 3
v -4 12 3
v -3 10 3
v -3 11 3
v -3 12 3
v 3 10 3
v 3 11 3
v 3 12 3
v 4 11 3
v 4 12 3
v -5 11 2
v -5 12 2
v -4 10 2
v -4 11 2
v -4 12 2
v -3 9 2
v -3 10 2
v -3 11 2
v 3 9 2
v 3 10 2
v 3 11 2
v 4 10 2
v 4 11 2
v 4 12 2
v 5 11 2
v 5 12 2
v -6 11 1
v -6 12 1
v -5 10 1
v -5 11 1
v -5 12 1
v -4 9 1
v -4 10 1
v -4 11 1
v -3 9 1
v -3 10 1
v 3 9 1
v 3 10 1
v 4 9 1
v 4 10 1
v 4 11 1
v 5 10 1
v 5 11 1
v 5 12 1
v 6 11 1
v 6 12 1
v -3 15 -3
v -3 16 -3
v -2 15 -3
v -2 16 -3
v -1 8 -3
v -1 9 -3
v 1 8 -3
v 1 9 -3
v 2 15 -3
v 2 16 -3
v 3 15 -3
v 3 16 -3
v -3 16 -4
v -3 17 -4
v -2 16 -4
v -2 17 -4
v -1 9 -4
v -1 10 -4
v 1 9 -4
v 1 10 -4
v 2 16 -4
v 2 17 -4
v 3 16 -4
v 3 17 -4
v -5 11 -5
v -5 12 -5
v -4 10 -5
v -4 11 -5
v -3 12 -5
v -3 16 -5
v -2 12 -5
v -2 16 -5
v 2 12 -5
v 2 16 -5
v 3 12 -5
v 3 16 -5
v 4 10 -5
v 4 11 -5
v 5 11 -5
v 5 12 -5
v -3 11 3
v -3 12 3
v 3 11 3
v 3 12 3
v -4 11 2
v -4 12 2
v -3 10 2
v -3 11 2
v -3 12 2
v 3 10 2
v 3 11 2
v 3 12 2
v 4 11 2
v 4 12 2
v -5 11 1
v -5 12 1
v -4 10 1
v -4 11 1
v -4 12 1
v -3 10 1
v -3 11 1
v 3 10 1
v 3 11 1
v 4 10 1
v 4 11 1
v 4 12 1
v 5 11 1
v 5 12 1
v -1 9 -3
v -1 10 -3
v 1 9 -3
v 1 10 -3
v -3 15 -4
v -3 16 -4
v -2 15 -4
v -2 16 -4
v -1 8 -4
v -1 9 -4
v 1 8 -4
v 1 9 -4
v 2 15 -4
v 2 16 -4
v 3 15 -4
v 3 16 -4
v -3 16 -5
v -3 17 -5
v -2 16 -5
v -2 17 -5
v 2 16 -5
v 2 17 -5
v 3 16 -5
v 3 17 -5
v -6 11 -6
v -6 12 -6
v -5 10 -6
v -5 11 -6
v -4 9 -6
v -4 10 -6
v -3 12 -6
v -3 16 -6
v -2 12 -6
v -2 16 -6
v 2 12 -6
v 2 16 -6
v 3 12 -6
v 3 16 -6
v 4 9 -6
v 4 10 -6
v 5 10 -6
v 5 11 -6
v 6 11 -6
v 6 12 -6
v -1 8 -3
v 1 8 -3
v -1 8 -4
v 1 8 -4
v -3 9 2
v 3 9 2
v -4 9 1
v -3 9 1
v 3 9 1
v 4 9 1
v -1 9 -3
v 1 9 -3
v -1 9 -4
v 1 9 -4
v -4 9 -6
v 4 9 -6
v -3 10 3
v 3 10 3
v -4 10 2
v -3 10 2
v 3 10 2
v 4 10 2
v -5 10 1
v -4 10 1
v -3 10 1
v 3 10 1
v 4 10 1
v 5 10 1
v -5 10 -6
v -4 10 -6
v 4 10 -6
v 5 10 -6
v -3 11 4
v 3 11 4
v -4 11 3
v -3 11 3
v 3 11 3
v 4 11 3
v -5 11 2
v -4 11 2
v -3 11 2
v 3 11 2
v 4 11 2
v 5 11 2
v -6 11 1
v -5 11 1
v -4 11 1
v 4 11 1
v 5 11 1
v 6 11 1
v -6 11 -6
v -5 11 -6
v 5 11 -6
v 6 11 -6
v -3 15 -3
v -2 15 -3
v 2 15 -3
v 3 15 -3
v -3 15 -4
v -2 15 -4
v 2 15 -4
v 3 15 -4
v -3 16 -4
v -2 16 -4
v 2 16 -4
v 3 16 -4
v -3 16 -5
v -2 16 -5
v 2 16 -5
v 3 16 -5
v -1 9 -3
v 1 9 -3
v -1 9 -4
v 1 9 -4
v -3 10 2
v 3 10 2
v -4 10 1
v -3 10 1
v 3 10 1
v 4 10 1
v -1 10 -3
v 1 10 -3
v -1 10 -4
v 1 10 -4
v -4 10 -5
v 4 10 -5
v -3 11 3
v 3 11 3
v -4 11 2
v -3 11 2
v 3 11 2
v 4 11 2
v -5 11 1
v -4 11 1
v -3 11 1
v 3 11 1
v 4 11 1
v 5 11 1
v -5 11 -5
v -4 11 -5
v 4 11 -5
v 5 11 -5
v -3 12 4
v 3 12 4
v -4 12 3
v -3 12 3
v 3 12 3
v 4 12 3
v -5 12 2
v -4 12 2
v -3 12 2
v 3 12 2
v 4 12 2
v 5 12 2
v -6 12 1
v -5 12 1
v -4 12 1
v 4 12 1
v 5 12 1
v 6 12 1
v -5 12 -5
v -3 12 -5
v -2 12 -5
v 2 12 -5
v 3 12 -5
v 5 12 -5
v -6 12 -6
v -3 12 -6
v -2 12 -6
v 2 12 -6
v 3 12 -6
v 6 12 -6
v -3 16 -3
v -2 16 -3
v 2 16 -3
v 3 16 -3
v -3 16 -4
v -2 16 -4
v 2 16 -4
v 3 16 -4
v -3 16 -5
v -2 16 -5
v 2 16 -5
v 3 16 -5
v -3 16 -6
v -2 16 -6
v 2 16 -6
v 3 16 -6
v -3 17 -4
v -2 17 -4
v 2 17 -4
v 3 17 -4
v -3 17 -5
v -2 17 -5
v 2 17 -5
v 3 17 -5

# faces
f 3/1/1 2/1/1 1/1/1
f 4/1/1 2/1/1 3/1/1
f 8/1/1 6/1/1 5/1/1
f 9/1/1 6/1/1 8/1/1
f 10/1/1 8/1/1 7/1/1
f 11/1/1 8/1/1 10/1/1
f 15/1/1 13/1/1 12/1/1
f 16/1/1 13/1/1 15/1/1
f 18/1/1 15/1/1 14/1/1
f 19/1/1 15/1/1 18/1/1
f 20/1/1 18/1/1 17/1/1
f 21/1/1 18/1/1 20/1/1
f 25/1/1 23/1/1 22/1/1
f 26/1/1 23/1/1 25/1/1
f 28/1/1 25/1/1 24/1/1
f 29/1/1 25/1/1 28/1/1
f 30/1/1 28/1/1 27/1/1
f 31/1/1 28/1/1 30/1/1
f 36/3/1 35/3/1 34/3/1
f 37/3/1 35/3/1 36/3/1
f 38/3/1 33/3/1 32/3/1
f 39/3/1 33/3/1 38/3/1
f 40/3/1 38/3/1 37/3/1
f 41/3/1 38/3/1 40/3/1
f 44/2/1 43/2/1 42/2/1
f 45/2/1 43/2/1 44/2/1
f 48/1/1 47/1/1 46/1/1
f 49/1/1 47/1/1 48/1/1
f 54/3/1 53/3/1 52/3/1
f 55/3/1 53/3/1 54/3/1
f 56/3/1 51/3/1 50/3/1
f 57/3/1 51/3/1 56/3/1
f 58/3/1 56/3/1 55/3/1
f 59/3/1 56/3/1 58/3/1
f 63/1/1 61/1/1 60/1/1
f 64/1/1 61/1/1 63/1/1
f 65/1/1 63/1/1 62/1/1
f 66/1/1 63/1/1 65/1/1
f 70/1/1 68/1/1 67/1/1
f 71/1/1 68/1/1 70/1/1
f 72/1/1 70/1/1 69/1/1
f 73/1/1 70/1/1 72/1/1
f 76/1/1 75/1/1 74/1/1
f 77/1/1 75/1/1 76/1/1
f 78/1/2 79/1/2 80/1/2
f 80/1/2 79/1/2 81/1/2
f 82/1/2 83/1/2 85/1/2
f 85/1/2 83/1/2 86/1/2
f 84/1/2 85/1/2 87/1/2
f 87/1/2 85/1/2 88/1/2
f 89/1/2 90/1/2 92/1/2
f 92/1/2 90/1/2 93/1/2
f 91/1/2 92/1/2 94/1/2
f 94/1/2 92/1/2 95/1/2
f 98/3/2 99/3/2 100/3/2
f 100/3/2 99/3/2 101/3/2
f 96/3/2 97/3/2 102/3/2
f 102/3/2 97/3/2 103/3/2
f 101/3/2 102/3/2 104/3/2
f 104/3/2 102/3/2 105/3/2
f 106/1/2 107/1/2 108/1/2
f 108/1/2 107/1/2 109/1/2
f 110/2/2 111/2/2 112/2/2
f 112/2/2 111/2/2 113/2/2
f 114/1/2 115/1/2 117/1/2
f 117/1/2 115/1/2 118/1/2
f 116/1/2 117/1/2 120/1/2
f 120/1/2 117/1/2 121/1/2
f 119/1/2 120/1/2 122/1/2
f 122/1/2 120/1/2 123/1/2
f 126/3/2 127/3/2 128/3/2
f 128/3/2 127/3/2 129/3/2
f 124/3/2 125/3/2 130/3/2
f 130/3/2 125/3/2 131/3/2
f 129/3/2 130/3/2 132/3/2
f 132/3/2 130/3/2 133/3/2
f 134/1/2 135/1/2 137/1/2
f 137/1/2 135/1/2 138/1/2
f 136/1/2 137/1/2 140/1/2
f 140/1/2 137/1/2 141/1/2
f 139/1/2 140/1/2 142/1/2
f 142/1/2 140/1/2 143/1/2
f 144/1/2 145/1/2 147/1/2
f 147/1/2 145/1/2 148/1/2
f 146/1/2 147/1/2 149/1/2
f 149/1/2 147/1/2 150/1/2
f 151/1/2 152/1/2 153/1/2
f 153/1/2 152/1/2 154/1/2
f 157/1/3 156/1/3 155/1/3
f 158/1/3 156/1/3 157/1/3
f 162/1/3 160/1/3 159/1/3
f 163/1/3 160/1/3 162/1/3
f 164/1/3 162/1/3 161/1/3
f 165/1/3 162/1/3 164/1/3
f 167/1/3 166/1/3 165/1/3
f 168/1/3 166/1/3 167/1/3
f 172/1/3 170/1/3 169/1/3
f 173/1/3 170/1/3 172/1/3
f 175/1/3 172/1/3 171/1/3
f 176/1/3 172/1/3 175/1/3
f 177/1/3 175/1/3 174/1/3
f 178/1/3 175/1/3 177/1/3
f 180/1/3 179/1/3 178/1/3
f 181/1/3 179/1/3 180/1/3
f 183/1/3 182/1/3 181/1/3
f 184/1/3 182/1/3 183/1/3
f 188/1/3 186/1/3 185/1/3
f 189/1/3 186/1/3 188/1/3
f 191/1/3 188/1/3 187/1/3
f 192/1/3 188/1/3 191/1/3
f 193/1/3 191/1/3 190/1/3
f 194/1/3 191/1/3 193/1/3
f 197/1/3 196/1/3 195/1/3
f 198/1/3 196/1/3 197/1/3
f 200/1/3 199/1/3 198/1/3
f 201/1/3 199/1/3 200/1/3
f 203/1/3 202/1/3 201/1/3
f 204/1/3 202/1/3 203/1/3
f 207/3/3 206/3/3 205/3/3
f 208/3/3 206/3/3 207/3/3
f 211/2/3 210/2/3 209/2/3
f 212/2/3 210/2/3 211/2/3
f 215/3/3 214/3/3 213/3/3
f 216/3/3 214/3/3 215/3/3
f 219/3/3 218/3/3 217/3/3
f 220/3/3 218/3/3 219/3/3
f 223/1/3 222/1/3 221/1/3
f 224/1/3 222/1/3 223/1/3
f 227/3/3 226/3/3 225/3/3
f 228/3/3 226/3/3 227/3/3
f 232/1/3 230/1/3 229/1/3
f 233/1/3 230/1/3 232/1/3
f 233/1/3 232/1/3 231/1/3
f 235/1/3 233/1/3 231/1/3
f 235/3/3 234/3/3 233/3/3
f 236/3/3 234/3/3 235/3/3
f 237/1/3 235/1/3 231/1/3
f 239/1/3 237/1/3 231/1/3
f 239/3/3 238/3/3 237/3/3
f 240/3/3 238/3/3 239/3/3
f 241/1/3 239/1/3 231/1/3
f 242/1/3 239/1/3 241/1/3
f 243/1/3 239/1/3 242/1/3
f 244/1/3 239/1/3 243/1/3
f 245/1/4 246/1/4 247/1/4
f 247/1/4 246/1/4 248/1/4
f 249/1/4 250/1/4 252/1/4
f 252/1/4 250/1/4 253/1/4
f 251/1/4 252/1/4 254/1/4
f 254/1/4 252/1/4 255/1/4
f 255/1/4 256/1/4 257/1/4
f 257/1/4 256/1/4 258/1/4
f 259/1/4 260/1/4 262/1/4
f 262/1/4 260/1/4 263/1/4
f 261/1/4 262/1/4 264/1/4
f 264/1/4 262/1/4 265/1/4
f 266/1/4 267/1/4 268/1/4
f 268/1/4 267/1/4 269/1/4
f 269/1/4 270/1/4 271/1/4
f 271/1/4 270/1/4 272/1/4
f 273/1/4 274/1/4 275/1/4
f 275/1/4 274/1/4 276/1/4
f 277/3/4 278/3/4 279/3/4
f 279/3/4 278/3/4 280/3/4
f 281/2/4 282/2/4 283/2/4
f 283/2/4 282/2/4 284/2/4
f 285/3/4 286/3/4 287/3/4
f 287/3/4 286/3/4 288/3/4
f 289/3/4 290/3/4 291/3/4
f 291/3/4 290/3/4 292/3/4
f 293/3/4 294/3/4 295/3/4
f 295/3/4 294/3/4 296/3/4
f 297/1/4 298/1/4 300/1/4
f 299/1/4 300/1/4 302/1/4
f 300/1/4 298/1/4 303/1/4
f 301/1/4 302/1/4 303/1/4
f 302/1/4 300/1/4 303/1/4
f 301/1/4 303/1/4 305/1/4
f 303/3/4 304/3/4 305/3/4
f 305/3/4 304/3/4 306/3/4
f 301/1/4 305/1/4 307/1/4
f 301/1/4 307/1/4 309/1/4
f 307/3/4 308/3/4 309/3/4
f 309/3/4 308/3/4 310/3/4
f 301/1/4 309/1/4 311/1/4
f 311/1/4 309/1/4 312/1/4
f 312/1/4 309/1/4 313/1/4
f 313/1/4 309/1/4 314/1/4
f 314/1/4 309/1/4 315/1/4
f 315/1/4 309/1/4 316/1/4
f 319/2/5 318/2/5 317/2/5
f 320/2/5 318/2/5 319/2/5
f 324/1/5 322/1/5 321/1/5
f 325/1/5 322/1/5 324/1/5
f 327/1/5 324/1/5 323/1/5
f 327/1/5 326/1/5 325/1/5
f 327/1/5 325/1/5 324/1/5
f 328/1/5 326/1/5 327/1/5
f 329/1/5 327/1/5 323/1/5
f 330/1/5 326/1/5 328/1/5
f 331/1/5 329/1/5 323/1/5
f 331/1/5 330/1/5 329/1/5
f 332/1/5 326/1/5 330/1/5
f 332/1/5 330/1/5 331/1/5
f 336/1/5 334/1/5 333/1/5
f 337/1/5 334/1/5 336/1/5
f 340/1/5 336/1/5 335/1/5
f 341/1/5 336/1/5 340/1/5
f 342/1/5 338/1/5 337/1/5
f 343/1/5 338/1/5 342/1/5
f 345/1/5 340/1/5 339/1/5
f 346/1/5 340/1/5 345/1/5
f 347/1/5 344/1/5 343/1/5
f 348/1/5 344/1/5 347/1/5
f 352/1/5 350/1/5 349/1/5
f 353/1/5 350/1/5 352/1/5
f 356/1/5 352/1/5 351/1/5
f 357/1/5 352/1/5 356/1/5
f 358/1/5 354/1/5 353/1/5
f 359/1/5 354/1/5 358/1/5
f 362/1/5 356/1/5 355/1/5
f 363/1/5 356/1/5 362/1/5
f 364/1/5 360/1/5 359/1/5
f 365/1/5 360/1/5 364/1/5
f 367/1/5 362/1/5 361/1/5
f 368/1/5 362/1/5 367/1/5
f 369/1/5 366/1/5 365/1/5
f 370/1/5 366/1/5 369/1/5
f 375/3/5 372/3/5 371/3/5
f 376/3/5 372/3/5 375/3/5
f 377/3/5 374/3/5 373/3/5
f 378/3/5 374/3/5 377/3/5
f 383/3/5 380/3/5 379/3/5
f 384/3/5 380/3/5 383/3/5
f 385/3/5 382/3/5 381/3/5
f 386/3/5 382/3/5 385/3/5
f 387/2/6 388/2/6 389/2/6
f 389/2/6 388/2/6 390/2/6
f 391/1/6 392/1/6 394/1/6
f 394/1/6 392/1/6 395/1/6
f 393/1/6 394/1/6 397/1/6
f 395/1/6 396/1/6 397/1/6
f 394/1/6 395/1/6 397/1/6
f 397/1/6 396/1/6 398/1/6
f 393/1/6 397/1/6 399/1/6
f 398/1/6 396/1/6 400/1/6
f 393/1/6 399/1/6 401/1/6
f 399/1/6 400/1/6 401/1/6
f 400/1/6 396/1/6 402/1/6
f 401/1/6 400/1/6 402/1/6
f 403/1/6 404/1/6 406/1/6
f 406/1/6 404/1/6 407/1/6
f 405/1/6 406/1/6 410/1/6
f 410/1/6 406/1/6 411/1/6
f 407/1/6 408/1/6 412/1/6
f 412/1/6 408/1/6 413/1/6
f 409/1/6 410/1/6 415/1/6
f 415/1/6 410/1/6 416/1/6
f 413/1/6 414/1/6 417/1/6
f 417/1/6 414/1/6 418/1/6
f 419/1/6 420/1/6 422/1/6
f 422/1/6 420/1/6 423/1/6
f 421/1/6 422/1/6 426/1/6
f 426/1/6 422/1/6 427/1/6
f 423/1/6 424/1/6 428/1/6
f 428/1/6 424/1/6 429/1/6
f 425/1/6 426/1/6 432/1/6
f 432/1/6 426/1/6 433/1/6
f 429/1/6 430/1/6 434/1/6
f 434/1/6 430/1/6 435/1/6
f 431/1/6 432/1/6 437/1/6
f 435/1/6 436/1/6 442/1/6
f 431/1/6 437/1/6 443/1/6
f 437/1/6 438/1/6 443/1/6
f 443/1/6 438/1/6 444/1/6
f 439/1/6 440/1/6 445/1/6
f 445/1/6 440/1/6 446/1/6
f 441/1/6 442/1/6 447/1/6
f 442/1/6 436/1/6 448/1/6
f 447/1/6 442/1/6 448/1/6
f 449/3/6 450/3/6 453/3/6
f 453/3/6 450/3/6 454/3/6
f 451/3/6 452/3/6 455/3/6
f 455/3/6 452/3/6 456/3/6
f 457/3/6 458/3/6 461/3/6
f 461/3/6 458/3/6 462/3/6
f 459/3/6 460/3/6 463/3/6
f 463/3/6 460/3/6 464/3/6
f 465/3/6 466/3/6 469/3/6
f 469/3/6 466/3/6 470/3/6
f 467/3/6 468/3/6 471/3/6
f 471/3/6 468/3/6 472/3/6
