# MagicaVoxel @ Ephtracy

# material
mtllib CabinetVeryBig.mtl
usemtl palette

# normals
vn -1 0 0
vn 1 0 0
vn 0 0 1
vn 0 0 -1
vn 0 -1 0
vn 0 1 0

# texcoords
vt 0.275391 0.5
vt 0.283203 0.5
vt 0.306641 0.5

# verts
v -10 0 1
v -10 0 -1
v -10 0 -6
v -10 0 -8
v -10 1 1
v -10 1 -1
v -10 1 -6
v -10 1 -8
v -9 1 -0
v -9 1 -1
v -9 1 -6
v -9 1 -8
v -9 2 -0
v -9 2 -8
v -9 21 -0
v -9 21 -8
v -9 22 -0
v -9 22 -8
v -8 2 -1
v -8 2 -8
v -8 21 -1
v -8 21 -8
v -5 9 -0
v -5 9 -1
v -5 10 -0
v -5 10 -1
v -1 9 -0
v -1 9 -1
v -1 10 -0
v -1 10 -1
v 3 9 -0
v 3 9 -1
v 3 10 -0
v 3 10 -1
v 8 0 1
v 8 0 -1
v 8 0 -6
v 8 0 -8
v 8 1 1
v 8 1 -0
v 8 1 -1
v 8 1 -6
v 8 1 -8
v -8 0 1
v -8 0 -1
v -8 0 -6
v -8 0 -8
v -8 1 1
v -8 1 -0
v -8 1 -1
v -8 1 -6
v -8 1 -8
v -3 9 -0
v -3 9 -1
v -3 10 -0
v -3 10 -1
v 1 9 -0
v 1 9 -1
v 1 10 -0
v 1 10 -1
v 5 9 -0
v 5 9 -1
v 5 10 -0
v 5 10 -1
v 8 2 -1
v 8 2 -8
v 8 21 -1
v 8 21 -8
v 9 1 -0
v 9 1 -1
v 9 1 -6
v 9 1 -8
v 9 2 -0
v 9 2 -8
v 9 21 -0
v 9 21 -8
v 9 22 -0
v 9 22 -8
v 10 0 1
v 10 0 -1
v 10 0 -6
v 10 0 -8
v 10 1 1
v 10 1 -1
v 10 1 -6
v 10 1 -8
v -10 0 1
v -10 1 1
v -8 0 1
v -8 1 1
v 8 0 1
v 8 1 1
v 10 0 1
v 10 1 1
v -9 1 -0
v -9 2 -0
v -9 21 -0
v -9 22 -0
v -8 1 -0
v -5 9 -0
v -5 10 -0
v -3 9 -0
v -3 10 -0
v -1 9 -0
v -1 10 -0
v 1 9 -0
v 1 10 -0
v 3 9 -0
v 3 10 -0
v 5 9 -0
v 5 10 -0
v 8 1 -0
v 9 1 -0
v 9 2 -0
v 9 21 -0
v 9 22 -0
v -8 2 -1
v -8 21 -1
v -7 3 -1
v -7 20 -1
v -6 4 -1
v -6 14 -1
v -6 15 -1
v -6 19 -1
v -5 9 -1
v -5 10 -1
v -4 4 -1
v -4 8 -1
v -4 11 -1
v -4 14 -1
v -4 15 -1
v -4 19 -1
v -3 3 -1
v -3 8 -1
v -3 9 -1
v -3 10 -1
v -3 11 -1
v -3 20 -1
v -2 3 -1
v -2 8 -1
v -2 11 -1
v -2 20 -1
v -1 4 -1
v -1 8 -1
v -1 9 -1
v -1 10 -1
v -1 11 -1
v -1 14 -1
v -1 15 -1
v -1 19 -1
v 1 4 -1
v 1 8 -1
v 1 9 -1
v 1 10 -1
v 1 11 -1
v 1 14 -1
v 1 15 -1
v 1 19 -1
v 2 3 -1
v 2 8 -1
v 2 11 -1
v 2 20 -1
v 3 3 -1
v 3 8 -1
v 3 9 -1
v 3 10 -1
v 3 11 -1
v 3 20 -1
v 4 4 -1
v 4 8 -1
v 4 11 -1
v 4 14 -1
v 4 15 -1
v 4 19 -1
v 5 9 -1
v 5 10 -1
v 6 4 -1
v 6 14 -1
v 6 15 -1
v 6 19 -1
v 7 3 -1
v 7 20 -1
v 8 2 -1
v 8 21 -1
v -10 0 -6
v -10 1 -6
v -9 1 -6
v -8 0 -6
v -8 1 -6
v 8 0 -6
v 8 1 -6
v 9 1 -6
v 10 0 -6
v 10 1 -6
v -10 0 -1
v -10 1 -1
v -9 1 -1
v -8 0 -1
v -8 1 -1
v 8 0 -1
v 8 1 -1
v 9 1 -1
v 10 0 -1
v 10 1 -1
v -10 0 -8
v -10 1 -8
v -9 1 -8
v -9 2 -8
v -9 21 -8
v -9 22 -8
v -8 0 -8
v -8 1 -8
v -8 2 -8
v -8 21 -8
v 8 0 -8
v 8 1 -8
v 8 2 -8
v 8 21 -8
v 9 1 -8
v 9 2 -8
v 9 21 -8
v 9 22 -8
v 10 0 -8
v 10 1 -8
v -10 0 1
v -8 0 1
v 8 0 1
v 10 0 1
v -10 0 -1
v -8 0 -1
v 8 0 -1
v 10 0 -1
v -10 0 -6
v -8 0 -6
v 8 0 -6
v 10 0 -6
v -10 0 -8
v -8 0 -8
v 8 0 -8
v 10 0 -8
v -8 1 -0
v 8 1 -0
v -9 1 -1
v -8 1 -1
v 8 1 -1
v 9 1 -1
v -9 1 -6
v -8 1 -6
v 8 1 -6
v 9 1 -6
v -8 1 -8
v 8 1 -8
v -5 9 -0
v -3 9 -0
v -1 9 -0
v 1 9 -0
v 3 9 -0
v 5 9 -0
v -5 9 -1
v -3 9 -1
v -1 9 -1
v 1 9 -1
v 3 9 -1
v 5 9 -1
v -9 21 -0
v 9 21 -0
v -8 21 -1
v 8 21 -1
v -9 21 -8
v -8 21 -8
v 8 21 -8
v 9 21 -8
v -10 1 1
v -8 1 1
v 8 1 1
v 10 1 1
v -9 1 -0
v -8 1 -0
v 8 1 -0
v 9 1 -0
v -10 1 -1
v -9 1 -1
v 9 1 -1
v 10 1 -1
v -10 1 -6
v -9 1 -6
v 9 1 -6
v 10 1 -6
v -10 1 -8
v -9 1 -8
v 9 1 -8
v 10 1 -8
v -9 2 -0
v 9 2 -0
v -8 2 -1
v 8 2 -1
v -9 2 -8
v -8 2 -8
v 8 2 -8
v 9 2 -8
v -5 10 -0
v -3 10 -0
v -1 10 -0
v 1 10 -0
v 3 10 -0
v 5 10 -0
v -5 10 -1
v -3 10 -1
v -1 10 -1
v 1 10 -1
v 3 10 -1
v 5 10 -1
v -9 22 -0
v 9 22 -0
v -9 22 -8
v 9 22 -8

# faces
f 5/2/1 2/2/1 1/2/1
f 6/2/1 2/2/1 5/2/1
f 7/2/1 4/2/1 3/2/1
f 8/2/1 4/2/1 7/2/1
f 13/1/1 10/1/1 9/1/1
f 13/1/1 12/1/1 11/1/1
f 13/1/1 11/1/1 10/1/1
f 14/1/1 12/1/1 13/1/1
f 17/1/1 16/1/1 15/1/1
f 18/1/1 16/1/1 17/1/1
f 21/3/1 20/3/1 19/3/1
f 22/3/1 20/3/1 21/3/1
f 25/2/1 24/2/1 23/2/1
f 26/2/1 24/2/1 25/2/1
f 29/2/1 28/2/1 27/2/1
f 30/2/1 28/2/1 29/2/1
f 33/2/1 32/2/1 31/2/1
f 34/2/1 32/2/1 33/2/1
f 39/2/1 36/2/1 35/2/1
f 40/2/1 36/2/1 39/2/1
f 41/2/1 36/2/1 40/2/1
f 42/2/1 38/2/1 37/2/1
f 43/2/1 38/2/1 42/2/1
f 44/2/2 45/2/2 48/2/2
f 48/2/2 45/2/2 49/2/2
f 49/2/2 45/2/2 50/2/2
f 46/2/2 47/2/2 51/2/2
f 51/2/2 47/2/2 52/2/2
f 53/2/2 54/2/2 55/2/2
f 55/2/2 54/2/2 56/2/2
f 57/2/2 58/2/2 59/2/2
f 59/2/2 58/2/2 60/2/2
f 61/2/2 62/2/2 63/2/2
f 63/2/2 62/2/2 64/2/2
f 65/3/2 66/3/2 67/3/2
f 67/3/2 66/3/2 68/3/2
f 69/1/2 70/1/2 73/1/2
f 71/1/2 72/1/2 73/1/2
f 70/1/2 71/1/2 73/1/2
f 73/1/2 72/1/2 74/1/2
f 75/1/2 76/1/2 77/1/2
f 77/1/2 76/1/2 78/1/2
f 79/2/2 80/2/2 83/2/2
f 83/2/2 80/2/2 84/2/2
f 81/2/2 82/2/2 85/2/2
f 85/2/2 82/2/2 86/2/2
f 89/2/3 88/2/3 87/2/3
f 90/2/3 88/2/3 89/2/3
f 93/2/3 92/2/3 91/2/3
f 94/2/3 92/2/3 93/2/3
f 99/1/3 96/1/3 95/1/3
f 102/2/3 101/2/3 100/2/3
f 103/2/3 101/2/3 102/2/3
f 106/2/3 105/2/3 104/2/3
f 107/2/3 105/2/3 106/2/3
f 110/2/3 109/2/3 108/2/3
f 111/2/3 109/2/3 110/2/3
f 112/1/3 96/1/3 99/1/3
f 113/1/3 96/1/3 112/1/3
f 114/1/3 96/1/3 113/1/3
f 115/1/3 98/1/3 97/1/3
f 116/1/3 98/1/3 115/1/3
f 119/3/3 118/3/3 117/3/3
f 120/3/3 118/3/3 119/3/3
f 121/1/3 120/1/3 119/1/3
f 122/1/3 120/1/3 121/1/3
f 123/1/3 120/1/3 122/1/3
f 124/1/3 120/1/3 123/1/3
f 125/3/3 122/3/3 121/3/3
f 126/3/3 122/3/3 125/3/3
f 127/1/3 121/1/3 119/1/3
f 127/3/3 125/3/3 121/3/3
f 128/3/3 125/3/3 127/3/3
f 129/3/3 122/3/3 126/3/3
f 130/1/3 123/1/3 122/1/3
f 130/3/3 122/3/3 129/3/3
f 131/3/3 124/3/3 123/3/3
f 131/1/3 123/1/3 130/1/3
f 132/1/3 120/1/3 124/1/3
f 132/3/3 124/3/3 131/3/3
f 133/3/3 119/3/3 117/3/3
f 133/1/3 127/1/3 119/1/3
f 133/1/3 128/1/3 127/1/3
f 134/3/3 125/3/3 128/3/3
f 134/1/3 128/1/3 133/1/3
f 135/3/3 125/3/3 134/3/3
f 136/3/3 129/3/3 126/3/3
f 137/1/3 131/1/3 130/1/3
f 137/1/3 130/1/3 129/1/3
f 137/3/3 129/3/3 136/3/3
f 137/1/3 132/1/3 131/1/3
f 138/1/3 120/1/3 132/1/3
f 138/1/3 132/1/3 137/1/3
f 138/3/3 118/3/3 120/3/3
f 139/3/3 137/3/3 136/3/3
f 139/3/3 134/3/3 133/3/3
f 139/3/3 138/3/3 137/3/3
f 139/3/3 133/3/3 117/3/3
f 139/3/3 135/3/3 134/3/3
f 139/3/3 136/3/3 135/3/3
f 140/3/3 138/3/3 139/3/3
f 141/3/3 138/3/3 140/3/3
f 142/3/3 118/3/3 138/3/3
f 142/3/3 138/3/3 141/3/3
f 143/1/3 140/1/3 139/1/3
f 144/3/3 141/3/3 140/3/3
f 144/1/3 140/1/3 143/1/3
f 145/3/3 141/3/3 144/3/3
f 146/3/3 141/3/3 145/3/3
f 147/1/3 142/1/3 141/1/3
f 147/3/3 141/3/3 146/3/3
f 148/1/3 142/1/3 147/1/3
f 149/1/3 142/1/3 148/1/3
f 150/1/3 142/1/3 149/1/3
f 151/1/3 143/1/3 139/1/3
f 151/3/3 144/3/3 143/3/3
f 151/3/3 145/3/3 144/3/3
f 152/3/3 145/3/3 151/3/3
f 153/3/3 145/3/3 152/3/3
f 154/3/3 148/3/3 147/3/3
f 154/3/3 147/3/3 146/3/3
f 155/3/3 148/3/3 154/3/3
f 156/1/3 149/1/3 148/1/3
f 156/3/3 148/3/3 155/3/3
f 157/3/3 150/3/3 149/3/3
f 157/1/3 149/1/3 156/1/3
f 158/1/3 142/1/3 150/1/3
f 158/3/3 150/3/3 157/3/3
f 159/3/3 139/3/3 117/3/3
f 159/1/3 152/1/3 151/1/3
f 159/1/3 151/1/3 139/1/3
f 160/3/3 155/3/3 154/3/3
f 160/1/3 152/1/3 159/1/3
f 160/3/3 153/3/3 152/3/3
f 160/3/3 154/3/3 153/3/3
f 161/1/3 157/1/3 156/1/3
f 161/3/3 155/3/3 160/3/3
f 161/1/3 156/1/3 155/1/3
f 161/1/3 158/1/3 157/1/3
f 162/1/3 142/1/3 158/1/3
f 162/1/3 158/1/3 161/1/3
f 162/3/3 118/3/3 142/3/3
f 163/3/3 160/3/3 159/3/3
f 163/3/3 161/3/3 160/3/3
f 163/3/3 162/3/3 161/3/3
f 163/3/3 159/3/3 117/3/3
f 164/3/3 162/3/3 163/3/3
f 165/3/3 162/3/3 164/3/3
f 166/3/3 162/3/3 165/3/3
f 167/3/3 162/3/3 166/3/3
f 168/3/3 118/3/3 162/3/3
f 168/3/3 162/3/3 167/3/3
f 169/1/3 164/1/3 163/1/3
f 170/3/3 165/3/3 164/3/3
f 170/1/3 164/1/3 169/1/3
f 171/3/3 167/3/3 166/3/3
f 171/1/3 168/1/3 167/1/3
f 172/1/3 168/1/3 171/1/3
f 173/1/3 168/1/3 172/1/3
f 174/1/3 168/1/3 173/1/3
f 175/3/3 165/3/3 170/3/3
f 175/3/3 170/3/3 169/3/3
f 176/3/3 171/3/3 166/3/3
f 176/3/3 172/3/3 171/3/3
f 177/1/3 169/1/3 163/1/3
f 177/3/3 176/3/3 175/3/3
f 177/3/3 175/3/3 169/3/3
f 178/3/3 172/3/3 176/3/3
f 178/3/3 176/3/3 177/3/3
f 178/1/3 173/1/3 172/1/3
f 179/3/3 174/3/3 173/3/3
f 179/1/3 173/1/3 178/1/3
f 180/1/3 168/1/3 174/1/3
f 180/3/3 174/3/3 179/3/3
f 181/1/3 179/1/3 178/1/3
f 181/3/3 163/3/3 117/3/3
f 181/1/3 180/1/3 179/1/3
f 181/1/3 177/1/3 163/1/3
f 181/1/3 178/1/3 177/1/3
f 182/1/3 168/1/3 180/1/3
f 182/1/3 180/1/3 181/1/3
f 182/3/3 118/3/3 168/3/3
f 183/3/3 181/3/3 117/3/3
f 183/3/3 182/3/3 181/3/3
f 184/3/3 118/3/3 182/3/3
f 184/3/3 182/3/3 183/3/3
f 187/2/3 186/2/3 185/2/3
f 188/2/3 187/2/3 185/2/3
f 189/2/3 187/2/3 188/2/3
f 192/2/3 191/2/3 190/2/3
f 193/2/3 192/2/3 190/2/3
f 194/2/3 192/2/3 193/2/3
f 195/2/4 196/2/4 197/2/4
f 195/2/4 197/2/4 198/2/4
f 198/2/4 197/2/4 199/2/4
f 200/2/4 201/2/4 202/2/4
f 200/2/4 202/2/4 203/2/4
f 203/2/4 202/2/4 204/2/4
f 205/2/4 206/2/4 207/2/4
f 205/2/4 207/2/4 211/2/4
f 207/1/4 208/1/4 212/1/4
f 211/2/4 207/2/4 212/2/4
f 212/1/4 208/1/4 213/1/4
f 209/1/4 210/1/4 214/1/4
f 212/1/4 213/1/4 216/1/4
f 213/3/4 214/3/4 217/3/4
f 216/1/4 213/1/4 217/1/4
f 214/1/4 210/1/4 218/1/4
f 217/3/4 214/3/4 218/3/4
f 216/1/4 217/1/4 219/1/4
f 215/2/4 216/2/4 219/2/4
f 219/1/4 217/1/4 220/1/4
f 218/1/4 210/1/4 221/1/4
f 221/1/4 210/1/4 222/1/4
f 215/2/4 219/2/4 223/2/4
f 223/2/4 219/2/4 224/2/4
f 229/2/5 226/2/5 225/2/5
f 230/2/5 226/2/5 229/2/5
f 231/2/5 228/2/5 227/2/5
f 232/2/5 228/2/5 231/2/5
f 237/2/5 234/2/5 233/2/5
f 238/2/5 234/2/5 237/2/5
f 239/2/5 236/2/5 235/2/5
f 240/2/5 236/2/5 239/2/5
f 244/1/5 242/1/5 241/1/5
f 245/1/5 242/1/5 244/1/5
f 247/1/5 244/1/5 243/1/5
f 247/1/5 246/1/5 245/1/5
f 247/1/5 245/1/5 244/1/5
f 248/1/5 246/1/5 247/1/5
f 249/1/5 246/1/5 248/1/5
f 250/1/5 246/1/5 249/1/5
f 251/1/5 249/1/5 248/1/5
f 252/1/5 249/1/5 251/1/5
f 259/2/5 254/2/5 253/2/5
f 260/2/5 254/2/5 259/2/5
f 261/2/5 256/2/5 255/2/5
f 262/2/5 256/2/5 261/2/5
f 263/2/5 258/2/5 257/2/5
f 264/2/5 258/2/5 263/2/5
f 267/1/5 266/1/5 265/1/5
f 268/1/5 266/1/5 267/1/5
f 269/1/5 267/1/5 265/1/5
f 270/1/5 267/1/5 269/1/5
f 271/1/5 266/1/5 268/1/5
f 272/1/5 266/1/5 271/1/5
f 273/2/6 274/2/6 277/2/6
f 277/2/6 274/2/6 278/2/6
f 275/2/6 276/2/6 279/2/6
f 279/2/6 276/2/6 280/2/6
f 273/2/6 277/2/6 281/2/6
f 281/2/6 277/2/6 282/2/6
f 280/2/6 276/2/6 283/2/6
f 283/2/6 276/2/6 284/2/6
f 285/2/6 286/2/6 289/2/6
f 289/2/6 286/2/6 290/2/6
f 287/2/6 288/2/6 291/2/6
f 291/2/6 288/2/6 292/2/6
f 293/1/6 294/1/6 295/1/6
f 295/1/6 294/1/6 296/1/6
f 293/1/6 295/1/6 297/1/6
f 297/1/6 295/1/6 298/1/6
f 296/1/6 294/1/6 299/1/6
f 299/1/6 294/1/6 300/1/6
f 301/2/6 302/2/6 307/2/6
f 307/2/6 302/2/6 308/2/6
f 303/2/6 304/2/6 309/2/6
f 309/2/6 304/2/6 310/2/6
f 305/2/6 306/2/6 311/2/6
f 311/2/6 306/2/6 312/2/6
f 313/1/6 314/1/6 315/1/6
f 315/1/6 314/1/6 316/1/6
