# MagicaVoxel @ Ephtracy

# material
mtllib CabinetSmallWide.mtl
usemtl palette

# normals
vn -1 0 0
vn 1 0 0
vn 0 0 1
vn 0 0 -1
vn 0 -1 0
vn 0 1 0

# texcoords
vt 0.275391 0.5
vt 0.283203 0.5
vt 0.306641 0.5

# verts
v -11 0 2
v -11 0 -0
v -11 0 -4
v -11 0 -6
v -11 1 2
v -11 1 -0
v -11 1 -4
v -11 1 -6
v -10 1 1
v -10 1 -0
v -10 1 -4
v -10 1 -6
v -10 2 1
v -10 2 -6
v -10 7 1
v -10 7 -6
v -10 8 1
v -10 8 -6
v -9 2 -0
v -9 2 -6
v -9 7 -0
v -9 7 -6
v -6 4 1
v -6 4 -0
v -6 5 1
v -6 5 -0
v 3 4 1
v 3 4 -0
v 3 5 1
v 3 5 -0
v 9 0 2
v 9 0 -0
v 9 0 -4
v 9 0 -6
v 9 1 2
v 9 1 1
v 9 1 -0
v 9 1 -4
v 9 1 -6
v -9 0 2
v -9 0 -0
v -9 0 -4
v -9 0 -6
v -9 1 2
v -9 1 1
v -9 1 -0
v -9 1 -4
v -9 1 -6
v -3 4 1
v -3 4 -0
v -3 5 1
v -3 5 -0
v 6 4 1
v 6 4 -0
v 6 5 1
v 6 5 -0
v 9 2 -0
v 9 2 -6
v 9 7 -0
v 9 7 -6
v 10 1 1
v 10 1 -0
v 10 1 -4
v 10 1 -6
v 10 2 1
v 10 2 -6
v 10 7 1
v 10 7 -6
v 10 8 1
v 10 8 -6
v 11 0 2
v 11 0 -0
v 11 0 -4
v 11 0 -6
v 11 1 2
v 11 1 -0
v 11 1 -4
v 11 1 -6
v -11 0 2
v -11 1 2
v -9 0 2
v -9 1 2
v 9 0 2
v 9 1 2
v 11 0 2
v 11 1 2
v -10 1 1
v -10 2 1
v -10 7 1
v -10 8 1
v -9 1 1
v -6 4 1
v -6 5 1
v -3 4 1
v -3 5 1
v 3 4 1
v 3 5 1
v 6 4 1
v 6 5 1
v 9 1 1
v 10 1 1
v 10 2 1
v 10 7 1
v 10 8 1
v -9 2 -0
v -9 7 -0
v -8 3 -0
v -8 6 -0
v -7 3 -0
v -7 6 -0
v -6 4 -0
v -6 5 -0
v -3 4 -0
v -3 5 -0
v -2 3 -0
v -2 6 -0
v -1 3 -0
v -1 6 -0
v 1 3 -0
v 1 6 -0
v 2 3 -0
v 2 6 -0
v 3 4 -0
v 3 5 -0
v 6 4 -0
v 6 5 -0
v 7 3 -0
v 7 6 -0
v 8 3 -0
v 8 6 -0
v 9 2 -0
v 9 7 -0
v -11 0 -4
v -11 1 -4
v -10 1 -4
v -9 0 -4
v -9 1 -4
v 9 0 -4
v 9 1 -4
v 10 1 -4
v 11 0 -4
v 11 1 -4
v -11 0 -0
v -11 1 -0
v -10 1 -0
v -9 0 -0
v -9 1 -0
v 9 0 -0
v 9 1 -0
v 10 1 -0
v 11 0 -0
v 11 1 -0
v -11 0 -6
v -11 1 -6
v -10 1 -6
v -10 2 -6
v -10 7 -6
v -10 8 -6
v -9 0 -6
v -9 1 -6
v -9 2 -6
v -9 7 -6
v 9 0 -6
v 9 1 -6
v 9 2 -6
v 9 7 -6
v 10 1 -6
v 10 2 -6
v 10 7 -6
v 10 8 -6
v 11 0 -6
v 11 1 -6
v -11 0 2
v -9 0 2
v 9 0 2
v 11 0 2
v -11 0 -0
v -9 0 -0
v 9 0 -0
v 11 0 -0
v -11 0 -4
v -9 0 -4
v 9 0 -4
v 11 0 -4
v -11 0 -6
v -9 0 -6
v 9 0 -6
v 11 0 -6
v -9 1 1
v 9 1 1
v -10 1 -0
v -9 1 -0
v 9 1 -0
v 10 1 -0
v -10 1 -4
v -9 1 -4
v 9 1 -4
v 10 1 -4
v -9 1 -6
v 9 1 -6
v -6 4 1
v -3 4 1
v 3 4 1
v 6 4 1
v -6 4 -0
v -3 4 -0
v 3 4 -0
v 6 4 -0
v -10 7 1
v 10 7 1
v -9 7 -0
v 9 7 -0
v -10 7 -6
v -9 7 -6
v 9 7 -6
v 10 7 -6
v -11 1 2
v -9 1 2
v 9 1 2
v 11 1 2
v -10 1 1
v -9 1 1
v 9 1 1
v 10 1 1
v -11 1 -0
v -10 1 -0
v 10 1 -0
v 11 1 -0
v -11 1 -4
v -10 1 -4
v 10 1 -4
v 11 1 -4
v -11 1 -6
v -10 1 -6
v 10 1 -6
v 11 1 -6
v -10 2 1
v 10 2 1
v -9 2 -0
v 9 2 -0
v -10 2 -6
v -9 2 -6
v 9 2 -6
v 10 2 -6
v -6 5 1
v -3 5 1
v 3 5 1
v 6 5 1
v -6 5 -0
v -3 5 -0
v 3 5 -0
v 6 5 -0
v -10 8 1
v 10 8 1
v -10 8 -6
v 10 8 -6

# faces
f 5/2/1 2/2/1 1/2/1
f 6/2/1 2/2/1 5/2/1
f 7/2/1 4/2/1 3/2/1
f 8/2/1 4/2/1 7/2/1
f 13/1/1 10/1/1 9/1/1
f 13/1/1 12/1/1 11/1/1
f 13/1/1 11/1/1 10/1/1
f 14/1/1 12/1/1 13/1/1
f 17/1/1 16/1/1 15/1/1
f 18/1/1 16/1/1 17/1/1
f 21/3/1 20/3/1 19/3/1
f 22/3/1 20/3/1 21/3/1
f 25/2/1 24/2/1 23/2/1
f 26/2/1 24/2/1 25/2/1
f 29/2/1 28/2/1 27/2/1
f 30/2/1 28/2/1 29/2/1
f 35/2/1 32/2/1 31/2/1
f 36/2/1 32/2/1 35/2/1
f 37/2/1 32/2/1 36/2/1
f 38/2/1 34/2/1 33/2/1
f 39/2/1 34/2/1 38/2/1
f 40/2/2 41/2/2 44/2/2
f 44/2/2 41/2/2 45/2/2
f 45/2/2 41/2/2 46/2/2
f 42/2/2 43/2/2 47/2/2
f 47/2/2 43/2/2 48/2/2
f 49/2/2 50/2/2 51/2/2
f 51/2/2 50/2/2 52/2/2
f 53/2/2 54/2/2 55/2/2
f 55/2/2 54/2/2 56/2/2
f 57/3/2 58/3/2 59/3/2
f 59/3/2 58/3/2 60/3/2
f 61/1/2 62/1/2 65/1/2
f 63/1/2 64/1/2 65/1/2
f 62/1/2 63/1/2 65/1/2
f 65/1/2 64/1/2 66/1/2
f 67/1/2 68/1/2 69/1/2
f 69/1/2 68/1/2 70/1/2
f 71/2/2 72/2/2 75/2/2
f 75/2/2 72/2/2 76/2/2
f 73/2/2 74/2/2 77/2/2
f 77/2/2 74/2/2 78/2/2
f 81/2/3 80/2/3 79/2/3
f 82/2/3 80/2/3 81/2/3
f 85/2/3 84/2/3 83/2/3
f 86/2/3 84/2/3 85/2/3
f 91/1/3 88/1/3 87/1/3
f 94/2/3 93/2/3 92/2/3
f 95/2/3 93/2/3 94/2/3
f 98/2/3 97/2/3 96/2/3
f 99/2/3 97/2/3 98/2/3
f 100/1/3 88/1/3 91/1/3
f 101/1/3 88/1/3 100/1/3
f 102/1/3 88/1/3 101/1/3
f 103/1/3 90/1/3 89/1/3
f 104/1/3 90/1/3 103/1/3
f 107/3/3 106/3/3 105/3/3
f 108/3/3 106/3/3 107/3/3
f 109/3/3 107/3/3 105/3/3
f 109/1/3 108/1/3 107/1/3
f 110/3/3 106/3/3 108/3/3
f 110/1/3 108/1/3 109/1/3
f 111/3/3 110/3/3 109/3/3
f 112/3/3 110/3/3 111/3/3
f 113/3/3 111/3/3 109/3/3
f 114/3/3 110/3/3 112/3/3
f 115/3/3 109/3/3 105/3/3
f 115/3/3 114/3/3 113/3/3
f 115/3/3 113/3/3 109/3/3
f 116/3/3 110/3/3 114/3/3
f 116/3/3 114/3/3 115/3/3
f 116/3/3 106/3/3 110/3/3
f 117/3/3 115/3/3 105/3/3
f 117/1/3 116/1/3 115/1/3
f 118/3/3 106/3/3 116/3/3
f 118/1/3 116/1/3 117/1/3
f 119/3/3 117/3/3 105/3/3
f 119/3/3 118/3/3 117/3/3
f 120/3/3 106/3/3 118/3/3
f 120/3/3 118/3/3 119/3/3
f 121/3/3 119/3/3 105/3/3
f 121/1/3 120/1/3 119/1/3
f 122/3/3 106/3/3 120/3/3
f 122/1/3 120/1/3 121/1/3
f 123/3/3 122/3/3 121/3/3
f 124/3/3 122/3/3 123/3/3
f 125/3/3 123/3/3 121/3/3
f 126/3/3 122/3/3 124/3/3
f 127/3/3 121/3/3 105/3/3
f 127/3/3 126/3/3 125/3/3
f 127/3/3 125/3/3 121/3/3
f 128/3/3 122/3/3 126/3/3
f 128/3/3 126/3/3 127/3/3
f 128/3/3 106/3/3 122/3/3
f 129/3/3 127/3/3 105/3/3
f 129/1/3 128/1/3 127/1/3
f 130/3/3 106/3/3 128/3/3
f 130/1/3 128/1/3 129/1/3
f 131/3/3 129/3/3 105/3/3
f 131/3/3 130/3/3 129/3/3
f 132/3/3 106/3/3 130/3/3
f 132/3/3 130/3/3 131/3/3
f 135/2/3 134/2/3 133/2/3
f 136/2/3 135/2/3 133/2/3
f 137/2/3 135/2/3 136/2/3
f 140/2/3 139/2/3 138/2/3
f 141/2/3 140/2/3 138/2/3
f 142/2/3 140/2/3 141/2/3
f 143/2/4 144/2/4 145/2/4
f 143/2/4 145/2/4 146/2/4
f 146/2/4 145/2/4 147/2/4
f 148/2/4 149/2/4 150/2/4
f 148/2/4 150/2/4 151/2/4
f 151/2/4 150/2/4 152/2/4
f 153/2/4 154/2/4 155/2/4
f 153/2/4 155/2/4 159/2/4
f 155/1/4 156/1/4 160/1/4
f 159/2/4 155/2/4 160/2/4
f 160/1/4 156/1/4 161/1/4
f 157/1/4 158/1/4 162/1/4
f 160/1/4 161/1/4 164/1/4
f 161/3/4 162/3/4 165/3/4
f 164/1/4 161/1/4 165/1/4
f 162/1/4 158/1/4 166/1/4
f 165/3/4 162/3/4 166/3/4
f 164/1/4 165/1/4 167/1/4
f 163/2/4 164/2/4 167/2/4
f 167/1/4 165/1/4 168/1/4
f 166/1/4 158/1/4 169/1/4
f 169/1/4 158/1/4 170/1/4
f 163/2/4 167/2/4 171/2/4
f 171/2/4 167/2/4 172/2/4
f 177/2/5 174/2/5 173/2/5
f 178/2/5 174/2/5 177/2/5
f 179/2/5 176/2/5 175/2/5
f 180/2/5 176/2/5 179/2/5
f 185/2/5 182/2/5 181/2/5
f 186/2/5 182/2/5 185/2/5
f 187/2/5 184/2/5 183/2/5
f 188/2/5 184/2/5 187/2/5
f 192/1/5 190/1/5 189/1/5
f 193/1/5 190/1/5 192/1/5
f 195/1/5 192/1/5 191/1/5
f 195/1/5 194/1/5 193/1/5
f 195/1/5 193/1/5 192/1/5
f 196/1/5 194/1/5 195/1/5
f 197/1/5 194/1/5 196/1/5
f 198/1/5 194/1/5 197/1/5
f 199/1/5 197/1/5 196/1/5
f 200/1/5 197/1/5 199/1/5
f 205/2/5 202/2/5 201/2/5
f 206/2/5 202/2/5 205/2/5
f 207/2/5 204/2/5 203/2/5
f 208/2/5 204/2/5 207/2/5
f 211/1/5 210/1/5 209/1/5
f 212/1/5 210/1/5 211/1/5
f 213/1/5 211/1/5 209/1/5
f 214/1/5 211/1/5 213/1/5
f 215/1/5 210/1/5 212/1/5
f 216/1/5 210/1/5 215/1/5
f 217/2/6 218/2/6 221/2/6
f 221/2/6 218/2/6 222/2/6
f 219/2/6 220/2/6 223/2/6
f 223/2/6 220/2/6 224/2/6
f 217/2/6 221/2/6 225/2/6
f 225/2/6 221/2/6 226/2/6
f 224/2/6 220/2/6 227/2/6
f 227/2/6 220/2/6 228/2/6
f 229/2/6 230/2/6 233/2/6
f 233/2/6 230/2/6 234/2/6
f 231/2/6 232/2/6 235/2/6
f 235/2/6 232/2/6 236/2/6
f 237/1/6 238/1/6 239/1/6
f 239/1/6 238/1/6 240/1/6
f 237/1/6 239/1/6 241/1/6
f 241/1/6 239/1/6 242/1/6
f 240/1/6 238/1/6 243/1/6
f 243/1/6 238/1/6 244/1/6
f 245/2/6 246/2/6 249/2/6
f 249/2/6 246/2/6 250/2/6
f 247/2/6 248/2/6 251/2/6
f 251/2/6 248/2/6 252/2/6
f 253/1/6 254/1/6 255/1/6
f 255/1/6 254/1/6 256/1/6
