# MagicaVoxel @ Ephtracy

# material
mtllib CabinetBig.mtl
usemtl palette

# normals
vn -1 0 0
vn 1 0 0
vn 0 0 1
vn 0 0 -1
vn 0 -1 0
vn 0 1 0

# texcoords
vt 0.275391 0.5
vt 0.283203 0.5
vt 0.306641 0.5

# verts
v -8 0 -1
v -8 0 -3
v -8 0 -6
v -8 0 -8
v -8 1 -1
v -8 1 -3
v -8 1 -6
v -8 1 -8
v -7 1 -2
v -7 1 -3
v -7 1 -6
v -7 1 -8
v -7 2 -2
v -7 2 -8
v -7 16 -2
v -7 16 -8
v -7 17 -2
v -7 17 -8
v -6 2 -3
v -6 2 -8
v -6 16 -3
v -6 16 -8
v -3 9 -2
v -3 9 -3
v -3 10 -2
v -3 10 -3
v 1 9 -2
v 1 9 -3
v 1 10 -2
v 1 10 -3
v 6 0 -1
v 6 0 -3
v 6 0 -6
v 6 0 -8
v 6 1 -1
v 6 1 -2
v 6 1 -3
v 6 1 -6
v 6 1 -8
v -6 0 -1
v -6 0 -3
v -6 0 -6
v -6 0 -8
v -6 1 -1
v -6 1 -2
v -6 1 -3
v -6 1 -6
v -6 1 -8
v -1 9 -2
v -1 9 -3
v -1 10 -2
v -1 10 -3
v 3 9 -2
v 3 9 -3
v 3 10 -2
v 3 10 -3
v 6 2 -3
v 6 2 -8
v 6 16 -3
v 6 16 -8
v 7 1 -2
v 7 1 -3
v 7 1 -6
v 7 1 -8
v 7 2 -2
v 7 2 -8
v 7 16 -2
v 7 16 -8
v 7 17 -2
v 7 17 -8
v 8 0 -1
v 8 0 -3
v 8 0 -6
v 8 0 -8
v 8 1 -1
v 8 1 -3
v 8 1 -6
v 8 1 -8
v -8 0 -1
v -8 1 -1
v -6 0 -1
v -6 1 -1
v 6 0 -1
v 6 1 -1
v 8 0 -1
v 8 1 -1
v -7 1 -2
v -7 2 -2
v -7 16 -2
v -7 17 -2
v -6 1 -2
v -3 9 -2
v -3 10 -2
v -1 9 -2
v -1 10 -2
v 1 9 -2
v 1 10 -2
v 3 9 -2
v 3 10 -2
v 6 1 -2
v 7 1 -2
v 7 2 -2
v 7 16 -2
v 7 17 -2
v -6 2 -3
v -6 16 -3
v -5 3 -3
v -5 15 -3
v -4 4 -3
v -4 14 -3
v -3 9 -3
v -3 10 -3
v -2 4 -3
v -2 8 -3
v -2 11 -3
v -2 14 -3
v -1 3 -3
v -1 8 -3
v -1 9 -3
v -1 10 -3
v -1 11 -3
v -1 15 -3
v 1 3 -3
v 1 8 -3
v 1 9 -3
v 1 10 -3
v 1 11 -3
v 1 15 -3
v 2 4 -3
v 2 8 -3
v 2 11 -3
v 2 14 -3
v 3 9 -3
v 3 10 -3
v 4 4 -3
v 4 14 -3
v 5 3 -3
v 5 15 -3
v 6 2 -3
v 6 16 -3
v -8 0 -6
v -8 1 -6
v -7 1 -6
v -6 0 -6
v -6 1 -6
v 6 0 -6
v 6 1 -6
v 7 1 -6
v 8 0 -6
v 8 1 -6
v -8 0 -3
v -8 1 -3
v -7 1 -3
v -6 0 -3
v -6 1 -3
v 6 0 -3
v 6 1 -3
v 7 1 -3
v 8 0 -3
v 8 1 -3
v -8 0 -8
v -8 1 -8
v -7 1 -8
v -7 2 -8
v -7 16 -8
v -7 17 -8
v -6 0 -8
v -6 1 -8
v -6 2 -8
v -6 16 -8
v 6 0 -8
v 6 1 -8
v 6 2 -8
v 6 16 -8
v 7 1 -8
v 7 2 -8
v 7 16 -8
v 7 17 -8
v 8 0 -8
v 8 1 -8
v -8 0 -1
v -6 0 -1
v 6 0 -1
v 8 0 -1
v -8 0 -3
v -6 0 -3
v 6 0 -3
v 8 0 -3
v -8 0 -6
v -6 0 -6
v 6 0 -6
v 8 0 -6
v -8 0 -8
v -6 0 -8
v 6 0 -8
v 8 0 -8
v -6 1 -2
v 6 1 -2
v -7 1 -3
v -6 1 -3
v 6 1 -3
v 7 1 -3
v -7 1 -6
v -6 1 -6
v 6 1 -6
v 7 1 -6
v -6 1 -8
v 6 1 -8
v -3 9 -2
v -1 9 -2
v 1 9 -2
v 3 9 -2
v -3 9 -3
v -1 9 -3
v 1 9 -3
v 3 9 -3
v -7 16 -2
v 7 16 -2
v -6 16 -3
v 6 16 -3
v -7 16 -8
v -6 16 -8
v 6 16 -8
v 7 16 -8
v -8 1 -1
v -6 1 -1
v 6 1 -1
v 8 1 -1
v -7 1 -2
v -6 1 -2
v 6 1 -2
v 7 1 -2
v -8 1 -3
v -7 1 -3
v 7 1 -3
v 8 1 -3
v -8 1 -6
v -7 1 -6
v 7 1 -6
v 8 1 -6
v -8 1 -8
v -7 1 -8
v 7 1 -8
v 8 1 -8
v -7 2 -2
v 7 2 -2
v -6 2 -3
v 6 2 -3
v -7 2 -8
v -6 2 -8
v 6 2 -8
v 7 2 -8
v -3 10 -2
v -1 10 -2
v 1 10 -2
v 3 10 -2
v -3 10 -3
v -1 10 -3
v 1 10 -3
v 3 10 -3
v -7 17 -2
v 7 17 -2
v -7 17 -8
v 7 17 -8

# faces
f 5/2/1 2/2/1 1/2/1
f 6/2/1 2/2/1 5/2/1
f 7/2/1 4/2/1 3/2/1
f 8/2/1 4/2/1 7/2/1
f 13/1/1 10/1/1 9/1/1
f 13/1/1 12/1/1 11/1/1
f 13/1/1 11/1/1 10/1/1
f 14/1/1 12/1/1 13/1/1
f 17/1/1 16/1/1 15/1/1
f 18/1/1 16/1/1 17/1/1
f 21/3/1 20/3/1 19/3/1
f 22/3/1 20/3/1 21/3/1
f 25/2/1 24/2/1 23/2/1
f 26/2/1 24/2/1 25/2/1
f 29/2/1 28/2/1 27/2/1
f 30/2/1 28/2/1 29/2/1
f 35/2/1 32/2/1 31/2/1
f 36/2/1 32/2/1 35/2/1
f 37/2/1 32/2/1 36/2/1
f 38/2/1 34/2/1 33/2/1
f 39/2/1 34/2/1 38/2/1
f 40/2/2 41/2/2 44/2/2
f 44/2/2 41/2/2 45/2/2
f 45/2/2 41/2/2 46/2/2
f 42/2/2 43/2/2 47/2/2
f 47/2/2 43/2/2 48/2/2
f 49/2/2 50/2/2 51/2/2
f 51/2/2 50/2/2 52/2/2
f 53/2/2 54/2/2 55/2/2
f 55/2/2 54/2/2 56/2/2
f 57/3/2 58/3/2 59/3/2
f 59/3/2 58/3/2 60/3/2
f 61/1/2 62/1/2 65/1/2
f 63/1/2 64/1/2 65/1/2
f 62/1/2 63/1/2 65/1/2
f 65/1/2 64/1/2 66/1/2
f 67/1/2 68/1/2 69/1/2
f 69/1/2 68/1/2 70/1/2
f 71/2/2 72/2/2 75/2/2
f 75/2/2 72/2/2 76/2/2
f 73/2/2 74/2/2 77/2/2
f 77/2/2 74/2/2 78/2/2
f 81/2/3 80/2/3 79/2/3
f 82/2/3 80/2/3 81/2/3
f 85/2/3 84/2/3 83/2/3
f 86/2/3 84/2/3 85/2/3
f 91/1/3 88/1/3 87/1/3
f 94/2/3 93/2/3 92/2/3
f 95/2/3 93/2/3 94/2/3
f 98/2/3 97/2/3 96/2/3
f 99/2/3 97/2/3 98/2/3
f 100/1/3 88/1/3 91/1/3
f 101/1/3 88/1/3 100/1/3
f 102/1/3 88/1/3 101/1/3
f 103/1/3 90/1/3 89/1/3
f 104/1/3 90/1/3 103/1/3
f 107/3/3 106/3/3 105/3/3
f 108/3/3 106/3/3 107/3/3
f 109/1/3 108/1/3 107/1/3
f 110/1/3 108/1/3 109/1/3
f 111/3/3 110/3/3 109/3/3
f 112/3/3 110/3/3 111/3/3
f 113/1/3 109/1/3 107/1/3
f 113/3/3 111/3/3 109/3/3
f 114/3/3 111/3/3 113/3/3
f 115/3/3 110/3/3 112/3/3
f 116/1/3 108/1/3 110/1/3
f 116/3/3 110/3/3 115/3/3
f 117/3/3 107/3/3 105/3/3
f 117/1/3 113/1/3 107/1/3
f 117/1/3 114/1/3 113/1/3
f 118/3/3 111/3/3 114/3/3
f 118/1/3 114/1/3 117/1/3
f 119/3/3 111/3/3 118/3/3
f 120/3/3 115/3/3 112/3/3
f 121/1/3 116/1/3 115/1/3
f 121/3/3 115/3/3 120/3/3
f 122/1/3 108/1/3 116/1/3
f 122/1/3 116/1/3 121/1/3
f 122/3/3 106/3/3 108/3/3
f 123/3/3 121/3/3 120/3/3
f 123/3/3 117/3/3 105/3/3
f 123/3/3 122/3/3 121/3/3
f 123/3/3 118/3/3 117/3/3
f 123/3/3 120/3/3 119/3/3
f 123/3/3 119/3/3 118/3/3
f 124/3/3 122/3/3 123/3/3
f 125/3/3 122/3/3 124/3/3
f 126/3/3 122/3/3 125/3/3
f 127/3/3 122/3/3 126/3/3
f 128/3/3 106/3/3 122/3/3
f 128/3/3 122/3/3 127/3/3
f 129/1/3 124/1/3 123/1/3
f 130/3/3 125/3/3 124/3/3
f 130/1/3 124/1/3 129/1/3
f 131/3/3 127/3/3 126/3/3
f 131/1/3 128/1/3 127/1/3
f 132/1/3 128/1/3 131/1/3
f 133/3/3 125/3/3 130/3/3
f 133/3/3 130/3/3 129/3/3
f 134/3/3 132/3/3 131/3/3
f 134/3/3 131/3/3 126/3/3
f 135/1/3 129/1/3 123/1/3
f 135/3/3 134/3/3 133/3/3
f 135/3/3 133/3/3 129/3/3
f 136/1/3 128/1/3 132/1/3
f 136/3/3 134/3/3 135/3/3
f 136/3/3 132/3/3 134/3/3
f 137/1/3 135/1/3 123/1/3
f 137/3/3 123/3/3 105/3/3
f 137/1/3 136/1/3 135/1/3
f 138/1/3 128/1/3 136/1/3
f 138/1/3 136/1/3 137/1/3
f 138/3/3 106/3/3 128/3/3
f 139/3/3 137/3/3 105/3/3
f 139/3/3 138/3/3 137/3/3
f 140/3/3 106/3/3 138/3/3
f 140/3/3 138/3/3 139/3/3
f 143/2/3 142/2/3 141/2/3
f 144/2/3 143/2/3 141/2/3
f 145/2/3 143/2/3 144/2/3
f 148/2/3 147/2/3 146/2/3
f 149/2/3 148/2/3 146/2/3
f 150/2/3 148/2/3 149/2/3
f 151/2/4 152/2/4 153/2/4
f 151/2/4 153/2/4 154/2/4
f 154/2/4 153/2/4 155/2/4
f 156/2/4 157/2/4 158/2/4
f 156/2/4 158/2/4 159/2/4
f 159/2/4 158/2/4 160/2/4
f 161/2/4 162/2/4 163/2/4
f 161/2/4 163/2/4 167/2/4
f 163/1/4 164/1/4 168/1/4
f 167/2/4 163/2/4 168/2/4
f 168/1/4 164/1/4 169/1/4
f 165/1/4 166/1/4 170/1/4
f 168/1/4 169/1/4 172/1/4
f 169/3/4 170/3/4 173/3/4
f 172/1/4 169/1/4 173/1/4
f 170/1/4 166/1/4 174/1/4
f 173/3/4 170/3/4 174/3/4
f 172/1/4 173/1/4 175/1/4
f 171/2/4 172/2/4 175/2/4
f 175/1/4 173/1/4 176/1/4
f 174/1/4 166/1/4 177/1/4
f 177/1/4 166/1/4 178/1/4
f 171/2/4 175/2/4 179/2/4
f 179/2/4 175/2/4 180/2/4
f 185/2/5 182/2/5 181/2/5
f 186/2/5 182/2/5 185/2/5
f 187/2/5 184/2/5 183/2/5
f 188/2/5 184/2/5 187/2/5
f 193/2/5 190/2/5 189/2/5
f 194/2/5 190/2/5 193/2/5
f 195/2/5 192/2/5 191/2/5
f 196/2/5 192/2/5 195/2/5
f 200/1/5 198/1/5 197/1/5
f 201/1/5 198/1/5 200/1/5
f 203/1/5 200/1/5 199/1/5
f 203/1/5 202/1/5 201/1/5
f 203/1/5 201/1/5 200/1/5
f 204/1/5 202/1/5 203/1/5
f 205/1/5 202/1/5 204/1/5
f 206/1/5 202/1/5 205/1/5
f 207/1/5 205/1/5 204/1/5
f 208/1/5 205/1/5 207/1/5
f 213/2/5 210/2/5 209/2/5
f 214/2/5 210/2/5 213/2/5
f 215/2/5 212/2/5 211/2/5
f 216/2/5 212/2/5 215/2/5
f 219/1/5 218/1/5 217/1/5
f 220/1/5 218/1/5 219/1/5
f 221/1/5 219/1/5 217/1/5
f 222/1/5 219/1/5 221/1/5
f 223/1/5 218/1/5 220/1/5
f 224/1/5 218/1/5 223/1/5
f 225/2/6 226/2/6 229/2/6
f 229/2/6 226/2/6 230/2/6
f 227/2/6 228/2/6 231/2/6
f 231/2/6 228/2/6 232/2/6
f 225/2/6 229/2/6 233/2/6
f 233/2/6 229/2/6 234/2/6
f 232/2/6 228/2/6 235/2/6
f 235/2/6 228/2/6 236/2/6
f 237/2/6 238/2/6 241/2/6
f 241/2/6 238/2/6 242/2/6
f 239/2/6 240/2/6 243/2/6
f 243/2/6 240/2/6 244/2/6
f 245/1/6 246/1/6 247/1/6
f 247/1/6 246/1/6 248/1/6
f 245/1/6 247/1/6 249/1/6
f 249/1/6 247/1/6 250/1/6
f 248/1/6 246/1/6 251/1/6
f 251/1/6 246/1/6 252/1/6
f 253/2/6 254/2/6 257/2/6
f 257/2/6 254/2/6 258/2/6
f 255/2/6 256/2/6 259/2/6
f 259/2/6 256/2/6 260/2/6
f 261/1/6 262/1/6 263/1/6
f 263/1/6 262/1/6 264/1/6
