# MagicaVoxel @ Ephtracy

# material
mtllib CabinetBathroom.mtl
usemtl palette

# normals
vn -1 0 0
vn 1 0 0
vn 0 0 1
vn 0 0 -1
vn 0 -1 0
vn 0 1 0

# texcoords
vt 0.00195313 0.5
vt 0.291016 0.5

# verts
v -9 1 3
v -9 1 2
v -9 1 -3
v -9 8 3
v -9 8 2
v -9 8 -3
v 2 1 3
v 2 1 2
v 2 8 3
v 2 8 2
v 1 1 3
v 1 1 2
v 1 8 3
v 1 8 2
v 9 1 3
v 9 1 2
v 9 1 -3
v 9 8 3
v 9 8 2
v 9 8 -3
v -9 1 3
v -9 8 3
v 1 1 3
v 1 8 3
v 2 1 3
v 2 8 3
v 9 1 3
v 9 8 3
v 1 1 2
v 1 8 2
v 2 1 2
v 2 8 2
v -9 1 -3
v -9 8 -3
v 9 1 -3
v 9 8 -3
v -9 1 3
v 1 1 3
v 2 1 3
v 9 1 3
v -9 1 2
v 1 1 2
v 2 1 2
v 9 1 2
v -9 1 -3
v 9 1 -3
v -9 8 3
v 1 8 3
v 2 8 3
v 9 8 3
v -9 8 2
v 1 8 2
v 2 8 2
v 9 8 2
v -9 8 -3
v 9 8 -3

# faces
f 4/1/1 2/1/1 1/1/1
f 5/2/1 3/2/1 2/2/1
f 5/1/1 2/1/1 4/1/1
f 6/2/1 3/2/1 5/2/1
f 9/1/1 8/1/1 7/1/1
f 10/1/1 8/1/1 9/1/1
f 11/1/2 12/1/2 13/1/2
f 13/1/2 12/1/2 14/1/2
f 15/1/2 16/1/2 18/1/2
f 16/2/2 17/2/2 19/2/2
f 18/1/2 16/1/2 19/1/2
f 19/2/2 17/2/2 20/2/2
f 23/1/3 22/1/3 21/1/3
f 24/1/3 22/1/3 23/1/3
f 27/1/3 26/1/3 25/1/3
f 28/1/3 26/1/3 27/1/3
f 31/2/3 30/2/3 29/2/3
f 32/2/3 30/2/3 31/2/3
f 33/2/4 34/2/4 35/2/4
f 35/2/4 34/2/4 36/2/4
f 41/1/5 38/1/5 37/1/5
f 42/1/5 38/1/5 41/1/5
f 43/1/5 40/1/5 39/1/5
f 44/1/5 40/1/5 43/1/5
f 45/2/5 42/2/5 41/2/5
f 45/2/5 43/2/5 42/2/5
f 45/2/5 44/2/5 43/2/5
f 46/2/5 44/2/5 45/2/5
f 47/1/6 48/1/6 51/1/6
f 51/1/6 48/1/6 52/1/6
f 49/1/6 50/1/6 53/1/6
f 53/1/6 50/1/6 54/1/6
f 51/2/6 52/2/6 55/2/6
f 52/2/6 53/2/6 55/2/6
f 53/2/6 54/2/6 55/2/6
f 55/2/6 54/2/6 56/2/6
