# MagicaVoxel @ Ephtracy

# material
mtllib TubeStraight.mtl
usemtl palette

# normals
vn -1 0 0
vn 1 0 0
vn 0 0 1
vn 0 0 -1
vn 0 -1 0
vn 0 1 0

# texcoords
vt 0.302734 0.5
vt 0.345703 0.5

# verts
v -4 0 7
v -4 0 1
v -4 1 7
v -4 1 1
v -4 13 7
v -4 13 1
v -4 14 7
v -4 14 1
v -3 0 8
v -3 0 7
v -3 0 1
v -3 0 -0
v -3 1 8
v -3 1 7
v -3 1 6
v -3 1 5
v -3 1 3
v -3 1 2
v -3 1 1
v -3 1 -0
v -3 2 6
v -3 2 5
v -3 2 3
v -3 2 2
v -3 12 6
v -3 12 5
v -3 12 3
v -3 12 2
v -3 13 8
v -3 13 7
v -3 13 6
v -3 13 5
v -3 13 3
v -3 13 2
v -3 13 1
v -3 13 -0
v -3 14 8
v -3 14 7
v -3 14 1
v -3 14 -0
v -2 1 7
v -2 1 6
v -2 1 5
v -2 1 3
v -2 1 2
v -2 1 1
v -2 2 7
v -2 2 6
v -2 2 5
v -2 2 3
v -2 2 2
v -2 2 1
v -2 12 7
v -2 12 6
v -2 12 5
v -2 12 3
v -2 12 2
v -2 12 1
v -2 13 7
v -2 13 6
v -2 13 5
v -2 13 3
v -2 13 2
v -2 13 1
v 1 1 7
v 1 1 6
v 1 1 2
v 1 1 1
v 1 2 7
v 1 2 6
v 1 2 2
v 1 2 1
v 1 12 7
v 1 12 6
v 1 12 2
v 1 12 1
v 1 13 7
v 1 13 6
v 1 13 2
v 1 13 1
v -1 1 7
v -1 1 6
v -1 1 2
v -1 1 1
v -1 2 7
v -1 2 6
v -1 2 2
v -1 2 1
v -1 12 7
v -1 12 6
v -1 12 2
v -1 12 1
v -1 13 7
v -1 13 6
v -1 13 2
v -1 13 1
v 2 1 7
v 2 1 6
v 2 1 5
v 2 1 3
v 2 1 2
v 2 1 1
v 2 2 7
v 2 2 6
v 2 2 5
v 2 2 3
v 2 2 2
v 2 2 1
v 2 12 7
v 2 12 6
v 2 12 5
v 2 12 3
v 2 12 2
v 2 12 1
v 2 13 7
v 2 13 6
v 2 13 5
v 2 13 3
v 2 13 2
v 2 13 1
v 3 0 8
v 3 0 7
v 3 0 1
v 3 0 -0
v 3 1 8
v 3 1 7
v 3 1 6
v 3 1 5
v 3 1 3
v 3 1 2
v 3 1 1
v 3 1 -0
v 3 2 6
v 3 2 5
v 3 2 3
v 3 2 2
v 3 12 6
v 3 12 5
v 3 12 3
v 3 12 2
v 3 13 8
v 3 13 7
v 3 13 6
v 3 13 5
v 3 13 3
v 3 13 2
v 3 13 1
v 3 13 -0
v 3 14 8
v 3 14 7
v 3 14 1
v 3 14 -0
v 4 0 7
v 4 0 1
v 4 1 7
v 4 1 1
v 4 13 7
v 4 13 1
v 4 14 7
v 4 14 1
v -3 0 8
v -3 1 8
v -3 13 8
v -3 14 8
v 3 0 8
v 3 1 8
v 3 13 8
v 3 14 8
v -4 0 7
v -4 1 7
v -4 13 7
v -4 14 7
v -3 0 7
v -3 1 7
v -3 13 7
v -3 14 7
v -2 1 7
v -2 2 7
v -2 12 7
v -2 13 7
v -1 1 7
v -1 2 7
v -1 12 7
v -1 13 7
v 1 1 7
v 1 2 7
v 1 12 7
v 1 13 7
v 2 1 7
v 2 2 7
v 2 12 7
v 2 13 7
v 3 0 7
v 3 1 7
v 3 13 7
v 3 14 7
v 4 0 7
v 4 1 7
v 4 13 7
v 4 14 7
v -3 1 6
v -3 2 6
v -3 12 6
v -3 13 6
v -2 1 6
v -2 2 6
v -2 12 6
v -2 13 6
v -1 1 6
v -1 2 6
v -1 12 6
v -1 13 6
v 1 1 6
v 1 2 6
v 1 12 6
v 1 13 6
v 2 1 6
v 2 2 6
v 2 12 6
v 2 13 6
v 3 1 6
v 3 2 6
v 3 12 6
v 3 13 6
v -3 1 3
v -3 2 3
v -3 12 3
v -3 13 3
v -2 1 3
v -2 2 3
v -2 12 3
v -2 13 3
v 2 1 3
v 2 2 3
v 2 12 3
v 2 13 3
v 3 1 3
v 3 2 3
v 3 12 3
v 3 13 3
v -3 1 5
v -3 2 5
v -3 12 5
v -3 13 5
v -2 1 5
v -2 2 5
v -2 12 5
v -2 13 5
v 2 1 5
v 2 2 5
v 2 12 5
v 2 13 5
v 3 1 5
v 3 2 5
v 3 12 5
v 3 13 5
v -3 1 2
v -3 2 2
v -3 12 2
v -3 13 2
v -2 1 2
v -2 2 2
v -2 12 2
v -2 13 2
v -1 1 2
v -1 2 2
v -1 12 2
v -1 13 2
v 1 1 2
v 1 2 2
v 1 12 2
v 1 13 2
v 2 1 2
v 2 2 2
v 2 12 2
v 2 13 2
v 3 1 2
v 3 2 2
v 3 12 2
v 3 13 2
v -4 0 1
v -4 1 1
v -4 13 1
v -4 14 1
v -3 0 1
v -3 1 1
v -3 13 1
v -3 14 1
v -2 1 1
v -2 2 1
v -2 12 1
v -2 13 1
v -1 1 1
v -1 2 1
v -1 12 1
v -1 13 1
v 1 1 1
v 1 2 1
v 1 12 1
v 1 13 1
v 2 1 1
v 2 2 1
v 2 12 1
v 2 13 1
v 3 0 1
v 3 1 1
v 3 13 1
v 3 14 1
v 4 0 1
v 4 1 1
v 4 13 1
v 4 14 1
v -3 0 -0
v -3 1 -0
v -3 13 -0
v -3 14 -0
v 3 0 -0
v 3 1 -0
v 3 13 -0
v 3 14 -0
v -3 0 8
v 3 0 8
v -4 0 7
v -3 0 7
v 3 0 7
v 4 0 7
v -4 0 1
v -3 0 1
v 3 0 1
v 4 0 1
v -3 0 -0
v 3 0 -0
v -2 12 7
v -1 12 7
v 1 12 7
v 2 12 7
v -3 12 6
v -2 12 6
v -1 12 6
v 1 12 6
v 2 12 6
v 3 12 6
v -3 12 5
v -2 12 5
v 2 12 5
v 3 12 5
v -3 12 3
v -2 12 3
v 2 12 3
v 3 12 3
v -3 12 2
v -2 12 2
v -1 12 2
v 1 12 2
v 2 12 2
v 3 12 2
v -2 12 1
v -1 12 1
v 1 12 1
v 2 12 1
v -3 13 8
v 3 13 8
v -4 13 7
v -3 13 7
v -2 13 7
v -1 13 7
v 1 13 7
v 2 13 7
v 3 13 7
v 4 13 7
v -3 13 6
v -2 13 6
v -1 13 6
v 1 13 6
v 2 13 6
v 3 13 6
v -3 13 5
v -2 13 5
v 2 13 5
v 3 13 5
v -3 13 3
v -2 13 3
v 2 13 3
v 3 13 3
v -3 13 2
v -2 13 2
v -1 13 2
v 1 13 2
v 2 13 2
v 3 13 2
v -4 13 1
v -3 13 1
v -2 13 1
v -1 13 1
v 1 13 1
v 2 13 1
v 3 13 1
v 4 13 1
v -3 13 -0
v 3 13 -0
v -3 1 8
v 3 1 8
v -4 1 7
v -3 1 7
v -2 1 7
v -1 1 7
v 1 1 7
v 2 1 7
v 3 1 7
v 4 1 7
v -3 1 6
v -2 1 6
v -1 1 6
v 1 1 6
v 2 1 6
v 3 1 6
v -3 1 5
v -2 1 5
v 2 1 5
v 3 1 5
v -3 1 3
v -2 1 3
v 2 1 3
v 3 1 3
v -3 1 2
v -2 1 2
v -1 1 2
v 1 1 2
v 2 1 2
v 3 1 2
v -4 1 1
v -3 1 1
v -2 1 1
v -1 1 1
v 1 1 1
v 2 1 1
v 3 1 1
v 4 1 1
v -3 1 -0
v 3 1 -0
v -2 2 7
v -1 2 7
v 1 2 7
v 2 2 7
v -3 2 6
v -2 2 6
v -1 2 6
v 1 2 6
v 2 2 6
v 3 2 6
v -3 2 5
v -2 2 5
v 2 2 5
v 3 2 5
v -3 2 3
v -2 2 3
v 2 2 3
v 3 2 3
v -3 2 2
v -2 2 2
v -1 2 2
v 1 2 2
v 2 2 2
v 3 2 2
v -2 2 1
v -1 2 1
v 1 2 1
v 2 2 1
v -3 14 8
v 3 14 8
v -4 14 7
v -3 14 7
v 3 14 7
v 4 14 7
v -4 14 1
v -3 14 1
v 3 14 1
v 4 14 1
v -3 14 -0
v 3 14 -0

# faces
f 3/1/1 2/1/1 1/1/1
f 4/1/1 2/1/1 3/1/1
f 7/1/1 6/1/1 5/1/1
f 8/1/1 6/1/1 7/1/1
f 13/1/1 10/1/1 9/1/1
f 14/1/1 10/1/1 13/1/1
f 19/1/1 12/1/1 11/1/1
f 20/1/1 12/1/1 19/1/1
f 21/2/1 16/2/1 15/2/1
f 22/2/1 16/2/1 21/2/1
f 23/2/1 18/2/1 17/2/1
f 24/2/1 18/2/1 23/2/1
f 31/2/1 26/2/1 25/2/1
f 32/2/1 26/2/1 31/2/1
f 33/2/1 28/2/1 27/2/1
f 34/2/1 28/2/1 33/2/1
f 37/1/1 30/1/1 29/1/1
f 38/1/1 30/1/1 37/1/1
f 39/1/1 36/1/1 35/1/1
f 40/1/1 36/1/1 39/1/1
f 47/2/1 42/2/1 41/2/1
f 48/2/1 42/2/1 47/2/1
f 49/1/1 44/1/1 43/1/1
f 50/1/1 44/1/1 49/1/1
f 51/2/1 46/2/1 45/2/1
f 52/2/1 46/2/1 51/2/1
f 54/1/1 50/1/1 49/1/1
f 54/1/1 51/1/1 50/1/1
f 54/1/1 49/1/1 48/1/1
f 55/1/1 51/1/1 54/1/1
f 56/1/1 51/1/1 55/1/1
f 57/1/1 51/1/1 56/1/1
f 59/2/1 54/2/1 53/2/1
f 60/2/1 54/2/1 59/2/1
f 61/1/1 56/1/1 55/1/1
f 62/1/1 56/1/1 61/1/1
f 63/2/1 58/2/1 57/2/1
f 64/2/1 58/2/1 63/2/1
f 69/2/1 66/2/1 65/2/1
f 70/2/1 66/2/1 69/2/1
f 71/2/1 68/2/1 67/2/1
f 72/2/1 68/2/1 71/2/1
f 77/2/1 74/2/1 73/2/1
f 78/2/1 74/2/1 77/2/1
f 79/2/1 76/2/1 75/2/1
f 80/2/1 76/2/1 79/2/1
f 81/2/2 82/2/2 85/2/2
f 85/2/2 82/2/2 86/2/2
f 83/2/2 84/2/2 87/2/2
f 87/2/2 84/2/2 88/2/2
f 89/2/2 90/2/2 93/2/2
f 93/2/2 90/2/2 94/2/2
f 91/2/2 92/2/2 95/2/2
f 95/2/2 92/2/2 96/2/2
f 97/2/2 98/2/2 103/2/2
f 103/2/2 98/2/2 104/2/2
f 99/1/2 100/1/2 105/1/2
f 105/1/2 100/1/2 106/1/2
f 101/2/2 102/2/2 107/2/2
f 107/2/2 102/2/2 108/2/2
f 105/1/2 106/1/2 110/1/2
f 106/1/2 107/1/2 110/1/2
f 104/1/2 105/1/2 110/1/2
f 110/1/2 107/1/2 111/1/2
f 111/1/2 107/1/2 112/1/2
f 112/1/2 107/1/2 113/1/2
f 109/2/2 110/2/2 115/2/2
f 115/2/2 110/2/2 116/2/2
f 111/1/2 112/1/2 117/1/2
f 117/1/2 112/1/2 118/1/2
f 113/2/2 114/2/2 119/2/2
f 119/2/2 114/2/2 120/2/2
f 121/1/2 122/1/2 125/1/2
f 125/1/2 122/1/2 126/1/2
f 123/1/2 124/1/2 131/1/2
f 131/1/2 124/1/2 132/1/2
f 127/2/2 128/2/2 133/2/2
f 133/2/2 128/2/2 134/2/2
f 129/2/2 130/2/2 135/2/2
f 135/2/2 130/2/2 136/2/2
f 137/2/2 138/2/2 143/2/2
f 143/2/2 138/2/2 144/2/2
f 139/2/2 140/2/2 145/2/2
f 145/2/2 140/2/2 146/2/2
f 141/1/2 142/1/2 149/1/2
f 149/1/2 142/1/2 150/1/2
f 147/1/2 148/1/2 151/1/2
f 151/1/2 148/1/2 152/1/2
f 153/1/2 154/1/2 155/1/2
f 155/1/2 154/1/2 156/1/2
f 157/1/2 158/1/2 159/1/2
f 159/1/2 158/1/2 160/1/2
f 165/1/3 162/1/3 161/1/3
f 166/1/3 162/1/3 165/1/3
f 167/1/3 164/1/3 163/1/3
f 168/1/3 164/1/3 167/1/3
f 173/1/3 170/1/3 169/1/3
f 174/1/3 170/1/3 173/1/3
f 175/1/3 172/1/3 171/1/3
f 176/1/3 172/1/3 175/1/3
f 181/2/3 178/2/3 177/2/3
f 182/2/3 178/2/3 181/2/3
f 183/2/3 180/2/3 179/2/3
f 184/2/3 180/2/3 183/2/3
f 189/2/3 186/2/3 185/2/3
f 190/2/3 186/2/3 189/2/3
f 191/2/3 188/2/3 187/2/3
f 192/2/3 188/2/3 191/2/3
f 197/1/3 194/1/3 193/1/3
f 198/1/3 194/1/3 197/1/3
f 199/1/3 196/1/3 195/1/3
f 200/1/3 196/1/3 199/1/3
f 205/2/3 202/2/3 201/2/3
f 206/2/3 202/2/3 205/2/3
f 207/2/3 204/2/3 203/2/3
f 208/2/3 204/2/3 207/2/3
f 210/1/3 207/1/3 206/1/3
f 211/1/3 207/1/3 210/1/3
f 213/1/3 210/1/3 209/1/3
f 213/1/3 212/1/3 211/1/3
f 213/1/3 211/1/3 210/1/3
f 214/1/3 212/1/3 213/1/3
f 215/1/3 212/1/3 214/1/3
f 216/1/3 212/1/3 215/1/3
f 218/1/3 215/1/3 214/1/3
f 219/1/3 215/1/3 218/1/3
f 221/2/3 218/2/3 217/2/3
f 222/2/3 218/2/3 221/2/3
f 223/2/3 220/2/3 219/2/3
f 224/2/3 220/2/3 223/2/3
f 229/2/3 226/2/3 225/2/3
f 230/2/3 226/2/3 229/2/3
f 231/2/3 228/2/3 227/2/3
f 232/2/3 228/2/3 231/2/3
f 237/2/3 234/2/3 233/2/3
f 238/2/3 234/2/3 237/2/3
f 239/2/3 236/2/3 235/2/3
f 240/2/3 236/2/3 239/2/3
f 241/2/4 242/2/4 245/2/4
f 245/2/4 242/2/4 246/2/4
f 243/2/4 244/2/4 247/2/4
f 247/2/4 244/2/4 248/2/4
f 249/2/4 250/2/4 253/2/4
f 253/2/4 250/2/4 254/2/4
f 251/2/4 252/2/4 255/2/4
f 255/2/4 252/2/4 256/2/4
f 257/2/4 258/2/4 261/2/4
f 261/2/4 258/2/4 262/2/4
f 259/2/4 260/2/4 263/2/4
f 263/2/4 260/2/4 264/2/4
f 262/1/4 263/1/4 266/1/4
f 266/1/4 263/1/4 267/1/4
f 265/1/4 266/1/4 269/1/4
f 267/1/4 268/1/4 269/1/4
f 266/1/4 267/1/4 269/1/4
f 269/1/4 268/1/4 270/1/4
f 270/1/4 268/1/4 271/1/4
f 271/1/4 268/1/4 272/1/4
f 270/1/4 271/1/4 274/1/4
f 274/1/4 271/1/4 275/1/4
f 273/2/4 274/2/4 277/2/4
f 277/2/4 274/2/4 278/2/4
f 275/2/4 276/2/4 279/2/4
f 279/2/4 276/2/4 280/2/4
f 281/1/4 282/1/4 285/1/4
f 285/1/4 282/1/4 286/1/4
f 283/1/4 284/1/4 287/1/4
f 287/1/4 284/1/4 288/1/4
f 289/2/4 290/2/4 293/2/4
f 293/2/4 290/2/4 294/2/4
f 291/2/4 292/2/4 295/2/4
f 295/2/4 292/2/4 296/2/4
f 297/2/4 298/2/4 301/2/4
f 301/2/4 298/2/4 302/2/4
f 299/2/4 300/2/4 303/2/4
f 303/2/4 300/2/4 304/2/4
f 305/1/4 306/1/4 309/1/4
f 309/1/4 306/1/4 310/1/4
f 307/1/4 308/1/4 311/1/4
f 311/1/4 308/1/4 312/1/4
f 313/1/4 314/1/4 317/1/4
f 317/1/4 314/1/4 318/1/4
f 315/1/4 316/1/4 319/1/4
f 319/1/4 316/1/4 320/1/4
f 324/1/5 322/1/5 321/1/5
f 325/1/5 322/1/5 324/1/5
f 327/1/5 324/1/5 323/1/5
f 327/1/5 326/1/5 325/1/5
f 327/1/5 325/1/5 324/1/5
f 328/1/5 326/1/5 327/1/5
f 329/1/5 326/1/5 328/1/5
f 330/1/5 326/1/5 329/1/5
f 331/1/5 329/1/5 328/1/5
f 332/1/5 329/1/5 331/1/5
f 338/2/5 334/2/5 333/2/5
f 339/2/5 334/2/5 338/2/5
f 340/2/5 336/2/5 335/2/5
f 341/2/5 336/2/5 340/2/5
f 343/2/5 338/2/5 337/2/5
f 344/2/5 338/2/5 343/2/5
f 345/2/5 342/2/5 341/2/5
f 346/2/5 342/2/5 345/2/5
f 351/2/5 348/2/5 347/2/5
f 352/2/5 348/2/5 351/2/5
f 355/2/5 350/2/5 349/2/5
f 356/2/5 350/2/5 355/2/5
f 357/2/5 353/2/5 352/2/5
f 358/2/5 353/2/5 357/2/5
f 359/2/5 355/2/5 354/2/5
f 360/2/5 355/2/5 359/2/5
f 364/1/5 362/1/5 361/1/5
f 365/1/5 362/1/5 364/1/5
f 366/1/5 362/1/5 365/1/5
f 367/1/5 362/1/5 366/1/5
f 368/1/5 362/1/5 367/1/5
f 369/1/5 362/1/5 368/1/5
f 371/1/5 364/1/5 363/1/5
f 371/1/5 365/1/5 364/1/5
f 372/1/5 365/1/5 371/1/5
f 373/1/5 367/1/5 366/1/5
f 374/1/5 367/1/5 373/1/5
f 375/1/5 370/1/5 369/1/5
f 375/1/5 369/1/5 368/1/5
f 376/1/5 370/1/5 375/1/5
f 377/1/5 371/1/5 363/1/5
f 380/1/5 370/1/5 376/1/5
f 381/1/5 378/1/5 377/1/5
f 381/1/5 377/1/5 363/1/5
f 382/1/5 378/1/5 381/1/5
f 383/1/5 380/1/5 379/1/5
f 384/1/5 370/1/5 380/1/5
f 384/1/5 380/1/5 383/1/5
f 385/1/5 381/1/5 363/1/5
f 390/1/5 370/1/5 384/1/5
f 391/1/5 385/1/5 363/1/5
f 391/1/5 386/1/5 385/1/5
f 392/1/5 386/1/5 391/1/5
f 393/1/5 386/1/5 392/1/5
f 394/1/5 388/1/5 387/1/5
f 395/1/5 388/1/5 394/1/5
f 396/1/5 390/1/5 389/1/5
f 397/1/5 370/1/5 390/1/5
f 397/1/5 390/1/5 396/1/5
f 398/1/5 370/1/5 397/1/5
f 399/1/5 393/1/5 392/1/5
f 399/1/5 395/1/5 394/1/5
f 399/1/5 397/1/5 396/1/5
f 399/1/5 396/1/5 395/1/5
f 399/1/5 394/1/5 393/1/5
f 400/1/5 397/1/5 399/1/5
f 401/1/6 402/1/6 404/1/6
f 404/1/6 402/1/6 405/1/6
f 405/1/6 402/1/6 406/1/6
f 406/1/6 402/1/6 407/1/6
f 407/1/6 402/1/6 408/1/6
f 408/1/6 402/1/6 409/1/6
f 403/1/6 404/1/6 411/1/6
f 404/1/6 405/1/6 411/1/6
f 411/1/6 405/1/6 412/1/6
f 406/1/6 407/1/6 413/1/6
f 413/1/6 407/1/6 414/1/6
f 409/1/6 410/1/6 415/1/6
f 408/1/6 409/1/6 415/1/6
f 415/1/6 410/1/6 416/1/6
f 403/1/6 411/1/6 417/1/6
f 416/1/6 410/1/6 420/1/6
f 417/1/6 418/1/6 421/1/6
f 403/1/6 417/1/6 421/1/6
f 421/1/6 418/1/6 422/1/6
f 419/1/6 420/1/6 423/1/6
f 420/1/6 410/1/6 424/1/6
f 423/1/6 420/1/6 424/1/6
f 403/1/6 421/1/6 425/1/6
f 424/1/6 410/1/6 430/1/6
f 403/1/6 425/1/6 431/1/6
f 425/1/6 426/1/6 431/1/6
f 431/1/6 426/1/6 432/1/6
f 432/1/6 426/1/6 433/1/6
f 427/1/6 428/1/6 434/1/6
f 434/1/6 428/1/6 435/1/6
f 429/1/6 430/1/6 436/1/6
f 430/1/6 410/1/6 437/1/6
f 436/1/6 430/1/6 437/1/6
f 437/1/6 410/1/6 438/1/6
f 432/1/6 433/1/6 439/1/6
f 434/1/6 435/1/6 439/1/6
f 436/1/6 437/1/6 439/1/6
f 435/1/6 436/1/6 439/1/6
f 433/1/6 434/1/6 439/1/6
f 439/1/6 437/1/6 440/1/6
f 441/2/6 442/2/6 446/2/6
f 446/2/6 442/2/6 447/2/6
f 443/2/6 444/2/6 448/2/6
f 448/2/6 444/2/6 449/2/6
f 445/2/6 446/2/6 451/2/6
f 451/2/6 446/2/6 452/2/6
f 449/2/6 450/2/6 453/2/6
f 453/2/6 450/2/6 454/2/6
f 455/2/6 456/2/6 459/2/6
f 459/2/6 456/2/6 460/2/6
f 457/2/6 458/2/6 463/2/6
f 463/2/6 458/2/6 464/2/6
f 460/2/6 461/2/6 465/2/6
f 465/2/6 461/2/6 466/2/6
f 462/2/6 463/2/6 467/2/6
f 467/2/6 463/2/6 468/2/6
f 469/1/6 470/1/6 472/1/6
f 472/1/6 470/1/6 473/1/6
f 471/1/6 472/1/6 475/1/6
f 473/1/6 474/1/6 475/1/6
f 472/1/6 473/1/6 475/1/6
f 475/1/6 474/1/6 476/1/6
f 476/1/6 474/1/6 477/1/6
f 477/1/6 474/1/6 478/1/6
f 476/1/6 477/1/6 479/1/6
f 479/1/6 477/1/6 480/1/6
