# MagicaVoxel @ Ephtracy

# material
mtllib TubeLookHole.mtl
usemtl palette

# normals
vn -1 0 0
vn 1 0 0
vn 0 0 1
vn 0 0 -1
vn 0 -1 0
vn 0 1 0

# texcoords
vt 0.287109 0.5
vt 0.302734 0.5
vt 0.345703 0.5
vt 0.349609 0.5
vt 0.357422 0.5

# verts
v -4 0 7
v -4 0 1
v -4 1 7
v -4 1 1
v -4 28 -7
v -4 28 -8
v -4 34 -7
v -4 34 -8
v -3 0 8
v -3 0 7
v -3 0 1
v -3 0 -0
v -3 1 8
v -3 1 7
v -3 1 6
v -3 1 5
v -3 1 3
v -3 1 2
v -3 1 1
v -3 1 -0
v -3 2 6
v -3 2 5
v -3 2 3
v -3 2 2
v -3 13 6
v -3 13 2
v -3 21 6
v -3 21 2
v -3 27 -7
v -3 27 -8
v -3 28 -7
v -3 28 -8
v -3 29 -6
v -3 29 -7
v -3 30 -6
v -3 30 -7
v -3 32 -6
v -3 32 -7
v -3 33 -6
v -3 33 -7
v -3 34 -7
v -3 34 -8
v -3 35 -7
v -3 35 -8
v -2 1 7
v -2 1 6
v -2 1 5
v -2 1 3
v -2 1 2
v -2 1 1
v -2 2 7
v -2 2 6
v -2 2 5
v -2 2 3
v -2 2 2
v -2 2 1
v -2 13 7
v -2 13 6
v -2 13 2
v -2 13 1
v -2 21 7
v -2 21 6
v -2 21 2
v -2 21 1
v -2 28 2
v -2 28 1
v -2 28 -6
v -2 28 -7
v -2 29 6
v -2 29 5
v -2 29 1
v -2 29 -6
v -2 29 -7
v -2 30 -6
v -2 30 -7
v -2 31 5
v -2 31 4
v -2 32 4
v -2 32 2
v -2 32 -6
v -2 32 -7
v -2 33 2
v -2 33 -6
v -2 33 -7
v -2 34 -6
v -2 34 -7
v 1 1 7
v 1 1 6
v 1 1 2
v 1 1 1
v 1 2 7
v 1 2 6
v 1 2 2
v 1 2 1
v 1 15 7
v 1 15 6
v 1 19 7
v 1 19 6
v 1 28 -6
v 1 28 -7
v 1 29 -6
v 1 29 -7
v 1 33 -6
v 1 33 -7
v 1 34 -6
v 1 34 -7
v -1 1 7
v -1 1 6
v -1 1 2
v -1 1 1
v -1 2 7
v -1 2 6
v -1 2 2
v -1 2 1
v -1 15 7
v -1 15 6
v -1 19 7
v -1 19 6
v -1 28 -6
v -1 28 -7
v -1 29 -6
v -1 29 -7
v -1 33 -6
v -1 33 -7
v -1 34 -6
v -1 34 -7
v 2 1 7
v 2 1 6
v 2 1 5
v 2 1 3
v 2 1 2
v 2 1 1
v 2 2 7
v 2 2 6
v 2 2 5
v 2 2 3
v 2 2 2
v 2 2 1
v 2 13 7
v 2 13 6
v 2 13 2
v 2 13 1
v 2 21 7
v 2 21 6
v 2 21 2
v 2 21 1
v 2 28 2
v 2 28 1
v 2 28 -6
v 2 28 -7
v 2 29 6
v 2 29 5
v 2 29 1
v 2 29 -6
v 2 29 -7
v 2 30 -6
v 2 30 -7
v 2 31 5
v 2 31 4
v 2 32 4
v 2 32 2
v 2 32 -6
v 2 32 -7
v 2 33 2
v 2 33 -6
v 2 33 -7
v 2 34 -6
v 2 34 -7
v 3 0 8
v 3 0 7
v 3 0 1
v 3 0 -0
v 3 1 8
v 3 1 7
v 3 1 6
v 3 1 5
v 3 1 3
v 3 1 2
v 3 1 1
v 3 1 -0
v 3 2 6
v 3 2 5
v 3 2 3
v 3 2 2
v 3 13 6
v 3 13 2
v 3 21 6
v 3 21 2
v 3 27 -7
v 3 27 -8
v 3 28 -7
v 3 28 -8
v 3 29 -6
v 3 29 -7
v 3 30 -6
v 3 30 -7
v 3 32 -6
v 3 32 -7
v 3 33 -6
v 3 33 -7
v 3 34 -7
v 3 34 -8
v 3 35 -7
v 3 35 -8
v 4 0 7
v 4 0 1
v 4 1 7
v 4 1 1
v 4 28 -7
v 4 28 -8
v 4 34 -7
v 4 34 -8
v -3 0 8
v -3 1 8
v 3 0 8
v 3 1 8
v -4 0 7
v -4 1 7
v -3 0 7
v -3 1 7
v -2 1 7
v -2 2 7
v -2 13 7
v -2 21 7
v -1 1 7
v -1 2 7
v -1 14 7
v -1 15 7
v -1 19 7
v -1 20 7
v 1 1 7
v 1 2 7
v 1 14 7
v 1 15 7
v 1 19 7
v 1 20 7
v 2 1 7
v 2 2 7
v 2 13 7
v 2 21 7
v 3 0 7
v 3 1 7
v 4 0 7
v 4 1 7
v -3 1 6
v -3 2 6
v -3 13 6
v -3 21 6
v -2 1 6
v -2 2 6
v -2 13 6
v -2 21 6
v -2 29 6
v -1 1 6
v -1 2 6
v -1 15 6
v -1 19 6
v 1 1 6
v 1 2 6
v 1 15 6
v 1 19 6
v 2 1 6
v 2 2 6
v 2 13 6
v 2 21 6
v 2 29 6
v 3 1 6
v 3 2 6
v 3 13 6
v 3 21 6
v -2 29 5
v -2 31 5
v 2 29 5
v 2 31 5
v -2 31 4
v -2 32 4
v 2 31 4
v 2 32 4
v -3 1 3
v -3 2 3
v -2 1 3
v -2 2 3
v 2 1 3
v 2 2 3
v 3 1 3
v 3 2 3
v -2 32 2
v -2 33 2
v 2 32 2
v 2 33 2
v -3 29 -6
v -3 30 -6
v -3 32 -6
v -3 33 -6
v -2 28 -6
v -2 29 -6
v -2 30 -6
v -2 32 -6
v -2 33 -6
v -2 34 -6
v -1 28 -6
v -1 29 -6
v -1 33 -6
v -1 34 -6
v 1 28 -6
v 1 29 -6
v 1 33 -6
v 1 34 -6
v 2 28 -6
v 2 29 -6
v 2 30 -6
v 2 32 -6
v 2 33 -6
v 2 34 -6
v 3 29 -6
v 3 30 -6
v 3 32 -6
v 3 33 -6
v -4 28 -7
v -4 34 -7
v -3 27 -7
v -3 28 -7
v -3 29 -7
v -3 30 -7
v -3 32 -7
v -3 33 -7
v -3 34 -7
v -3 35 -7
v -2 28 -7
v -2 29 -7
v -2 30 -7
v -2 32 -7
v -2 33 -7
v -2 34 -7
v -1 28 -7
v -1 29 -7
v -1 33 -7
v -1 34 -7
v 1 28 -7
v 1 29 -7
v 1 33 -7
v 1 34 -7
v 2 28 -7
v 2 29 -7
v 2 30 -7
v 2 32 -7
v 2 33 -7
v 2 34 -7
v 3 27 -7
v 3 28 -7
v 3 29 -7
v 3 30 -7
v 3 32 -7
v 3 33 -7
v 3 34 -7
v 3 35 -7
v 4 28 -7
v 4 34 -7
v -3 1 5
v -3 2 5
v -2 1 5
v -2 2 5
v 2 1 5
v 2 2 5
v 3 1 5
v 3 2 5
v -3 1 2
v -3 2 2
v -3 13 2
v -3 21 2
v -2 1 2
v -2 2 2
v -2 13 2
v -2 21 2
v -2 28 2
v -1 1 2
v -1 2 2
v 1 1 2
v 1 2 2
v 2 1 2
v 2 2 2
v 2 13 2
v 2 21 2
v 2 28 2
v 3 1 2
v 3 2 2
v 3 13 2
v 3 21 2
v -4 0 1
v -4 1 1
v -3 0 1
v -3 1 1
v -2 1 1
v -2 2 1
v -2 13 1
v -2 21 1
v -2 28 1
v -2 29 1
v -1 1 1
v -1 2 1
v 1 1 1
v 1 2 1
v 2 1 1
v 2 2 1
v 2 13 1
v 2 21 1
v 2 28 1
v 2 29 1
v 3 0 1
v 3 1 1
v 4 0 1
v 4 1 1
v -3 0 -0
v -3 1 -0
v 3 0 -0
v 3 1 -0
v -4 28 -8
v -4 34 -8
v -3 27 -8
v -3 28 -8
v -3 34 -8
v -3 35 -8
v 3 27 -8
v 3 28 -8
v 3 34 -8
v 3 35 -8
v 4 28 -8
v 4 34 -8
v -3 0 8
v 3 0 8
v -4 0 7
v -3 0 7
v 3 0 7
v 4 0 7
v -4 0 1
v -3 0 1
v 3 0 1
v 4 0 1
v -3 0 -0
v 3 0 -0
v -2 13 7
v 2 13 7
v -3 13 6
v -2 13 6
v 2 13 6
v 3 13 6
v -3 13 2
v -2 13 2
v 2 13 2
v 3 13 2
v -2 13 1
v 2 13 1
v -1 19 7
v 1 19 7
v -1 19 6
v 1 19 6
v -3 27 -7
v 3 27 -7
v -3 27 -8
v 3 27 -8
v -2 28 2
v 2 28 2
v -2 28 1
v 2 28 1
v -2 28 -6
v -1 28 -6
v 1 28 -6
v 2 28 -6
v -4 28 -7
v -3 28 -7
v -2 28 -7
v -1 28 -7
v 1 28 -7
v 2 28 -7
v 3 28 -7
v 4 28 -7
v -4 28 -8
v -3 28 -8
v 3 28 -8
v 4 28 -8
v -2 29 1
v 2 29 1
v -3 29 -6
v -2 29 -6
v -1 29 -6
v 1 29 -6
v 2 29 -6
v 3 29 -6
v -3 29 -7
v -2 29 -7
v -1 29 -7
v 1 29 -7
v 2 29 -7
v 3 29 -7
v -3 32 -6
v -2 32 -6
v 2 32 -6
v 3 32 -6
v -3 32 -7
v -2 32 -7
v 2 32 -7
v 3 32 -7
v -3 1 8
v 3 1 8
v -4 1 7
v -3 1 7
v -2 1 7
v -1 1 7
v 1 1 7
v 2 1 7
v 3 1 7
v 4 1 7
v -3 1 6
v -2 1 6
v -1 1 6
v 1 1 6
v 2 1 6
v 3 1 6
v -3 1 5
v -2 1 5
v 2 1 5
v 3 1 5
v -3 1 3
v -2 1 3
v 2 1 3
v 3 1 3
v -3 1 2
v -2 1 2
v -1 1 2
v 1 1 2
v 2 1 2
v 3 1 2
v -4 1 1
v -3 1 1
v -2 1 1
v -1 1 1
v 1 1 1
v 2 1 1
v 3 1 1
v 4 1 1
v -3 1 -0
v 3 1 -0
v -2 2 7
v -1 2 7
v 1 2 7
v 2 2 7
v -3 2 6
v -2 2 6
v -1 2 6
v 1 2 6
v 2 2 6
v 3 2 6
v -3 2 5
v -2 2 5
v 2 2 5
v 3 2 5
v -3 2 3
v -2 2 3
v 2 2 3
v 3 2 3
v -3 2 2
v -2 2 2
v -1 2 2
v 1 2 2
v 2 2 2
v 3 2 2
v -2 2 1
v -1 2 1
v 1 2 1
v 2 2 1
v -1 15 7
v 1 15 7
v -1 15 6
v 1 15 6
v -2 21 7
v 2 21 7
v -3 21 6
v -2 21 6
v 2 21 6
v 3 21 6
v -3 21 2
v -2 21 2
v 2 21 2
v 3 21 2
v -2 21 1
v 2 21 1
v -2 29 6
v 2 29 6
v -2 29 5
v 2 29 5
v -3 30 -6
v -2 30 -6
v 2 30 -6
v 3 30 -6
v -3 30 -7
v -2 30 -7
v 2 30 -7
v 3 30 -7
v -2 31 5
v 2 31 5
v -2 31 4
v 2 31 4
v -2 32 4
v 2 32 4
v -2 32 2
v 2 32 2
v -2 33 2
v 2 33 2
v -3 33 -6
v -2 33 -6
v -1 33 -6
v 1 33 -6
v 2 33 -6
v 3 33 -6
v -3 33 -7
v -2 33 -7
v -1 33 -7
v 1 33 -7
v 2 33 -7
v 3 33 -7
v -2 34 -6
v -1 34 -6
v 1 34 -6
v 2 34 -6
v -4 34 -7
v -3 34 -7
v -2 34 -7
v -1 34 -7
v 1 34 -7
v 2 34 -7
v 3 34 -7
v 4 34 -7
v -4 34 -8
v -3 34 -8
v 3 34 -8
v 4 34 -8
v -3 35 -7
v 3 35 -7
v -3 35 -8
v 3 35 -8

# faces
f 3/2/1 2/2/1 1/2/1
f 4/2/1 2/2/1 3/2/1
f 7/2/1 6/2/1 5/2/1
f 8/2/1 6/2/1 7/2/1
f 13/2/1 10/2/1 9/2/1
f 14/2/1 10/2/1 13/2/1
f 19/2/1 12/2/1 11/2/1
f 20/2/1 12/2/1 19/2/1
f 21/3/1 16/3/1 15/3/1
f 22/3/1 16/3/1 21/3/1
f 23/3/1 18/3/1 17/3/1
f 24/3/1 18/3/1 23/3/1
f 27/5/1 26/5/1 25/5/1
f 28/5/1 26/5/1 27/5/1
f 31/2/1 30/2/1 29/2/1
f 32/2/1 30/2/1 31/2/1
f 35/3/1 34/3/1 33/3/1
f 36/3/1 34/3/1 35/3/1
f 39/3/1 38/3/1 37/3/1
f 40/3/1 38/3/1 39/3/1
f 43/2/1 42/2/1 41/2/1
f 44/2/1 42/2/1 43/2/1
f 51/3/1 46/3/1 45/3/1
f 52/3/1 46/3/1 51/3/1
f 53/2/1 48/2/1 47/2/1
f 54/2/1 48/2/1 53/2/1
f 55/3/1 50/3/1 49/3/1
f 56/3/1 50/3/1 55/3/1
f 58/2/1 54/2/1 53/2/1
f 58/2/1 55/2/1 54/2/1
f 58/2/1 53/2/1 52/2/1
f 59/2/1 55/2/1 58/2/1
f 61/5/1 58/5/1 57/5/1
f 62/5/1 58/5/1 61/5/1
f 63/5/1 60/5/1 59/5/1
f 64/5/1 60/5/1 63/5/1
f 65/2/1 63/2/1 62/2/1
f 69/2/1 66/2/1 65/2/1
f 69/2/1 65/2/1 62/2/1
f 70/2/1 66/2/1 69/2/1
f 71/2/1 66/2/1 70/2/1
f 72/3/1 68/3/1 67/3/1
f 73/3/1 68/3/1 72/3/1
f 74/2/1 71/2/1 70/2/1
f 74/2/1 72/2/1 71/2/1
f 76/2/1 74/2/1 70/2/1
f 76/2/1 75/2/1 74/2/1
f 77/2/1 75/2/1 76/2/1
f 78/2/1 75/2/1 77/2/1
f 79/2/1 75/2/1 78/2/1
f 80/2/1 75/2/1 79/2/1
f 81/2/1 75/2/1 80/2/1
f 82/2/1 80/2/1 79/2/1
f 83/2/1 80/2/1 82/2/1
f 85/3/1 84/3/1 83/3/1
f 86/3/1 84/3/1 85/3/1
f 91/3/1 88/3/1 87/3/1
f 92/3/1 88/3/1 91/3/1
f 93/3/1 90/3/1 89/3/1
f 94/3/1 90/3/1 93/3/1
f 97/5/1 96/5/1 95/5/1
f 98/5/1 96/5/1 97/5/1
f 101/3/1 100/3/1 99/3/1
f 102/3/1 100/3/1 101/3/1
f 105/3/1 104/3/1 103/3/1
f 106/3/1 104/3/1 105/3/1
f 107/3/2 108/3/2 111/3/2
f 111/3/2 108/3/2 112/3/2
f 109/3/2 110/3/2 113/3/2
f 113/3/2 110/3/2 114/3/2
f 115/5/2 116/5/2 117/5/2
f 117/5/2 116/5/2 118/5/2
f 119/3/2 120/3/2 121/3/2
f 121/3/2 120/3/2 122/3/2
f 123/3/2 124/3/2 125/3/2
f 125/3/2 124/3/2 126/3/2
f 127/3/2 128/3/2 133/3/2
f 133/3/2 128/3/2 134/3/2
f 129/2/2 130/2/2 135/2/2
f 135/2/2 130/2/2 136/2/2
f 131/3/2 132/3/2 137/3/2
f 137/3/2 132/3/2 138/3/2
f 135/2/2 136/2/2 140/2/2
f 136/2/2 137/2/2 140/2/2
f 134/2/2 135/2/2 140/2/2
f 140/2/2 137/2/2 141/2/2
f 139/5/2 140/5/2 143/5/2
f 143/5/2 140/5/2 144/5/2
f 141/5/2 142/5/2 145/5/2
f 145/5/2 142/5/2 146/5/2
f 144/2/2 145/2/2 147/2/2
f 147/2/2 148/2/2 151/2/2
f 144/2/2 147/2/2 151/2/2
f 151/2/2 148/2/2 152/2/2
f 152/2/2 148/2/2 153/2/2
f 149/3/2 150/3/2 154/3/2
f 154/3/2 150/3/2 155/3/2
f 152/2/2 153/2/2 156/2/2
f 153/2/2 154/2/2 156/2/2
f 152/2/2 156/2/2 158/2/2
f 156/2/2 157/2/2 158/2/2
f 158/2/2 157/2/2 159/2/2
f 159/2/2 157/2/2 160/2/2
f 160/2/2 157/2/2 161/2/2
f 161/2/2 157/2/2 162/2/2
f 162/2/2 157/2/2 163/2/2
f 161/2/2 162/2/2 164/2/2
f 164/2/2 162/2/2 165/2/2
f 165/3/2 166/3/2 167/3/2
f 167/3/2 166/3/2 168/3/2
f 169/2/2 170/2/2 173/2/2
f 173/2/2 170/2/2 174/2/2
f 171/2/2 172/2/2 179/2/2
f 179/2/2 172/2/2 180/2/2
f 175/3/2 176/3/2 181/3/2
f 181/3/2 176/3/2 182/3/2
f 177/3/2 178/3/2 183/3/2
f 183/3/2 178/3/2 184/3/2
f 185/5/2 186/5/2 187/5/2
f 187/5/2 186/5/2 188/5/2
f 189/2/2 190/2/2 191/2/2
f 191/2/2 190/2/2 192/2/2
f 193/3/2 194/3/2 195/3/2
f 195/3/2 194/3/2 196/3/2
f 197/3/2 198/3/2 199/3/2
f 199/3/2 198/3/2 200/3/2
f 201/2/2 202/2/2 203/2/2
f 203/2/2 202/2/2 204/2/2
f 205/2/2 206/2/2 207/2/2
f 207/2/2 206/2/2 208/2/2
f 209/2/2 210/2/2 211/2/2
f 211/2/2 210/2/2 212/2/2
f 215/2/3 214/2/3 213/2/3
f 216/2/3 214/2/3 215/2/3
f 219/2/3 218/2/3 217/2/3
f 220/2/3 218/2/3 219/2/3
f 225/3/3 222/3/3 221/3/3
f 226/3/3 222/3/3 225/3/3
f 227/5/3 224/5/3 223/5/3
f 228/5/3 224/5/3 227/5/3
f 229/5/3 224/5/3 228/5/3
f 230/5/3 224/5/3 229/5/3
f 233/5/3 227/5/3 223/5/3
f 233/4/3 228/4/3 227/4/3
f 234/4/3 228/4/3 233/4/3
f 235/4/3 230/4/3 229/4/3
f 236/5/3 224/5/3 230/5/3
f 236/4/3 230/4/3 235/4/3
f 237/3/3 232/3/3 231/3/3
f 238/3/3 232/3/3 237/3/3
f 239/5/3 235/5/3 234/5/3
f 239/5/3 234/5/3 233/5/3
f 239/5/3 233/5/3 223/5/3
f 239/5/3 236/5/3 235/5/3
f 240/5/3 224/5/3 236/5/3
f 240/5/3 236/5/3 239/5/3
f 243/2/3 242/2/3 241/2/3
f 244/2/3 242/2/3 243/2/3
f 249/3/3 246/3/3 245/3/3
f 250/3/3 246/3/3 249/3/3
f 251/5/3 248/5/3 247/5/3
f 252/5/3 248/5/3 251/5/3
f 255/2/3 251/2/3 250/2/3
f 258/2/3 255/2/3 254/2/3
f 259/2/3 251/2/3 255/2/3
f 259/2/3 255/2/3 258/2/3
f 260/1/3 257/1/3 256/1/3
f 261/1/3 257/1/3 260/1/3
f 263/2/3 251/2/3 259/2/3
f 264/2/3 251/2/3 263/2/3
f 265/2/3 253/2/3 252/2/3
f 266/2/3 253/2/3 265/2/3
f 267/3/3 263/3/3 262/3/3
f 268/3/3 263/3/3 267/3/3
f 269/5/3 265/5/3 264/5/3
f 270/5/3 265/5/3 269/5/3
f 273/2/3 272/2/3 271/2/3
f 274/2/3 272/2/3 273/2/3
f 277/2/3 276/2/3 275/2/3
f 278/2/3 276/2/3 277/2/3
f 281/3/3 280/3/3 279/3/3
f 282/3/3 280/3/3 281/3/3
f 285/3/3 284/3/3 283/3/3
f 286/3/3 284/3/3 285/3/3
f 289/2/3 288/2/3 287/2/3
f 290/2/3 288/2/3 289/2/3
f 296/3/3 292/3/3 291/3/3
f 297/3/3 292/3/3 296/3/3
f 298/3/3 294/3/3 293/3/3
f 299/3/3 294/3/3 298/3/3
f 301/3/3 296/3/3 295/3/3
f 302/3/3 296/3/3 301/3/3
f 303/3/3 300/3/3 299/3/3
f 304/3/3 300/3/3 303/3/3
f 309/3/3 306/3/3 305/3/3
f 310/3/3 306/3/3 309/3/3
f 313/3/3 308/3/3 307/3/3
f 314/3/3 308/3/3 313/3/3
f 315/3/3 311/3/3 310/3/3
f 316/3/3 311/3/3 315/3/3
f 317/3/3 313/3/3 312/3/3
f 318/3/3 313/3/3 317/3/3
f 322/2/3 320/2/3 319/2/3
f 323/2/3 320/2/3 322/2/3
f 324/2/3 320/2/3 323/2/3
f 325/2/3 320/2/3 324/2/3
f 326/2/3 320/2/3 325/2/3
f 327/2/3 320/2/3 326/2/3
f 329/2/3 322/2/3 321/2/3
f 329/2/3 323/2/3 322/2/3
f 330/2/3 323/2/3 329/2/3
f 331/2/3 325/2/3 324/2/3
f 332/2/3 325/2/3 331/2/3
f 333/2/3 328/2/3 327/2/3
f 333/2/3 327/2/3 326/2/3
f 334/2/3 328/2/3 333/2/3
f 335/2/3 329/2/3 321/2/3
f 338/2/3 328/2/3 334/2/3
f 339/2/3 336/2/3 335/2/3
f 339/2/3 335/2/3 321/2/3
f 340/2/3 336/2/3 339/2/3
f 341/2/3 338/2/3 337/2/3
f 342/2/3 328/2/3 338/2/3
f 342/2/3 338/2/3 341/2/3
f 343/2/3 339/2/3 321/2/3
f 348/2/3 328/2/3 342/2/3
f 349/2/3 343/2/3 321/2/3
f 349/2/3 344/2/3 343/2/3
f 350/2/3 344/2/3 349/2/3
f 351/2/3 344/2/3 350/2/3
f 352/2/3 346/2/3 345/2/3
f 353/2/3 346/2/3 352/2/3
f 354/2/3 348/2/3 347/2/3
f 355/2/3 328/2/3 348/2/3
f 355/2/3 348/2/3 354/2/3
f 356/2/3 328/2/3 355/2/3
f 357/2/3 351/2/3 350/2/3
f 357/2/3 353/2/3 352/2/3
f 357/2/3 355/2/3 354/2/3
f 357/2/3 354/2/3 353/2/3
f 357/2/3 352/2/3 351/2/3
f 358/2/3 355/2/3 357/2/3
f 359/3/4 360/3/4 361/3/4
f 361/3/4 360/3/4 362/3/4
f 363/3/4 364/3/4 365/3/4
f 365/3/4 364/3/4 366/3/4
f 367/3/4 368/3/4 371/3/4
f 371/3/4 368/3/4 372/3/4
f 369/5/4 370/5/4 373/5/4
f 373/5/4 370/5/4 374/5/4
f 372/2/4 373/2/4 377/2/4
f 376/2/4 377/2/4 378/2/4
f 377/2/4 373/2/4 379/2/4
f 378/2/4 377/2/4 379/2/4
f 379/2/4 373/2/4 381/2/4
f 381/2/4 373/2/4 382/2/4
f 374/2/4 375/2/4 383/2/4
f 383/2/4 375/2/4 384/2/4
f 380/3/4 381/3/4 385/3/4
f 385/3/4 381/3/4 386/3/4
f 382/5/4 383/5/4 387/5/4
f 387/5/4 383/5/4 388/5/4
f 389/2/4 390/2/4 391/2/4
f 391/2/4 390/2/4 392/2/4
f 393/3/4 394/3/4 399/3/4
f 399/3/4 394/3/4 400/3/4
f 401/3/4 402/3/4 403/3/4
f 403/3/4 402/3/4 404/3/4
f 395/5/4 396/5/4 405/5/4
f 405/5/4 396/5/4 406/5/4
f 397/2/4 398/2/4 407/2/4
f 407/2/4 398/2/4 408/2/4
f 409/2/4 410/2/4 411/2/4
f 411/2/4 410/2/4 412/2/4
f 413/2/4 414/2/4 415/2/4
f 415/2/4 414/2/4 416/2/4
f 417/2/4 418/2/4 420/2/4
f 420/2/4 418/2/4 421/2/4
f 419/2/4 420/2/4 423/2/4
f 421/2/4 422/2/4 423/2/4
f 420/2/4 421/2/4 423/2/4
f 423/2/4 422/2/4 424/2/4
f 424/2/4 422/2/4 425/2/4
f 425/2/4 422/2/4 426/2/4
f 424/2/4 425/2/4 427/2/4
f 427/2/4 425/2/4 428/2/4
f 432/2/5 430/2/5 429/2/5
f 433/2/5 430/2/5 432/2/5
f 435/2/5 432/2/5 431/2/5
f 435/2/5 434/2/5 433/2/5
f 435/2/5 433/2/5 432/2/5
f 436/2/5 434/2/5 435/2/5
f 437/2/5 434/2/5 436/2/5
f 438/2/5 434/2/5 437/2/5
f 439/2/5 437/2/5 436/2/5
f 440/2/5 437/2/5 439/2/5
f 444/5/5 442/5/5 441/5/5
f 445/5/5 442/5/5 444/5/5
f 447/5/5 444/5/5 443/5/5
f 448/5/5 444/5/5 447/5/5
f 449/5/5 446/5/5 445/5/5
f 450/5/5 446/5/5 449/5/5
f 451/5/5 449/5/5 448/5/5
f 452/5/5 449/5/5 451/5/5
f 455/4/5 454/4/5 453/4/5
f 456/4/5 454/4/5 455/4/5
f 459/2/5 458/2/5 457/2/5
f 460/2/5 458/2/5 459/2/5
f 463/2/5 462/2/5 461/2/5
f 464/2/5 462/2/5 463/2/5
f 471/3/5 466/3/5 465/3/5
f 472/3/5 466/3/5 471/3/5
f 473/3/5 468/3/5 467/3/5
f 474/3/5 468/3/5 473/3/5
f 477/2/5 470/2/5 469/2/5
f 478/2/5 470/2/5 477/2/5
f 479/2/5 476/2/5 475/2/5
f 480/2/5 476/2/5 479/2/5
f 484/2/5 482/2/5 481/2/5
f 485/2/5 482/2/5 484/2/5
f 486/2/5 482/2/5 485/2/5
f 487/2/5 482/2/5 486/2/5
f 489/3/5 484/3/5 483/3/5
f 490/3/5 484/3/5 489/3/5
f 491/2/5 486/2/5 485/2/5
f 492/2/5 486/2/5 491/2/5
f 493/3/5 488/3/5 487/3/5
f 494/3/5 488/3/5 493/3/5
f 499/3/5 496/3/5 495/3/5
f 500/3/5 496/3/5 499/3/5
f 501/3/5 498/3/5 497/3/5
f 502/3/5 498/3/5 501/3/5
f 503/2/6 504/2/6 506/2/6
f 506/2/6 504/2/6 507/2/6
f 507/2/6 504/2/6 508/2/6
f 508/2/6 504/2/6 509/2/6
f 509/2/6 504/2/6 510/2/6
f 510/2/6 504/2/6 511/2/6
f 505/2/6 506/2/6 513/2/6
f 506/2/6 507/2/6 513/2/6
f 513/2/6 507/2/6 514/2/6
f 508/2/6 509/2/6 515/2/6
f 515/2/6 509/2/6 516/2/6
f 511/2/6 512/2/6 517/2/6
f 510/2/6 511/2/6 517/2/6
f 517/2/6 512/2/6 518/2/6
f 505/2/6 513/2/6 519/2/6
f 518/2/6 512/2/6 522/2/6
f 519/2/6 520/2/6 523/2/6
f 505/2/6 519/2/6 523/2/6
f 523/2/6 520/2/6 524/2/6
f 521/2/6 522/2/6 525/2/6
f 522/2/6 512/2/6 526/2/6
f 525/2/6 522/2/6 526/2/6
f 505/2/6 523/2/6 527/2/6
f 526/2/6 512/2/6 532/2/6
f 505/2/6 527/2/6 533/2/6
f 527/2/6 528/2/6 533/2/6
f 533/2/6 528/2/6 534/2/6
f 534/2/6 528/2/6 535/2/6
f 529/2/6 530/2/6 536/2/6
f 536/2/6 530/2/6 537/2/6
f 531/2/6 532/2/6 538/2/6
f 532/2/6 512/2/6 539/2/6
f 538/2/6 532/2/6 539/2/6
f 539/2/6 512/2/6 540/2/6
f 534/2/6 535/2/6 541/2/6
f 536/2/6 537/2/6 541/2/6
f 538/2/6 539/2/6 541/2/6
f 537/2/6 538/2/6 541/2/6
f 535/2/6 536/2/6 541/2/6
f 541/2/6 539/2/6 542/2/6
f 543/3/6 544/3/6 548/3/6
f 548/3/6 544/3/6 549/3/6
f 545/3/6 546/3/6 550/3/6
f 550/3/6 546/3/6 551/3/6
f 547/3/6 548/3/6 553/3/6
f 553/3/6 548/3/6 554/3/6
f 551/3/6 552/3/6 555/3/6
f 555/3/6 552/3/6 556/3/6
f 557/3/6 558/3/6 561/3/6
f 561/3/6 558/3/6 562/3/6
f 559/3/6 560/3/6 565/3/6
f 565/3/6 560/3/6 566/3/6
f 562/3/6 563/3/6 567/3/6
f 567/3/6 563/3/6 568/3/6
f 564/3/6 565/3/6 569/3/6
f 569/3/6 565/3/6 570/3/6
f 571/4/6 572/4/6 573/4/6
f 573/4/6 572/4/6 574/4/6
f 575/5/6 576/5/6 578/5/6
f 578/5/6 576/5/6 579/5/6
f 577/5/6 578/5/6 581/5/6
f 581/5/6 578/5/6 582/5/6
f 579/5/6 580/5/6 583/5/6
f 583/5/6 580/5/6 584/5/6
f 582/5/6 583/5/6 585/5/6
f 585/5/6 583/5/6 586/5/6
f 587/2/6 588/2/6 589/2/6
f 589/2/6 588/2/6 590/2/6
f 591/3/6 592/3/6 595/3/6
f 595/3/6 592/3/6 596/3/6
f 593/3/6 594/3/6 597/3/6
f 597/3/6 594/3/6 598/3/6
f 599/2/6 600/2/6 601/2/6
f 601/2/6 600/2/6 602/2/6
f 603/2/6 604/2/6 605/2/6
f 605/2/6 604/2/6 606/2/6
f 607/2/6 608/2/6 610/2/6
f 610/2/6 608/2/6 611/2/6
f 611/2/6 608/2/6 612/2/6
f 612/2/6 608/2/6 613/2/6
f 609/3/6 610/3/6 615/3/6
f 615/3/6 610/3/6 616/3/6
f 611/2/6 612/2/6 617/2/6
f 617/2/6 612/2/6 618/2/6
f 613/3/6 614/3/6 619/3/6
f 619/3/6 614/3/6 620/3/6
f 621/3/6 622/3/6 627/3/6
f 627/3/6 622/3/6 628/3/6
f 623/3/6 624/3/6 629/3/6
f 629/3/6 624/3/6 630/3/6
f 625/2/6 626/2/6 633/2/6
f 633/2/6 626/2/6 634/2/6
f 631/2/6 632/2/6 635/2/6
f 635/2/6 632/2/6 636/2/6
f 637/2/6 638/2/6 639/2/6
f 639/2/6 638/2/6 640/2/6
