# MagicaVoxel @ Ephtracy

# material
mtllib Box.mtl
usemtl palette

# normals
vn -1 0 0
vn 1 0 0
vn 0 0 1
vn 0 0 -1
vn 0 -1 0
vn 0 1 0

# texcoords
vt 0.275391 0.5
vt 0.283203 0.5
vt 0.306641 0.5

# verts
v -5 0 5
v -5 0 -5
v -5 1 4
v -5 1 -4
v -5 9 4
v -5 9 -4
v -5 10 5
v -5 10 -5
v -4 1 4
v -4 1 3
v -4 1 -3
v -4 1 -4
v -4 2 4
v -4 2 3
v -4 2 2
v -4 2 -2
v -4 2 -3
v -4 2 -4
v -4 3 3
v -4 3 2
v -4 3 1
v -4 3 -1
v -4 3 -2
v -4 3 -3
v -4 4 2
v -4 4 1
v -4 4 -1
v -4 4 -2
v -4 6 2
v -4 6 1
v -4 6 -1
v -4 6 -2
v -4 7 3
v -4 7 2
v -4 7 1
v -4 7 -1
v -4 7 -2
v -4 7 -3
v -4 8 4
v -4 8 3
v -4 8 2
v -4 8 -2
v -4 8 -3
v -4 8 -4
v -4 9 4
v -4 9 3
v -4 9 -3
v -4 9 -4
v 4 1 5
v 4 1 4
v 4 1 -4
v 4 1 -5
v 4 2 4
v 4 2 -4
v 4 8 4
v 4 8 -4
v 4 9 5
v 4 9 4
v 4 9 3
v 4 9 -3
v 4 9 -4
v 4 9 -5
v 4 10 4
v 4 10 -4
v -4 1 5
v -4 1 4
v -4 1 -4
v -4 1 -5
v -4 2 4
v -4 2 -4
v -4 8 4
v -4 8 -4
v -4 9 5
v -4 9 4
v -4 9 3
v -4 9 -3
v -4 9 -4
v -4 9 -5
v -4 10 4
v -4 10 -4
v 4 1 4
v 4 1 3
v 4 1 -3
v 4 1 -4
v 4 2 4
v 4 2 3
v 4 2 2
v 4 2 -2
v 4 2 -3
v 4 2 -4
v 4 3 3
v 4 3 2
v 4 3 1
v 4 3 -1
v 4 3 -2
v 4 3 -3
v 4 4 2
v 4 4 1
v 4 4 -1
v 4 4 -2
v 4 6 2
v 4 6 1
v 4 6 -1
v 4 6 -2
v 4 7 3
v 4 7 2
v 4 7 1
v 4 7 -1
v 4 7 -2
v 4 7 -3
v 4 8 4
v 4 8 3
v 4 8 2
v 4 8 -2
v 4 8 -3
v 4 8 -4
v 4 9 4
v 4 9 3
v 4 9 -3
v 4 9 -4
v 5 0 5
v 5 0 -5
v 5 1 4
v 5 1 -4
v 5 9 4
v 5 9 -4
v 5 10 5
v 5 10 -5
v -5 0 5
v -5 10 5
v -4 1 5
v -4 9 5
v 4 1 5
v 4 9 5
v 5 0 5
v 5 10 5
v -4 1 4
v -4 2 4
v -4 8 4
v -4 9 4
v -3 1 4
v -3 2 4
v -3 3 4
v -3 7 4
v -3 8 4
v -3 9 4
v -2 2 4
v -2 3 4
v -2 4 4
v -2 6 4
v -2 7 4
v -2 8 4
v -1 3 4
v -1 4 4
v -1 6 4
v -1 7 4
v 1 3 4
v 1 4 4
v 1 6 4
v 1 7 4
v 2 2 4
v 2 3 4
v 2 4 4
v 2 6 4
v 2 7 4
v 2 8 4
v 3 1 4
v 3 2 4
v 3 3 4
v 3 7 4
v 3 8 4
v 3 9 4
v 4 1 4
v 4 2 4
v 4 8 4
v 4 9 4
v -5 1 -4
v -5 9 -4
v -4 1 -4
v -4 2 -4
v -4 8 -4
v -4 9 -4
v -4 10 -4
v -3 9 -4
v 3 9 -4
v 4 1 -4
v 4 2 -4
v 4 8 -4
v 4 9 -4
v 4 10 -4
v 5 1 -4
v 5 9 -4
v -5 1 4
v -5 9 4
v -4 1 4
v -4 2 4
v -4 8 4
v -4 9 4
v -4 10 4
v -3 9 4
v 3 9 4
v 4 1 4
v 4 2 4
v 4 8 4
v 4 9 4
v 4 10 4
v 5 1 4
v 5 9 4
v -4 1 -4
v -4 2 -4
v -4 8 -4
v -4 9 -4
v -3 1 -4
v -3 2 -4
v -3 3 -4
v -3 7 -4
v -3 8 -4
v -3 9 -4
v -2 2 -4
v -2 3 -4
v -2 4 -4
v -2 6 -4
v -2 7 -4
v -2 8 -4
v -1 3 -4
v -1 4 -4
v -1 6 -4
v -1 7 -4
v 1 3 -4
v 1 4 -4
v 1 6 -4
v 1 7 -4
v 2 2 -4
v 2 3 -4
v 2 4 -4
v 2 6 -4
v 2 7 -4
v 2 8 -4
v 3 1 -4
v 3 2 -4
v 3 3 -4
v 3 7 -4
v 3 8 -4
v 3 9 -4
v 4 1 -4
v 4 2 -4
v 4 8 -4
v 4 9 -4
v -5 0 -5
v -5 10 -5
v -4 1 -5
v -4 9 -5
v 4 1 -5
v 4 9 -5
v 5 0 -5
v 5 10 -5
v -5 0 5
v 5 0 5
v -5 0 -5
v 5 0 -5
v -4 9 5
v 4 9 5
v -5 9 4
v -4 9 4
v -3 9 4
v 3 9 4
v 4 9 4
v 5 9 4
v -4 9 3
v 4 9 3
v -4 9 -3
v 4 9 -3
v -5 9 -4
v -4 9 -4
v -3 9 -4
v 3 9 -4
v 4 9 -4
v 5 9 -4
v -4 9 -5
v 4 9 -5
v -4 1 5
v 4 1 5
v -5 1 4
v -4 1 4
v -3 1 4
v 3 1 4
v 4 1 4
v 5 1 4
v -4 1 3
v 4 1 3
v -4 1 -3
v 4 1 -3
v -5 1 -4
v -4 1 -4
v -3 1 -4
v 3 1 -4
v 4 1 -4
v 5 1 -4
v -4 1 -5
v 4 1 -5
v -4 9 4
v -3 9 4
v 3 9 4
v 4 9 4
v -4 9 3
v -3 9 3
v -2 9 3
v 2 9 3
v 3 9 3
v 4 9 3
v -3 9 2
v -2 9 2
v -1 9 2
v 1 9 2
v 2 9 2
v 3 9 2
v -2 9 1
v -1 9 1
v 1 9 1
v 2 9 1
v -2 9 -1
v -1 9 -1
v 1 9 -1
v 2 9 -1
v -3 9 -2
v -2 9 -2
v -1 9 -2
v 1 9 -2
v 2 9 -2
v 3 9 -2
v -4 9 -3
v -3 9 -3
v -2 9 -3
v 2 9 -3
v 3 9 -3
v 4 9 -3
v -4 9 -4
v -3 9 -4
v 3 9 -4
v 4 9 -4
v -5 10 5
v 5 10 5
v -4 10 4
v 4 10 4
v -4 10 -4
v 4 10 -4
v -5 10 -5
v 5 10 -5

# faces
f 3/2/1 2/2/1 1/2/1
f 4/2/1 2/2/1 3/2/1
f 5/2/1 3/2/1 1/2/1
f 6/2/1 2/2/1 4/2/1
f 7/2/1 5/2/1 1/2/1
f 7/2/1 6/2/1 5/2/1
f 8/2/1 2/2/1 6/2/1
f 8/2/1 6/2/1 7/2/1
f 13/1/1 10/1/1 9/1/1
f 14/3/1 11/3/1 10/3/1
f 14/1/1 10/1/1 13/1/1
f 15/3/1 11/3/1 14/3/1
f 16/3/1 11/3/1 15/3/1
f 17/1/1 12/1/1 11/1/1
f 17/3/1 11/3/1 16/3/1
f 18/1/1 12/1/1 17/1/1
f 19/3/1 14/3/1 13/3/1
f 19/1/1 15/1/1 14/1/1
f 20/3/1 16/3/1 15/3/1
f 20/1/1 15/1/1 19/1/1
f 21/3/1 16/3/1 20/3/1
f 22/3/1 16/3/1 21/3/1
f 23/1/1 17/1/1 16/1/1
f 23/3/1 16/3/1 22/3/1
f 24/3/1 18/3/1 17/3/1
f 24/1/1 17/1/1 23/1/1
f 25/3/1 20/3/1 19/3/1
f 25/1/1 21/1/1 20/1/1
f 26/3/1 22/3/1 21/3/1
f 26/1/1 21/1/1 25/1/1
f 27/1/1 23/1/1 22/1/1
f 27/3/1 22/3/1 26/3/1
f 28/3/1 24/3/1 23/3/1
f 28/1/1 23/1/1 27/1/1
f 29/3/1 26/3/1 25/3/1
f 29/3/1 25/3/1 19/3/1
f 30/1/1 27/1/1 26/1/1
f 30/3/1 26/3/1 29/3/1
f 31/3/1 28/3/1 27/3/1
f 31/1/1 27/1/1 30/1/1
f 32/3/1 24/3/1 28/3/1
f 32/3/1 28/3/1 31/3/1
f 33/3/1 19/3/1 13/3/1
f 33/3/1 29/3/1 19/3/1
f 34/1/1 30/1/1 29/1/1
f 34/3/1 29/3/1 33/3/1
f 35/3/1 31/3/1 30/3/1
f 35/1/1 30/1/1 34/1/1
f 36/1/1 32/1/1 31/1/1
f 36/3/1 31/3/1 35/3/1
f 37/3/1 24/3/1 32/3/1
f 37/1/1 32/1/1 36/1/1
f 38/3/1 18/3/1 24/3/1
f 38/3/1 24/3/1 37/3/1
f 39/3/1 33/3/1 13/3/1
f 40/1/1 34/1/1 33/1/1
f 40/3/1 33/3/1 39/3/1
f 41/3/1 36/3/1 35/3/1
f 41/1/1 34/1/1 40/1/1
f 41/3/1 37/3/1 36/3/1
f 41/3/1 35/3/1 34/3/1
f 42/1/1 38/1/1 37/1/1
f 42/3/1 37/3/1 41/3/1
f 43/3/1 18/3/1 38/3/1
f 43/1/1 38/1/1 42/1/1
f 44/3/1 18/3/1 43/3/1
f 45/1/1 40/1/1 39/1/1
f 46/3/1 42/3/1 41/3/1
f 46/1/1 40/1/1 45/1/1
f 46/3/1 41/3/1 40/3/1
f 46/3/1 43/3/1 42/3/1
f 47/1/1 44/1/1 43/1/1
f 47/3/1 43/3/1 46/3/1
f 48/1/1 44/1/1 47/1/1
f 53/2/1 50/2/1 49/2/1
f 54/2/1 52/2/1 51/2/1
f 55/2/1 53/2/1 49/2/1
f 56/2/1 52/2/1 54/2/1
f 57/2/1 55/2/1 49/2/1
f 58/2/1 55/2/1 57/2/1
f 61/2/1 52/2/1 56/2/1
f 62/2/1 52/2/1 61/2/1
f 63/2/1 60/2/1 59/2/1
f 63/2/1 61/2/1 60/2/1
f 63/2/1 59/2/1 58/2/1
f 64/2/1 61/2/1 63/2/1
f 65/2/2 66/2/2 69/2/2
f 67/2/2 68/2/2 70/2/2
f 65/2/2 69/2/2 71/2/2
f 70/2/2 68/2/2 72/2/2
f 65/2/2 71/2/2 73/2/2
f 73/2/2 71/2/2 74/2/2
f 72/2/2 68/2/2 77/2/2
f 77/2/2 68/2/2 78/2/2
f 75/2/2 76/2/2 79/2/2
f 76/2/2 77/2/2 79/2/2
f 74/2/2 75/2/2 79/2/2
f 79/2/2 77/2/2 80/2/2
f 81/1/2 82/1/2 85/1/2
f 82/3/2 83/3/2 86/3/2
f 85/1/2 82/1/2 86/1/2
f 86/3/2 83/3/2 87/3/2
f 87/3/2 83/3/2 88/3/2
f 83/1/2 84/1/2 89/1/2
f 88/3/2 83/3/2 89/3/2
f 89/1/2 84/1/2 90/1/2
f 85/3/2 86/3/2 91/3/2
f 86/1/2 87/1/2 91/1/2
f 87/3/2 88/3/2 92/3/2
f 91/1/2 87/1/2 92/1/2
f 92/3/2 88/3/2 93/3/2
f 93/3/2 88/3/2 94/3/2
f 88/1/2 89/1/2 95/1/2
f 94/3/2 88/3/2 95/3/2
f 89/3/2 90/3/2 96/3/2
f 95/1/2 89/1/2 96/1/2
f 91/3/2 92/3/2 97/3/2
f 92/1/2 93/1/2 97/1/2
f 93/3/2 94/3/2 98/3/2
f 97/1/2 93/1/2 98/1/2
f 94/1/2 95/1/2 99/1/2
f 98/3/2 94/3/2 99/3/2
f 95/3/2 96/3/2 100/3/2
f 99/1/2 95/1/2 100/1/2
f 97/3/2 98/3/2 101/3/2
f 91/3/2 97/3/2 101/3/2
f 98/1/2 99/1/2 102/1/2
f 101/3/2 98/3/2 102/3/2
f 99/3/2 100/3/2 103/3/2
f 102/1/2 99/1/2 103/1/2
f 100/3/2 96/3/2 104/3/2
f 103/3/2 100/3/2 104/3/2
f 85/3/2 91/3/2 105/3/2
f 91/3/2 101/3/2 105/3/2
f 101/1/2 102/1/2 106/1/2
f 105/3/2 101/3/2 106/3/2
f 102/3/2 103/3/2 107/3/2
f 106/1/2 102/1/2 107/1/2
f 103/1/2 104/1/2 108/1/2
f 107/3/2 103/3/2 108/3/2
f 104/3/2 96/3/2 109/3/2
f 108/1/2 104/1/2 109/1/2
f 96/3/2 90/3/2 110/3/2
f 109/3/2 96/3/2 110/3/2
f 85/3/2 105/3/2 111/3/2
f 105/1/2 106/1/2 112/1/2
f 111/3/2 105/3/2 112/3/2
f 107/3/2 108/3/2 113/3/2
f 112/1/2 106/1/2 113/1/2
f 108/3/2 109/3/2 113/3/2
f 106/3/2 107/3/2 113/3/2
f 109/1/2 110/1/2 114/1/2
f 113/3/2 109/3/2 114/3/2
f 110/3/2 90/3/2 115/3/2
f 114/1/2 110/1/2 115/1/2
f 115/3/2 90/3/2 116/3/2
f 111/1/2 112/1/2 117/1/2
f 113/3/2 114/3/2 118/3/2
f 117/1/2 112/1/2 118/1/2
f 112/3/2 113/3/2 118/3/2
f 114/3/2 115/3/2 118/3/2
f 115/1/2 116/1/2 119/1/2
f 118/3/2 115/3/2 119/3/2
f 119/1/2 116/1/2 120/1/2
f 121/2/2 122/2/2 123/2/2
f 123/2/2 122/2/2 124/2/2
f 121/2/2 123/2/2 125/2/2
f 124/2/2 122/2/2 126/2/2
f 121/2/2 125/2/2 127/2/2
f 125/2/2 126/2/2 127/2/2
f 126/2/2 122/2/2 128/2/2
f 127/2/2 126/2/2 128/2/2
f 131/2/3 130/2/3 129/2/3
f 132/2/3 130/2/3 131/2/3
f 133/2/3 131/2/3 129/2/3
f 134/2/3 130/2/3 132/2/3
f 135/2/3 133/2/3 129/2/3
f 135/2/3 134/2/3 133/2/3
f 136/2/3 130/2/3 134/2/3
f 136/2/3 134/2/3 135/2/3
f 141/1/3 138/1/3 137/1/3
f 142/3/3 139/3/3 138/3/3
f 142/1/3 138/1/3 141/1/3
f 143/3/3 139/3/3 142/3/3
f 144/3/3 139/3/3 143/3/3
f 145/1/3 140/1/3 139/1/3
f 145/3/3 139/3/3 144/3/3
f 146/1/3 140/1/3 145/1/3
f 147/3/3 142/3/3 141/3/3
f 147/1/3 143/1/3 142/1/3
f 148/3/3 144/3/3 143/3/3
f 148/1/3 143/1/3 147/1/3
f 149/3/3 144/3/3 148/3/3
f 150/3/3 144/3/3 149/3/3
f 151/1/3 145/1/3 144/1/3
f 151/3/3 144/3/3 150/3/3
f 152/3/3 146/3/3 145/3/3
f 152/1/3 145/1/3 151/1/3
f 153/3/3 148/3/3 147/3/3
f 153/1/3 149/1/3 148/1/3
f 154/3/3 150/3/3 149/3/3
f 154/1/3 149/1/3 153/1/3
f 155/1/3 151/1/3 150/1/3
f 155/3/3 150/3/3 154/3/3
f 156/3/3 152/3/3 151/3/3
f 156/1/3 151/1/3 155/1/3
f 157/3/3 154/3/3 153/3/3
f 157/3/3 153/3/3 147/3/3
f 158/1/3 155/1/3 154/1/3
f 158/3/3 154/3/3 157/3/3
f 159/3/3 156/3/3 155/3/3
f 159/1/3 155/1/3 158/1/3
f 160/3/3 152/3/3 156/3/3
f 160/3/3 156/3/3 159/3/3
f 161/3/3 147/3/3 141/3/3
f 161/3/3 157/3/3 147/3/3
f 162/1/3 158/1/3 157/1/3
f 162/3/3 157/3/3 161/3/3
f 163/3/3 159/3/3 158/3/3
f 163/1/3 158/1/3 162/1/3
f 164/1/3 160/1/3 159/1/3
f 164/3/3 159/3/3 163/3/3
f 165/3/3 152/3/3 160/3/3
f 165/1/3 160/1/3 164/1/3
f 166/3/3 146/3/3 152/3/3
f 166/3/3 152/3/3 165/3/3
f 167/3/3 161/3/3 141/3/3
f 168/1/3 162/1/3 161/1/3
f 168/3/3 161/3/3 167/3/3
f 169/3/3 164/3/3 163/3/3
f 169/1/3 162/1/3 168/1/3
f 169/3/3 165/3/3 164/3/3
f 169/3/3 163/3/3 162/3/3
f 170/1/3 166/1/3 165/1/3
f 170/3/3 165/3/3 169/3/3
f 171/3/3 146/3/3 166/3/3
f 171/1/3 166/1/3 170/1/3
f 172/3/3 146/3/3 171/3/3
f 173/1/3 168/1/3 167/1/3
f 174/3/3 170/3/3 169/3/3
f 174/1/3 168/1/3 173/1/3
f 174/3/3 169/3/3 168/3/3
f 174/3/3 171/3/3 170/3/3
f 175/1/3 172/1/3 171/1/3
f 175/3/3 171/3/3 174/3/3
f 176/1/3 172/1/3 175/1/3
f 179/2/3 178/2/3 177/2/3
f 180/2/3 178/2/3 179/2/3
f 181/2/3 178/2/3 180/2/3
f 182/2/3 178/2/3 181/2/3
f 184/2/3 183/2/3 182/2/3
f 185/2/3 183/2/3 184/2/3
f 189/2/3 183/2/3 185/2/3
f 190/2/3 183/2/3 189/2/3
f 191/2/3 188/2/3 187/2/3
f 191/2/3 187/2/3 186/2/3
f 191/2/3 189/2/3 188/2/3
f 192/2/3 189/2/3 191/2/3
f 193/2/4 194/2/4 195/2/4
f 195/2/4 194/2/4 196/2/4
f 196/2/4 194/2/4 197/2/4
f 197/2/4 194/2/4 198/2/4
f 198/2/4 199/2/4 200/2/4
f 200/2/4 199/2/4 201/2/4
f 201/2/4 199/2/4 205/2/4
f 205/2/4 199/2/4 206/2/4
f 203/2/4 204/2/4 207/2/4
f 202/2/4 203/2/4 207/2/4
f 204/2/4 205/2/4 207/2/4
f 207/2/4 205/2/4 208/2/4
f 209/1/4 210/1/4 213/1/4
f 210/3/4 211/3/4 214/3/4
f 213/1/4 210/1/4 214/1/4
f 214/3/4 211/3/4 215/3/4
f 215/3/4 211/3/4 216/3/4
f 211/1/4 212/1/4 217/1/4
f 216/3/4 211/3/4 217/3/4
f 217/1/4 212/1/4 218/1/4
f 213/3/4 214/3/4 219/3/4
f 214/1/4 215/1/4 219/1/4
f 215/3/4 216/3/4 220/3/4
f 219/1/4 215/1/4 220/1/4
f 220/3/4 216/3/4 221/3/4
f 221/3/4 216/3/4 222/3/4
f 216/1/4 217/1/4 223/1/4
f 222/3/4 216/3/4 223/3/4
f 217/3/4 218/3/4 224/3/4
f 223/1/4 217/1/4 224/1/4
f 219/3/4 220/3/4 225/3/4
f 220/1/4 221/1/4 225/1/4
f 221/3/4 222/3/4 226/3/4
f 225/1/4 221/1/4 226/1/4
f 222/1/4 223/1/4 227/1/4
f 226/3/4 222/3/4 227/3/4
f 223/3/4 224/3/4 228/3/4
f 227/1/4 223/1/4 228/1/4
f 225/3/4 226/3/4 229/3/4
f 219/3/4 225/3/4 229/3/4
f 226/1/4 227/1/4 230/1/4
f 229/3/4 226/3/4 230/3/4
f 227/3/4 228/3/4 231/3/4
f 230/1/4 227/1/4 231/1/4
f 228/3/4 224/3/4 232/3/4
f 231/3/4 228/3/4 232/3/4
f 213/3/4 219/3/4 233/3/4
f 219/3/4 229/3/4 233/3/4
f 229/1/4 230/1/4 234/1/4
f 233/3/4 229/3/4 234/3/4
f 230/3/4 231/3/4 235/3/4
f 234/1/4 230/1/4 235/1/4
f 231/1/4 232/1/4 236/1/4
f 235/3/4 231/3/4 236/3/4
f 232/3/4 224/3/4 237/3/4
f 236/1/4 232/1/4 237/1/4
f 224/3/4 218/3/4 238/3/4
f 237/3/4 224/3/4 238/3/4
f 213/3/4 233/3/4 239/3/4
f 233/1/4 234/1/4 240/1/4
f 239/3/4 233/3/4 240/3/4
f 235/3/4 236/3/4 241/3/4
f 240/1/4 234/1/4 241/1/4
f 236/3/4 237/3/4 241/3/4
f 234/3/4 235/3/4 241/3/4
f 237/1/4 238/1/4 242/1/4
f 241/3/4 237/3/4 242/3/4
f 238/3/4 218/3/4 243/3/4
f 242/1/4 238/1/4 243/1/4
f 243/3/4 218/3/4 244/3/4
f 239/1/4 240/1/4 245/1/4
f 241/3/4 242/3/4 246/3/4
f 245/1/4 240/1/4 246/1/4
f 240/3/4 241/3/4 246/3/4
f 242/3/4 243/3/4 246/3/4
f 243/1/4 244/1/4 247/1/4
f 246/3/4 243/3/4 247/3/4
f 247/1/4 244/1/4 248/1/4
f 249/2/4 250/2/4 251/2/4
f 251/2/4 250/2/4 252/2/4
f 249/2/4 251/2/4 253/2/4
f 252/2/4 250/2/4 254/2/4
f 249/2/4 253/2/4 255/2/4
f 253/2/4 254/2/4 255/2/4
f 254/2/4 250/2/4 256/2/4
f 255/2/4 254/2/4 256/2/4
f 259/2/5 258/2/5 257/2/5
f 260/2/5 258/2/5 259/2/5
f 264/2/5 262/2/5 261/2/5
f 265/2/5 262/2/5 264/2/5
f 266/2/5 262/2/5 265/2/5
f 267/2/5 262/2/5 266/2/5
f 269/2/5 264/2/5 263/2/5
f 270/2/5 268/2/5 267/2/5
f 271/2/5 269/2/5 263/2/5
f 272/2/5 268/2/5 270/2/5
f 273/2/5 271/2/5 263/2/5
f 274/2/5 271/2/5 273/2/5
f 277/2/5 268/2/5 272/2/5
f 278/2/5 268/2/5 277/2/5
f 279/2/5 276/2/5 275/2/5
f 279/2/5 277/2/5 276/2/5
f 279/2/5 275/2/5 274/2/5
f 280/2/5 277/2/5 279/2/5
f 281/2/6 282/2/6 284/2/6
f 284/2/6 282/2/6 285/2/6
f 285/2/6 282/2/6 286/2/6
f 286/2/6 282/2/6 287/2/6
f 283/2/6 284/2/6 289/2/6
f 287/2/6 288/2/6 290/2/6
f 283/2/6 289/2/6 291/2/6
f 290/2/6 288/2/6 292/2/6
f 283/2/6 291/2/6 293/2/6
f 293/2/6 291/2/6 294/2/6
f 292/2/6 288/2/6 297/2/6
f 297/2/6 288/2/6 298/2/6
f 295/2/6 296/2/6 299/2/6
f 296/2/6 297/2/6 299/2/6
f 294/2/6 295/2/6 299/2/6
f 299/2/6 297/2/6 300/2/6
f 301/1/6 302/1/6 305/1/6
f 302/3/6 303/3/6 306/3/6
f 305/1/6 302/1/6 306/1/6
f 306/3/6 303/3/6 307/3/6
f 307/3/6 303/3/6 308/3/6
f 303/1/6 304/1/6 309/1/6
f 308/3/6 303/3/6 309/3/6
f 309/1/6 304/1/6 310/1/6
f 305/3/6 306/3/6 311/3/6
f 306/1/6 307/1/6 311/1/6
f 307/3/6 308/3/6 312/3/6
f 311/1/6 307/1/6 312/1/6
f 312/3/6 308/3/6 313/3/6
f 313/3/6 308/3/6 314/3/6
f 308/1/6 309/1/6 315/1/6
f 314/3/6 308/3/6 315/3/6
f 309/3/6 310/3/6 316/3/6
f 315/1/6 309/1/6 316/1/6
f 311/3/6 312/3/6 317/3/6
f 312/1/6 313/1/6 317/1/6
f 313/3/6 314/3/6 318/3/6
f 317/1/6 313/1/6 318/1/6
f 314/1/6 315/1/6 319/1/6
f 318/3/6 314/3/6 319/3/6
f 315/3/6 316/3/6 320/3/6
f 319/1/6 315/1/6 320/1/6
f 317/3/6 318/3/6 321/3/6
f 311/3/6 317/3/6 321/3/6
f 318/1/6 319/1/6 322/1/6
f 321/3/6 318/3/6 322/3/6
f 319/3/6 320/3/6 323/3/6
f 322/1/6 319/1/6 323/1/6
f 320/3/6 316/3/6 324/3/6
f 323/3/6 320/3/6 324/3/6
f 305/3/6 311/3/6 325/3/6
f 311/3/6 321/3/6 325/3/6
f 321/1/6 322/1/6 326/1/6
f 325/3/6 321/3/6 326/3/6
f 322/3/6 323/3/6 327/3/6
f 326/1/6 322/1/6 327/1/6
f 323/1/6 324/1/6 328/1/6
f 327/3/6 323/3/6 328/3/6
f 324/3/6 316/3/6 329/3/6
f 328/1/6 324/1/6 329/1/6
f 316/3/6 310/3/6 330/3/6
f 329/3/6 316/3/6 330/3/6
f 305/3/6 325/3/6 331/3/6
f 325/1/6 326/1/6 332/1/6
f 331/3/6 325/3/6 332/3/6
f 327/3/6 328/3/6 333/3/6
f 332/1/6 326/1/6 333/1/6
f 328/3/6 329/3/6 333/3/6
f 326/3/6 327/3/6 333/3/6
f 329/1/6 330/1/6 334/1/6
f 333/3/6 329/3/6 334/3/6
f 330/3/6 310/3/6 335/3/6
f 334/1/6 330/1/6 335/1/6
f 335/3/6 310/3/6 336/3/6
f 331/1/6 332/1/6 337/1/6
f 333/3/6 334/3/6 338/3/6
f 337/1/6 332/1/6 338/1/6
f 332/3/6 333/3/6 338/3/6
f 334/3/6 335/3/6 338/3/6
f 335/1/6 336/1/6 339/1/6
f 338/3/6 335/3/6 339/3/6
f 339/1/6 336/1/6 340/1/6
f 341/2/6 342/2/6 343/2/6
f 343/2/6 342/2/6 344/2/6
f 341/2/6 343/2/6 345/2/6
f 344/2/6 342/2/6 346/2/6
f 341/2/6 345/2/6 347/2/6
f 345/2/6 346/2/6 347/2/6
f 346/2/6 342/2/6 348/2/6
f 347/2/6 346/2/6 348/2/6
