# MagicaVoxel @ Ephtracy

# material
mtllib Bathtub.mtl
usemtl palette

# normals
vn -1 0 0
vn 1 0 0
vn 0 0 1
vn 0 0 -1
vn 0 -1 0
vn 0 1 0

# texcoords
vt 0.00195313 0.5
vt 0.259766 0.5
vt 0.283203 0.5

# verts
v -11 7 4
v -11 7 -4
v -11 8 4
v -11 8 -4
v -10 5 4
v -10 5 -4
v -10 7 5
v -10 7 4
v -10 7 -4
v -10 7 -5
v -10 8 5
v -10 8 4
v -10 8 -4
v -10 8 -5
v -9 0 4
v -9 0 2
v -9 0 -2
v -9 0 -4
v -9 1 4
v -9 1 2
v -9 1 -2
v -9 1 -4
v -9 2 3
v -9 2 -3
v -9 4 4
v -9 4 3
v -9 4 -3
v -9 4 -4
v -9 5 5
v -9 5 4
v -9 5 -4
v -9 5 -5
v -9 7 6
v -9 7 5
v -9 7 4
v -9 7 -4
v -9 7 -5
v -9 7 -6
v -9 8 6
v -9 8 5
v -9 8 -5
v -9 8 -6
v -8 1 3
v -8 1 2
v -8 1 -2
v -8 1 -3
v -8 2 4
v -8 2 3
v -8 2 2
v -8 2 -2
v -8 2 -3
v -8 2 -4
v -8 4 4
v -8 4 3
v -8 4 -3
v -8 4 -4
v 5 1 1
v 5 1 -1
v 5 2 1
v 5 2 -1
v 7 0 4
v 7 0 2
v 7 0 -2
v 7 0 -4
v 7 1 4
v 7 1 3
v 7 1 -3
v 7 1 -4
v 7 2 3
v 7 2 2
v 7 2 1
v 7 2 -1
v 7 2 -2
v 7 2 -3
v 7 3 1
v 7 3 -1
v 7 9 1
v 7 9 -1
v 7 10 1
v 7 10 -1
v 8 3 3
v 8 3 -3
v 8 5 3
v 8 5 -3
v 8 7 -4
v 8 7 -5
v 8 8 -4
v 8 8 -5
v 8 10 1
v 8 10 -1
v 8 11 1
v 8 11 -1
v 9 5 4
v 9 5 -4
v 9 7 5
v 9 7 4
v 9 7 1
v 9 7 -1
v 9 7 -4
v 9 8 5
v 9 8 4
v 9 10 1
v 9 10 -1
v 10 7 4
v 10 7 1
v 10 7 -1
v 10 7 -4
v 10 8 4
v 10 8 1
v 10 8 -1
v 10 8 -4
v -10 7 4
v -10 7 -4
v -10 8 4
v -10 8 -4
v -9 5 4
v -9 5 -4
v -9 7 5
v -9 7 4
v -9 7 -4
v -9 7 -5
v -9 8 5
v -9 8 4
v -9 8 -4
v -9 8 -5
v -8 3 3
v -8 3 -3
v -8 5 3
v -8 5 -3
v -7 0 4
v -7 0 2
v -7 0 -2
v -7 0 -4
v -7 1 4
v -7 1 3
v -7 1 -3
v -7 1 -4
v -7 2 3
v -7 2 2
v -7 2 -2
v -7 2 -3
v 5 2 1
v 5 2 -1
v 5 3 1
v 5 3 -1
v 7 1 1
v 7 1 -1
v 7 2 1
v 7 2 -1
v 8 1 3
v 8 1 2
v 8 1 -2
v 8 1 -3
v 8 2 4
v 8 2 3
v 8 2 2
v 8 2 -2
v 8 2 -3
v 8 2 -4
v 8 4 4
v 8 4 3
v 8 4 -3
v 8 4 -4
v 8 9 1
v 8 9 -1
v 8 10 1
v 8 10 -1
v 9 0 4
v 9 0 2
v 9 0 -2
v 9 0 -4
v 9 1 4
v 9 1 2
v 9 1 -2
v 9 1 -4
v 9 2 3
v 9 2 -3
v 9 4 4
v 9 4 3
v 9 4 -3
v 9 4 -4
v 9 5 5
v 9 5 4
v 9 5 -4
v 9 5 -5
v 9 7 6
v 9 7 5
v 9 7 4
v 9 7 -4
v 9 7 -5
v 9 7 -6
v 9 8 6
v 9 8 5
v 9 8 -4
v 9 8 -6
v 9 10 1
v 9 10 -1
v 9 11 1
v 9 11 -1
v 10 5 4
v 10 5 -4
v 10 7 5
v 10 7 4
v 10 7 -4
v 10 8 5
v 10 8 4
v 10 8 1
v 10 8 -1
v 10 10 1
v 10 10 -1
v 11 7 4
v 11 7 -4
v 11 8 4
v 11 8 -4
v -9 7 6
v -9 8 6
v 9 7 6
v 9 8 6
v -10 7 5
v -10 8 5
v -9 5 5
v -9 7 5
v -9 8 5
v 9 5 5
v 9 7 5
v 9 8 5
v 10 7 5
v 10 8 5
v -11 7 4
v -11 8 4
v -10 5 4
v -10 7 4
v -10 8 4
v -9 0 4
v -9 1 4
v -9 4 4
v -9 5 4
v -9 7 4
v -8 2 4
v -8 4 4
v -7 0 4
v -7 1 4
v 7 0 4
v 7 1 4
v 8 2 4
v 8 4 4
v 9 0 4
v 9 1 4
v 9 4 4
v 9 5 4
v 9 7 4
v 10 5 4
v 10 7 4
v 10 8 4
v 11 7 4
v 11 8 4
v -9 2 3
v -9 4 3
v -8 1 3
v -8 2 3
v -8 4 3
v -7 1 3
v -7 2 3
v 7 1 3
v 7 2 3
v 8 1 3
v 8 2 3
v 8 4 3
v 9 2 3
v 9 4 3
v 5 1 1
v 5 2 1
v 7 1 1
v 7 2 1
v 7 9 1
v 7 10 1
v 8 9 1
v 8 10 1
v 8 11 1
v 9 7 1
v 9 10 1
v 9 11 1
v 10 7 1
v 10 8 1
v 10 10 1
v 5 2 -1
v 5 3 -1
v 7 2 -1
v 7 3 -1
v -9 0 -2
v -9 1 -2
v -8 1 -2
v -8 2 -2
v -7 0 -2
v -7 2 -2
v 7 0 -2
v 7 2 -2
v 8 1 -2
v 8 2 -2
v 9 0 -2
v 9 1 -2
v -8 3 -3
v -8 5 -3
v 8 3 -3
v 8 5 -3
v -10 7 -4
v -10 8 -4
v -9 5 -4
v -9 7 -4
v -9 8 -4
v 8 7 -4
v 8 8 -4
v 9 5 -4
v 9 7 -4
v 9 8 -4
v -9 7 -5
v -9 8 -5
v 8 7 -5
v 8 8 -5
v -9 7 5
v -9 8 5
v 9 7 5
v 9 8 5
v -10 7 4
v -10 8 4
v -9 5 4
v -9 7 4
v -9 8 4
v 9 5 4
v 9 7 4
v 9 8 4
v 10 7 4
v 10 8 4
v -8 3 3
v -8 5 3
v 8 3 3
v 8 5 3
v -9 0 2
v -9 1 2
v -8 1 2
v -8 2 2
v -7 0 2
v -7 2 2
v 7 0 2
v 7 2 2
v 8 1 2
v 8 2 2
v 9 0 2
v 9 1 2
v 5 2 1
v 5 3 1
v 7 2 1
v 7 3 1
v 5 1 -1
v 5 2 -1
v 7 1 -1
v 7 2 -1
v 7 9 -1
v 7 10 -1
v 8 9 -1
v 8 10 -1
v 8 11 -1
v 9 7 -1
v 9 10 -1
v 9 11 -1
v 10 7 -1
v 10 8 -1
v 10 10 -1
v -9 2 -3
v -9 4 -3
v -8 1 -3
v -8 2 -3
v -8 4 -3
v -7 1 -3
v -7 2 -3
v 7 1 -3
v 7 2 -3
v 8 1 -3
v 8 2 -3
v 8 4 -3
v 9 2 -3
v 9 4 -3
v -11 7 -4
v -11 8 -4
v -10 5 -4
v -10 7 -4
v -10 8 -4
v -9 0 -4
v -9 1 -4
v -9 4 -4
v -9 5 -4
v -9 7 -4
v -8 2 -4
v -8 4 -4
v -7 0 -4
v -7 1 -4
v 7 0 -4
v 7 1 -4
v 8 2 -4
v 8 4 -4
v 9 0 -4
v 9 1 -4
v 9 4 -4
v 9 5 -4
v 9 7 -4
v 10 5 -4
v 10 7 -4
v 10 8 -4
v 11 7 -4
v 11 8 -4
v -10 7 -5
v -10 8 -5
v -9 5 -5
v -9 7 -5
v -9 8 -5
v 9 5 -5
v 9 7 -5
v -9 7 -6
v -9 8 -6
v 9 7 -6
v 9 8 -6
v -9 0 4
v -7 0 4
v 7 0 4
v 9 0 4
v -9 0 2
v -7 0 2
v 7 0 2
v 9 0 2
v -9 0 -2
v -7 0 -2
v 7 0 -2
v 9 0 -2
v -9 0 -4
v -7 0 -4
v 7 0 -4
v 9 0 -4
v 5 1 1
v 7 1 1
v 5 1 -1
v 7 1 -1
v -8 2 4
v 8 2 4
v -9 2 3
v -8 2 3
v -7 2 3
v 7 2 3
v 8 2 3
v 9 2 3
v -8 2 2
v -7 2 2
v 7 2 2
v 8 2 2
v 5 2 1
v 7 2 1
v 5 2 -1
v 7 2 -1
v -8 2 -2
v -7 2 -2
v 7 2 -2
v 8 2 -2
v -9 2 -3
v -8 2 -3
v -7 2 -3
v 7 2 -3
v 8 2 -3
v 9 2 -3
v -8 2 -4
v 8 2 -4
v -9 4 4
v -8 4 4
v 8 4 4
v 9 4 4
v -9 4 3
v -8 4 3
v 8 4 3
v 9 4 3
v -9 4 -3
v -8 4 -3
v 8 4 -3
v 9 4 -3
v -9 4 -4
v -8 4 -4
v 8 4 -4
v 9 4 -4
v -9 5 5
v 9 5 5
v -10 5 4
v -9 5 4
v 9 5 4
v 10 5 4
v -10 5 -4
v -9 5 -4
v 9 5 -4
v 10 5 -4
v -9 5 -5
v 9 5 -5
v -9 7 6
v 9 7 6
v -10 7 5
v -9 7 5
v 9 7 5
v 10 7 5
v -11 7 4
v -10 7 4
v -9 7 4
v 9 7 4
v 10 7 4
v 11 7 4
v -11 7 -4
v -10 7 -4
v -9 7 -4
v 10 7 -4
v 11 7 -4
v -10 7 -5
v -9 7 -5
v 9 7 -5
v -9 7 -6
v 9 7 -6
v 7 9 1
v 8 9 1
v 7 9 -1
v 8 9 -1
v 8 10 1
v 9 10 1
v 8 10 -1
v 9 10 -1
v -9 1 4
v -7 1 4
v 7 1 4
v 9 1 4
v -8 1 3
v -7 1 3
v 7 1 3
v 8 1 3
v -9 1 2
v -8 1 2
v 8 1 2
v 9 1 2
v -9 1 -2
v -8 1 -2
v 8 1 -2
v 9 1 -2
v -8 1 -3
v -7 1 -3
v 7 1 -3
v 8 1 -3
v -9 1 -4
v -7 1 -4
v 7 1 -4
v 9 1 -4
v 5 2 1
v 7 2 1
v 5 2 -1
v 7 2 -1
v -8 3 3
v 8 3 3
v 5 3 1
v 7 3 1
v 5 3 -1
v 7 3 -1
v -8 3 -3
v 8 3 -3
v -9 5 4
v 9 5 4
v -8 5 3
v 8 5 3
v -8 5 -3
v 8 5 -3
v -9 5 -4
v 9 5 -4
v -9 7 5
v 9 7 5
v -10 7 4
v -9 7 4
v 9 7 4
v 10 7 4
v 9 7 1
v 10 7 1
v 9 7 -1
v 10 7 -1
v -10 7 -4
v -9 7 -4
v 8 7 -4
v 9 7 -4
v 10 7 -4
v -9 7 -5
v 8 7 -5
v -9 8 6
v 9 8 6
v -10 8 5
v -9 8 5
v 9 8 5
v 10 8 5
v -11 8 4
v -10 8 4
v -9 8 4
v 9 8 4
v 10 8 4
v 11 8 4
v 10 8 1
v 10 8 -1
v -11 8 -4
v -10 8 -4
v -9 8 -4
v 8 8 -4
v 9 8 -4
v 10 8 -4
v 11 8 -4
v -10 8 -5
v -9 8 -5
v 8 8 -5
v -9 8 -6
v 9 8 -6
v 7 10 1
v 8 10 1
v 9 10 1
v 10 10 1
v 7 10 -1
v 8 10 -1
v 9 10 -1
v 10 10 -1
v 8 11 1
v 9 11 1
v 8 11 -1
v 9 11 -1

# faces
f 3/1/1 2/1/1 1/1/1
f 4/1/1 2/1/1 3/1/1
f 8/1/1 6/1/1 5/1/1
f 9/1/1 6/1/1 8/1/1
f 11/1/1 8/1/1 7/1/1
f 12/1/1 8/1/1 11/1/1
f 13/1/1 10/1/1 9/1/1
f 14/1/1 10/1/1 13/1/1
f 19/3/1 16/3/1 15/3/1
f 20/3/1 16/3/1 19/3/1
f 21/3/1 18/3/1 17/3/1
f 22/3/1 18/3/1 21/3/1
f 26/1/1 24/1/1 23/1/1
f 27/1/1 24/1/1 26/1/1
f 30/1/1 26/1/1 25/1/1
f 30/1/1 28/1/1 27/1/1
f 30/1/1 27/1/1 26/1/1
f 31/1/1 28/1/1 30/1/1
f 34/1/1 30/1/1 29/1/1
f 35/1/1 30/1/1 34/1/1
f 36/1/1 32/1/1 31/1/1
f 37/1/1 32/1/1 36/1/1
f 39/1/1 34/1/1 33/1/1
f 40/1/1 34/1/1 39/1/1
f 41/1/1 38/1/1 37/1/1
f 42/1/1 38/1/1 41/1/1
f 48/3/1 44/3/1 43/3/1
f 49/3/1 44/3/1 48/3/1
f 50/3/1 46/3/1 45/3/1
f 51/3/1 46/3/1 50/3/1
f 53/1/1 48/1/1 47/1/1
f 54/1/1 48/1/1 53/1/1
f 55/1/1 52/1/1 51/1/1
f 56/1/1 52/1/1 55/1/1
f 59/2/1 58/2/1 57/2/1
f 60/2/1 58/2/1 59/2/1
f 65/3/1 62/3/1 61/3/1
f 66/3/1 62/3/1 65/3/1
f 67/3/1 64/3/1 63/3/1
f 68/3/1 64/3/1 67/3/1
f 69/3/1 62/3/1 66/3/1
f 70/3/1 62/3/1 69/3/1
f 73/3/1 67/3/1 63/3/1
f 74/3/1 67/3/1 73/3/1
f 75/1/1 72/1/1 71/1/1
f 76/1/1 72/1/1 75/1/1
f 79/3/1 78/3/1 77/3/1
f 80/3/1 78/3/1 79/3/1
f 83/1/1 82/1/1 81/1/1
f 84/1/1 82/1/1 83/1/1
f 87/1/1 86/1/1 85/1/1
f 88/1/1 86/1/1 87/1/1
f 91/3/1 90/3/1 89/3/1
f 92/3/1 90/3/1 91/3/1
f 96/1/1 94/1/1 93/1/1
f 97/1/1 94/1/1 96/1/1
f 98/1/1 94/1/1 97/1/1
f 99/1/1 94/1/1 98/1/1
f 100/1/1 96/1/1 95/1/1
f 101/1/1 96/1/1 100/1/1
f 102/3/1 98/3/1 97/3/1
f 103/3/1 98/3/1 102/3/1
f 108/1/1 105/1/1 104/1/1
f 109/1/1 105/1/1 108/1/1
f 110/1/1 107/1/1 106/1/1
f 111/1/1 107/1/1 110/1/1
f 112/1/2 113/1/2 114/1/2
f 114/1/2 113/1/2 115/1/2
f 116/1/2 117/1/2 119/1/2
f 119/1/2 117/1/2 120/1/2
f 118/1/2 119/1/2 122/1/2
f 122/1/2 119/1/2 123/1/2
f 120/1/2 121/1/2 124/1/2
f 124/1/2 121/1/2 125/1/2
f 126/1/2 127/1/2 128/1/2
f 128/1/2 127/1/2 129/1/2
f 130/3/2 131/3/2 134/3/2
f 134/3/2 131/3/2 135/3/2
f 132/3/2 133/3/2 136/3/2
f 136/3/2 133/3/2 137/3/2
f 135/3/2 131/3/2 138/3/2
f 138/3/2 131/3/2 139/3/2
f 132/3/2 136/3/2 140/3/2
f 140/3/2 136/3/2 141/3/2
f 142/1/2 143/1/2 144/1/2
f 144/1/2 143/1/2 145/1/2
f 146/2/2 147/2/2 148/2/2
f 148/2/2 147/2/2 149/2/2
f 150/3/2 151/3/2 155/3/2
f 155/3/2 151/3/2 156/3/2
f 152/3/2 153/3/2 157/3/2
f 157/3/2 153/3/2 158/3/2
f 154/1/2 155/1/2 160/1/2
f 160/1/2 155/1/2 161/1/2
f 158/1/2 159/1/2 162/1/2
f 162/1/2 159/1/2 163/1/2
f 164/3/2 165/3/2 166/3/2
f 166/3/2 165/3/2 167/3/2
f 168/3/2 169/3/2 172/3/2
f 172/3/2 169/3/2 173/3/2
f 170/3/2 171/3/2 174/3/2
f 174/3/2 171/3/2 175/3/2
f 176/1/2 177/1/2 179/1/2
f 179/1/2 177/1/2 180/1/2
f 178/1/2 179/1/2 183/1/2
f 180/1/2 181/1/2 183/1/2
f 179/1/2 180/1/2 183/1/2
f 183/1/2 181/1/2 184/1/2
f 182/1/2 183/1/2 187/1/2
f 187/1/2 183/1/2 188/1/2
f 184/1/2 185/1/2 189/1/2
f 189/1/2 185/1/2 190/1/2
f 186/1/2 187/1/2 192/1/2
f 192/1/2 187/1/2 193/1/2
f 190/1/2 191/1/2 194/1/2
f 189/1/2 190/1/2 194/1/2
f 194/1/2 191/1/2 195/1/2
f 196/3/2 197/3/2 198/3/2
f 198/3/2 197/3/2 199/3/2
f 200/1/2 201/1/2 203/1/2
f 203/1/2 201/1/2 204/1/2
f 202/1/2 203/1/2 205/1/2
f 205/1/2 203/1/2 206/1/2
f 207/3/2 208/3/2 209/3/2
f 209/3/2 208/3/2 210/3/2
f 211/1/2 212/1/2 213/1/2
f 213/1/2 212/1/2 214/1/2
f 217/1/3 216/1/3 215/1/3
f 218/1/3 216/1/3 217/1/3
f 222/1/3 220/1/3 219/1/3
f 223/1/3 220/1/3 222/1/3
f 224/1/3 222/1/3 221/1/3
f 225/1/3 222/1/3 224/1/3
f 227/1/3 226/1/3 225/1/3
f 228/1/3 226/1/3 227/1/3
f 232/1/3 230/1/3 229/1/3
f 233/1/3 230/1/3 232/1/3
f 237/1/3 232/1/3 231/1/3
f 238/1/3 232/1/3 237/1/3
f 240/1/3 237/1/3 236/1/3
f 241/3/3 235/3/3 234/3/3
f 242/3/3 235/3/3 241/3/3
f 245/1/3 240/1/3 239/1/3
f 246/1/3 237/1/3 240/1/3
f 246/1/3 240/1/3 245/1/3
f 247/3/3 244/3/3 243/3/3
f 248/3/3 244/3/3 247/3/3
f 249/1/3 237/1/3 246/1/3
f 250/1/3 237/1/3 249/1/3
f 252/1/3 251/1/3 250/1/3
f 253/1/3 251/1/3 252/1/3
f 255/1/3 254/1/3 253/1/3
f 256/1/3 254/1/3 255/1/3
f 260/1/3 258/1/3 257/1/3
f 261/1/3 258/1/3 260/1/3
f 262/3/3 260/3/3 259/3/3
f 263/3/3 260/3/3 262/3/3
f 266/3/3 265/3/3 264/3/3
f 267/3/3 265/3/3 266/3/3
f 269/1/3 268/1/3 267/1/3
f 270/1/3 268/1/3 269/1/3
f 273/2/3 272/2/3 271/2/3
f 274/2/3 272/2/3 273/2/3
f 277/3/3 276/3/3 275/3/3
f 278/3/3 276/3/3 277/3/3
f 281/3/3 279/3/3 278/3/3
f 282/3/3 279/3/3 281/3/3
f 283/3/3 281/3/3 280/3/3
f 284/3/3 281/3/3 283/3/3
f 285/3/3 281/3/3 284/3/3
f 288/1/3 287/1/3 286/1/3
f 289/1/3 287/1/3 288/1/3
f 292/3/3 291/3/3 290/3/3
f 294/3/3 292/3/3 290/3/3
f 294/3/3 293/3/3 292/3/3
f 295/3/3 293/3/3 294/3/3
f 298/3/3 297/3/3 296/3/3
f 299/3/3 297/3/3 298/3/3
f 300/3/3 298/3/3 296/3/3
f 301/3/3 298/3/3 300/3/3
f 304/1/3 303/1/3 302/1/3
f 305/1/3 303/1/3 304/1/3
f 309/1/3 307/1/3 306/1/3
f 310/1/3 307/1/3 309/1/3
f 311/1/3 309/1/3 308/1/3
f 313/1/3 311/1/3 308/1/3
f 313/1/3 312/1/3 311/1/3
f 314/1/3 312/1/3 313/1/3
f 315/1/3 312/1/3 314/1/3
f 318/1/3 317/1/3 316/1/3
f 319/1/3 317/1/3 318/1/3
f 320/1/4 321/1/4 322/1/4
f 322/1/4 321/1/4 323/1/4
f 324/1/4 325/1/4 327/1/4
f 327/1/4 325/1/4 328/1/4
f 326/1/4 327/1/4 329/1/4
f 329/1/4 327/1/4 330/1/4
f 330/1/4 331/1/4 332/1/4
f 332/1/4 331/1/4 333/1/4
f 334/1/4 335/1/4 336/1/4
f 336/1/4 335/1/4 337/1/4
f 338/3/4 339/3/4 340/3/4
f 338/3/4 340/3/4 342/3/4
f 340/3/4 341/3/4 342/3/4
f 342/3/4 341/3/4 343/3/4
f 344/3/4 345/3/4 346/3/4
f 346/3/4 345/3/4 347/3/4
f 344/3/4 346/3/4 348/3/4
f 348/3/4 346/3/4 349/3/4
f 350/1/4 351/1/4 352/1/4
f 352/1/4 351/1/4 353/1/4
f 354/2/4 355/2/4 356/2/4
f 356/2/4 355/2/4 357/2/4
f 358/3/4 359/3/4 360/3/4
f 360/3/4 359/3/4 361/3/4
f 361/3/4 362/3/4 364/3/4
f 364/3/4 362/3/4 365/3/4
f 363/3/4 364/3/4 366/3/4
f 366/3/4 364/3/4 367/3/4
f 367/3/4 364/3/4 368/3/4
f 369/1/4 370/1/4 372/1/4
f 372/1/4 370/1/4 373/1/4
f 371/3/4 372/3/4 374/3/4
f 374/3/4 372/3/4 375/3/4
f 376/3/4 377/3/4 378/3/4
f 378/3/4 377/3/4 379/3/4
f 379/1/4 380/1/4 381/1/4
f 381/1/4 380/1/4 382/1/4
f 383/1/4 384/1/4 386/1/4
f 386/1/4 384/1/4 387/1/4
f 385/1/4 386/1/4 391/1/4
f 391/1/4 386/1/4 392/1/4
f 390/1/4 391/1/4 394/1/4
f 388/3/4 389/3/4 395/3/4
f 395/3/4 389/3/4 396/3/4
f 393/1/4 394/1/4 399/1/4
f 394/1/4 391/1/4 400/1/4
f 399/1/4 394/1/4 400/1/4
f 397/3/4 398/3/4 401/3/4
f 401/3/4 398/3/4 402/3/4
f 400/1/4 391/1/4 403/1/4
f 403/1/4 391/1/4 404/1/4
f 404/1/4 405/1/4 406/1/4
f 406/1/4 405/1/4 407/1/4
f 407/1/4 408/1/4 409/1/4
f 409/1/4 408/1/4 410/1/4
f 411/1/4 412/1/4 414/1/4
f 414/1/4 412/1/4 415/1/4
f 413/1/4 414/1/4 416/1/4
f 416/1/4 414/1/4 417/1/4
f 418/1/4 419/1/4 420/1/4
f 420/1/4 419/1/4 421/1/4
f 426/3/5 423/3/5 422/3/5
f 427/3/5 423/3/5 426/3/5
f 428/3/5 425/3/5 424/3/5
f 429/3/5 425/3/5 428/3/5
f 434/3/5 431/3/5 430/3/5
f 435/3/5 431/3/5 434/3/5
f 436/3/5 433/3/5 432/3/5
f 437/3/5 433/3/5 436/3/5
f 440/2/5 439/2/5 438/2/5
f 441/2/5 439/2/5 440/2/5
f 445/1/5 443/1/5 442/1/5
f 446/1/5 443/1/5 445/1/5
f 447/1/5 443/1/5 446/1/5
f 448/1/5 443/1/5 447/1/5
f 450/1/5 445/1/5 444/1/5
f 451/1/5 447/1/5 446/1/5
f 452/1/5 447/1/5 451/1/5
f 453/1/5 449/1/5 448/1/5
f 454/1/5 452/1/5 451/1/5
f 454/1/5 453/1/5 452/1/5
f 454/1/5 451/1/5 450/1/5
f 455/1/5 453/1/5 454/1/5
f 456/1/5 454/1/5 450/1/5
f 457/1/5 453/1/5 455/1/5
f 458/1/5 450/1/5 444/1/5
f 458/1/5 457/1/5 456/1/5
f 458/1/5 456/1/5 450/1/5
f 459/1/5 457/1/5 458/1/5
f 460/1/5 453/1/5 457/1/5
f 460/1/5 457/1/5 459/1/5
f 461/1/5 449/1/5 453/1/5
f 461/1/5 453/1/5 460/1/5
f 462/1/5 458/1/5 444/1/5
f 463/1/5 458/1/5 462/1/5
f 464/1/5 460/1/5 459/1/5
f 465/1/5 460/1/5 464/1/5
f 466/1/5 449/1/5 461/1/5
f 467/1/5 449/1/5 466/1/5
f 468/1/5 465/1/5 464/1/5
f 468/1/5 466/1/5 465/1/5
f 468/1/5 464/1/5 463/1/5
f 469/1/5 466/1/5 468/1/5
f 474/1/5 471/1/5 470/1/5
f 475/1/5 471/1/5 474/1/5
f 476/1/5 473/1/5 472/1/5
f 477/1/5 473/1/5 476/1/5
f 482/1/5 479/1/5 478/1/5
f 483/1/5 479/1/5 482/1/5
f 484/1/5 481/1/5 480/1/5
f 485/1/5 481/1/5 484/1/5
f 489/1/5 487/1/5 486/1/5
f 490/1/5 487/1/5 489/1/5
f 492/1/5 489/1/5 488/1/5
f 493/1/5 489/1/5 492/1/5
f 494/1/5 491/1/5 490/1/5
f 495/1/5 491/1/5 494/1/5
f 496/1/5 494/1/5 493/1/5
f 497/1/5 494/1/5 496/1/5
f 501/1/5 499/1/5 498/1/5
f 502/1/5 499/1/5 501/1/5
f 505/1/5 501/1/5 500/1/5
f 506/1/5 501/1/5 505/1/5
f 507/1/5 503/1/5 502/1/5
f 508/1/5 503/1/5 507/1/5
f 510/1/5 505/1/5 504/1/5
f 511/1/5 505/1/5 510/1/5
f 513/1/5 509/1/5 508/1/5
f 514/1/5 509/1/5 513/1/5
f 515/1/5 512/1/5 511/1/5
f 516/1/5 512/1/5 515/1/5
f 518/1/5 517/1/5 516/1/5
f 519/1/5 517/1/5 518/1/5
f 522/3/5 521/3/5 520/3/5
f 523/3/5 521/3/5 522/3/5
f 526/3/5 525/3/5 524/3/5
f 527/3/5 525/3/5 526/3/5
f 528/3/6 529/3/6 532/3/6
f 532/3/6 529/3/6 533/3/6
f 530/3/6 531/3/6 534/3/6
f 534/3/6 531/3/6 535/3/6
f 528/3/6 532/3/6 536/3/6
f 536/3/6 532/3/6 537/3/6
f 535/3/6 531/3/6 538/3/6
f 538/3/6 531/3/6 539/3/6
f 540/3/6 541/3/6 544/3/6
f 542/3/6 543/3/6 547/3/6
f 544/3/6 545/3/6 548/3/6
f 540/3/6 544/3/6 548/3/6
f 548/3/6 545/3/6 549/3/6
f 546/3/6 547/3/6 550/3/6
f 547/3/6 543/3/6 551/3/6
f 550/3/6 547/3/6 551/3/6
f 552/2/6 553/2/6 554/2/6
f 554/2/6 553/2/6 555/2/6
f 556/1/6 557/1/6 558/1/6
f 558/1/6 557/1/6 559/1/6
f 556/1/6 558/1/6 560/1/6
f 559/1/6 557/1/6 561/1/6
f 556/1/6 560/1/6 562/1/6
f 560/1/6 561/1/6 562/1/6
f 561/1/6 557/1/6 563/1/6
f 562/1/6 561/1/6 563/1/6
f 564/1/6 565/1/6 566/1/6
f 566/1/6 565/1/6 567/1/6
f 564/1/6 566/1/6 568/1/6
f 567/1/6 565/1/6 569/1/6
f 564/1/6 568/1/6 570/1/6
f 568/1/6 569/1/6 570/1/6
f 569/1/6 565/1/6 571/1/6
f 570/1/6 569/1/6 571/1/6
f 572/1/6 573/1/6 575/1/6
f 575/1/6 573/1/6 576/1/6
f 576/1/6 577/1/6 578/1/6
f 578/1/6 577/1/6 579/1/6
f 574/1/6 575/1/6 582/1/6
f 582/1/6 575/1/6 583/1/6
f 580/1/6 581/1/6 585/1/6
f 585/1/6 581/1/6 586/1/6
f 583/1/6 584/1/6 587/1/6
f 587/1/6 584/1/6 588/1/6
f 589/1/6 590/1/6 592/1/6
f 592/1/6 590/1/6 593/1/6
f 591/1/6 592/1/6 596/1/6
f 596/1/6 592/1/6 597/1/6
f 593/1/6 594/1/6 598/1/6
f 598/1/6 594/1/6 599/1/6
f 599/1/6 600/1/6 601/1/6
f 601/1/6 600/1/6 602/1/6
f 595/1/6 596/1/6 603/1/6
f 603/1/6 596/1/6 604/1/6
f 602/1/6 600/1/6 608/1/6
f 608/1/6 600/1/6 609/1/6
f 604/1/6 605/1/6 610/1/6
f 610/1/6 605/1/6 611/1/6
f 606/1/6 607/1/6 612/1/6
f 611/1/6 612/1/6 613/1/6
f 612/1/6 607/1/6 614/1/6
f 613/1/6 612/1/6 614/1/6
f 615/3/6 616/3/6 619/3/6
f 619/3/6 616/3/6 620/3/6
f 617/3/6 618/3/6 621/3/6
f 621/3/6 618/3/6 622/3/6
f 623/3/6 624/3/6 625/3/6
f 625/3/6 624/3/6 626/3/6
