# MagicaVoxel @ Ephtracy

# material
mtllib Bathtub.mtl
usemtl palette

# normals
vn -1 0 0
vn 1 0 0
vn 0 0 1
vn 0 0 -1
vn 0 -1 0
vn 0 1 0

# texcoords
vt 0.00195313 0.5
vt 0.259766 0.5
vt 0.283203 0.5

# verts
v -14 9 6
v -14 9 -6
v -14 10 6
v -14 10 -6
v -13 6 6
v -13 6 -6
v -13 9 7
v -13 9 6
v -13 9 -6
v -13 9 -7
v -13 10 7
v -13 10 6
v -13 10 -6
v -13 10 -7
v -12 0 6
v -12 0 4
v -12 0 -4
v -12 0 -6
v -12 1 6
v -12 1 4
v -12 1 -4
v -12 1 -6
v -12 2 5
v -12 2 -5
v -12 4 6
v -12 4 5
v -12 4 -5
v -12 4 -6
v -12 6 7
v -12 6 6
v -12 6 -6
v -12 6 -7
v -12 9 8
v -12 9 7
v -12 9 6
v -12 9 -6
v -12 9 -7
v -12 9 -8
v -12 10 8
v -12 10 7
v -12 10 -7
v -12 10 -8
v -11 1 5
v -11 1 4
v -11 1 -4
v -11 1 -5
v -11 2 6
v -11 2 5
v -11 2 4
v -11 2 -4
v -11 2 -5
v -11 2 -6
v -11 4 6
v -11 4 5
v -11 4 -5
v -11 4 -6
v 8 1 1
v 8 1 -1
v 8 2 1
v 8 2 -1
v 10 0 6
v 10 0 4
v 10 0 -4
v 10 0 -6
v 10 1 6
v 10 1 5
v 10 1 -5
v 10 1 -6
v 10 2 5
v 10 2 4
v 10 2 1
v 10 2 -1
v 10 2 -4
v 10 2 -5
v 10 3 1
v 10 3 -1
v 10 11 3
v 10 11 2
v 10 11 -2
v 10 11 -3
v 10 12 3
v 10 12 2
v 10 12 -2
v 10 12 -3
v 11 3 5
v 11 3 -5
v 11 6 5
v 11 6 -5
v 11 12 3
v 11 12 2
v 11 12 -2
v 11 12 -3
v 11 13 3
v 11 13 2
v 11 13 -2
v 11 13 -3
v 12 6 6
v 12 6 -6
v 12 9 7
v 12 9 6
v 12 9 3
v 12 9 2
v 12 9 -2
v 12 9 -3
v 12 9 -6
v 12 9 -7
v 12 10 7
v 12 10 6
v 12 10 -6
v 12 10 -7
v 12 12 3
v 12 12 2
v 12 12 -2
v 12 12 -3
v 13 9 6
v 13 9 3
v 13 9 2
v 13 9 -2
v 13 9 -3
v 13 9 -6
v 13 10 6
v 13 10 3
v 13 10 2
v 13 10 -2
v 13 10 -3
v 13 10 -6
v -13 9 6
v -13 9 -6
v -13 10 6
v -13 10 -6
v -12 6 6
v -12 6 -6
v -12 9 7
v -12 9 6
v -12 9 -6
v -12 9 -7
v -12 10 7
v -12 10 6
v -12 10 -6
v -12 10 -7
v -11 3 5
v -11 3 -5
v -11 6 5
v -11 6 -5
v -10 0 6
v -10 0 4
v -10 0 -4
v -10 0 -6
v -10 1 6
v -10 1 5
v -10 1 -5
v -10 1 -6
v -10 2 5
v -10 2 4
v -10 2 -4
v -10 2 -5
v 8 2 1
v 8 2 -1
v 8 3 1
v 8 3 -1
v 10 1 1
v 10 1 -1
v 10 2 1
v 10 2 -1
v 11 1 5
v 11 1 4
v 11 1 -4
v 11 1 -5
v 11 2 6
v 11 2 5
v 11 2 4
v 11 2 -4
v 11 2 -5
v 11 2 -6
v 11 4 6
v 11 4 5
v 11 4 -5
v 11 4 -6
v 11 11 3
v 11 11 2
v 11 11 -2
v 11 11 -3
v 11 12 3
v 11 12 2
v 11 12 -2
v 11 12 -3
v 12 0 6
v 12 0 4
v 12 0 -4
v 12 0 -6
v 12 1 6
v 12 1 4
v 12 1 -4
v 12 1 -6
v 12 2 5
v 12 2 -5
v 12 4 6
v 12 4 5
v 12 4 -5
v 12 4 -6
v 12 6 7
v 12 6 6
v 12 6 -6
v 12 6 -7
v 12 9 8
v 12 9 7
v 12 9 6
v 12 9 -6
v 12 9 -7
v 12 9 -8
v 12 10 8
v 12 10 7
v 12 10 -7
v 12 10 -8
v 12 12 3
v 12 12 2
v 12 12 -2
v 12 12 -3
v 12 13 3
v 12 13 2
v 12 13 -2
v 12 13 -3
v 13 6 6
v 13 6 -6
v 13 9 7
v 13 9 6
v 13 9 -6
v 13 9 -7
v 13 10 7
v 13 10 6
v 13 10 3
v 13 10 2
v 13 10 -2
v 13 10 -3
v 13 10 -6
v 13 10 -7
v 13 12 3
v 13 12 2
v 13 12 -2
v 13 12 -3
v 14 9 6
v 14 9 -6
v 14 10 6
v 14 10 -6
v -12 9 8
v -12 10 8
v 12 9 8
v 12 10 8
v -13 9 7
v -13 10 7
v -12 6 7
v -12 9 7
v -12 10 7
v 12 6 7
v 12 9 7
v 12 10 7
v 13 9 7
v 13 10 7
v -14 9 6
v -14 10 6
v -13 6 6
v -13 9 6
v -13 10 6
v -12 0 6
v -12 1 6
v -12 4 6
v -12 6 6
v -12 9 6
v -11 2 6
v -11 4 6
v -10 0 6
v -10 1 6
v 10 0 6
v 10 1 6
v 11 2 6
v 11 4 6
v 12 0 6
v 12 1 6
v 12 4 6
v 12 6 6
v 12 9 6
v 13 6 6
v 13 9 6
v 13 10 6
v 14 9 6
v 14 10 6
v -12 2 5
v -12 4 5
v -11 1 5
v -11 2 5
v -11 4 5
v -10 1 5
v -10 2 5
v 10 1 5
v 10 2 5
v 11 1 5
v 11 2 5
v 11 4 5
v 12 2 5
v 12 4 5
v 10 11 3
v 10 12 3
v 11 11 3
v 11 12 3
v 11 13 3
v 12 9 3
v 12 12 3
v 12 13 3
v 13 9 3
v 13 10 3
v 13 12 3
v 8 1 1
v 8 2 1
v 10 1 1
v 10 2 1
v 8 2 -1
v 8 3 -1
v 10 2 -1
v 10 3 -1
v 10 11 -2
v 10 12 -2
v 11 11 -2
v 11 12 -2
v 11 13 -2
v 12 9 -2
v 12 12 -2
v 12 13 -2
v 13 9 -2
v 13 10 -2
v 13 12 -2
v -12 0 -4
v -12 1 -4
v -11 1 -4
v -11 2 -4
v -10 0 -4
v -10 2 -4
v 10 0 -4
v 10 2 -4
v 11 1 -4
v 11 2 -4
v 12 0 -4
v 12 1 -4
v -11 3 -5
v -11 6 -5
v 11 3 -5
v 11 6 -5
v -13 9 -6
v -13 10 -6
v -12 6 -6
v -12 9 -6
v -12 10 -6
v 12 6 -6
v 12 9 -6
v 12 10 -6
v 13 9 -6
v 13 10 -6
v -12 9 -7
v -12 10 -7
v 12 9 -7
v 12 10 -7
v -12 9 7
v -12 10 7
v 12 9 7
v 12 10 7
v -13 9 6
v -13 10 6
v -12 6 6
v -12 9 6
v -12 10 6
v 12 6 6
v 12 9 6
v 12 10 6
v 13 9 6
v 13 10 6
v -11 3 5
v -11 6 5
v 11 3 5
v 11 6 5
v -12 0 4
v -12 1 4
v -11 1 4
v -11 2 4
v -10 0 4
v -10 2 4
v 10 0 4
v 10 2 4
v 11 1 4
v 11 2 4
v 12 0 4
v 12 1 4
v 10 11 2
v 10 12 2
v 11 11 2
v 11 12 2
v 11 13 2
v 12 9 2
v 12 12 2
v 12 13 2
v 13 9 2
v 13 10 2
v 13 12 2
v 8 2 1
v 8 3 1
v 10 2 1
v 10 3 1
v 8 1 -1
v 8 2 -1
v 10 1 -1
v 10 2 -1
v 10 11 -3
v 10 12 -3
v 11 11 -3
v 11 12 -3
v 11 13 -3
v 12 9 -3
v 12 12 -3
v 12 13 -3
v 13 9 -3
v 13 10 -3
v 13 12 -3
v -12 2 -5
v -12 4 -5
v -11 1 -5
v -11 2 -5
v -11 4 -5
v -10 1 -5
v -10 2 -5
v 10 1 -5
v 10 2 -5
v 11 1 -5
v 11 2 -5
v 11 4 -5
v 12 2 -5
v 12 4 -5
v -14 9 -6
v -14 10 -6
v -13 6 -6
v -13 9 -6
v -13 10 -6
v -12 0 -6
v -12 1 -6
v -12 4 -6
v -12 6 -6
v -12 9 -6
v -11 2 -6
v -11 4 -6
v -10 0 -6
v -10 1 -6
v 10 0 -6
v 10 1 -6
v 11 2 -6
v 11 4 -6
v 12 0 -6
v 12 1 -6
v 12 4 -6
v 12 6 -6
v 12 9 -6
v 13 6 -6
v 13 9 -6
v 13 10 -6
v 14 9 -6
v 14 10 -6
v -13 9 -7
v -13 10 -7
v -12 6 -7
v -12 9 -7
v -12 10 -7
v 12 6 -7
v 12 9 -7
v 12 10 -7
v 13 9 -7
v 13 10 -7
v -12 9 -8
v -12 10 -8
v 12 9 -8
v 12 10 -8
v -12 0 6
v -10 0 6
v 10 0 6
v 12 0 6
v -12 0 4
v -10 0 4
v 10 0 4
v 12 0 4
v -12 0 -4
v -10 0 -4
v 10 0 -4
v 12 0 -4
v -12 0 -6
v -10 0 -6
v 10 0 -6
v 12 0 -6
v 8 1 1
v 10 1 1
v 8 1 -1
v 10 1 -1
v -11 2 6
v 11 2 6
v -12 2 5
v -11 2 5
v -10 2 5
v 10 2 5
v 11 2 5
v 12 2 5
v -11 2 4
v -10 2 4
v 10 2 4
v 11 2 4
v 8 2 1
v 10 2 1
v 8 2 -1
v 10 2 -1
v -11 2 -4
v -10 2 -4
v 10 2 -4
v 11 2 -4
v -12 2 -5
v -11 2 -5
v -10 2 -5
v 10 2 -5
v 11 2 -5
v 12 2 -5
v -11 2 -6
v 11 2 -6
v -12 4 6
v -11 4 6
v 11 4 6
v 12 4 6
v -12 4 5
v -11 4 5
v 11 4 5
v 12 4 5
v -12 4 -5
v -11 4 -5
v 11 4 -5
v 12 4 -5
v -12 4 -6
v -11 4 -6
v 11 4 -6
v 12 4 -6
v -12 6 7
v 12 6 7
v -13 6 6
v -12 6 6
v 12 6 6
v 13 6 6
v -13 6 -6
v -12 6 -6
v 12 6 -6
v 13 6 -6
v -12 6 -7
v 12 6 -7
v -12 9 8
v 12 9 8
v -13 9 7
v -12 9 7
v 12 9 7
v 13 9 7
v -14 9 6
v -13 9 6
v -12 9 6
v 12 9 6
v 13 9 6
v 14 9 6
v -14 9 -6
v -13 9 -6
v -12 9 -6
v 12 9 -6
v 13 9 -6
v 14 9 -6
v -13 9 -7
v -12 9 -7
v 12 9 -7
v 13 9 -7
v -12 9 -8
v 12 9 -8
v 10 11 3
v 11 11 3
v 10 11 2
v 11 11 2
v 10 11 -2
v 11 11 -2
v 10 11 -3
v 11 11 -3
v 11 12 3
v 12 12 3
v 11 12 2
v 12 12 2
v 11 12 -2
v 12 12 -2
v 11 12 -3
v 12 12 -3
v -12 1 6
v -10 1 6
v 10 1 6
v 12 1 6
v -11 1 5
v -10 1 5
v 10 1 5
v 11 1 5
v -12 1 4
v -11 1 4
v 11 1 4
v 12 1 4
v -12 1 -4
v -11 1 -4
v 11 1 -4
v 12 1 -4
v -11 1 -5
v -10 1 -5
v 10 1 -5
v 11 1 -5
v -12 1 -6
v -10 1 -6
v 10 1 -6
v 12 1 -6
v 8 2 1
v 10 2 1
v 8 2 -1
v 10 2 -1
v -11 3 5
v 11 3 5
v 8 3 1
v 10 3 1
v 8 3 -1
v 10 3 -1
v -11 3 -5
v 11 3 -5
v -12 6 6
v 12 6 6
v -11 6 5
v 11 6 5
v -11 6 -5
v 11 6 -5
v -12 6 -6
v 12 6 -6
v -12 9 7
v 12 9 7
v -13 9 6
v -12 9 6
v 12 9 6
v 13 9 6
v 12 9 3
v 13 9 3
v 12 9 2
v 13 9 2
v 12 9 -2
v 13 9 -2
v 12 9 -3
v 13 9 -3
v -13 9 -6
v -12 9 -6
v 12 9 -6
v 13 9 -6
v -12 9 -7
v 12 9 -7
v -12 10 8
v 12 10 8
v -13 10 7
v -12 10 7
v 12 10 7
v 13 10 7
v -14 10 6
v -13 10 6
v -12 10 6
v 12 10 6
v 13 10 6
v 14 10 6
v 13 10 3
v 13 10 2
v 13 10 -2
v 13 10 -3
v -14 10 -6
v -13 10 -6
v -12 10 -6
v 12 10 -6
v 13 10 -6
v 14 10 -6
v -13 10 -7
v -12 10 -7
v 12 10 -7
v 13 10 -7
v -12 10 -8
v 12 10 -8
v 10 12 3
v 11 12 3
v 12 12 3
v 13 12 3
v 10 12 2
v 11 12 2
v 12 12 2
v 13 12 2
v 10 12 -2
v 11 12 -2
v 12 12 -2
v 13 12 -2
v 10 12 -3
v 11 12 -3
v 12 12 -3
v 13 12 -3
v 11 13 3
v 12 13 3
v 11 13 2
v 12 13 2
v 11 13 -2
v 12 13 -2
v 11 13 -3
v 12 13 -3

# faces
f 3/1/1 2/1/1 1/1/1
f 4/1/1 2/1/1 3/1/1
f 8/1/1 6/1/1 5/1/1
f 9/1/1 6/1/1 8/1/1
f 11/1/1 8/1/1 7/1/1
f 12/1/1 8/1/1 11/1/1
f 13/1/1 10/1/1 9/1/1
f 14/1/1 10/1/1 13/1/1
f 19/3/1 16/3/1 15/3/1
f 20/3/1 16/3/1 19/3/1
f 21/3/1 18/3/1 17/3/1
f 22/3/1 18/3/1 21/3/1
f 26/1/1 24/1/1 23/1/1
f 27/1/1 24/1/1 26/1/1
f 30/1/1 26/1/1 25/1/1
f 30/1/1 28/1/1 27/1/1
f 30/1/1 27/1/1 26/1/1
f 31/1/1 28/1/1 30/1/1
f 34/1/1 30/1/1 29/1/1
f 35/1/1 30/1/1 34/1/1
f 36/1/1 32/1/1 31/1/1
f 37/1/1 32/1/1 36/1/1
f 39/1/1 34/1/1 33/1/1
f 40/1/1 34/1/1 39/1/1
f 41/1/1 38/1/1 37/1/1
f 42/1/1 38/1/1 41/1/1
f 48/3/1 44/3/1 43/3/1
f 49/3/1 44/3/1 48/3/1
f 50/3/1 46/3/1 45/3/1
f 51/3/1 46/3/1 50/3/1
f 53/1/1 48/1/1 47/1/1
f 54/1/1 48/1/1 53/1/1
f 55/1/1 52/1/1 51/1/1
f 56/1/1 52/1/1 55/1/1
f 59/2/1 58/2/1 57/2/1
f 60/2/1 58/2/1 59/2/1
f 65/3/1 62/3/1 61/3/1
f 66/3/1 62/3/1 65/3/1
f 67/3/1 64/3/1 63/3/1
f 68/3/1 64/3/1 67/3/1
f 69/3/1 62/3/1 66/3/1
f 70/3/1 62/3/1 69/3/1
f 73/3/1 67/3/1 63/3/1
f 74/3/1 67/3/1 73/3/1
f 75/1/1 72/1/1 71/1/1
f 76/1/1 72/1/1 75/1/1
f 81/3/1 78/3/1 77/3/1
f 82/3/1 78/3/1 81/3/1
f 83/3/1 80/3/1 79/3/1
f 84/3/1 80/3/1 83/3/1
f 87/1/1 86/1/1 85/1/1
f 88/1/1 86/1/1 87/1/1
f 93/3/1 90/3/1 89/3/1
f 94/3/1 90/3/1 93/3/1
f 95/3/1 92/3/1 91/3/1
f 96/3/1 92/3/1 95/3/1
f 100/1/1 98/1/1 97/1/1
f 101/1/1 98/1/1 100/1/1
f 102/1/1 98/1/1 101/1/1
f 103/1/1 98/1/1 102/1/1
f 104/1/1 98/1/1 103/1/1
f 105/1/1 98/1/1 104/1/1
f 107/1/1 100/1/1 99/1/1
f 108/1/1 100/1/1 107/1/1
f 109/1/1 106/1/1 105/1/1
f 110/1/1 106/1/1 109/1/1
f 111/3/1 102/3/1 101/3/1
f 112/3/1 102/3/1 111/3/1
f 113/3/1 104/3/1 103/3/1
f 114/3/1 104/3/1 113/3/1
f 121/1/1 116/1/1 115/1/1
f 122/1/1 116/1/1 121/1/1
f 123/1/1 118/1/1 117/1/1
f 124/1/1 118/1/1 123/1/1
f 125/1/1 120/1/1 119/1/1
f 126/1/1 120/1/1 125/1/1
f 127/1/2 128/1/2 129/1/2
f 129/1/2 128/1/2 130/1/2
f 131/1/2 132/1/2 134/1/2
f 134/1/2 132/1/2 135/1/2
f 133/1/2 134/1/2 137/1/2
f 137/1/2 134/1/2 138/1/2
f 135/1/2 136/1/2 139/1/2
f 139/1/2 136/1/2 140/1/2
f 141/1/2 142/1/2 143/1/2
f 143/1/2 142/1/2 144/1/2
f 145/3/2 146/3/2 149/3/2
f 149/3/2 146/3/2 150/3/2
f 147/3/2 148/3/2 151/3/2
f 151/3/2 148/3/2 152/3/2
f 150/3/2 146/3/2 153/3/2
f 153/3/2 146/3/2 154/3/2
f 147/3/2 151/3/2 155/3/2
f 155/3/2 151/3/2 156/3/2
f 157/1/2 158/1/2 159/1/2
f 159/1/2 158/1/2 160/1/2
f 161/2/2 162/2/2 163/2/2
f 163/2/2 162/2/2 164/2/2
f 165/3/2 166/3/2 170/3/2
f 170/3/2 166/3/2 171/3/2
f 167/3/2 168/3/2 172/3/2
f 172/3/2 168/3/2 173/3/2
f 169/1/2 170/1/2 175/1/2
f 175/1/2 170/1/2 176/1/2
f 173/1/2 174/1/2 177/1/2
f 177/1/2 174/1/2 178/1/2
f 179/3/2 180/3/2 183/3/2
f 183/3/2 180/3/2 184/3/2
f 181/3/2 182/3/2 185/3/2
f 185/3/2 182/3/2 186/3/2
f 187/3/2 188/3/2 191/3/2
f 191/3/2 188/3/2 192/3/2
f 189/3/2 190/3/2 193/3/2
f 193/3/2 190/3/2 194/3/2
f 195/1/2 196/1/2 198/1/2
f 198/1/2 196/1/2 199/1/2
f 197/1/2 198/1/2 202/1/2
f 199/1/2 200/1/2 202/1/2
f 198/1/2 199/1/2 202/1/2
f 202/1/2 200/1/2 203/1/2
f 201/1/2 202/1/2 206/1/2
f 206/1/2 202/1/2 207/1/2
f 203/1/2 204/1/2 208/1/2
f 208/1/2 204/1/2 209/1/2
f 205/1/2 206/1/2 211/1/2
f 211/1/2 206/1/2 212/1/2
f 209/1/2 210/1/2 213/1/2
f 213/1/2 210/1/2 214/1/2
f 215/3/2 216/3/2 219/3/2
f 219/3/2 216/3/2 220/3/2
f 217/3/2 218/3/2 221/3/2
f 221/3/2 218/3/2 222/3/2
f 223/1/2 224/1/2 226/1/2
f 226/1/2 224/1/2 227/1/2
f 225/1/2 226/1/2 229/1/2
f 229/1/2 226/1/2 230/1/2
f 227/1/2 228/1/2 235/1/2
f 235/1/2 228/1/2 236/1/2
f 231/3/2 232/3/2 237/3/2
f 237/3/2 232/3/2 238/3/2
f 233/3/2 234/3/2 239/3/2
f 239/3/2 234/3/2 240/3/2
f 241/1/2 242/1/2 243/1/2
f 243/1/2 242/1/2 244/1/2
f 247/1/3 246/1/3 245/1/3
f 248/1/3 246/1/3 247/1/3
f 252/1/3 250/1/3 249/1/3
f 253/1/3 250/1/3 252/1/3
f 254/1/3 252/1/3 251/1/3
f 255/1/3 252/1/3 254/1/3
f 257/1/3 256/1/3 255/1/3
f 258/1/3 256/1/3 257/1/3
f 262/1/3 260/1/3 259/1/3
f 263/1/3 260/1/3 262/1/3
f 267/1/3 262/1/3 261/1/3
f 268/1/3 262/1/3 267/1/3
f 270/1/3 267/1/3 266/1/3
f 271/3/3 265/3/3 264/3/3
f 272/3/3 265/3/3 271/3/3
f 275/1/3 270/1/3 269/1/3
f 276/1/3 267/1/3 270/1/3
f 276/1/3 270/1/3 275/1/3
f 277/3/3 274/3/3 273/3/3
f 278/3/3 274/3/3 277/3/3
f 279/1/3 267/1/3 276/1/3
f 280/1/3 267/1/3 279/1/3
f 282/1/3 281/1/3 280/1/3
f 283/1/3 281/1/3 282/1/3
f 285/1/3 284/1/3 283/1/3
f 286/1/3 284/1/3 285/1/3
f 290/1/3 288/1/3 287/1/3
f 291/1/3 288/1/3 290/1/3
f 292/3/3 290/3/3 289/3/3
f 293/3/3 290/3/3 292/3/3
f 296/3/3 295/3/3 294/3/3
f 297/3/3 295/3/3 296/3/3
f 299/1/3 298/1/3 297/1/3
f 300/1/3 298/1/3 299/1/3
f 303/3/3 302/3/3 301/3/3
f 304/3/3 302/3/3 303/3/3
f 307/3/3 305/3/3 304/3/3
f 308/3/3 305/3/3 307/3/3
f 309/3/3 307/3/3 306/3/3
f 310/3/3 307/3/3 309/3/3
f 311/3/3 307/3/3 310/3/3
f 314/2/3 313/2/3 312/2/3
f 315/2/3 313/2/3 314/2/3
f 318/1/3 317/1/3 316/1/3
f 319/1/3 317/1/3 318/1/3
f 322/3/3 321/3/3 320/3/3
f 323/3/3 321/3/3 322/3/3
f 326/3/3 324/3/3 323/3/3
f 327/3/3 324/3/3 326/3/3
f 328/3/3 326/3/3 325/3/3
f 329/3/3 326/3/3 328/3/3
f 330/3/3 326/3/3 329/3/3
f 333/3/3 332/3/3 331/3/3
f 335/3/3 333/3/3 331/3/3
f 335/3/3 334/3/3 333/3/3
f 336/3/3 334/3/3 335/3/3
f 339/3/3 338/3/3 337/3/3
f 340/3/3 338/3/3 339/3/3
f 341/3/3 339/3/3 337/3/3
f 342/3/3 339/3/3 341/3/3
f 345/1/3 344/1/3 343/1/3
f 346/1/3 344/1/3 345/1/3
f 350/1/3 348/1/3 347/1/3
f 351/1/3 348/1/3 350/1/3
f 352/1/3 350/1/3 349/1/3
f 353/1/3 350/1/3 352/1/3
f 355/1/3 354/1/3 353/1/3
f 356/1/3 354/1/3 355/1/3
f 359/1/3 358/1/3 357/1/3
f 360/1/3 358/1/3 359/1/3
f 361/1/4 362/1/4 363/1/4
f 363/1/4 362/1/4 364/1/4
f 365/1/4 366/1/4 368/1/4
f 368/1/4 366/1/4 369/1/4
f 367/1/4 368/1/4 370/1/4
f 370/1/4 368/1/4 371/1/4
f 371/1/4 372/1/4 373/1/4
f 373/1/4 372/1/4 374/1/4
f 375/1/4 376/1/4 377/1/4
f 377/1/4 376/1/4 378/1/4
f 379/3/4 380/3/4 381/3/4
f 379/3/4 381/3/4 383/3/4
f 381/3/4 382/3/4 383/3/4
f 383/3/4 382/3/4 384/3/4
f 385/3/4 386/3/4 387/3/4
f 387/3/4 386/3/4 388/3/4
f 385/3/4 387/3/4 389/3/4
f 389/3/4 387/3/4 390/3/4
f 391/3/4 392/3/4 393/3/4
f 393/3/4 392/3/4 394/3/4
f 394/3/4 395/3/4 397/3/4
f 397/3/4 395/3/4 398/3/4
f 396/3/4 397/3/4 399/3/4
f 399/3/4 397/3/4 400/3/4
f 400/3/4 397/3/4 401/3/4
f 402/1/4 403/1/4 404/1/4
f 404/1/4 403/1/4 405/1/4
f 406/2/4 407/2/4 408/2/4
f 408/2/4 407/2/4 409/2/4
f 410/3/4 411/3/4 412/3/4
f 412/3/4 411/3/4 413/3/4
f 413/3/4 414/3/4 416/3/4
f 416/3/4 414/3/4 417/3/4
f 415/3/4 416/3/4 418/3/4
f 418/3/4 416/3/4 419/3/4
f 419/3/4 416/3/4 420/3/4
f 421/1/4 422/1/4 424/1/4
f 424/1/4 422/1/4 425/1/4
f 423/3/4 424/3/4 426/3/4
f 426/3/4 424/3/4 427/3/4
f 428/3/4 429/3/4 430/3/4
f 430/3/4 429/3/4 431/3/4
f 431/1/4 432/1/4 433/1/4
f 433/1/4 432/1/4 434/1/4
f 435/1/4 436/1/4 438/1/4
f 438/1/4 436/1/4 439/1/4
f 437/1/4 438/1/4 443/1/4
f 443/1/4 438/1/4 444/1/4
f 442/1/4 443/1/4 446/1/4
f 440/3/4 441/3/4 447/3/4
f 447/3/4 441/3/4 448/3/4
f 445/1/4 446/1/4 451/1/4
f 446/1/4 443/1/4 452/1/4
f 451/1/4 446/1/4 452/1/4
f 449/3/4 450/3/4 453/3/4
f 453/3/4 450/3/4 454/3/4
f 452/1/4 443/1/4 455/1/4
f 455/1/4 443/1/4 456/1/4
f 456/1/4 457/1/4 458/1/4
f 458/1/4 457/1/4 459/1/4
f 459/1/4 460/1/4 461/1/4
f 461/1/4 460/1/4 462/1/4
f 463/1/4 464/1/4 466/1/4
f 466/1/4 464/1/4 467/1/4
f 465/1/4 466/1/4 468/1/4
f 468/1/4 466/1/4 469/1/4
f 469/1/4 470/1/4 471/1/4
f 471/1/4 470/1/4 472/1/4
f 473/1/4 474/1/4 475/1/4
f 475/1/4 474/1/4 476/1/4
f 481/3/5 478/3/5 477/3/5
f 482/3/5 478/3/5 481/3/5
f 483/3/5 480/3/5 479/3/5
f 484/3/5 480/3/5 483/3/5
f 489/3/5 486/3/5 485/3/5
f 490/3/5 486/3/5 489/3/5
f 491/3/5 488/3/5 487/3/5
f 492/3/5 488/3/5 491/3/5
f 495/2/5 494/2/5 493/2/5
f 496/2/5 494/2/5 495/2/5
f 500/1/5 498/1/5 497/1/5
f 501/1/5 498/1/5 500/1/5
f 502/1/5 498/1/5 501/1/5
f 503/1/5 498/1/5 502/1/5
f 505/1/5 500/1/5 499/1/5
f 506/1/5 502/1/5 501/1/5
f 507/1/5 502/1/5 506/1/5
f 508/1/5 504/1/5 503/1/5
f 509/1/5 507/1/5 506/1/5
f 509/1/5 508/1/5 507/1/5
f 509/1/5 506/1/5 505/1/5
f 510/1/5 508/1/5 509/1/5
f 511/1/5 509/1/5 505/1/5
f 512/1/5 508/1/5 510/1/5
f 513/1/5 505/1/5 499/1/5
f 513/1/5 512/1/5 511/1/5
f 513/1/5 511/1/5 505/1/5
f 514/1/5 512/1/5 513/1/5
f 515/1/5 508/1/5 512/1/5
f 515/1/5 512/1/5 514/1/5
f 516/1/5 504/1/5 508/1/5
f 516/1/5 508/1/5 515/1/5
f 517/1/5 513/1/5 499/1/5
f 518/1/5 513/1/5 517/1/5
f 519/1/5 515/1/5 514/1/5
f 520/1/5 515/1/5 519/1/5
f 521/1/5 504/1/5 516/1/5
f 522/1/5 504/1/5 521/1/5
f 523/1/5 520/1/5 519/1/5
f 523/1/5 521/1/5 520/1/5
f 523/1/5 519/1/5 518/1/5
f 524/1/5 521/1/5 523/1/5
f 529/1/5 526/1/5 525/1/5
f 530/1/5 526/1/5 529/1/5
f 531/1/5 528/1/5 527/1/5
f 532/1/5 528/1/5 531/1/5
f 537/1/5 534/1/5 533/1/5
f 538/1/5 534/1/5 537/1/5
f 539/1/5 536/1/5 535/1/5
f 540/1/5 536/1/5 539/1/5
f 544/1/5 542/1/5 541/1/5
f 545/1/5 542/1/5 544/1/5
f 547/1/5 544/1/5 543/1/5
f 548/1/5 544/1/5 547/1/5
f 549/1/5 546/1/5 545/1/5
f 550/1/5 546/1/5 549/1/5
f 551/1/5 549/1/5 548/1/5
f 552/1/5 549/1/5 551/1/5
f 556/1/5 554/1/5 553/1/5
f 557/1/5 554/1/5 556/1/5
f 560/1/5 556/1/5 555/1/5
f 561/1/5 556/1/5 560/1/5
f 562/1/5 558/1/5 557/1/5
f 563/1/5 558/1/5 562/1/5
f 565/1/5 560/1/5 559/1/5
f 566/1/5 560/1/5 565/1/5
f 569/1/5 564/1/5 563/1/5
f 570/1/5 564/1/5 569/1/5
f 571/1/5 567/1/5 566/1/5
f 572/1/5 567/1/5 571/1/5
f 573/1/5 569/1/5 568/1/5
f 574/1/5 569/1/5 573/1/5
f 575/1/5 573/1/5 572/1/5
f 576/1/5 573/1/5 575/1/5
f 579/3/5 578/3/5 577/3/5
f 580/3/5 578/3/5 579/3/5
f 583/3/5 582/3/5 581/3/5
f 584/3/5 582/3/5 583/3/5
f 587/3/5 586/3/5 585/3/5
f 588/3/5 586/3/5 587/3/5
f 591/3/5 590/3/5 589/3/5
f 592/3/5 590/3/5 591/3/5
f 593/3/6 594/3/6 597/3/6
f 597/3/6 594/3/6 598/3/6
f 595/3/6 596/3/6 599/3/6
f 599/3/6 596/3/6 600/3/6
f 593/3/6 597/3/6 601/3/6
f 601/3/6 597/3/6 602/3/6
f 600/3/6 596/3/6 603/3/6
f 603/3/6 596/3/6 604/3/6
f 605/3/6 606/3/6 609/3/6
f 607/3/6 608/3/6 612/3/6
f 609/3/6 610/3/6 613/3/6
f 605/3/6 609/3/6 613/3/6
f 613/3/6 610/3/6 614/3/6
f 611/3/6 612/3/6 615/3/6
f 612/3/6 608/3/6 616/3/6
f 615/3/6 612/3/6 616/3/6
f 617/2/6 618/2/6 619/2/6
f 619/2/6 618/2/6 620/2/6
f 621/1/6 622/1/6 623/1/6
f 623/1/6 622/1/6 624/1/6
f 621/1/6 623/1/6 625/1/6
f 624/1/6 622/1/6 626/1/6
f 621/1/6 625/1/6 627/1/6
f 625/1/6 626/1/6 627/1/6
f 626/1/6 622/1/6 628/1/6
f 627/1/6 626/1/6 628/1/6
f 629/1/6 630/1/6 631/1/6
f 631/1/6 630/1/6 632/1/6
f 629/1/6 631/1/6 633/1/6
f 632/1/6 630/1/6 634/1/6
f 629/1/6 633/1/6 635/1/6
f 633/1/6 634/1/6 635/1/6
f 634/1/6 630/1/6 636/1/6
f 635/1/6 634/1/6 636/1/6
f 637/1/6 638/1/6 640/1/6
f 640/1/6 638/1/6 641/1/6
f 641/1/6 642/1/6 643/1/6
f 643/1/6 642/1/6 644/1/6
f 645/1/6 646/1/6 647/1/6
f 647/1/6 646/1/6 648/1/6
f 639/1/6 640/1/6 651/1/6
f 651/1/6 640/1/6 652/1/6
f 649/1/6 650/1/6 653/1/6
f 653/1/6 650/1/6 654/1/6
f 652/1/6 653/1/6 655/1/6
f 655/1/6 653/1/6 656/1/6
f 657/1/6 658/1/6 660/1/6
f 660/1/6 658/1/6 661/1/6
f 659/1/6 660/1/6 664/1/6
f 664/1/6 660/1/6 665/1/6
f 661/1/6 662/1/6 666/1/6
f 666/1/6 662/1/6 667/1/6
f 667/1/6 668/1/6 669/1/6
f 669/1/6 668/1/6 670/1/6
f 670/1/6 668/1/6 671/1/6
f 671/1/6 668/1/6 672/1/6
f 663/1/6 664/1/6 673/1/6
f 673/1/6 664/1/6 674/1/6
f 672/1/6 668/1/6 677/1/6
f 677/1/6 668/1/6 678/1/6
f 674/1/6 675/1/6 679/1/6
f 679/1/6 675/1/6 680/1/6
f 676/1/6 677/1/6 681/1/6
f 681/1/6 677/1/6 682/1/6
f 680/1/6 681/1/6 683/1/6
f 683/1/6 681/1/6 684/1/6
f 685/3/6 686/3/6 689/3/6
f 689/3/6 686/3/6 690/3/6
f 687/3/6 688/3/6 691/3/6
f 691/3/6 688/3/6 692/3/6
f 693/3/6 694/3/6 697/3/6
f 697/3/6 694/3/6 698/3/6
f 695/3/6 696/3/6 699/3/6
f 699/3/6 696/3/6 700/3/6
f 701/3/6 702/3/6 703/3/6
f 703/3/6 702/3/6 704/3/6
f 705/3/6 706/3/6 707/3/6
f 707/3/6 706/3/6 708/3/6
