# MagicaVoxel @ Ephtracy

# material
mtllib Shelf.mtl
usemtl palette

# normals
vn -1 0 0
vn 1 0 0
vn 0 0 1
vn 0 0 -1
vn 0 -1 0
vn 0 1 0

# texcoords
vt 0.349609 0.5
vt 0.357422 0.5

# verts
v -10 0 -0
v -10 0 -1
v -10 0 -7
v -10 0 -8
v -10 2 -1
v -10 2 -7
v -10 3 -1
v -10 3 -7
v -10 10 -1
v -10 10 -7
v -10 11 -1
v -10 11 -7
v -10 18 -1
v -10 18 -7
v -10 19 -1
v -10 19 -7
v -10 22 -0
v -10 22 -1
v -10 22 -7
v -10 22 -8
v 9 0 -0
v 9 0 -1
v 9 0 -7
v 9 0 -8
v 9 2 -0
v 9 2 -1
v 9 2 -7
v 9 2 -8
v 9 3 -0
v 9 3 -1
v 9 3 -7
v 9 3 -8
v 9 10 -0
v 9 10 -1
v 9 10 -7
v 9 10 -8
v 9 11 -0
v 9 11 -1
v 9 11 -7
v 9 11 -8
v 9 18 -0
v 9 18 -1
v 9 18 -7
v 9 18 -8
v 9 19 -0
v 9 19 -1
v 9 19 -7
v 9 19 -8
v 9 22 -0
v 9 22 -1
v 9 22 -7
v 9 22 -8
v -9 0 -0
v -9 0 -1
v -9 0 -7
v -9 0 -8
v -9 2 -0
v -9 2 -1
v -9 2 -7
v -9 2 -8
v -9 3 -0
v -9 3 -1
v -9 3 -7
v -9 3 -8
v -9 10 -0
v -9 10 -1
v -9 10 -7
v -9 10 -8
v -9 11 -0
v -9 11 -1
v -9 11 -7
v -9 11 -8
v -9 18 -0
v -9 18 -1
v -9 18 -7
v -9 18 -8
v -9 19 -0
v -9 19 -1
v -9 19 -7
v -9 19 -8
v -9 22 -0
v -9 22 -1
v -9 22 -7
v -9 22 -8
v 10 0 -0
v 10 0 -1
v 10 0 -7
v 10 0 -8
v 10 2 -1
v 10 2 -7
v 10 3 -1
v 10 3 -7
v 10 10 -1
v 10 10 -7
v 10 11 -1
v 10 11 -7
v 10 18 -1
v 10 18 -7
v 10 19 -1
v 10 19 -7
v 10 22 -0
v 10 22 -1
v 10 22 -7
v 10 22 -8
v -10 0 -0
v -10 22 -0
v -9 0 -0
v -9 2 -0
v -9 3 -0
v -9 10 -0
v -9 11 -0
v -9 18 -0
v -9 19 -0
v -9 22 -0
v 9 0 -0
v 9 2 -0
v 9 3 -0
v 9 10 -0
v 9 11 -0
v 9 18 -0
v 9 19 -0
v 9 22 -0
v 10 0 -0
v 10 22 -0
v -10 0 -7
v -10 2 -7
v -10 3 -7
v -10 10 -7
v -10 11 -7
v -10 18 -7
v -10 19 -7
v -10 22 -7
v -9 0 -7
v -9 2 -7
v -9 3 -7
v -9 10 -7
v -9 11 -7
v -9 18 -7
v -9 19 -7
v -9 22 -7
v 9 0 -7
v 9 2 -7
v 9 3 -7
v 9 10 -7
v 9 11 -7
v 9 18 -7
v 9 19 -7
v 9 22 -7
v 10 0 -7
v 10 2 -7
v 10 3 -7
v 10 10 -7
v 10 11 -7
v 10 18 -7
v 10 19 -7
v 10 22 -7
v -10 0 -1
v -10 2 -1
v -10 3 -1
v -10 10 -1
v -10 11 -1
v -10 18 -1
v -10 19 -1
v -10 22 -1
v -9 0 -1
v -9 2 -1
v -9 3 -1
v -9 10 -1
v -9 11 -1
v -9 18 -1
v -9 19 -1
v -9 22 -1
v 9 0 -1
v 9 2 -1
v 9 3 -1
v 9 10 -1
v 9 11 -1
v 9 18 -1
v 9 19 -1
v 9 22 -1
v 10 0 -1
v 10 2 -1
v 10 3 -1
v 10 10 -1
v 10 11 -1
v 10 18 -1
v 10 19 -1
v 10 22 -1
v -10 0 -8
v -10 22 -8
v -9 0 -8
v -9 2 -8
v -9 3 -8
v -9 10 -8
v -9 11 -8
v -9 18 -8
v -9 19 -8
v -9 22 -8
v 9 0 -8
v 9 2 -8
v 9 3 -8
v 9 10 -8
v 9 11 -8
v 9 18 -8
v 9 19 -8
v 9 22 -8
v 10 0 -8
v 10 22 -8
v -10 0 -0
v -9 0 -0
v 9 0 -0
v 10 0 -0
v -10 0 -1
v -9 0 -1
v 9 0 -1
v 10 0 -1
v -10 0 -7
v -9 0 -7
v 9 0 -7
v 10 0 -7
v -10 0 -8
v -9 0 -8
v 9 0 -8
v 10 0 -8
v -9 2 -0
v 9 2 -0
v -10 2 -1
v -9 2 -1
v 9 2 -1
v 10 2 -1
v -10 2 -7
v -9 2 -7
v 9 2 -7
v 10 2 -7
v -9 2 -8
v 9 2 -8
v -9 10 -0
v 9 10 -0
v -10 10 -1
v -9 10 -1
v 9 10 -1
v 10 10 -1
v -10 10 -7
v -9 10 -7
v 9 10 -7
v 10 10 -7
v -9 10 -8
v 9 10 -8
v -9 18 -0
v 9 18 -0
v -10 18 -1
v -9 18 -1
v 9 18 -1
v 10 18 -1
v -10 18 -7
v -9 18 -7
v 9 18 -7
v 10 18 -7
v -9 18 -8
v 9 18 -8
v -9 3 -0
v 9 3 -0
v -10 3 -1
v -9 3 -1
v 9 3 -1
v 10 3 -1
v -10 3 -7
v -9 3 -7
v 9 3 -7
v 10 3 -7
v -9 3 -8
v 9 3 -8
v -9 11 -0
v 9 11 -0
v -10 11 -1
v -9 11 -1
v 9 11 -1
v 10 11 -1
v -10 11 -7
v -9 11 -7
v 9 11 -7
v 10 11 -7
v -9 11 -8
v 9 11 -8
v -9 19 -0
v 9 19 -0
v -10 19 -1
v -9 19 -1
v 9 19 -1
v 10 19 -1
v -10 19 -7
v -9 19 -7
v 9 19 -7
v 10 19 -7
v -9 19 -8
v 9 19 -8
v -10 22 -0
v -9 22 -0
v 9 22 -0
v 10 22 -0
v -10 22 -1
v -9 22 -1
v 9 22 -1
v 10 22 -1
v -10 22 -7
v -9 22 -7
v 9 22 -7
v 10 22 -7
v -10 22 -8
v -9 22 -8
v 9 22 -8
v 10 22 -8

# faces
f 5/2/1 2/2/1 1/2/1
f 6/2/1 4/2/1 3/2/1
f 7/2/1 5/2/1 1/2/1
f 7/1/1 6/1/1 5/1/1
f 8/2/1 4/2/1 6/2/1
f 8/1/1 6/1/1 7/1/1
f 9/2/1 7/2/1 1/2/1
f 10/2/1 4/2/1 8/2/1
f 11/2/1 9/2/1 1/2/1
f 11/1/1 10/1/1 9/1/1
f 12/2/1 4/2/1 10/2/1
f 12/1/1 10/1/1 11/1/1
f 13/2/1 11/2/1 1/2/1
f 14/2/1 4/2/1 12/2/1
f 15/2/1 13/2/1 1/2/1
f 15/1/1 14/1/1 13/1/1
f 16/2/1 4/2/1 14/2/1
f 16/1/1 14/1/1 15/1/1
f 17/2/1 15/2/1 1/2/1
f 18/2/1 15/2/1 17/2/1
f 19/2/1 4/2/1 16/2/1
f 20/2/1 4/2/1 19/2/1
f 25/2/1 22/2/1 21/2/1
f 26/2/1 22/2/1 25/2/1
f 27/2/1 24/2/1 23/2/1
f 28/2/1 24/2/1 27/2/1
f 33/2/1 30/2/1 29/2/1
f 34/2/1 30/2/1 33/2/1
f 35/2/1 32/2/1 31/2/1
f 36/2/1 32/2/1 35/2/1
f 41/2/1 38/2/1 37/2/1
f 42/2/1 38/2/1 41/2/1
f 43/2/1 40/2/1 39/2/1
f 44/2/1 40/2/1 43/2/1
f 49/2/1 46/2/1 45/2/1
f 50/2/1 46/2/1 49/2/1
f 51/2/1 48/2/1 47/2/1
f 52/2/1 48/2/1 51/2/1
f 53/2/2 54/2/2 57/2/2
f 57/2/2 54/2/2 58/2/2
f 55/2/2 56/2/2 59/2/2
f 59/2/2 56/2/2 60/2/2
f 61/2/2 62/2/2 65/2/2
f 65/2/2 62/2/2 66/2/2
f 63/2/2 64/2/2 67/2/2
f 67/2/2 64/2/2 68/2/2
f 69/2/2 70/2/2 73/2/2
f 73/2/2 70/2/2 74/2/2
f 71/2/2 72/2/2 75/2/2
f 75/2/2 72/2/2 76/2/2
f 77/2/2 78/2/2 81/2/2
f 81/2/2 78/2/2 82/2/2
f 79/2/2 80/2/2 83/2/2
f 83/2/2 80/2/2 84/2/2
f 85/2/2 86/2/2 89/2/2
f 87/2/2 88/2/2 90/2/2
f 85/2/2 89/2/2 91/2/2
f 89/1/2 90/1/2 91/1/2
f 90/2/2 88/2/2 92/2/2
f 91/1/2 90/1/2 92/1/2
f 85/2/2 91/2/2 93/2/2
f 92/2/2 88/2/2 94/2/2
f 85/2/2 93/2/2 95/2/2
f 93/1/2 94/1/2 95/1/2
f 94/2/2 88/2/2 96/2/2
f 95/1/2 94/1/2 96/1/2
f 85/2/2 95/2/2 97/2/2
f 96/2/2 88/2/2 98/2/2
f 85/2/2 97/2/2 99/2/2
f 97/1/2 98/1/2 99/1/2
f 98/2/2 88/2/2 100/2/2
f 99/1/2 98/1/2 100/1/2
f 85/2/2 99/2/2 101/2/2
f 101/2/2 99/2/2 102/2/2
f 100/2/2 88/2/2 103/2/2
f 103/2/2 88/2/2 104/2/2
f 107/2/3 106/2/3 105/2/3
f 108/2/3 106/2/3 107/2/3
f 109/2/3 106/2/3 108/2/3
f 110/2/3 106/2/3 109/2/3
f 111/2/3 106/2/3 110/2/3
f 112/2/3 106/2/3 111/2/3
f 113/2/3 106/2/3 112/2/3
f 114/2/3 106/2/3 113/2/3
f 116/1/3 109/1/3 108/1/3
f 117/1/3 109/1/3 116/1/3
f 118/1/3 111/1/3 110/1/3
f 119/1/3 111/1/3 118/1/3
f 120/1/3 113/1/3 112/1/3
f 121/1/3 113/1/3 120/1/3
f 123/2/3 117/2/3 116/2/3
f 123/2/3 122/2/3 121/2/3
f 123/2/3 121/2/3 120/2/3
f 123/2/3 120/2/3 119/2/3
f 123/2/3 119/2/3 118/2/3
f 123/2/3 118/2/3 117/2/3
f 123/2/3 116/2/3 115/2/3
f 124/2/3 122/2/3 123/2/3
f 133/2/3 126/2/3 125/2/3
f 134/2/3 126/2/3 133/2/3
f 135/2/3 128/2/3 127/2/3
f 136/2/3 128/2/3 135/2/3
f 137/2/3 130/2/3 129/2/3
f 138/2/3 130/2/3 137/2/3
f 139/2/3 132/2/3 131/2/3
f 140/2/3 132/2/3 139/2/3
f 149/2/3 142/2/3 141/2/3
f 150/2/3 142/2/3 149/2/3
f 151/2/3 144/2/3 143/2/3
f 152/2/3 144/2/3 151/2/3
f 153/2/3 146/2/3 145/2/3
f 154/2/3 146/2/3 153/2/3
f 155/2/3 148/2/3 147/2/3
f 156/2/3 148/2/3 155/2/3
f 157/2/4 158/2/4 165/2/4
f 165/2/4 158/2/4 166/2/4
f 159/2/4 160/2/4 167/2/4
f 167/2/4 160/2/4 168/2/4
f 161/2/4 162/2/4 169/2/4
f 169/2/4 162/2/4 170/2/4
f 163/2/4 164/2/4 171/2/4
f 171/2/4 164/2/4 172/2/4
f 173/2/4 174/2/4 181/2/4
f 181/2/4 174/2/4 182/2/4
f 175/2/4 176/2/4 183/2/4
f 183/2/4 176/2/4 184/2/4
f 177/2/4 178/2/4 185/2/4
f 185/2/4 178/2/4 186/2/4
f 179/2/4 180/2/4 187/2/4
f 187/2/4 180/2/4 188/2/4
f 189/2/4 190/2/4 191/2/4
f 191/2/4 190/2/4 192/2/4
f 192/2/4 190/2/4 193/2/4
f 193/2/4 190/2/4 194/2/4
f 194/2/4 190/2/4 195/2/4
f 195/2/4 190/2/4 196/2/4
f 196/2/4 190/2/4 197/2/4
f 197/2/4 190/2/4 198/2/4
f 192/1/4 193/1/4 200/1/4
f 200/1/4 193/1/4 201/1/4
f 194/1/4 195/1/4 202/1/4
f 202/1/4 195/1/4 203/1/4
f 196/1/4 197/1/4 204/1/4
f 204/1/4 197/1/4 205/1/4
f 200/2/4 201/2/4 207/2/4
f 205/2/4 206/2/4 207/2/4
f 204/2/4 205/2/4 207/2/4
f 203/2/4 204/2/4 207/2/4
f 202/2/4 203/2/4 207/2/4
f 201/2/4 202/2/4 207/2/4
f 199/2/4 200/2/4 207/2/4
f 207/2/4 206/2/4 208/2/4
f 213/2/5 210/2/5 209/2/5
f 214/2/5 210/2/5 213/2/5
f 215/2/5 212/2/5 211/2/5
f 216/2/5 212/2/5 215/2/5
f 221/2/5 218/2/5 217/2/5
f 222/2/5 218/2/5 221/2/5
f 223/2/5 220/2/5 219/2/5
f 224/2/5 220/2/5 223/2/5
f 228/1/5 226/1/5 225/1/5
f 229/1/5 226/1/5 228/1/5
f 231/1/5 228/1/5 227/1/5
f 231/1/5 230/1/5 229/1/5
f 231/1/5 229/1/5 228/1/5
f 232/1/5 230/1/5 231/1/5
f 233/1/5 230/1/5 232/1/5
f 234/1/5 230/1/5 233/1/5
f 235/1/5 233/1/5 232/1/5
f 236/1/5 233/1/5 235/1/5
f 240/1/5 238/1/5 237/1/5
f 241/1/5 238/1/5 240/1/5
f 243/1/5 240/1/5 239/1/5
f 243/1/5 242/1/5 241/1/5
f 243/1/5 241/1/5 240/1/5
f 244/1/5 242/1/5 243/1/5
f 245/1/5 242/1/5 244/1/5
f 246/1/5 242/1/5 245/1/5
f 247/1/5 245/1/5 244/1/5
f 248/1/5 245/1/5 247/1/5
f 252/1/5 250/1/5 249/1/5
f 253/1/5 250/1/5 252/1/5
f 255/1/5 252/1/5 251/1/5
f 255/1/5 254/1/5 253/1/5
f 255/1/5 253/1/5 252/1/5
f 256/1/5 254/1/5 255/1/5
f 257/1/5 254/1/5 256/1/5
f 258/1/5 254/1/5 257/1/5
f 259/1/5 257/1/5 256/1/5
f 260/1/5 257/1/5 259/1/5
f 261/1/6 262/1/6 264/1/6
f 264/1/6 262/1/6 265/1/6
f 263/1/6 264/1/6 267/1/6
f 265/1/6 266/1/6 267/1/6
f 264/1/6 265/1/6 267/1/6
f 267/1/6 266/1/6 268/1/6
f 268/1/6 266/1/6 269/1/6
f 269/1/6 266/1/6 270/1/6
f 268/1/6 269/1/6 271/1/6
f 271/1/6 269/1/6 272/1/6
f 273/1/6 274/1/6 276/1/6
f 276/1/6 274/1/6 277/1/6
f 275/1/6 276/1/6 279/1/6
f 277/1/6 278/1/6 279/1/6
f 276/1/6 277/1/6 279/1/6
f 279/1/6 278/1/6 280/1/6
f 280/1/6 278/1/6 281/1/6
f 281/1/6 278/1/6 282/1/6
f 280/1/6 281/1/6 283/1/6
f 283/1/6 281/1/6 284/1/6
f 285/1/6 286/1/6 288/1/6
f 288/1/6 286/1/6 289/1/6
f 287/1/6 288/1/6 291/1/6
f 289/1/6 290/1/6 291/1/6
f 288/1/6 289/1/6 291/1/6
f 291/1/6 290/1/6 292/1/6
f 292/1/6 290/1/6 293/1/6
f 293/1/6 290/1/6 294/1/6
f 292/1/6 293/1/6 295/1/6
f 295/1/6 293/1/6 296/1/6
f 297/2/6 298/2/6 301/2/6
f 301/2/6 298/2/6 302/2/6
f 299/2/6 300/2/6 303/2/6
f 303/2/6 300/2/6 304/2/6
f 305/2/6 306/2/6 309/2/6
f 309/2/6 306/2/6 310/2/6
f 307/2/6 308/2/6 311/2/6
f 311/2/6 308/2/6 312/2/6
