# Alias OBJ Model File
# Exported from SketchUp, (c) 2000-2012 Trimble Navigation Limited
# File units = meters

mtllib Door.mtl

g Mesh1 Model

usemtl Color_D08
v 0 0 -0
vt 0 0
vn 0 -1 -0
v 0 0 -1.3
vt 0 51.1811
v 0.05 0 -1.3
vt -1.9685 51.1811
v 0.05 0 -0
vt -1.9685 0
f 1/1/1 2/2/1 3/3/1 4/4/1 

v 0 2.02 -1.3
vt -51.1811 79.5276
vn -1 0 -0
vt -51.1811 0
v 0 2.02 -0
vt 0 79.5276
f 5/5/2 2/6/2 1/1/2 6/7/2 

vn 0 0 -1
v 0.05 2.02 -1.3
vt -1.9685 79.5276
f 2/1/3 5/7/3 7/8/3 3/4/3 

vn 0 1 -0
v 0.05 2.02 -0
vt 1.9685 0
vt 1.9685 51.1811
f 5/2/4 6/1/4 8/9/4 7/10/4 

vn 0 0 1
vt 1.9685 79.5276
f 6/7/5 1/1/5 4/9/5 8/11/5 

vt 51.1811 0
vn 1 0 -0
vt 51.1811 79.5276
f 3/12/6 7/13/6 8/7/6 4/1/6 

