# MagicaVoxel @ Ephtracy

# material
mtllib Couch.mtl
usemtl palette

# normals
vn -1 0 0
vn 1 0 0
vn 0 0 1
vn 0 0 -1
vn 0 -1 0
vn 0 1 0

# texcoords
vt 0.283203 0.5
vt 0.302734 0.5

# verts
v -12 6 5
v -12 6 -6
v -12 9 5
v -12 9 -6
v -11 0 5
v -11 0 3
v -11 0 -4
v -11 0 -6
v -11 1 5
v -11 1 3
v -11 1 -4
v -11 1 -6
v -11 3 5
v -11 3 -6
v -11 4 5
v -11 4 -6
v -11 7 6
v -11 7 5
v -11 8 6
v -11 8 5
v -10 1 4
v -10 1 3
v -10 1 -5
v -10 1 -6
v -10 2 3
v -10 2 -5
v -10 3 4
v -10 3 -6
v -10 4 5
v -10 4 -6
v -10 6 5
v -10 6 -6
v -9 9 -5
v -9 9 -6
v -9 13 -5
v -9 13 -6
v -8 8 -3
v -8 8 -5
v -8 11 -3
v -8 11 -4
v -8 12 -4
v -8 12 -5
v 1 5 -3
v 1 5 -4
v 1 11 -3
v 1 11 -4
v 8 5 5
v 8 5 -3
v 8 7 5
v 8 7 -3
v 9 0 5
v 9 0 3
v 9 0 -4
v 9 0 -6
v 9 1 5
v 9 1 4
v 9 1 -4
v 9 1 -5
v 9 2 4
v 9 2 3
v 9 2 -5
v 9 2 -6
v 9 3 3
v 9 3 -5
v 9 7 5
v 9 7 -3
v 9 8 -3
v 9 8 -5
v 9 9 5
v 9 9 -5
v 10 7 6
v 10 7 5
v 10 8 6
v 10 8 5
v -10 7 6
v -10 7 5
v -10 8 6
v -10 8 5
v -9 0 5
v -9 0 3
v -9 0 -4
v -9 0 -6
v -9 1 5
v -9 1 4
v -9 1 -4
v -9 1 -5
v -9 2 4
v -9 2 3
v -9 2 -5
v -9 2 -6
v -9 3 3
v -9 3 -5
v -9 7 5
v -9 7 -3
v -9 8 -3
v -9 8 -5
v -9 9 5
v -9 9 -5
v -8 5 5
v -8 5 -3
v -8 7 5
v -8 7 -3
v -1 5 -3
v -1 5 -4
v -1 11 -3
v -1 11 -4
v 8 8 -3
v 8 8 -5
v 8 11 -3
v 8 11 -4
v 8 12 -4
v 8 12 -5
v 9 9 -5
v 9 9 -6
v 9 13 -5
v 9 13 -6
v 10 1 4
v 10 1 3
v 10 1 -5
v 10 1 -6
v 10 2 3
v 10 2 -5
v 10 3 4
v 10 3 -6
v 10 4 5
v 10 4 -6
v 10 6 5
v 10 6 -6
v 11 0 5
v 11 0 3
v 11 0 -4
v 11 0 -6
v 11 1 5
v 11 1 3
v 11 1 -4
v 11 1 -6
v 11 3 5
v 11 3 -6
v 11 4 5
v 11 4 -6
v 11 7 6
v 11 7 5
v 11 8 6
v 11 8 5
v 12 6 5
v 12 6 -6
v 12 9 5
v 12 9 -6
v -11 7 6
v -11 8 6
v -10 7 6
v -10 8 6
v 10 7 6
v 10 8 6
v 11 7 6
v 11 8 6
v -12 6 5
v -12 9 5
v -11 0 5
v -11 1 5
v -11 3 5
v -11 4 5
v -11 7 5
v -11 8 5
v -10 4 5
v -10 6 5
v -10 7 5
v -10 8 5
v -9 0 5
v -9 1 5
v -9 7 5
v -9 9 5
v -8 5 5
v -8 7 5
v 8 5 5
v 8 7 5
v 9 0 5
v 9 1 5
v 9 7 5
v 9 9 5
v 10 4 5
v 10 6 5
v 10 7 5
v 10 8 5
v 11 0 5
v 11 1 5
v 11 3 5
v 11 4 5
v 11 7 5
v 11 8 5
v 12 6 5
v 12 9 5
v -10 1 4
v -10 3 4
v -9 1 4
v -9 2 4
v 9 1 4
v 9 2 4
v 10 1 4
v 10 3 4
v -9 7 -3
v -9 8 -3
v -8 5 -3
v -8 7 -3
v -8 8 -3
v -8 11 -3
v -1 5 -3
v -1 11 -3
v 1 5 -3
v 1 11 -3
v 8 5 -3
v 8 7 -3
v 8 8 -3
v 8 11 -3
v 9 7 -3
v 9 8 -3
v -11 0 -4
v -11 1 -4
v -9 0 -4
v -9 1 -4
v -8 11 -4
v -8 12 -4
v -1 5 -4
v -1 11 -4
v 1 5 -4
v 1 11 -4
v 8 11 -4
v 8 12 -4
v 9 0 -4
v 9 1 -4
v 11 0 -4
v 11 1 -4
v -10 1 -5
v -10 2 -5
v -9 1 -5
v -9 2 -5
v -9 3 -5
v -9 8 -5
v -9 9 -5
v -9 13 -5
v -8 8 -5
v -8 12 -5
v 8 8 -5
v 8 12 -5
v 9 1 -5
v 9 2 -5
v 9 3 -5
v 9 8 -5
v 9 9 -5
v 9 13 -5
v 10 1 -5
v 10 2 -5
v -11 0 3
v -11 1 3
v -10 1 3
v -10 2 3
v -9 0 3
v -9 2 3
v -9 3 3
v 9 0 3
v 9 2 3
v 9 3 3
v 10 1 3
v 10 2 3
v 11 0 3
v 11 1 3
v -12 6 -6
v -12 9 -6
v -11 0 -6
v -11 1 -6
v -11 3 -6
v -11 4 -6
v -10 1 -6
v -10 3 -6
v -10 4 -6
v -10 6 -6
v -9 0 -6
v -9 2 -6
v -9 8 -6
v -9 9 -6
v -9 13 -6
v -8 8 -6
v -8 12 -6
v 8 8 -6
v 8 12 -6
v 9 0 -6
v 9 2 -6
v 9 8 -6
v 9 9 -6
v 9 13 -6
v 10 1 -6
v 10 3 -6
v 10 4 -6
v 10 6 -6
v 11 0 -6
v 11 1 -6
v 11 3 -6
v 11 4 -6
v 12 6 -6
v 12 9 -6
v -11 0 5
v -9 0 5
v 9 0 5
v 11 0 5
v -11 0 3
v -9 0 3
v 9 0 3
v 11 0 3
v -11 0 -4
v -9 0 -4
v 9 0 -4
v 11 0 -4
v -11 0 -6
v -9 0 -6
v 9 0 -6
v 11 0 -6
v -9 2 4
v 9 2 4
v -10 2 3
v -9 2 3
v 9 2 3
v 10 2 3
v -10 2 -5
v -9 2 -5
v 9 2 -5
v 10 2 -5
v -9 2 -6
v 9 2 -6
v -11 3 5
v 11 3 5
v -10 3 4
v 10 3 4
v -9 3 3
v 9 3 3
v -9 3 -5
v 9 3 -5
v -11 3 -6
v -10 3 -6
v 10 3 -6
v 11 3 -6
v -12 6 5
v -10 6 5
v 10 6 5
v 12 6 5
v -12 6 -6
v -10 6 -6
v 10 6 -6
v 12 6 -6
v -11 7 6
v -10 7 6
v 10 7 6
v 11 7 6
v -11 7 5
v -10 7 5
v 10 7 5
v 11 7 5
v -11 1 5
v -9 1 5
v 9 1 5
v 11 1 5
v -10 1 4
v -9 1 4
v 9 1 4
v 10 1 4
v -11 1 3
v -10 1 3
v 10 1 3
v 11 1 3
v -11 1 -4
v -9 1 -4
v 9 1 -4
v 11 1 -4
v -10 1 -5
v -9 1 -5
v 9 1 -5
v 10 1 -5
v -11 1 -6
v -10 1 -6
v 10 1 -6
v 11 1 -6
v -11 4 5
v -10 4 5
v 10 4 5
v 11 4 5
v -11 4 -6
v -10 4 -6
v 10 4 -6
v 11 4 -6
v -8 5 5
v 8 5 5
v -8 5 -3
v -1 5 -3
v 1 5 -3
v 8 5 -3
v -1 5 -4
v 1 5 -4
v -9 7 5
v -8 7 5
v 8 7 5
v 9 7 5
v -9 7 -3
v -8 7 -3
v 8 7 -3
v 9 7 -3
v -11 8 6
v -10 8 6
v 10 8 6
v 11 8 6
v -11 8 5
v -10 8 5
v 10 8 5
v 11 8 5
v -9 8 -3
v -8 8 -3
v 8 8 -3
v 9 8 -3
v -9 8 -5
v -8 8 -5
v 8 8 -5
v 9 8 -5
v -12 9 5
v -9 9 5
v 9 9 5
v 12 9 5
v -9 9 -5
v 9 9 -5
v -12 9 -6
v -9 9 -6
v 9 9 -6
v 12 9 -6
v -8 11 -3
v -1 11 -3
v 1 11 -3
v 8 11 -3
v -8 11 -4
v -1 11 -4
v 1 11 -4
v 8 11 -4
v -8 12 -4
v 8 12 -4
v -8 12 -5
v 8 12 -5
v -9 13 -5
v 9 13 -5
v -9 13 -6
v 9 13 -6

# faces
f 3/2/1 2/2/1 1/2/1
f 4/2/1 2/2/1 3/2/1
f 9/1/1 6/1/1 5/1/1
f 10/1/1 6/1/1 9/1/1
f 11/1/1 8/1/1 7/1/1
f 12/1/1 8/1/1 11/1/1
f 15/2/1 14/2/1 13/2/1
f 16/2/1 14/2/1 15/2/1
f 19/1/1 18/1/1 17/1/1
f 20/1/1 18/1/1 19/1/1
f 25/1/1 22/1/1 21/1/1
f 26/1/1 24/1/1 23/1/1
f 27/1/1 25/1/1 21/1/1
f 27/1/1 26/1/1 25/1/1
f 28/1/1 24/1/1 26/1/1
f 28/1/1 26/1/1 27/1/1
f 31/2/1 30/2/1 29/2/1
f 32/2/1 30/2/1 31/2/1
f 35/1/1 34/1/1 33/1/1
f 36/1/1 34/1/1 35/1/1
f 39/2/1 38/2/1 37/2/1
f 40/2/1 38/2/1 39/2/1
f 41/2/1 38/2/1 40/2/1
f 42/2/1 38/2/1 41/2/1
f 45/2/1 44/2/1 43/2/1
f 46/2/1 44/2/1 45/2/1
f 49/2/1 48/2/1 47/2/1
f 50/2/1 48/2/1 49/2/1
f 55/1/1 52/1/1 51/1/1
f 56/1/1 52/1/1 55/1/1
f 57/1/1 54/1/1 53/1/1
f 58/1/1 54/1/1 57/1/1
f 59/1/1 52/1/1 56/1/1
f 60/1/1 52/1/1 59/1/1
f 61/1/1 54/1/1 58/1/1
f 62/1/1 54/1/1 61/1/1
f 63/1/1 61/1/1 60/1/1
f 64/1/1 61/1/1 63/1/1
f 67/2/1 66/2/1 65/2/1
f 69/2/1 67/2/1 65/2/1
f 69/2/1 68/2/1 67/2/1
f 70/2/1 68/2/1 69/2/1
f 73/1/1 72/1/1 71/1/1
f 74/1/1 72/1/1 73/1/1
f 75/1/2 76/1/2 77/1/2
f 77/1/2 76/1/2 78/1/2
f 79/1/2 80/1/2 83/1/2
f 83/1/2 80/1/2 84/1/2
f 81/1/2 82/1/2 85/1/2
f 85/1/2 82/1/2 86/1/2
f 84/1/2 80/1/2 87/1/2
f 87/1/2 80/1/2 88/1/2
f 86/1/2 82/1/2 89/1/2
f 89/1/2 82/1/2 90/1/2
f 88/1/2 89/1/2 91/1/2
f 91/1/2 89/1/2 92/1/2
f 93/2/2 94/2/2 95/2/2
f 93/2/2 95/2/2 97/2/2
f 95/2/2 96/2/2 97/2/2
f 97/2/2 96/2/2 98/2/2
f 99/2/2 100/2/2 101/2/2
f 101/2/2 100/2/2 102/2/2
f 103/2/2 104/2/2 105/2/2
f 105/2/2 104/2/2 106/2/2
f 107/2/2 108/2/2 109/2/2
f 109/2/2 108/2/2 110/2/2
f 110/2/2 108/2/2 111/2/2
f 111/2/2 108/2/2 112/2/2
f 113/1/2 114/1/2 115/1/2
f 115/1/2 114/1/2 116/1/2
f 117/1/2 118/1/2 121/1/2
f 119/1/2 120/1/2 122/1/2
f 117/1/2 121/1/2 123/1/2
f 121/1/2 122/1/2 123/1/2
f 122/1/2 120/1/2 124/1/2
f 123/1/2 122/1/2 124/1/2
f 125/2/2 126/2/2 127/2/2
f 127/2/2 126/2/2 128/2/2
f 129/1/2 130/1/2 133/1/2
f 133/1/2 130/1/2 134/1/2
f 131/1/2 132/1/2 135/1/2
f 135/1/2 132/1/2 136/1/2
f 137/2/2 138/2/2 139/2/2
f 139/2/2 138/2/2 140/2/2
f 141/1/2 142/1/2 143/1/2
f 143/1/2 142/1/2 144/1/2
f 145/2/2 146/2/2 147/2/2
f 147/2/2 146/2/2 148/2/2
f 151/1/3 150/1/3 149/1/3
f 152/1/3 150/1/3 151/1/3
f 155/1/3 154/1/3 153/1/3
f 156/1/3 154/1/3 155/1/3
f 163/2/3 158/2/3 157/2/3
f 164/2/3 158/2/3 163/2/3
f 165/2/3 162/2/3 161/2/3
f 166/2/3 163/2/3 157/2/3
f 167/2/3 163/2/3 166/2/3
f 168/2/3 158/2/3 164/2/3
f 169/1/3 160/1/3 159/1/3
f 170/1/3 160/1/3 169/1/3
f 171/2/3 167/2/3 166/2/3
f 171/2/3 168/2/3 167/2/3
f 171/2/3 166/2/3 165/2/3
f 172/2/3 158/2/3 168/2/3
f 172/2/3 168/2/3 171/2/3
f 173/2/3 171/2/3 165/2/3
f 174/2/3 171/2/3 173/2/3
f 175/2/3 173/2/3 165/2/3
f 179/2/3 176/2/3 175/2/3
f 181/2/3 165/2/3 161/2/3
f 181/2/3 180/2/3 179/2/3
f 181/2/3 179/2/3 175/2/3
f 181/2/3 175/2/3 165/2/3
f 182/2/3 180/2/3 181/2/3
f 183/2/3 180/2/3 182/2/3
f 184/2/3 180/2/3 183/2/3
f 185/1/3 178/1/3 177/1/3
f 186/1/3 178/1/3 185/1/3
f 187/2/3 181/2/3 161/2/3
f 188/2/3 181/2/3 187/2/3
f 189/2/3 183/2/3 182/2/3
f 190/2/3 180/2/3 184/2/3
f 191/2/3 189/2/3 182/2/3
f 191/2/3 190/2/3 189/2/3
f 192/2/3 180/2/3 190/2/3
f 192/2/3 190/2/3 191/2/3
f 195/1/3 194/1/3 193/1/3
f 196/1/3 194/1/3 195/1/3
f 198/1/3 194/1/3 196/1/3
f 199/1/3 198/1/3 197/1/3
f 200/1/3 194/1/3 198/1/3
f 200/1/3 198/1/3 199/1/3
f 204/2/3 202/2/3 201/2/3
f 205/2/3 202/2/3 204/2/3
f 207/2/3 204/2/3 203/2/3
f 207/2/3 206/2/3 205/2/3
f 207/2/3 205/2/3 204/2/3
f 208/2/3 206/2/3 207/2/3
f 211/2/3 210/2/3 209/2/3
f 212/2/3 210/2/3 211/2/3
f 213/2/3 210/2/3 212/2/3
f 214/2/3 210/2/3 213/2/3
f 215/2/3 213/2/3 212/2/3
f 216/2/3 213/2/3 215/2/3
f 219/1/3 218/1/3 217/1/3
f 220/1/3 218/1/3 219/1/3
f 224/2/3 222/2/3 221/2/3
f 225/2/3 224/2/3 223/2/3
f 226/2/3 222/2/3 224/2/3
f 226/2/3 224/2/3 225/2/3
f 227/2/3 222/2/3 226/2/3
f 228/2/3 222/2/3 227/2/3
f 231/1/3 230/1/3 229/1/3
f 232/1/3 230/1/3 231/1/3
f 235/1/3 234/1/3 233/1/3
f 236/1/3 234/1/3 235/1/3
f 241/1/3 240/1/3 239/1/3
f 241/1/3 239/1/3 238/1/3
f 242/1/3 240/1/3 241/1/3
f 244/1/3 240/1/3 242/1/3
f 246/1/3 237/1/3 236/1/3
f 247/1/3 237/1/3 246/1/3
f 248/1/3 244/1/3 243/1/3
f 249/1/3 244/1/3 248/1/3
f 250/1/3 240/1/3 244/1/3
f 250/1/3 244/1/3 249/1/3
f 251/1/3 246/1/3 245/1/3
f 252/1/3 246/1/3 251/1/3
f 253/1/4 254/1/4 255/1/4
f 253/1/4 255/1/4 257/1/4
f 255/1/4 256/1/4 257/1/4
f 257/1/4 256/1/4 258/1/4
f 258/1/4 259/1/4 261/1/4
f 261/1/4 259/1/4 262/1/4
f 260/1/4 261/1/4 263/1/4
f 263/1/4 261/1/4 264/1/4
f 260/1/4 263/1/4 265/1/4
f 265/1/4 263/1/4 266/1/4
f 269/1/4 270/1/4 273/1/4
f 271/2/4 272/2/4 274/2/4
f 274/2/4 272/2/4 275/2/4
f 267/2/4 268/2/4 276/2/4
f 269/1/4 273/1/4 277/1/4
f 273/1/4 274/1/4 277/1/4
f 277/1/4 274/1/4 278/1/4
f 274/2/4 275/2/4 279/2/4
f 275/2/4 276/2/4 279/2/4
f 276/2/4 268/2/4 279/2/4
f 279/2/4 268/2/4 280/2/4
f 280/1/4 281/1/4 282/1/4
f 279/1/4 280/1/4 282/1/4
f 274/2/4 279/2/4 282/2/4
f 282/1/4 281/1/4 283/1/4
f 274/2/4 282/2/4 284/2/4
f 282/2/4 283/2/4 284/2/4
f 283/1/4 281/1/4 285/1/4
f 284/2/4 283/2/4 285/2/4
f 278/1/4 274/1/4 287/1/4
f 274/2/4 284/2/4 288/2/4
f 284/1/4 285/1/4 288/1/4
f 288/1/4 285/1/4 289/1/4
f 285/1/4 281/1/4 290/1/4
f 289/1/4 285/1/4 290/1/4
f 286/1/4 287/1/4 291/1/4
f 288/2/4 289/2/4 292/2/4
f 291/1/4 287/1/4 292/1/4
f 287/1/4 274/1/4 292/1/4
f 274/2/4 288/2/4 292/2/4
f 292/2/4 289/2/4 293/2/4
f 293/2/4 289/2/4 294/2/4
f 286/1/4 291/1/4 295/1/4
f 295/1/4 291/1/4 296/1/4
f 292/2/4 293/2/4 297/2/4
f 297/2/4 293/2/4 298/2/4
f 294/2/4 289/2/4 299/2/4
f 299/2/4 289/2/4 300/2/4
f 305/1/5 302/1/5 301/1/5
f 306/1/5 302/1/5 305/1/5
f 307/1/5 304/1/5 303/1/5
f 308/1/5 304/1/5 307/1/5
f 313/1/5 310/1/5 309/1/5
f 314/1/5 310/1/5 313/1/5
f 315/1/5 312/1/5 311/1/5
f 316/1/5 312/1/5 315/1/5
f 320/1/5 318/1/5 317/1/5
f 321/1/5 318/1/5 320/1/5
f 323/1/5 320/1/5 319/1/5
f 324/1/5 320/1/5 323/1/5
f 325/1/5 322/1/5 321/1/5
f 326/1/5 322/1/5 325/1/5
f 327/1/5 325/1/5 324/1/5
f 328/1/5 325/1/5 327/1/5
f 331/2/5 330/2/5 329/2/5
f 332/2/5 330/2/5 331/2/5
f 335/2/5 334/2/5 333/2/5
f 336/2/5 334/2/5 335/2/5
f 337/2/5 331/2/5 329/2/5
f 338/2/5 331/2/5 337/2/5
f 339/2/5 330/2/5 332/2/5
f 340/2/5 330/2/5 339/2/5
f 345/2/5 342/2/5 341/2/5
f 346/2/5 342/2/5 345/2/5
f 347/2/5 344/2/5 343/2/5
f 348/2/5 344/2/5 347/2/5
f 353/1/5 350/1/5 349/1/5
f 354/1/5 350/1/5 353/1/5
f 355/1/5 352/1/5 351/1/5
f 356/1/5 352/1/5 355/1/5
f 357/1/6 358/1/6 361/1/6
f 361/1/6 358/1/6 362/1/6
f 359/1/6 360/1/6 363/1/6
f 363/1/6 360/1/6 364/1/6
f 357/1/6 361/1/6 365/1/6
f 365/1/6 361/1/6 366/1/6
f 364/1/6 360/1/6 367/1/6
f 367/1/6 360/1/6 368/1/6
f 369/1/6 370/1/6 373/1/6
f 373/1/6 370/1/6 374/1/6
f 371/1/6 372/1/6 375/1/6
f 375/1/6 372/1/6 376/1/6
f 369/1/6 373/1/6 377/1/6
f 377/1/6 373/1/6 378/1/6
f 376/1/6 372/1/6 379/1/6
f 379/1/6 372/1/6 380/1/6
f 381/2/6 382/2/6 385/2/6
f 385/2/6 382/2/6 386/2/6
f 383/2/6 384/2/6 387/2/6
f 387/2/6 384/2/6 388/2/6
f 389/2/6 390/2/6 391/2/6
f 391/2/6 390/2/6 392/2/6
f 392/2/6 390/2/6 393/2/6
f 393/2/6 390/2/6 394/2/6
f 392/2/6 393/2/6 395/2/6
f 395/2/6 393/2/6 396/2/6
f 397/2/6 398/2/6 401/2/6
f 401/2/6 398/2/6 402/2/6
f 399/2/6 400/2/6 403/2/6
f 403/2/6 400/2/6 404/2/6
f 405/1/6 406/1/6 409/1/6
f 409/1/6 406/1/6 410/1/6
f 407/1/6 408/1/6 411/1/6
f 411/1/6 408/1/6 412/1/6
f 413/2/6 414/2/6 417/2/6
f 417/2/6 414/2/6 418/2/6
f 415/2/6 416/2/6 419/2/6
f 419/2/6 416/2/6 420/2/6
f 421/2/6 422/2/6 425/2/6
f 423/2/6 424/2/6 426/2/6
f 421/2/6 425/2/6 427/2/6
f 427/2/6 425/2/6 428/2/6
f 426/2/6 424/2/6 429/2/6
f 429/2/6 424/2/6 430/2/6
f 431/2/6 432/2/6 435/2/6
f 435/2/6 432/2/6 436/2/6
f 433/2/6 434/2/6 437/2/6
f 437/2/6 434/2/6 438/2/6
f 439/2/6 440/2/6 441/2/6
f 441/2/6 440/2/6 442/2/6
f 443/1/6 444/1/6 445/1/6
f 445/1/6 444/1/6 446/1/6
