# MagicaVoxel @ Ephtracy

# material
mtllib Mother.mtl
usemtl palette

# normals
vn -1 0 0
vn 1 0 0
vn 0 0 1
vn 0 0 -1
vn 0 -1 0
vn 0 1 0

# texcoords
vt 0.00195313 0.5
vt 0.251953 0.5
vt 0.259766 0.5
vt 0.271484 0.5
vt 0.275391 0.5
vt 0.279297 0.5
vt 0.283203 0.5
vt 0.287109 0.5
vt 0.291016 0.5
vt 0.302734 0.5
vt 0.306641 0.5
vt 0.310547 0.5
vt 0.314453 0.5

# verts
v -6 15 -0
v -6 15 -2
v -6 16 1
v -6 16 -0
v -6 17 -1
v -6 17 -2
v -6 19 1
v -6 19 -1
v -5 19 1
v -5 19 -1
v -5 20 1
v -5 20 -1
v -4 18 2
v -4 18 1
v -4 18 -1
v -4 18 -2
v -4 20 2
v -4 20 1
v -4 20 -1
v -4 20 -2
v -4 21 1
v -4 21 -1
v -3 14 4
v -3 14 -4
v -3 17 1
v -3 17 -1
v -3 18 2
v -3 18 1
v -3 18 -1
v -3 18 -2
v -3 20 4
v -3 20 2
v -3 20 -2
v -3 20 -4
v -2 14 5
v -2 14 4
v -2 14 -4
v -2 14 -5
v -2 20 5
v -2 20 4
v -2 20 -4
v -2 20 -5
v -2 21 4
v -2 21 -4
v -1 0 3
v -1 0 -3
v -1 1 3
v -1 1 -3
v -1 7 3
v -1 7 -3
v -1 8 3
v -1 8 -3
v -1 14 3
v -1 14 -3
v 0 7 5
v 0 7 3
v 0 7 -3
v 0 7 -5
v 0 8 5
v 0 8 3
v 0 8 -3
v 0 8 -5
v 0 14 5
v 0 14 4
v 0 14 3
v 0 14 -3
v 0 14 -4
v 0 14 -5
v -4 15 -0
v -4 15 -2
v -4 16 1
v -4 16 -0
v -4 17 1
v -4 17 -1
v -4 17 -2
v -3 20 1
v -3 20 -1
v -3 21 1
v -3 21 -1
v 2 7 5
v 2 7 3
v 2 7 -3
v 2 7 -5
v 2 8 5
v 2 8 3
v 2 8 -3
v 2 8 -5
v 2 14 5
v 2 14 4
v 2 14 3
v 2 14 -3
v 2 14 -4
v 2 14 -5
v 3 1 3
v 3 1 -3
v 3 7 3
v 3 7 1
v 3 7 -1
v 3 7 -3
v 3 8 3
v 3 8 1
v 3 8 -1
v 3 8 -3
v 3 14 5
v 3 14 4
v 3 14 3
v 3 14 -3
v 3 14 -4
v 3 14 -5
v 3 15 5
v 3 15 4
v 3 15 -4
v 3 15 -5
v 4 0 3
v 4 0 -3
v 4 1 3
v 4 1 -3
v 4 14 4
v 4 14 -4
v 4 15 5
v 4 15 4
v 4 15 1
v 4 15 -1
v 4 15 -4
v 4 15 -5
v 4 16 3
v 4 16 1
v 4 16 -1
v 4 16 -3
v 4 18 2
v 4 18 1
v 4 18 -2
v 4 18 -3
v 4 19 3
v 4 19 2
v 4 19 1
v 4 19 -1
v 4 19 -2
v 4 19 -3
v 4 20 5
v 4 20 4
v 4 20 3
v 4 20 -3
v 4 20 -4
v 4 20 -5
v 4 21 4
v 4 21 3
v 4 21 -3
v 4 21 -4
v 5 20 3
v 5 20 -3
v 5 21 3
v 5 21 -3
v -2 14 5
v -2 20 5
v 0 7 5
v 0 8 5
v 0 14 5
v 2 7 5
v 2 8 5
v 2 14 5
v 3 14 5
v 3 15 5
v 4 15 5
v 4 20 5
v -3 14 4
v -3 20 4
v -2 14 4
v -2 20 4
v -2 21 4
v 3 14 4
v 3 15 4
v 4 14 4
v 4 15 4
v 4 20 4
v 4 21 4
v -1 0 3
v -1 1 3
v -1 7 3
v -1 8 3
v -1 14 3
v 0 7 3
v 0 8 3
v 0 14 3
v 2 7 3
v 2 8 3
v 2 14 3
v 3 1 3
v 3 7 3
v 3 8 3
v 3 14 3
v 4 0 3
v 4 1 3
v 4 20 3
v 4 21 3
v 5 20 3
v 5 21 3
v -4 18 2
v -4 20 2
v -3 18 2
v -3 20 2
v -6 16 1
v -6 19 1
v -5 19 1
v -5 20 1
v -4 16 1
v -4 17 1
v -4 18 1
v -4 20 1
v -4 21 1
v -3 17 1
v -3 18 1
v -3 20 1
v -3 21 1
v -6 15 -0
v -6 16 -0
v -4 15 -0
v -4 16 -0
v -6 17 -1
v -6 19 -1
v -5 19 -1
v -5 20 -1
v -4 17 -1
v -4 18 -1
v -4 20 -1
v -4 21 -1
v -3 17 -1
v -3 18 -1
v -3 20 -1
v -3 21 -1
v -6 15 -2
v -6 17 -2
v -4 15 -2
v -4 17 -2
v -4 18 -2
v -4 20 -2
v -3 18 -2
v -3 20 -2
v -1 0 -3
v -1 1 -3
v -1 7 -3
v -1 8 -3
v -1 14 -3
v 0 7 -3
v 0 8 -3
v 0 14 -3
v 2 7 -3
v 2 8 -3
v 2 14 -3
v 3 1 -3
v 3 7 -3
v 3 8 -3
v 3 14 -3
v 4 0 -3
v 4 1 -3
v 4 20 -3
v 4 21 -3
v 5 20 -3
v 5 21 -3
v -3 14 -4
v -3 20 -4
v -2 14 -4
v -2 20 -4
v -2 21 -4
v 3 14 -4
v 3 15 -4
v 4 14 -4
v 4 15 -4
v 4 20 -4
v 4 21 -4
v -2 14 -5
v -2 20 -5
v 0 7 -5
v 0 8 -5
v 0 14 -5
v 2 7 -5
v 2 8 -5
v 2 14 -5
v 3 14 -5
v 3 15 -5
v 4 15 -5
v 4 20 -5
v -1 0 3
v 4 0 3
v -1 0 -3
v 4 0 -3
v 0 7 5
v 2 7 5
v 0 7 3
v 2 7 3
v 0 7 -3
v 2 7 -3
v 0 7 -5
v 2 7 -5
v -2 14 5
v 0 14 5
v 2 14 5
v 3 14 5
v -3 14 4
v -2 14 4
v 0 14 4
v 2 14 4
v 3 14 4
v 4 14 4
v -1 14 3
v 0 14 3
v 2 14 3
v 3 14 3
v -1 14 -3
v 0 14 -3
v 2 14 -3
v 3 14 -3
v -3 14 -4
v -2 14 -4
v 0 14 -4
v 2 14 -4
v 3 14 -4
v 4 14 -4
v -2 14 -5
v 0 14 -5
v 2 14 -5
v 3 14 -5
v 3 15 5
v 4 15 5
v 3 15 4
v 4 15 4
v -6 15 -0
v -4 15 -0
v -6 15 -2
v -4 15 -2
v 3 15 -4
v 4 15 -4
v 3 15 -5
v 4 15 -5
v -6 16 1
v -4 16 1
v -6 16 -0
v -4 16 -0
v -4 17 1
v -3 17 1
v -4 17 -1
v -3 17 -1
v -4 18 2
v -3 18 2
v -4 18 1
v -3 18 1
v -4 18 -1
v -3 18 -1
v -4 18 -2
v -3 18 -2
v 4 20 3
v 5 20 3
v 4 20 -3
v 5 20 -3
v 3 1 3
v 4 1 3
v 3 1 -3
v 4 1 -3
v -6 17 -1
v -4 17 -1
v -6 17 -2
v -4 17 -2
v -6 19 1
v -5 19 1
v -6 19 -1
v -5 19 -1
v -2 20 5
v 4 20 5
v -3 20 4
v -2 20 4
v 4 20 4
v -4 20 2
v -3 20 2
v -5 20 1
v -4 20 1
v -3 20 1
v -5 20 -1
v -4 20 -1
v -3 20 -1
v -4 20 -2
v -3 20 -2
v -3 20 -4
v -2 20 -4
v 4 20 -4
v -2 20 -5
v 4 20 -5
v -2 21 4
v 4 21 4
v 4 21 3
v 5 21 3
v -4 21 1
v -3 21 1
v -4 21 -1
v -3 21 -1
v 4 21 -3
v 5 21 -3
v -2 21 -4
v 4 21 -4

# faces
f 4/7/1 2/7/1 1/7/1
f 5/7/1 2/7/1 4/7/1
f 5/7/1 4/7/1 3/7/1
f 6/7/1 2/7/1 5/7/1
f 7/7/1 5/7/1 3/7/1
f 8/7/1 5/7/1 7/7/1
f 11/7/1 10/7/1 9/7/1
f 12/7/1 10/7/1 11/7/1
f 17/12/1 14/12/1 13/12/1
f 18/12/1 14/12/1 17/12/1
f 19/12/1 16/12/1 15/12/1
f 20/12/1 16/12/1 19/12/1
f 21/12/1 19/12/1 18/12/1
f 22/12/1 19/12/1 21/12/1
f 25/7/1 24/7/1 23/7/1
f 26/7/1 24/7/1 25/7/1
f 27/7/1 25/7/1 23/7/1
f 28/7/1 25/7/1 27/7/1
f 29/7/1 24/7/1 26/7/1
f 30/7/1 24/7/1 29/7/1
f 31/7/1 27/7/1 23/7/1
f 32/7/1 27/7/1 31/7/1
f 33/7/1 24/7/1 30/7/1
f 34/7/1 24/7/1 33/7/1
f 39/7/1 36/7/1 35/7/1
f 40/7/1 36/7/1 39/7/1
f 41/7/1 38/7/1 37/7/1
f 42/7/1 38/7/1 41/7/1
f 43/7/1 41/7/1 40/7/1
f 44/7/1 41/7/1 43/7/1
f 47/4/1 46/4/1 45/4/1
f 48/4/1 46/4/1 47/4/1
f 49/2/1 48/2/1 47/2/1
f 50/2/1 48/2/1 49/2/1
f 51/11/1 50/11/1 49/11/1
f 52/11/1 50/11/1 51/11/1
f 53/10/1 52/10/1 51/10/1
f 54/10/1 52/10/1 53/10/1
f 59/9/1 56/9/1 55/9/1
f 60/9/1 56/9/1 59/9/1
f 61/9/1 58/9/1 57/9/1
f 62/9/1 58/9/1 61/9/1
f 63/10/1 60/10/1 59/10/1
f 64/10/1 60/10/1 63/10/1
f 65/10/1 60/10/1 64/10/1
f 66/10/1 62/10/1 61/10/1
f 67/10/1 62/10/1 66/10/1
f 68/10/1 62/10/1 67/10/1
f 69/7/2 70/7/2 72/7/2
f 71/7/2 72/7/2 73/7/2
f 72/7/2 70/7/2 74/7/2
f 73/7/2 72/7/2 74/7/2
f 74/7/2 70/7/2 75/7/2
f 76/12/2 77/12/2 78/12/2
f 78/12/2 77/12/2 79/12/2
f 80/9/2 81/9/2 84/9/2
f 84/9/2 81/9/2 85/9/2
f 82/9/2 83/9/2 86/9/2
f 86/9/2 83/9/2 87/9/2
f 84/10/2 85/10/2 88/10/2
f 88/10/2 85/10/2 89/10/2
f 89/10/2 85/10/2 90/10/2
f 86/10/2 87/10/2 91/10/2
f 91/10/2 87/10/2 92/10/2
f 92/10/2 87/10/2 93/10/2
f 94/2/2 95/2/2 96/2/2
f 96/2/2 95/2/2 97/2/2
f 97/2/2 95/2/2 98/2/2
f 98/2/2 95/2/2 99/2/2
f 96/11/2 97/11/2 100/11/2
f 97/13/2 98/13/2 101/13/2
f 100/11/2 97/11/2 101/11/2
f 98/11/2 99/11/2 102/11/2
f 101/13/2 98/13/2 102/13/2
f 102/11/2 99/11/2 103/11/2
f 100/10/2 101/10/2 106/10/2
f 101/10/2 102/10/2 106/10/2
f 102/10/2 103/10/2 106/10/2
f 106/10/2 103/10/2 107/10/2
f 104/7/2 105/7/2 110/7/2
f 110/7/2 105/7/2 111/7/2
f 108/7/2 109/7/2 112/7/2
f 112/7/2 109/7/2 113/7/2
f 114/4/2 115/4/2 116/4/2
f 116/4/2 115/4/2 117/4/2
f 118/9/2 119/9/2 121/9/2
f 121/9/2 119/9/2 122/9/2
f 122/9/2 119/9/2 123/9/2
f 123/9/2 119/9/2 124/9/2
f 121/9/2 122/9/2 126/9/2
f 122/6/2 123/6/2 127/6/2
f 126/9/2 122/9/2 127/9/2
f 123/9/2 124/9/2 128/9/2
f 127/6/2 123/6/2 128/6/2
f 128/9/2 124/9/2 129/9/2
f 126/3/2 127/3/2 130/3/2
f 127/9/2 128/9/2 131/9/2
f 130/3/2 127/3/2 131/3/2
f 128/3/2 129/3/2 132/3/2
f 129/9/2 124/9/2 133/9/2
f 132/3/2 129/3/2 133/3/2
f 121/9/2 126/9/2 134/9/2
f 126/3/2 130/3/2 134/3/2
f 130/1/2 131/1/2 135/1/2
f 134/3/2 130/3/2 135/3/2
f 131/9/2 128/9/2 136/9/2
f 135/1/2 131/1/2 136/1/2
f 128/3/2 132/3/2 137/3/2
f 136/9/2 128/9/2 137/9/2
f 132/1/2 133/1/2 138/1/2
f 137/3/2 132/3/2 138/3/2
f 133/9/2 124/9/2 139/9/2
f 138/1/2 133/1/2 139/1/2
f 120/7/2 121/7/2 140/7/2
f 137/9/2 138/9/2 141/9/2
f 140/7/2 121/7/2 141/7/2
f 135/9/2 136/9/2 141/9/2
f 138/9/2 139/9/2 141/9/2
f 121/9/2 134/9/2 141/9/2
f 134/9/2 135/9/2 141/9/2
f 136/9/2 137/9/2 141/9/2
f 141/9/2 139/9/2 142/9/2
f 139/9/2 124/9/2 143/9/2
f 142/9/2 139/9/2 143/9/2
f 124/7/2 125/7/2 144/7/2
f 143/9/2 124/9/2 144/9/2
f 144/7/2 125/7/2 145/7/2
f 141/7/2 142/7/2 146/7/2
f 146/7/2 142/7/2 147/7/2
f 143/7/2 144/7/2 148/7/2
f 148/7/2 144/7/2 149/7/2
f 150/7/2 151/7/2 152/7/2
f 152/7/2 151/7/2 153/7/2
f 158/7/3 155/7/3 154/7/3
f 159/9/3 157/9/3 156/9/3
f 160/10/3 158/10/3 157/10/3
f 160/9/3 157/9/3 159/9/3
f 161/7/3 155/7/3 158/7/3
f 161/10/3 158/10/3 160/10/3
f 162/7/3 155/7/3 161/7/3
f 163/7/3 155/7/3 162/7/3
f 164/7/3 155/7/3 163/7/3
f 165/7/3 155/7/3 164/7/3
f 168/7/3 167/7/3 166/7/3
f 169/7/3 167/7/3 168/7/3
f 173/9/3 172/9/3 171/9/3
f 174/9/3 172/9/3 173/9/3
f 175/7/3 170/7/3 169/7/3
f 176/7/3 170/7/3 175/7/3
f 182/2/3 179/2/3 178/2/3
f 182/11/3 180/11/3 179/11/3
f 183/10/3 181/10/3 180/10/3
f 183/11/3 180/11/3 182/11/3
f 184/10/3 181/10/3 183/10/3
f 185/2/3 182/2/3 178/2/3
f 188/4/3 178/4/3 177/4/3
f 188/2/3 185/2/3 178/2/3
f 189/11/3 186/11/3 185/11/3
f 189/2/3 185/2/3 188/2/3
f 190/10/3 187/10/3 186/10/3
f 190/11/3 186/11/3 189/11/3
f 191/10/3 187/10/3 190/10/3
f 192/4/3 188/4/3 177/4/3
f 193/4/3 188/4/3 192/4/3
f 196/7/3 195/7/3 194/7/3
f 197/7/3 195/7/3 196/7/3
f 200/12/3 199/12/3 198/12/3
f 201/12/3 199/12/3 200/12/3
f 204/7/3 203/7/3 202/7/3
f 206/7/3 204/7/3 202/7/3
f 206/7/3 205/7/3 204/7/3
f 207/7/3 205/7/3 206/7/3
f 208/7/3 205/7/3 207/7/3
f 209/7/3 205/7/3 208/7/3
f 211/12/3 208/12/3 207/12/3
f 212/12/3 208/12/3 211/12/3
f 213/12/3 210/12/3 209/12/3
f 214/12/3 210/12/3 213/12/3
f 217/7/3 216/7/3 215/7/3
f 218/7/3 216/7/3 217/7/3
f 219/7/4 220/7/4 221/7/4
f 219/7/4 221/7/4 223/7/4
f 221/7/4 222/7/4 223/7/4
f 223/7/4 222/7/4 224/7/4
f 224/7/4 222/7/4 225/7/4
f 223/12/4 224/12/4 227/12/4
f 227/12/4 224/12/4 228/12/4
f 225/12/4 226/12/4 229/12/4
f 229/12/4 226/12/4 230/12/4
f 231/7/4 232/7/4 233/7/4
f 233/7/4 232/7/4 234/7/4
f 235/12/4 236/12/4 237/12/4
f 237/12/4 236/12/4 238/12/4
f 240/2/4 241/2/4 244/2/4
f 241/11/4 242/11/4 244/11/4
f 242/10/4 243/10/4 245/10/4
f 244/11/4 242/11/4 245/11/4
f 245/10/4 243/10/4 246/10/4
f 240/2/4 244/2/4 247/2/4
f 239/4/4 240/4/4 250/4/4
f 240/2/4 247/2/4 250/2/4
f 247/11/4 248/11/4 251/11/4
f 250/2/4 247/2/4 251/2/4
f 248/10/4 249/10/4 252/10/4
f 251/11/4 248/11/4 252/11/4
f 252/10/4 249/10/4 253/10/4
f 239/4/4 250/4/4 254/4/4
f 254/4/4 250/4/4 255/4/4
f 256/7/4 257/7/4 258/7/4
f 258/7/4 257/7/4 259/7/4
f 260/7/4 261/7/4 262/7/4
f 262/7/4 261/7/4 263/7/4
f 265/9/4 266/9/4 267/9/4
f 267/9/4 266/9/4 268/9/4
f 263/7/4 264/7/4 269/7/4
f 269/7/4 264/7/4 270/7/4
f 271/7/4 272/7/4 275/7/4
f 273/9/4 274/9/4 276/9/4
f 274/10/4 275/10/4 277/10/4
f 276/9/4 274/9/4 277/9/4
f 275/7/4 272/7/4 278/7/4
f 277/10/4 275/10/4 278/10/4
f 278/7/4 272/7/4 279/7/4
f 279/7/4 272/7/4 280/7/4
f 280/7/4 272/7/4 281/7/4
f 281/7/4 272/7/4 282/7/4
f 285/4/5 284/4/5 283/4/5
f 286/4/5 284/4/5 285/4/5
f 289/9/5 288/9/5 287/9/5
f 290/9/5 288/9/5 289/9/5
f 293/9/5 292/9/5 291/9/5
f 294/9/5 292/9/5 293/9/5
f 300/7/5 296/7/5 295/7/5
f 301/7/5 296/7/5 300/7/5
f 302/7/5 298/7/5 297/7/5
f 303/7/5 298/7/5 302/7/5
f 305/9/5 301/9/5 300/9/5
f 306/9/5 301/9/5 305/9/5
f 307/9/5 304/9/5 303/9/5
f 307/9/5 303/9/5 302/9/5
f 308/9/5 304/9/5 307/9/5
f 309/9/5 305/9/5 300/9/5
f 312/9/5 304/9/5 308/9/5
f 313/7/5 300/7/5 299/7/5
f 314/9/5 310/9/5 309/9/5
f 314/7/5 300/7/5 313/7/5
f 314/9/5 309/9/5 300/9/5
f 315/9/5 310/9/5 314/9/5
f 316/9/5 312/9/5 311/9/5
f 317/9/5 304/9/5 312/9/5
f 317/9/5 312/9/5 316/9/5
f 318/9/5 304/9/5 317/9/5
f 319/7/5 315/7/5 314/7/5
f 320/7/5 315/7/5 319/7/5
f 321/7/5 317/7/5 316/7/5
f 322/7/5 317/7/5 321/7/5
f 325/7/5 324/7/5 323/7/5
f 326/7/5 324/7/5 325/7/5
f 329/7/5 328/7/5 327/7/5
f 330/7/5 328/7/5 329/7/5
f 333/7/5 332/7/5 331/7/5
f 334/7/5 332/7/5 333/7/5
f 337/7/5 336/7/5 335/7/5
f 338/7/5 336/7/5 337/7/5
f 341/12/5 340/12/5 339/12/5
f 342/12/5 340/12/5 341/12/5
f 345/12/5 344/12/5 343/12/5
f 346/12/5 344/12/5 345/12/5
f 349/12/5 348/12/5 347/12/5
f 350/12/5 348/12/5 349/12/5
f 353/7/5 352/7/5 351/7/5
f 354/7/5 352/7/5 353/7/5
f 355/4/6 356/4/6 357/4/6
f 357/4/6 356/4/6 358/4/6
f 359/7/6 360/7/6 361/7/6
f 361/7/6 360/7/6 362/7/6
f 363/7/6 364/7/6 365/7/6
f 365/7/6 364/7/6 366/7/6
f 367/7/6 368/7/6 370/7/6
f 370/7/6 368/7/6 371/7/6
f 369/7/6 370/7/6 373/7/6
f 372/12/6 373/12/6 375/12/6
f 373/7/6 370/7/6 376/7/6
f 375/12/6 373/12/6 376/12/6
f 374/7/6 375/7/6 377/7/6
f 377/7/6 375/7/6 378/7/6
f 376/7/6 370/7/6 379/7/6
f 378/12/6 379/12/6 380/12/6
f 379/7/6 370/7/6 381/7/6
f 380/12/6 379/12/6 381/12/6
f 381/7/6 370/7/6 382/7/6
f 382/7/6 370/7/6 383/7/6
f 383/7/6 384/7/6 385/7/6
f 385/7/6 384/7/6 386/7/6
f 387/7/6 388/7/6 389/7/6
f 391/12/6 392/12/6 393/12/6
f 393/12/6 392/12/6 394/12/6
f 387/7/6 389/7/6 395/7/6
f 389/7/6 390/7/6 395/7/6
f 395/7/6 390/7/6 396/7/6
f 387/7/6 395/7/6 397/7/6
f 397/7/6 395/7/6 398/7/6
