# Alias OBJ Model File
# Exported from SketchUp, (c) 2000-2012 Trimble Navigation Limited
# File units = meters

mtllib World.mtl

g Mesh1 Model

usemtl Wall_Hallway
v 26.571 2.02 -24.8267
vt 464.993 1.01
vn 0 0 1
v 25.303 2.02 -24.8267
vt 442.802 1.01
v 25.303 5.19776e-14 -24.8267
vt 442.802 2.59888e-14
v 26.571 5.19776e-14 -24.8267
vt 464.993 2.59888e-14
f 1/1/1 2/2/1 3/3/1 4/4/1 

usemtl Nothing
vt 1046.1 977.429
vn 0 1 -0
v 25.303 2.02 -28.4532
vt 996.18 1120.2
vt 996.18 977.429
f 1/5/2 5/6/2 2/7/2

v 26.571 2.02 -25.9607
vt 1046.1 1022.08
f 5/6/2 1/5/2 6/8/2

usemtl Wall_Hallway
vt 454.313 1.01
vn 1 0 -0
vt 434.467 1.01
vt 434.467 2.59888e-14
v 26.571 5.19776e-14 -25.9607
vt 454.313 2.59888e-14
f 6/9/3 1/10/3 4/11/3 7/12/3 

usemtl Floor_Hallway
v 31.571 5.19776e-14 -25.9607
vt 105.237 86.5357
vt 88.5702 86.5357
vt 88.5702 82.7557
v 26.571 5.19776e-14 -23.5267
vt 88.5702 78.4223
v 26.571 5.19776e-14 -20.9607
vt 88.5702 69.8691
v 31.571 5.19776e-14 -20.9607
vt 105.237 69.8691
f 8/13/2 7/14/2 4/15/2 9/16/2 10/17/2 11/18/2 

usemtl Wall_Hallway
v 31.571 2.02 -25.9607
vt 552.493 1.01
vt 552.493 2.59888e-14
f 12/19/1 6/1/1 7/4/1 8/20/1 

usemtl Nothing
v 28.0722 2.02 -28.4532
vt 1105.21 1120.2
vt 1242.95 1022.08
f 13/21/2 6/8/2 12/22/2

f 5/6/2 6/8/2 13/21/2

usemtl Wall_Hallway
vt -442.802 1.01
vn 0 0 -1
vt -491.264 1.01
v 28.0722 5.19776e-14 -28.4532
vt -491.264 2.59888e-14
v 25.303 5.19776e-14 -28.4532
vt -442.802 2.59888e-14
f 5/23/4 13/24/4 14/25/4 15/26/4 

vt -497.931 1.01
vn -1 0 -0
v 28.0722 2.02 -33.4532
vt -585.431 1.01
v 28.0722 5.19776e-14 -33.4532
vt -585.431 2.59888e-14
vt -497.931 2.59888e-14
f 13/27/5 16/28/5 17/29/5 14/30/5 

usemtl Nothing
vt 1105.21 1317.05
f 13/21/2 12/22/2 16/31/2

v 43.21 2.02 -49.2262
vt 1701.18 1938.04
f 18/32/2 16/31/2 12/22/2

v 23.0722 2.02 -33.4532
vt 908.356 1317.05
f 18/32/2 19/33/2 16/31/2

v 19.1615 2.02 -39.0518
vt 754.389 1537.47
f 18/32/2 20/34/2 19/33/2

v 14.1615 2.02 -39.0518
vt 557.539 1537.47
f 18/32/2 21/35/2 20/34/2

v 0 2.02 -49.2262
vt 0 1938.04
f 22/36/2 21/35/2 18/32/2

v 6.46199 2.02 -32.4465
vt 254.409 1277.42
f 21/35/2 22/36/2 23/37/2

v 5 2.02 -10
vt 196.85 393.701
f 23/37/2 22/36/2 24/38/2

v 5 2.02 -5
vt 196.85 196.85
f 24/38/2 22/36/2 25/39/2

v 0 2.02 -0
vt 0 0
f 26/40/2 25/39/2 22/36/2

v 43.21 2.02 -0
vt 1701.18 0
f 25/39/2 26/40/2 27/41/2

v 10 2.02 -5
vt 393.701 196.85
f 25/39/2 27/41/2 28/42/2

v 14.9891 2.02 -7.0568
vt 590.123 277.827
f 28/42/2 27/41/2 29/43/2

v 19.9891 2.02 -7.0568
vt 786.973 277.827
f 29/43/2 27/41/2 30/44/2

v 25.3146 2.02 -9.06092
vt 996.637 356.729
f 30/44/2 27/41/2 31/45/2

v 30.3146 2.02 -9.06092
vt 1193.49 356.729
f 31/45/2 27/41/2 32/46/2

v 30.3146 2.02 -14.0609
vt 1193.49 553.579
f 32/46/2 27/41/2 33/47/2

v 31.7854 2.02 -14.3145
vt 1251.39 563.564
f 33/47/2 27/41/2 34/48/2

v 36.7854 2.02 -14.3145
vt 1448.24 563.564
f 34/48/2 27/41/2 35/49/2

v 36.7854 2.02 -19.3145
vt 1448.24 760.415
f 35/49/2 27/41/2 36/50/2

f 18/32/2 36/50/2 27/41/2

v 31.7854 2.02 -19.3145
vt 1251.39 760.415
f 18/32/2 37/51/2 36/50/2

f 18/32/2 12/22/2 37/51/2

v 31.7854 2.02 -18.1613
vt 1251.39 715.014
f 37/51/2 12/22/2 38/52/2

v 31.571 2.02 -20.9607
vt 1242.95 825.225
f 39/53/2 38/52/2 12/22/2

v 27.4572 2.02 -18.1613
vt 1080.99 715.014
f 39/53/2 40/54/2 38/52/2

v 26.571 2.02 -20.9607
vt 1046.1 825.225
f 41/55/2 40/54/2 39/53/2

v 27.4572 2.02 -14.0609
vt 1080.99 553.579
f 41/55/2 42/56/2 40/54/2

v 25.3146 2.02 -14.0609
vt 996.637 553.579
f 42/56/2 41/55/2 43/57/2

v 26.571 2.02 -23.5267
vt 1046.1 926.248
f 44/58/2 43/57/2 41/55/2

v 22.6111 2.02 -19.6928
vt 890.199 775.307
f 44/58/2 45/59/2 43/57/2

v 19.1116 2.02 -23.5267
vt 752.426 926.248
f 46/60/2 45/59/2 44/58/2

v 19.1116 2.02 -23.2527
vt 752.426 915.462
f 47/61/2 45/59/2 46/60/2

v 19.0573 2.02 -23.2527
vt 750.286 915.462
f 48/62/2 45/59/2 47/61/2

v 19.0573 2.02 -19.6928
vt 750.286 775.307
f 45/59/2 48/62/2 49/63/2

usemtl Wall_Hallway
vt -344.624 1.01
vt -406.923 1.01
v 19.0573 5.12557e-14 -23.2527
vt -406.923 2.56279e-14
v 19.0573 5.77529e-15 -19.6928
vt -344.624 2.88765e-15
f 49/64/5 48/65/5 50/66/5 51/67/5 

usemtl Wall_Room
vt -19.0573 1.01
vt -19.1116 1.01
v 19.1116 5.26995e-14 -23.2527
vt -19.1116 2.63498e-14
vt -19.0573 2.56279e-14
f 48/68/4 47/69/4 52/70/4 50/71/4 

vt -23.2527 1.01
vt -23.5267 1.01
v 19.1116 5.19776e-14 -23.5267
vt -23.5267 2.59888e-14
vt -23.2527 2.63498e-14
f 47/72/5 46/73/5 53/74/5 52/75/5 

usemtl Wall_Hallway
vt -334.453 1.01
vt -464.993 1.01
vt -464.993 2.59888e-14
vt -334.453 2.59888e-14
f 46/76/4 44/77/4 9/78/4 53/79/4 

vt 411.717 1.01
vt 366.813 1.01
vt 366.813 2.59888e-14
vt 411.717 2.59888e-14
f 44/80/3 41/81/3 10/82/3 9/83/3 

vt -552.493 2.59888e-14
vt -552.493 1.01
f 11/84/4 10/78/4 41/77/4 39/85/4 

vt -366.813 1.01
vt -454.313 1.01
vt -454.313 2.59888e-14
vt -366.813 2.59888e-14
f 39/86/5 12/87/5 8/88/5 11/89/5 

usemtl Floor_Hallway
v 24.003 5.19776e-14 -24.8267
vt 80.0099 82.7557
v 19.1116 5.19776e-14 -24.8267
vt 63.7054 82.7557
vt 63.7054 78.4223
vt 84.3433 82.7557
vt 84.3433 94.844
v 24.003 5.19776e-14 -28.4532
vt 80.0099 94.844
f 54/90/2 55/91/2 53/92/2 9/16/2 4/15/2 3/93/2 15/94/2 56/95/2 

usemtl Wall_Hallway
v 24.003 2.02 -24.8267
vt 420.052 1.01
v 19.1116 2.02 -24.8267
vt 334.453 1.01
vt 334.453 2.59888e-14
vt 420.052 2.59888e-14
f 57/96/1 58/97/1 55/98/1 54/99/1 

usemtl Nothing
vt 944.999 977.429
v 19.1116 2.02 -28.2527
vt 752.426 1112.31
vt 752.426 977.429
f 57/100/2 59/101/2 58/102/2

v 19.1615 2.02 -34.0518
vt 754.389 1340.62
f 59/101/2 57/100/2 60/103/2

f 60/103/2 57/100/2 20/34/2

v 23.0722 2.02 -28.4532
vt 908.356 1120.2
f 20/34/2 57/100/2 61/104/2

v 24.003 2.02 -28.4532
vt 944.999 1120.2
f 61/104/2 57/100/2 62/105/2

usemtl Wall_Hallway
vt 497.931 1.01
vt 497.931 2.59888e-14
f 62/106/3 57/10/3 54/11/3 56/107/3 

vt -403.764 1.01
vt -420.052 1.01
vt -420.052 2.59888e-14
v 23.0722 5.19776e-14 -28.4532
vt -403.764 2.59888e-14
f 61/108/4 62/109/4 56/110/4 63/111/4 

usemtl Floor_Hallway
vt 93.5741 94.844
vn 6.81431e-17 1 3.63363e-17
vt 93.5741 111.511
v 23.0722 5.19776e-14 -33.4532
vt 76.9074 111.511
vt 76.9074 94.844
f 14/112/6 17/113/6 64/114/6 63/115/6 56/95/6 15/94/6 

usemtl Wall_Hallway
vt 491.264 1.01
vt 403.764 1.01
vt 403.764 2.59888e-14
vt 491.264 2.59888e-14
f 16/116/1 19/117/1 64/118/1 17/119/1 

vt 585.431 2.59888e-14
vt 585.431 1.01
f 63/107/3 64/120/3 19/121/3 61/106/3 

usemtl Nothing
f 19/33/2 20/34/2 61/104/2

usemtl Wall_Room
vt -34.0518 1.01
vt -39.0518 1.01
v 19.1615 5.26995e-14 -39.0518
vt -39.0518 2.63498e-14
v 19.1615 5.26995e-14 -34.0518
vt -34.0518 2.63498e-14
f 60/122/5 20/123/5 65/124/5 66/125/5 

vt 19.1615 1.01
vt 14.1615 1.01
v 14.1615 5.26995e-14 -39.0518
vt 14.1615 2.63498e-14
vt 19.1615 2.63498e-14
f 20/126/1 21/127/1 67/128/1 65/129/1 

vt 39.0518 1.01
v 14.1615 2.02 -34.0518
vt 34.0518 1.01
v 14.1615 5.26995e-14 -34.0518
vt 34.0518 2.63498e-14
vt 39.0518 2.63498e-14
f 21/130/3 68/131/3 69/132/3 67/133/3 

usemtl Nothing
v 14.1116 2.02 -28.2527
vt 555.576 1112.31
vt 557.539 1340.62
f 21/35/2 70/134/2 68/135/2

v 11.462 2.02 -32.4465
vt 451.259 1277.42
f 21/35/2 71/136/2 70/134/2

f 21/35/2 23/37/2 71/136/2

usemtl Wall_Hallway
vt 200.585 1.01
vt 113.085 1.01
v 6.46199 5.23386e-14 -32.4465
vt 113.085 2.61693e-14
v 11.462 5.23386e-14 -32.4465
vt 200.585 2.61693e-14
f 71/137/1 23/138/1 72/139/1 73/140/1 

vt 567.813 1.01
v 6.46199 2.02 -27.4465
vt 480.313 1.01
v 6.46199 5.23386e-14 -27.4465
vt 480.313 2.61693e-14
vt 567.813 2.61693e-14
f 23/141/3 74/142/3 75/143/3 72/144/3 

usemtl Nothing
vt 254.409 1080.57
f 23/37/2 24/38/2 74/145/2

v 8.18749 2.02 -10
vt 322.342 393.701
f 76/146/2 74/145/2 24/38/2

v 8.06482 2.02 -13.1743
vt 317.513 518.672
f 74/145/2 76/146/2 77/147/2

v 8.18749 2.02 -13.1743
vt 322.342 518.672
f 77/147/2 76/146/2 78/148/2

usemtl Wall_Hallway
vt 230.55 1.01
vt 175 1.01
v 8.18749 4.94509e-14 -10
vt 175 2.47255e-14
v 8.18749 4.94509e-14 -13.1743
vt 230.55 2.47255e-14
f 78/149/3 76/150/3 79/151/3 80/152/3 

usemtl Wall_Room
vt 8.18749 1.01
vt 5 1.01
v 5 4.94509e-14 -10
vt 5 2.47255e-14
vt 8.18749 2.47255e-14
f 76/153/1 24/154/1 81/155/1 79/156/1 

vt 10 1.01
v 5 4.94509e-14 -5
vt 10 2.47255e-14
f 24/157/3 25/154/3 82/155/3 81/158/3 

vt -5 1.01
vt -10 1.01
v 10 4.94509e-14 -5
vt -10 2.47255e-14
vt -5 2.47255e-14
f 25/159/4 28/160/4 83/161/4 82/162/4 

v 10 2.02 -10
v 10 4.94509e-14 -10
f 28/159/5 84/160/5 85/161/5 83/162/5 

usemtl Nothing
vt 393.701 393.701
f 28/42/2 29/43/2 84/163/2

v 14.9891 2.02 -10.2881
vt 590.123 405.043
f 86/164/2 84/163/2 29/43/2

v 9.48749 2.02 -10.2881
vt 373.523 405.043
f 87/165/2 84/163/2 86/164/2

v 9.48749 2.02 -10
vt 373.523 393.701
f 84/163/2 87/165/2 88/166/2

usemtl Wall_Hallway
vt -175 1.01
vt -180.041 1.01
v 9.48749 4.94509e-14 -10.2881
vt -180.041 2.47255e-14
v 9.48749 4.94509e-14 -10
vt -175 2.47255e-14
f 88/167/5 87/168/5 89/169/5 90/170/5 

vt -166.031 1.01
vt -262.309 1.01
v 14.9891 8.30198e-15 -10.2881
vt -262.309 4.15099e-15
vt -166.031 2.47255e-14
f 87/171/4 86/172/4 91/173/4 89/174/4 

usemtl Wall_Room
vt 10.2881 1.01
vt 7.0568 1.01
v 14.9891 8.30198e-15 -7.0568
vt 7.0568 4.15099e-15
vt 10.2881 4.15099e-15
f 86/175/3 29/176/3 92/177/3 91/178/3 

vt -14.9891 1.01
vt -19.9891 1.01
v 19.9891 8.30198e-15 -7.0568
vt -19.9891 4.15099e-15
vt -14.9891 4.15099e-15
f 29/179/4 30/180/4 93/181/4 92/182/4 

vt -7.0568 1.01
v 19.9891 2.02 -12.0568
vt -12.0568 1.01
v 19.9891 8.30198e-15 -12.0568
vt -12.0568 4.15099e-15
vt -7.0568 4.15099e-15
f 30/183/5 94/184/5 95/185/5 93/186/5 

usemtl Nothing
vt 786.973 474.677
f 30/44/2 31/45/2 94/187/2

v 25.3146 2.02 -12.5875
vt 996.637 495.57
f 96/188/2 94/187/2 31/45/2

v 19.6201 2.02 -12.5875
vt 772.445 495.57
f 97/189/2 94/187/2 96/188/2

v 19.6201 2.02 -12.0568
vt 772.445 474.677
f 94/187/2 97/189/2 98/190/2

usemtl Wall_Hallway
vt -210.994 1.01
vt -220.281 1.01
v 19.6201 7.58007e-15 -12.5875
vt -220.281 3.79003e-15
v 19.6201 8.30198e-15 -12.0568
vt -210.994 4.15099e-15
f 98/191/5 97/192/5 99/193/5 100/194/5 

vt -343.352 1.01
vn 2.53548e-16 3.66793e-32 -1
vt -443.005 1.01
v 25.3146 8.30198e-15 -12.5875
vt -443.005 4.15099e-15
vt -343.352 3.79003e-15
f 97/195/7 96/196/7 101/197/7 99/198/7 

usemtl Wall_Room
vt 12.5875 1.01
vt 9.06092 1.01
v 25.3146 5.16167e-14 -9.06092
vt 9.06092 2.58083e-14
vt 12.5875 4.15099e-15
f 96/199/3 31/200/3 102/201/3 101/202/3 

vt -25.3146 1.01
vt -30.3146 1.01
v 30.3146 5.16167e-14 -9.06092
vt -30.3146 2.58083e-14
vt -25.3146 2.58083e-14
f 31/203/4 32/204/4 103/205/4 102/206/4 

vt -9.06092 1.01
vt -14.0609 1.01
v 30.3146 5.16167e-14 -14.0609
vt -14.0609 2.58083e-14
vt -9.06092 2.58083e-14
f 32/207/5 33/208/5 104/209/5 103/210/5 

vt 30.3146 1.01
v 28.7572 2.02 -14.0609
vt 28.7572 1.01
v 28.7572 5.16167e-14 -14.0609
vt 28.7572 2.58083e-14
vt 30.3146 2.58083e-14
f 33/211/1 105/212/1 106/213/1 104/214/1 

usemtl Nothing
v 28.7572 2.02 -16.8613
vt 1132.17 663.832
vt 1132.17 553.579
f 33/47/2 107/215/2 105/216/2

v 31.7854 2.02 -16.8613
vt 1251.39 663.832
f 107/215/2 33/47/2 108/217/2

f 108/217/2 33/47/2 34/48/2

usemtl Wall_Hallway
vt 295.074 1.01
vt 250.504 1.01
v 31.7854 5.16167e-14 -14.3145
vt 250.504 2.58083e-14
v 31.7854 5.16167e-14 -16.8613
vt 295.074 2.58083e-14
f 108/218/3 34/219/3 109/220/3 110/221/3 

vt -556.244 1.01
vt -643.744 1.01
v 36.7854 5.16167e-14 -14.3145
vt -643.744 2.58083e-14
vt -556.244 2.58083e-14
f 34/222/4 35/223/4 111/224/4 109/225/4 

vt -250.504 1.01
vt -338.004 1.01
v 36.7854 5.16167e-14 -19.3145
vt -338.004 2.58083e-14
vt -250.504 2.58083e-14
f 35/226/5 36/227/5 112/228/5 111/229/5 

vt 643.744 1.01
vt 556.244 1.01
v 31.7854 5.16167e-14 -19.3145
vt 556.244 2.58083e-14
vt 643.744 2.58083e-14
f 36/230/1 37/231/1 113/232/1 112/233/1 

vt 338.004 1.01
vt 317.824 1.01
v 31.7854 5.16167e-14 -18.1613
vt 317.824 2.58083e-14
vt 338.004 2.58083e-14
f 37/234/3 38/235/3 114/236/3 113/237/3 

vt 480.501 1.01
v 27.4572 5.17239e-14 -18.1613
vt 480.501 2.5862e-14
f 38/231/1 40/238/1 115/239/1 114/232/1 

vt 317.824 2.5862e-14
vt 246.066 1.01
v 27.4572 5.16167e-14 -14.0609
vt 246.066 2.58083e-14
f 115/240/3 40/235/3 42/241/3 116/242/3 

usemtl Wall_Room
vt 27.4572 1.01
vt 25.3146 1.01
v 25.3146 5.16167e-14 -14.0609
vt 25.3146 2.58083e-14
vt 27.4572 2.58083e-14
f 42/243/1 43/244/1 117/245/1 116/246/1 

vt 14.0609 1.01
v 25.3146 2.02 -13.8875
vt 13.8875 1.01
v 25.3146 8.30198e-15 -13.8875
vt 13.8875 4.15099e-15
vt 14.0609 2.58083e-14
f 43/247/3 118/248/3 119/249/3 117/250/3 

usemtl Nothing
vt 996.637 546.751
f 43/57/2 45/59/2 118/251/2

v 22.6111 2.02 -14.6928
vt 890.199 578.457
f 120/252/2 118/251/2 45/59/2

v 19.6201 2.02 -14.6928
vt 772.445 578.457
f 121/253/2 118/251/2 120/252/2

v 19.6201 2.02 -13.8875
vt 772.445 546.751
f 118/251/2 121/253/2 122/254/2

usemtl Wall_Hallway
vt -243.031 1.01
vt -257.124 1.01
v 19.6201 2.88765e-15 -14.6928
vt -257.124 1.44382e-15
v 19.6201 7.58007e-15 -13.8875
vt -243.031 3.79003e-15
f 122/255/5 121/256/5 123/257/5 124/258/5 

usemtl Wall_Room
vt -19.6201 1.01
vt -22.6111 1.01
v 22.6111 0 -14.6928
vt -22.6111 0
vt -19.6201 1.44382e-15
f 121/259/4 120/260/4 125/261/4 123/262/4 

vt -14.6928 1.01
vt -19.6928 1.01
v 22.6111 0 -19.6928
vt -19.6928 0
vt -14.6928 0
f 120/263/5 45/264/5 126/265/5 125/266/5 

vt 22.6111 1.01
vt 19.0573 1.01
vt 19.0573 2.88765e-15
vt 22.6111 0
f 45/267/1 49/268/1 51/269/1 126/270/1 

usemtl Floor_Room
vt 9.81005 7.3464
vn 1.27661e-16 1 2.96328e-16
vt 11.3055 7.3464
vt 11.3055 9.8464
vt 9.52864 9.8464
v 17.7573 3.60956e-15 -19.6928
vt 8.87864 9.8464
v 17.6111 0 -19.6928
vt 8.80553 9.8464
v 17.6111 0 -14.6928
vt 8.80553 7.3464
v 18.3201 1.80478e-15 -14.6928
vt 9.16005 7.3464
f 123/271/8 125/272/8 126/273/8 51/274/8 127/275/8 128/276/8 129/277/8 130/278/8 

usemtl Floor_Hallway
vt 63.5243 77.5091
vn -1.38829e-15 1 1.2877e-14
v 17.7573 4.98119e-14 -23.2527
vt 59.1909 77.5091
vt 59.1909 65.6427
vt 63.5243 65.6427
f 50/279/9 131/280/9 127/281/9 51/282/9 

usemtl Floor_Room
vt 9.52864 11.6264
vn 1.10446e-16 1 1.76259e-16
vt 9.55581 11.6264
vt 9.55581 11.7633
vt 9.55581 12.4133
v 19.1116 5.26995e-14 -28.2527
vt 9.55581 14.1264
v 17.4374 5.26995e-14 -28.2527
vt 8.71872 14.1264
v 16.1374 5.26995e-14 -28.2527
vt 8.06872 14.1264
v 14.1116 5.26995e-14 -28.2527
vt 7.05581 14.1264
v 14.1116 5.26995e-14 -26.034
vt 7.05581 13.017
v 14.1116 5.26995e-14 -24.734
vt 7.05581 12.367
v 14.1116 5.26995e-14 -23.2527
vt 7.05581 11.6264
vt 8.87864 11.6264
f 50/283/10 52/284/10 53/285/10 55/286/10 132/287/10 133/288/10 134/289/10 135/290/10 136/291/10 137/292/10 138/293/10 131/294/10 

usemtl Wall_Room
vt -24.8267 1.01
vt -28.2527 1.01
vt -28.2527 2.63498e-14
vt -24.8267 2.59888e-14
f 58/295/5 59/296/5 132/297/5 55/298/5 

vt 17.4374 2.63498e-14
vt 19.1116 2.63498e-14
vt 19.1116 1.01
v 17.4374 2.02 -28.2527
vt 17.4374 1.01
f 133/299/1 132/300/1 59/301/1 139/302/1 

usemtl Nothing
v 17.4374 2.02 -34.0518
vt 686.513 1340.62
vt 686.513 1112.31
f 59/101/2 140/303/2 139/304/2

f 140/303/2 59/101/2 60/103/2

usemtl Wall_Room
vt -19.1615 2.63498e-14
v 17.4374 5.26995e-14 -34.0518
vt -17.4374 2.63498e-14
vt -17.4374 1.01
vt -19.1615 1.01
f 66/305/4 141/306/4 140/307/4 60/308/4 

usemtl Floor_Room
vt 7.08074 19.5259
vt 7.08074 17.0259
v 16.1374 5.26995e-14 -34.0518
vt 8.06872 17.0259
vt 8.71872 17.0259
vt 9.58074 17.0259
vt 9.58074 19.5259
f 67/309/2 69/310/2 142/311/2 141/312/2 66/313/2 65/314/2 

usemtl Wall_Room
vt -14.1615 1.01
v 16.1374 2.02 -34.0518
vt -16.1374 1.01
vt -16.1374 2.63498e-14
vt -14.1615 2.63498e-14
f 68/315/4 143/316/4 142/317/4 69/318/4 

usemtl Nothing
v 16.1374 2.02 -28.2527
vt 635.332 1112.31
vt 635.332 1340.62
f 68/135/2 144/319/2 143/320/2

f 144/319/2 68/135/2 70/134/2

usemtl Wall_Room
vt 16.1374 2.63498e-14
vt 16.1374 1.01
vt 14.1116 1.01
vt 14.1116 2.63498e-14
f 134/321/1 144/322/1 70/323/1 135/324/1 

usemtl Wall_Hallway
vt 494.423 1.01
vt 494.423 2.63498e-14
vt 595.907 2.63498e-14
vt 595.907 1.01
f 144/325/3 134/326/3 142/327/3 143/328/3 

usemtl Floor_Hallway
vt 53.7915 94.1758
vt 58.1248 94.1758
vt 58.1248 113.506
vt 53.7915 113.506
f 134/329/2 133/330/2 141/331/2 142/332/2 

usemtl Wall_Hallway
vt -595.907 2.63498e-14
vt -494.423 2.63498e-14
vt -494.423 1.01
vt -595.907 1.01
f 141/333/5 133/334/5 139/335/5 140/336/5 

usemtl Wall_Room
vt 28.2527 1.01
v 14.1116 2.02 -26.034
vt 26.034 1.01
vt 26.034 2.63498e-14
vt 28.2527 2.63498e-14
f 70/337/3 145/338/3 136/339/3 135/340/3 

usemtl Nothing
vt 555.576 1024.96
f 70/134/2 71/136/2 145/341/2

v 11.462 2.02 -27.4465
vt 451.259 1080.57
f 146/342/2 145/341/2 71/136/2

v 10.4216 2.02 -27.4465
vt 410.3 1080.57
f 147/343/2 145/341/2 146/342/2

v 10.4216 2.02 -26.034
vt 410.3 1024.96
f 145/341/2 147/343/2 148/344/2

usemtl Wall_Hallway
vt -455.596 1.01
vt -480.313 1.01
v 10.4216 5.26995e-14 -27.4465
vt -480.313 2.63498e-14
v 10.4216 5.26995e-14 -26.034
vt -455.596 2.63498e-14
f 148/345/5 147/346/5 149/347/5 150/348/5 

vt -182.378 1.01
vt -200.585 1.01
v 11.462 5.23386e-14 -27.4465
vt -200.585 2.61693e-14
vt -182.378 2.63498e-14
f 147/349/4 146/350/4 151/351/4 149/352/4 

vt -567.813 2.61693e-14
vt -480.313 2.61693e-14
vt -567.813 1.01
f 73/353/5 151/354/5 146/346/5 71/355/5 

usemtl Floor_Hallway
vt 21.54 108.155
vn -3.68886e-17 1 -1.3082e-17
vt 21.54 91.4882
v 9.12162 5.26995e-14 -27.4465
vt 30.4054 91.4882
vt 34.7387 91.4882
vt 38.2066 91.4882
vt 38.2066 108.155
f 72/356/11 75/357/11 152/358/11 149/359/11 151/360/11 73/361/11 

usemtl Wall_Hallway
vt -113.085 1.01
v 9.12162 2.02 -27.4465
vt -159.628 1.01
vt -159.628 2.63498e-14
vt -113.085 2.61693e-14
f 74/362/4 153/363/4 152/364/4 75/365/4 

usemtl Nothing
v 8.06482 2.02 -18.1743
vt 317.513 715.523
vt 359.119 1080.57
f 74/145/2 154/366/2 153/367/2

f 154/366/2 74/145/2 77/147/2

usemtl Wall_Room
vt 18.1743 1.01
vt 13.1743 1.01
v 8.06482 4.94509e-14 -13.1743
vt 13.1743 2.47255e-14
v 8.06482 4.94509e-14 -18.1743
vt 18.1743 2.47255e-14
f 154/368/3 77/369/3 155/370/3 156/371/3 

vt -8.06482 1.01
vt -8.18749 1.01
vt -8.18749 2.47255e-14
vt -8.06482 2.47255e-14
f 77/372/4 78/373/4 80/374/4 155/375/4 

usemtl Floor_Room
v 9.48749 4.94509e-14 -13.1743
vt 4.74375 6.58714
vn 2.01589e-17 1 5.62212e-18
v 13.0648 4.94509e-14 -13.1743
vt 6.53241 6.58714
v 13.0648 4.94509e-14 -18.1743
vt 6.53241 9.08714
vt 4.03241 9.08714
vt 4.03241 6.58714
vt 4.09375 6.58714
f 157/376/12 158/377/12 159/378/12 156/379/12 155/380/12 80/381/12 

usemtl Wall_Room
v 9.48749 2.02 -13.1743
vt -9.48749 1.01
v 13.0648 2.02 -13.1743
vt -13.0648 1.01
vt -13.0648 2.47255e-14
vt -9.48749 2.47255e-14
f 160/382/4 161/383/4 158/384/4 157/385/4 

usemtl Nothing
vt 373.523 518.672
v 14.9891 2.02 -11.5881
vt 590.123 456.224
vt 514.363 518.672
f 160/386/2 162/387/2 161/388/2

v 9.48749 2.02 -11.5881
vt 373.523 456.224
f 162/387/2 160/386/2 163/389/2

usemtl Wall_Hallway
vt -202.791 1.01
vt -230.55 1.01
vt -230.55 2.47255e-14
v 9.48749 4.94509e-14 -11.5881
vt -202.791 2.47255e-14
f 163/390/5 160/391/5 157/392/5 164/393/5 

usemtl Floor_Hallway
vt 31.625 34.2936
vn 6.66704e-15 1 -2.16088e-16
vt 49.9637 34.2936
v 14.9891 8.30198e-15 -11.5881
vt 49.9637 38.6269
vt 31.625 38.6269
vt 31.625 43.9143
vt 27.2916 43.9143
vt 27.2916 33.3333
vt 31.625 33.3333
f 89/394/13 91/395/13 165/396/13 164/397/13 157/398/13 80/399/13 79/400/13 90/401/13 

usemtl Floor_Room
vt 9.99456 3.5284
vn 5.0304e-17 1 -9.20716e-17
vt 9.99456 6.0284
vt 9.81005 6.0284
v 18.3201 6.13625e-15 -12.0568
vt 9.16005 6.0284
v 14.9891 8.30198e-15 -12.0568
vt 7.49456 6.0284
vt 7.49456 5.79404
vt 7.49456 5.14404
vt 7.49456 3.5284
f 93/402/14 95/403/14 100/404/14 166/405/14 167/406/14 165/407/14 91/408/14 92/409/14 

usemtl Wall_Room
vt 19.9891 1.01
vt 19.6201 1.01
vt 19.6201 4.15099e-15
vt 19.9891 4.15099e-15
f 94/410/1 98/411/1 100/412/1 95/413/1 

usemtl Floor_Hallway
vt 65.4004 41.9582
vn -4.5826e-16 1 -1.52973e-15
vt 84.3819 41.9582
vt 84.3819 46.2916
vt 65.4004 46.2916
vt 65.4004 48.976
vt 61.067 48.976
vt 61.067 40.1893
vt 65.4004 40.1893
f 99/414/15 101/415/15 119/416/15 124/417/15 123/418/15 130/419/15 166/420/15 100/421/15 

usemtl Floor_Room
vt 12.6573 4.53046
vn -4.59736e-15 1 -1.2531e-15
vt 15.1573 4.53046
vt 15.1573 7.03046
vt 14.3786 7.03046
vt 13.7286 7.03046
vt 12.6573 7.03046
vt 12.6573 6.94373
vt 12.6573 6.29373
f 102/422/16 103/423/16 104/424/16 106/425/16 116/426/16 117/427/16 119/428/16 101/429/16 

usemtl Floor_Hallway
vt 105.951 60.5378
vn 1.38921e-17 1 1.27298e-17
vt 91.524 60.5378
vt 91.524 46.8697
vt 95.8573 46.8697
v 28.7572 5.16167e-14 -16.8613
vt 95.8573 56.2045
vt 105.951 56.2045
f 114/430/17 115/431/17 116/432/17 106/433/17 168/434/17 110/435/17 

usemtl Wall_Hallway
vt -295.074 2.58083e-14
vt -246.066 2.58083e-14
vt -246.066 1.01
vt -295.074 1.01
f 168/436/5 106/437/5 105/438/5 107/439/5 

vt -503.251 1.01
vt -503.251 2.58083e-14
f 107/440/4 108/222/4 110/225/4 168/441/4 

usemtl Floor_Hallway
vt 105.951 47.7151
vt 122.618 47.7151
vt 122.618 64.3818
vt 105.951 64.3818
f 110/435/2 109/442/2 111/443/2 112/444/2 113/445/2 114/430/2 

usemtl Wall_Hallway
vt 443.005 1.01
vt 343.352 1.01
vt 343.352 3.79003e-15
vt 443.005 4.15099e-15
f 118/446/1 122/447/1 124/448/1 119/449/1 

v 18.3201 2.02 -14.6928
vt 257.124 1.01
v 18.3201 2.02 -12.0568
vt 210.994 1.01
vt 210.994 3.06812e-15
vt 257.124 9.02389e-16
f 169/450/3 170/451/3 166/452/3 130/453/3 

usemtl Nothing
v 17.6111 2.02 -14.6928
vt 693.349 578.457
vt 721.264 474.677
vt 721.264 578.457
f 171/454/2 170/455/2 169/456/2

v 14.9891 2.02 -12.0568
vt 590.123 474.677
f 170/455/2 171/454/2 172/457/2

v 17.6111 2.02 -19.6928
vt 693.349 775.307
f 173/458/2 172/457/2 171/454/2

v 17.7573 2.02 -23.2527
vt 699.105 915.462
f 174/459/2 172/457/2 173/458/2

v 14.1116 2.02 -23.2527
vt 555.576 915.462
f 175/460/2 172/457/2 174/459/2

f 175/460/2 162/387/2 172/457/2

v 13.0648 2.02 -18.1743
vt 514.363 715.523
f 176/461/2 162/387/2 175/460/2

f 161/388/2 162/387/2 176/461/2

usemtl Wall_Room
vt -13.1743 1.01
vt -18.1743 1.01
vt -18.1743 2.47255e-14
vt -13.1743 2.47255e-14
f 161/462/5 176/463/5 159/464/5 158/465/5 

vt 13.0648 1.01
vt 8.06482 1.01
vt 8.06482 2.47255e-14
vt 13.0648 2.47255e-14
f 176/466/1 154/467/1 156/468/1 159/469/1 

usemtl Nothing
v 9.12162 2.02 -24.734
vt 359.119 973.781
f 176/461/2 177/470/2 154/366/2

v 14.1116 2.02 -24.734
vt 555.576 973.781
f 177/470/2 176/461/2 178/471/2

f 178/471/2 176/461/2 175/460/2

usemtl Wall_Room
vt 24.734 1.01
vt 23.2527 1.01
vt 23.2527 2.63498e-14
vt 24.734 2.63498e-14
f 178/472/3 175/473/3 138/474/3 137/475/3 

vt -14.1116 1.01
vt -17.7573 1.01
vt -17.7573 2.49059e-14
vt -14.1116 2.63498e-14
f 175/476/4 174/477/4 131/478/4 138/479/4 

usemtl Wall_Hallway
vt 406.923 1.01
v 17.7573 2.02 -19.6928
vt 344.624 1.01
vt 344.624 1.80478e-15
vt 406.923 2.49059e-14
f 174/480/3 179/481/3 127/482/3 131/483/3 

usemtl Nothing
vt 699.105 775.307
f 174/459/2 173/458/2 179/484/2

usemtl Wall_Room
vt 17.7573 1.01
vt 17.6111 1.01
vt 17.6111 0
vt 17.7573 1.80478e-15
f 179/485/1 173/486/1 128/487/1 127/488/1 

vt 14.6928 1.01
vt 14.6928 0
vt 19.6928 0
vt 19.6928 1.01
f 171/489/3 129/490/3 128/491/3 173/492/3 

vt -17.6111 1.01
vt -18.3201 1.01
vt -18.3201 9.02389e-16
vt -17.6111 0
f 171/493/4 169/494/4 130/495/4 129/496/4 

usemtl Wall_Hallway
vt -246.953 1.01
vt -246.953 2.63498e-14
v 9.12162 5.26995e-14 -24.734
f 177/363/4 178/497/4 137/498/4 180/364/4 

usemtl Floor_Hallway
vt 47.0387 82.4468
vt 47.0387 86.7801
vt 34.7387 86.7801
vt 30.4054 82.4468
f 137/499/2 136/500/2 150/501/2 149/359/2 152/358/2 180/502/2 

usemtl Wall_Hallway
vt 246.953 1.01
vt 182.378 1.01
vt 182.378 2.63498e-14
vt 246.953 2.63498e-14
f 145/503/1 148/504/1 150/505/1 136/506/1 

vt 432.846 1.01
vt 432.846 2.63498e-14
vt 480.313 2.63498e-14
f 153/142/3 177/507/3 180/508/3 152/509/3 

usemtl Nothing
f 153/367/2 154/366/2 177/470/2

usemtl Wall_Room
vt 12.0568 1.01
vt 11.5881 1.01
vt 11.5881 4.15099e-15
vt 12.0568 4.15099e-15
f 172/510/3 162/511/3 165/512/3 167/513/3 

usemtl Wall_Hallway
vt 262.309 1.01
vt 166.031 1.01
vt 166.031 2.47255e-14
vt 262.309 4.15099e-15
f 162/514/1 163/515/1 164/516/1 165/517/1 

usemtl Wall_Room
vt 18.3201 1.01
vt 14.9891 1.01
vt 14.9891 4.15099e-15
vt 18.3201 3.06812e-15
f 170/518/1 172/519/1 167/520/1 166/521/1 

usemtl Floor_Room
vt 2.5 5
vt 2.5 2.5
vt 5 2.5
vt 5 5
vt 4.74375 5
vt 4.09375 5
f 81/522/2 82/523/2 83/524/2 85/525/2 90/526/2 79/527/2 

usemtl Wall_Room
vt 9.48749 1.01
vt 9.48749 2.47255e-14
f 84/157/1 88/528/1 90/529/1 85/158/1 

usemtl Wall_Hallway
vt -434.467 1.01
vt -434.467 2.59888e-14
f 2/530/5 5/27/5 15/30/5 3/531/5 

