# MagicaVoxel @ Ephtracy

# material
mtllib Girl.mtl
usemtl palette

# normals
vn -1 0 0
vn 1 0 0
vn 0 0 1
vn 0 0 -1
vn 0 -1 0
vn 0 1 0

# texcoords
vt 0.00195313 0.5
vt 0.255859 0.5
vt 0.259766 0.5
vt 0.271484 0.5
vt 0.279297 0.5
vt 0.287109 0.5
vt 0.291016 0.5
vt 0.302734 0.5

# verts
v -3 8 4
v -3 8 -4
v -3 13 4
v -3 13 -4
v -2 8 5
v -2 8 4
v -2 8 -4
v -2 8 -5
v -2 13 5
v -2 13 4
v -2 13 -4
v -2 13 -5
v -2 14 4
v -2 14 -4
v -1 0 3
v -1 0 -3
v -1 1 3
v -1 1 -3
v -1 2 3
v -1 2 2
v -1 2 -0
v -1 2 -1
v -1 2 -2
v -1 2 -3
v -1 3 3
v -1 3 2
v -1 3 -0
v -1 3 -1
v -1 3 -2
v -1 3 -3
v -1 5 -0
v -1 5 -1
v -1 6 2
v -1 6 1
v -1 6 -0
v -1 6 -1
v -1 6 -2
v -1 6 -3
v -1 7 2
v -1 7 1
v -1 7 -2
v -1 7 -3
v -1 8 3
v -1 8 -3
v -1 13 6
v -1 13 5
v -1 13 4
v -1 13 -5
v -1 13 -6
v -1 14 5
v -1 14 4
v -1 15 6
v -1 15 5
v -1 15 -5
v -1 15 -6
v 0 4 5
v 0 4 3
v 0 4 -3
v 0 4 -5
v 0 5 5
v 0 5 3
v 0 5 -3
v 0 5 -5
v 0 6 5
v 0 6 4
v 0 6 -3
v 0 7 5
v 0 7 4
v 0 7 -3
v 0 8 5
v 0 8 4
v 0 8 3
v 0 8 -3
v 0 8 -4
v 0 8 -5
v 0 11 8
v 0 11 6
v 0 11 -6
v 0 11 -8
v 0 12 6
v 0 12 5
v 0 12 -5
v 0 12 -6
v 0 13 6
v 0 13 5
v 0 13 -4
v 0 13 -5
v 0 13 -6
v 0 14 8
v 0 14 7
v 0 14 5
v 0 14 4
v 0 14 -4
v 0 14 -7
v 0 14 -8
v 0 15 7
v 0 15 6
v 0 15 5
v 0 15 4
v 0 15 -4
v 0 15 -5
v 0 15 -6
v 0 15 -7
v 0 16 6
v 0 16 5
v 0 16 -5
v 0 16 -6
v 2 4 5
v 2 4 3
v 2 4 -3
v 2 4 -5
v 2 5 5
v 2 5 3
v 2 5 -3
v 2 5 -5
v 2 6 -3
v 2 6 -4
v 2 6 -5
v 2 7 5
v 2 7 4
v 2 7 -3
v 2 7 -4
v 2 7 -5
v 2 8 5
v 2 8 4
v 2 8 3
v 2 8 -3
v 2 8 -4
v 2 8 -5
v 2 11 8
v 2 11 6
v 2 11 -6
v 2 11 -8
v 2 12 6
v 2 12 5
v 2 12 -5
v 2 12 -6
v 2 13 6
v 2 13 5
v 2 13 -4
v 2 13 -5
v 2 13 -6
v 2 14 8
v 2 14 7
v 2 14 5
v 2 14 4
v 2 14 -4
v 2 14 -7
v 2 14 -8
v 2 15 7
v 2 15 6
v 2 15 5
v 2 15 4
v 2 15 -4
v 2 15 -5
v 2 15 -6
v 2 15 -7
v 2 16 6
v 2 16 5
v 2 16 -5
v 2 16 -6
v 3 1 3
v 3 1 -0
v 3 1 -1
v 3 1 -2
v 3 1 -3
v 3 2 3
v 3 2 2
v 3 2 -0
v 3 2 -1
v 3 2 -2
v 3 2 -3
v 3 3 3
v 3 3 2
v 3 4 2
v 3 4 1
v 3 4 -1
v 3 4 -2
v 3 5 2
v 3 5 1
v 3 5 -1
v 3 5 -2
v 3 6 2
v 3 6 1
v 3 6 -2
v 3 6 -3
v 3 7 2
v 3 7 1
v 3 7 -2
v 3 7 -3
v 3 8 3
v 3 8 1
v 3 8 -1
v 3 8 -3
v 3 13 6
v 3 13 5
v 3 13 4
v 3 13 -5
v 3 13 -6
v 3 14 5
v 3 14 4
v 3 15 6
v 3 15 5
v 3 15 -5
v 3 15 -6
v 4 0 3
v 4 0 -3
v 4 1 3
v 4 1 -3
v 4 8 5
v 4 8 4
v 4 8 1
v 4 8 -1
v 4 8 -4
v 4 8 -5
v 4 9 3
v 4 9 1
v 4 9 -1
v 4 9 -3
v 4 11 2
v 4 11 1
v 4 11 -2
v 4 11 -3
v 4 12 3
v 4 12 2
v 4 12 1
v 4 12 -1
v 4 12 -2
v 4 12 -3
v 4 13 5
v 4 13 4
v 4 13 -4
v 4 13 -5
v 4 14 4
v 4 14 -4
v 0 11 8
v 0 14 8
v 2 11 8
v 2 14 8
v 0 14 7
v 0 15 7
v 2 14 7
v 2 15 7
v -1 13 6
v -1 15 6
v 0 13 6
v 0 15 6
v 0 16 6
v 2 13 6
v 2 15 6
v 2 16 6
v 3 13 6
v 3 15 6
v -2 8 5
v -2 13 5
v -1 13 5
v 0 4 5
v 0 5 5
v 0 6 5
v 0 7 5
v 0 8 5
v 0 12 5
v 0 13 5
v 1 6 5
v 1 7 5
v 1 8 5
v 2 4 5
v 2 5 5
v 2 7 5
v 2 8 5
v 2 12 5
v 2 13 5
v 3 13 5
v 4 8 5
v 4 13 5
v -3 8 4
v -3 13 4
v -2 8 4
v -2 13 4
v -2 14 4
v -1 13 4
v -1 14 4
v 3 13 4
v 3 14 4
v 4 13 4
v 4 14 4
v -1 0 3
v -1 1 3
v -1 2 3
v -1 3 3
v -1 8 3
v 0 2 3
v 0 3 3
v 0 4 3
v 0 5 3
v 0 8 3
v 2 2 3
v 2 3 3
v 2 4 3
v 2 5 3
v 2 8 3
v 3 1 3
v 3 2 3
v 3 3 3
v 3 8 3
v 4 0 3
v 4 1 3
v 0 14 -4
v 0 15 -4
v 2 14 -4
v 2 15 -4
v -1 13 -5
v -1 15 -5
v 0 13 -5
v 0 15 -5
v 0 16 -5
v 2 13 -5
v 2 15 -5
v 2 16 -5
v 3 13 -5
v 3 15 -5
v 0 11 -6
v 0 12 -6
v 2 11 -6
v 2 12 -6
v 0 11 6
v 0 12 6
v 2 11 6
v 2 12 6
v -1 14 5
v -1 15 5
v 0 14 5
v 0 15 5
v 0 16 5
v 2 14 5
v 2 15 5
v 2 16 5
v 3 14 5
v 3 15 5
v 0 14 4
v 0 15 4
v 2 14 4
v 2 15 4
v -1 0 -3
v -1 1 -3
v -1 2 -3
v -1 3 -3
v -1 6 -3
v -1 7 -3
v -1 8 -3
v 0 4 -3
v 0 5 -3
v 0 6 -3
v 0 7 -3
v 0 8 -3
v 1 2 -3
v 1 3 -3
v 2 1 -3
v 2 2 -3
v 2 4 -3
v 2 5 -3
v 2 6 -3
v 2 7 -3
v 2 8 -3
v 3 1 -3
v 3 2 -3
v 3 6 -3
v 3 7 -3
v 3 8 -3
v 4 0 -3
v 4 1 -3
v -3 8 -4
v -3 13 -4
v -2 8 -4
v -2 13 -4
v -2 14 -4
v 0 13 -4
v 0 14 -4
v 2 13 -4
v 2 14 -4
v 4 13 -4
v 4 14 -4
v -2 8 -5
v -2 13 -5
v -1 13 -5
v 0 4 -5
v 0 5 -5
v 0 8 -5
v 0 12 -5
v 0 13 -5
v 1 6 -5
v 1 7 -5
v 2 4 -5
v 2 5 -5
v 2 6 -5
v 2 7 -5
v 2 8 -5
v 2 12 -5
v 2 13 -5
v 3 13 -5
v 4 8 -5
v 4 13 -5
v -1 13 -6
v -1 15 -6
v 0 13 -6
v 0 15 -6
v 0 16 -6
v 2 13 -6
v 2 15 -6
v 2 16 -6
v 3 13 -6
v 3 15 -6
v 0 14 -7
v 0 15 -7
v 2 14 -7
v 2 15 -7
v 0 11 -8
v 0 14 -8
v 2 11 -8
v 2 14 -8
v -1 0 3
v 4 0 3
v -1 0 -3
v 4 0 -3
v 0 4 5
v 2 4 5
v 0 4 3
v 2 4 3
v 0 4 -3
v 2 4 -3
v 0 4 -5
v 2 4 -5
v -2 8 5
v 0 8 5
v 2 8 5
v 4 8 5
v -3 8 4
v -2 8 4
v 0 8 4
v 2 8 4
v 4 8 4
v -1 8 3
v 0 8 3
v 2 8 3
v 3 8 3
v 3 8 1
v 4 8 1
v 3 8 -1
v 4 8 -1
v -1 8 -3
v 0 8 -3
v 2 8 -3
v 3 8 -3
v -3 8 -4
v -2 8 -4
v 0 8 -4
v 2 8 -4
v 4 8 -4
v -2 8 -5
v 0 8 -5
v 2 8 -5
v 4 8 -5
v 0 11 8
v 2 11 8
v 0 11 6
v 2 11 6
v 0 11 -6
v 2 11 -6
v 0 11 -8
v 2 11 -8
v 0 12 6
v 2 12 6
v 0 12 5
v 2 12 5
v 0 12 -5
v 2 12 -5
v 0 12 -6
v 2 12 -6
v -1 13 6
v 0 13 6
v 2 13 6
v 3 13 6
v -1 13 5
v 0 13 5
v 2 13 5
v 3 13 5
v -1 13 -5
v 0 13 -5
v 2 13 -5
v 3 13 -5
v -1 13 -6
v 0 13 -6
v 2 13 -6
v 3 13 -6
v 3 1 3
v 4 1 3
v 3 1 -0
v 3 1 -1
v 3 1 -2
v 3 1 -3
v 4 1 -3
v -2 13 5
v -1 13 5
v 3 13 5
v 4 13 5
v -3 13 4
v -2 13 4
v -1 13 4
v 3 13 4
v 4 13 4
v -3 13 -4
v -2 13 -4
v 0 13 -4
v 2 13 -4
v 4 13 -4
v -2 13 -5
v -1 13 -5
v 0 13 -5
v 2 13 -5
v 3 13 -5
v 4 13 -5
v 0 14 8
v 2 14 8
v 0 14 7
v 2 14 7
v -1 14 5
v 0 14 5
v 2 14 5
v 3 14 5
v -2 14 4
v -1 14 4
v 0 14 4
v 2 14 4
v 3 14 4
v 4 14 4
v -2 14 -4
v 0 14 -4
v 2 14 -4
v 4 14 -4
v 0 14 -7
v 2 14 -7
v 0 14 -8
v 2 14 -8
v 0 15 7
v 2 15 7
v -1 15 6
v 0 15 6
v 2 15 6
v 3 15 6
v -1 15 5
v 0 15 5
v 2 15 5
v 3 15 5
v 0 15 4
v 2 15 4
v 0 15 -4
v 2 15 -4
v -1 15 -5
v 0 15 -5
v 2 15 -5
v 3 15 -5
v -1 15 -6
v 0 15 -6
v 2 15 -6
v 3 15 -6
v 0 15 -7
v 2 15 -7
v 0 16 6
v 2 16 6
v 0 16 5
v 2 16 5
v 0 16 -5
v 2 16 -5
v 0 16 -6
v 2 16 -6

# faces
f 3/4/1 2/4/1 1/4/1
f 4/4/1 2/4/1 3/4/1
f 9/4/1 6/4/1 5/4/1
f 10/4/1 6/4/1 9/4/1
f 11/4/1 8/4/1 7/4/1
f 12/4/1 8/4/1 11/4/1
f 13/4/1 11/4/1 10/4/1
f 14/4/1 11/4/1 13/4/1
f 17/7/1 16/7/1 15/7/1
f 18/7/1 16/7/1 17/7/1
f 19/6/1 18/6/1 17/6/1
f 20/6/1 18/6/1 19/6/1
f 21/6/1 18/6/1 20/6/1
f 22/6/1 18/6/1 21/6/1
f 23/6/1 18/6/1 22/6/1
f 24/6/1 18/6/1 23/6/1
f 25/2/1 20/2/1 19/2/1
f 26/6/1 21/6/1 20/6/1
f 26/2/1 20/2/1 25/2/1
f 27/2/1 22/2/1 21/2/1
f 27/6/1 21/6/1 26/6/1
f 28/6/1 23/6/1 22/6/1
f 28/2/1 22/2/1 27/2/1
f 29/2/1 24/2/1 23/2/1
f 29/6/1 23/6/1 28/6/1
f 30/2/1 24/2/1 29/2/1
f 31/6/1 26/6/1 25/6/1
f 31/6/1 27/6/1 26/6/1
f 31/6/1 30/6/1 29/6/1
f 31/6/1 29/6/1 28/6/1
f 31/6/1 28/6/1 27/6/1
f 32/6/1 30/6/1 31/6/1
f 33/6/1 31/6/1 25/6/1
f 34/6/1 31/6/1 33/6/1
f 35/2/1 32/2/1 31/2/1
f 35/6/1 31/6/1 34/6/1
f 36/6/1 30/6/1 32/6/1
f 36/2/1 32/2/1 35/2/1
f 37/6/1 30/6/1 36/6/1
f 38/6/1 30/6/1 37/6/1
f 39/2/1 34/2/1 33/2/1
f 39/6/1 33/6/1 25/6/1
f 40/6/1 35/6/1 34/6/1
f 40/2/1 34/2/1 39/2/1
f 40/6/1 36/6/1 35/6/1
f 40/6/1 37/6/1 36/6/1
f 41/2/1 38/2/1 37/2/1
f 41/6/1 37/6/1 40/6/1
f 42/2/1 38/2/1 41/2/1
f 43/6/1 39/6/1 25/6/1
f 43/6/1 40/6/1 39/6/1
f 43/6/1 42/6/1 41/6/1
f 43/6/1 41/6/1 40/6/1
f 44/6/1 42/6/1 43/6/1
f 50/4/1 47/4/1 46/4/1
f 50/8/1 46/8/1 45/8/1
f 51/4/1 47/4/1 50/4/1
f 52/8/1 50/8/1 45/8/1
f 53/8/1 50/8/1 52/8/1
f 54/8/1 49/8/1 48/8/1
f 55/8/1 49/8/1 54/8/1
f 60/7/1 57/7/1 56/7/1
f 61/7/1 57/7/1 60/7/1
f 62/7/1 59/7/1 58/7/1
f 63/7/1 59/7/1 62/7/1
f 64/6/1 61/6/1 60/6/1
f 65/6/1 61/6/1 64/6/1
f 66/6/1 63/6/1 62/6/1
f 67/2/1 65/2/1 64/2/1
f 68/6/1 61/6/1 65/6/1
f 68/2/1 65/2/1 67/2/1
f 69/6/1 63/6/1 66/6/1
f 70/6/1 68/6/1 67/6/1
f 71/6/1 61/6/1 68/6/1
f 71/6/1 68/6/1 70/6/1
f 72/6/1 61/6/1 71/6/1
f 73/6/1 63/6/1 69/6/1
f 74/6/1 63/6/1 73/6/1
f 75/6/1 63/6/1 74/6/1
f 80/4/1 77/4/1 76/4/1
f 83/4/1 79/4/1 78/4/1
f 84/8/1 81/8/1 80/8/1
f 84/4/1 80/4/1 76/4/1
f 85/8/1 81/8/1 84/8/1
f 87/8/1 83/8/1 82/8/1
f 88/4/1 79/4/1 83/4/1
f 88/8/1 83/8/1 87/8/1
f 89/4/1 84/4/1 76/4/1
f 90/4/1 84/4/1 89/4/1
f 93/4/1 87/4/1 86/4/1
f 94/4/1 79/4/1 88/4/1
f 95/4/1 79/4/1 94/4/1
f 96/4/1 84/4/1 90/4/1
f 97/4/1 84/4/1 96/4/1
f 98/4/1 92/4/1 91/4/1
f 99/4/1 92/4/1 98/4/1
f 100/4/1 87/4/1 93/4/1
f 101/4/1 87/4/1 100/4/1
f 102/4/1 94/4/1 88/4/1
f 103/4/1 94/4/1 102/4/1
f 104/8/1 98/8/1 97/8/1
f 105/8/1 98/8/1 104/8/1
f 106/8/1 102/8/1 101/8/1
f 107/8/1 102/8/1 106/8/1
f 108/7/2 109/7/2 112/7/2
f 112/7/2 109/7/2 113/7/2
f 110/7/2 111/7/2 114/7/2
f 114/7/2 111/7/2 115/7/2
f 114/6/2 115/6/2 116/6/2
f 116/6/2 115/6/2 117/6/2
f 117/6/2 115/6/2 118/6/2
f 112/6/2 113/6/2 119/6/2
f 119/6/2 113/6/2 120/6/2
f 116/6/2 117/6/2 121/6/2
f 117/2/2 118/2/2 122/2/2
f 121/6/2 117/6/2 122/6/2
f 122/2/2 118/2/2 123/2/2
f 119/2/2 120/2/2 124/2/2
f 120/6/2 113/6/2 125/6/2
f 124/2/2 120/2/2 125/2/2
f 125/6/2 113/6/2 126/6/2
f 121/6/2 122/6/2 127/6/2
f 122/6/2 123/6/2 127/6/2
f 127/6/2 123/6/2 128/6/2
f 128/6/2 123/6/2 129/6/2
f 130/4/2 131/4/2 134/4/2
f 132/4/2 133/4/2 137/4/2
f 134/8/2 135/8/2 138/8/2
f 130/4/2 134/4/2 138/4/2
f 138/8/2 135/8/2 139/8/2
f 136/8/2 137/8/2 141/8/2
f 137/4/2 133/4/2 142/4/2
f 141/8/2 137/8/2 142/8/2
f 130/4/2 138/4/2 143/4/2
f 143/4/2 138/4/2 144/4/2
f 140/4/2 141/4/2 147/4/2
f 142/4/2 133/4/2 148/4/2
f 148/4/2 133/4/2 149/4/2
f 144/4/2 138/4/2 150/4/2
f 150/4/2 138/4/2 151/4/2
f 145/4/2 146/4/2 152/4/2
f 152/4/2 146/4/2 153/4/2
f 147/4/2 141/4/2 154/4/2
f 154/4/2 141/4/2 155/4/2
f 142/4/2 148/4/2 156/4/2
f 156/4/2 148/4/2 157/4/2
f 151/8/2 152/8/2 158/8/2
f 158/8/2 152/8/2 159/8/2
f 155/8/2 156/8/2 160/8/2
f 160/8/2 156/8/2 161/8/2
f 162/6/2 163/6/2 167/6/2
f 167/6/2 163/6/2 168/6/2
f 163/2/2 164/2/2 169/2/2
f 168/6/2 163/6/2 169/6/2
f 164/6/2 165/6/2 170/6/2
f 169/2/2 164/2/2 170/2/2
f 165/2/2 166/2/2 171/2/2
f 170/6/2 165/6/2 171/6/2
f 171/2/2 166/2/2 172/2/2
f 167/2/2 168/2/2 173/2/2
f 169/6/2 170/6/2 174/6/2
f 173/2/2 168/2/2 174/2/2
f 168/6/2 169/6/2 174/6/2
f 171/6/2 172/6/2 174/6/2
f 170/6/2 171/6/2 174/6/2
f 173/6/2 174/6/2 175/6/2
f 174/6/2 172/6/2 175/6/2
f 175/6/2 172/6/2 176/6/2
f 176/6/2 172/6/2 177/6/2
f 177/6/2 172/6/2 178/6/2
f 173/6/2 175/6/2 179/6/2
f 175/2/2 176/2/2 179/2/2
f 176/6/2 177/6/2 180/6/2
f 179/2/2 176/2/2 180/2/2
f 177/2/2 178/2/2 181/2/2
f 180/6/2 177/6/2 181/6/2
f 178/6/2 172/6/2 182/6/2
f 181/2/2 178/2/2 182/2/2
f 180/6/2 181/6/2 183/6/2
f 179/6/2 180/6/2 183/6/2
f 181/6/2 182/6/2 183/6/2
f 173/6/2 179/6/2 183/6/2
f 183/6/2 182/6/2 184/6/2
f 182/6/2 172/6/2 185/6/2
f 184/6/2 182/6/2 185/6/2
f 185/6/2 172/6/2 186/6/2
f 183/2/2 184/2/2 187/2/2
f 173/6/2 183/6/2 187/6/2
f 184/6/2 185/6/2 188/6/2
f 187/2/2 184/2/2 188/2/2
f 185/2/2 186/2/2 189/2/2
f 188/6/2 185/6/2 189/6/2
f 189/2/2 186/2/2 190/2/2
f 187/6/2 188/6/2 191/6/2
f 173/6/2 187/6/2 191/6/2
f 189/6/2 190/6/2 191/6/2
f 188/6/2 189/6/2 191/6/2
f 191/6/2 190/6/2 192/6/2
f 192/6/2 190/6/2 193/6/2
f 193/6/2 190/6/2 194/6/2
f 196/4/2 197/4/2 200/4/2
f 195/8/2 196/8/2 200/8/2
f 200/4/2 197/4/2 201/4/2
f 195/8/2 200/8/2 202/8/2
f 202/8/2 200/8/2 203/8/2
f 198/8/2 199/8/2 204/8/2
f 204/8/2 199/8/2 205/8/2
f 206/7/2 207/7/2 208/7/2
f 208/7/2 207/7/2 209/7/2
f 211/7/2 212/7/2 216/7/2
f 212/5/2 213/5/2 217/5/2
f 216/7/2 212/7/2 217/7/2
f 213/7/2 214/7/2 218/7/2
f 217/5/2 213/5/2 218/5/2
f 218/7/2 214/7/2 219/7/2
f 216/3/2 217/3/2 220/3/2
f 217/7/2 218/7/2 221/7/2
f 220/3/2 217/3/2 221/3/2
f 218/3/2 219/3/2 222/3/2
f 219/7/2 214/7/2 223/7/2
f 222/3/2 219/3/2 223/3/2
f 211/7/2 216/7/2 224/7/2
f 216/3/2 220/3/2 224/3/2
f 220/1/2 221/1/2 225/1/2
f 224/3/2 220/3/2 225/3/2
f 221/7/2 218/7/2 226/7/2
f 225/1/2 221/1/2 226/1/2
f 218/3/2 222/3/2 227/3/2
f 226/7/2 218/7/2 227/7/2
f 222/1/2 223/1/2 228/1/2
f 227/3/2 222/3/2 228/3/2
f 223/7/2 214/7/2 229/7/2
f 228/1/2 223/1/2 229/1/2
f 210/4/2 211/4/2 230/4/2
f 227/7/2 228/7/2 231/7/2
f 230/4/2 211/4/2 231/4/2
f 225/7/2 226/7/2 231/7/2
f 228/7/2 229/7/2 231/7/2
f 211/7/2 224/7/2 231/7/2
f 224/7/2 225/7/2 231/7/2
f 226/7/2 227/7/2 231/7/2
f 229/7/2 214/7/2 232/7/2
f 231/7/2 229/7/2 232/7/2
f 214/4/2 215/4/2 232/4/2
f 232/4/2 215/4/2 233/4/2
f 231/4/2 232/4/2 234/4/2
f 234/4/2 232/4/2 235/4/2
f 238/4/3 237/4/3 236/4/3
f 239/4/3 237/4/3 238/4/3
f 242/4/3 241/4/3 240/4/3
f 243/4/3 241/4/3 242/4/3
f 246/8/3 245/8/3 244/8/3
f 247/8/3 245/8/3 246/8/3
f 250/8/3 248/8/3 247/8/3
f 251/8/3 248/8/3 250/8/3
f 252/8/3 250/8/3 249/8/3
f 253/8/3 250/8/3 252/8/3
f 256/4/3 255/4/3 254/4/3
f 261/4/3 256/4/3 254/4/3
f 262/4/3 256/4/3 261/4/3
f 263/4/3 256/4/3 262/4/3
f 264/2/3 260/2/3 259/2/3
f 264/6/3 259/6/3 258/6/3
f 265/6/3 261/6/3 260/6/3
f 265/2/3 260/2/3 264/2/3
f 266/4/3 262/4/3 261/4/3
f 266/6/3 261/6/3 265/6/3
f 267/7/3 258/7/3 257/7/3
f 268/6/3 265/6/3 264/6/3
f 268/7/3 258/7/3 267/7/3
f 268/6/3 264/6/3 258/6/3
f 269/2/3 266/2/3 265/2/3
f 269/6/3 265/6/3 268/6/3
f 270/4/3 262/4/3 266/4/3
f 270/2/3 266/2/3 269/2/3
f 271/4/3 262/4/3 270/4/3
f 273/4/3 272/4/3 271/4/3
f 273/4/3 271/4/3 270/4/3
f 274/4/3 273/4/3 270/4/3
f 275/4/3 273/4/3 274/4/3
f 278/4/3 277/4/3 276/4/3
f 279/4/3 277/4/3 278/4/3
f 281/4/3 280/4/3 279/4/3
f 282/4/3 280/4/3 281/4/3
f 285/4/3 284/4/3 283/4/3
f 286/4/3 284/4/3 285/4/3
f 292/6/3 289/6/3 288/6/3
f 292/2/3 290/2/3 289/2/3
f 293/6/3 291/6/3 290/6/3
f 293/2/3 290/2/3 292/2/3
f 294/6/3 291/6/3 293/6/3
f 295/6/3 291/6/3 294/6/3
f 296/6/3 291/6/3 295/6/3
f 297/6/3 292/6/3 288/6/3
f 297/6/3 293/6/3 292/6/3
f 297/6/3 294/6/3 293/6/3
f 298/6/3 294/6/3 297/6/3
f 299/6/3 294/6/3 298/6/3
f 302/7/3 288/7/3 287/7/3
f 302/6/3 297/6/3 288/6/3
f 303/2/3 298/2/3 297/2/3
f 303/6/3 297/6/3 302/6/3
f 304/6/3 301/6/3 300/6/3
f 304/2/3 298/2/3 303/2/3
f 304/6/3 300/6/3 299/6/3
f 304/6/3 299/6/3 298/6/3
f 305/6/3 301/6/3 304/6/3
f 306/7/3 302/7/3 287/7/3
f 307/7/3 302/7/3 306/7/3
f 310/4/3 309/4/3 308/4/3
f 311/4/3 309/4/3 310/4/3
f 314/8/3 313/8/3 312/8/3
f 315/8/3 313/8/3 314/8/3
f 318/8/3 316/8/3 315/8/3
f 319/8/3 316/8/3 318/8/3
f 320/8/3 318/8/3 317/8/3
f 321/8/3 318/8/3 320/8/3
f 324/4/3 323/4/3 322/4/3
f 325/4/3 323/4/3 324/4/3
f 326/4/4 327/4/4 328/4/4
f 328/4/4 327/4/4 329/4/4
f 330/8/4 331/8/4 332/8/4
f 332/8/4 331/8/4 333/8/4
f 333/8/4 334/8/4 336/8/4
f 336/8/4 334/8/4 337/8/4
f 335/8/4 336/8/4 338/8/4
f 338/8/4 336/8/4 339/8/4
f 340/4/4 341/4/4 342/4/4
f 342/4/4 341/4/4 343/4/4
f 347/6/4 348/6/4 351/6/4
f 351/6/4 348/6/4 352/6/4
f 348/2/4 349/2/4 353/2/4
f 352/6/4 348/6/4 353/6/4
f 349/6/4 350/6/4 354/6/4
f 353/2/4 349/2/4 354/2/4
f 354/6/4 350/6/4 355/6/4
f 345/6/4 346/6/4 356/6/4
f 346/2/4 347/2/4 356/2/4
f 347/6/4 351/6/4 357/6/4
f 356/2/4 347/2/4 357/2/4
f 344/7/4 345/7/4 358/7/4
f 345/6/4 356/6/4 358/6/4
f 356/6/4 357/6/4 358/6/4
f 358/6/4 357/6/4 359/6/4
f 357/6/4 351/6/4 360/6/4
f 359/6/4 357/6/4 360/6/4
f 358/2/4 359/2/4 365/2/4
f 344/7/4 358/7/4 365/7/4
f 359/6/4 360/6/4 366/6/4
f 365/2/4 359/2/4 366/2/4
f 360/6/4 361/6/4 366/6/4
f 361/6/4 362/6/4 366/6/4
f 362/2/4 363/2/4 367/2/4
f 366/6/4 362/6/4 367/6/4
f 363/6/4 364/6/4 368/6/4
f 367/2/4 363/2/4 368/2/4
f 368/6/4 364/6/4 369/6/4
f 344/7/4 365/7/4 370/7/4
f 370/7/4 365/7/4 371/7/4
f 372/4/4 373/4/4 374/4/4
f 374/4/4 373/4/4 375/4/4
f 375/4/4 376/4/4 377/4/4
f 377/4/4 376/4/4 378/4/4
f 379/4/4 380/4/4 381/4/4
f 381/4/4 380/4/4 382/4/4
f 383/4/4 384/4/4 385/4/4
f 383/4/4 385/4/4 388/4/4
f 388/4/4 385/4/4 389/4/4
f 389/4/4 385/4/4 390/4/4
f 387/6/4 388/6/4 391/6/4
f 391/6/4 388/6/4 392/6/4
f 386/7/4 387/7/4 393/7/4
f 387/6/4 391/6/4 394/6/4
f 393/7/4 387/7/4 394/7/4
f 391/2/4 392/2/4 395/2/4
f 394/6/4 391/6/4 395/6/4
f 392/6/4 388/6/4 396/6/4
f 395/2/4 392/2/4 396/2/4
f 388/4/4 389/4/4 397/4/4
f 396/6/4 388/6/4 397/6/4
f 397/4/4 389/4/4 398/4/4
f 398/4/4 399/4/4 400/4/4
f 397/4/4 398/4/4 400/4/4
f 397/4/4 400/4/4 401/4/4
f 401/4/4 400/4/4 402/4/4
f 403/8/4 404/8/4 405/8/4
f 405/8/4 404/8/4 406/8/4
f 406/8/4 407/8/4 409/8/4
f 409/8/4 407/8/4 410/8/4
f 408/8/4 409/8/4 411/8/4
f 411/8/4 409/8/4 412/8/4
f 413/4/4 414/4/4 415/4/4
f 415/4/4 414/4/4 416/4/4
f 417/4/4 418/4/4 419/4/4
f 419/4/4 418/4/4 420/4/4
f 423/7/5 422/7/5 421/7/5
f 424/7/5 422/7/5 423/7/5
f 427/7/5 426/7/5 425/7/5
f 428/7/5 426/7/5 427/7/5
f 431/7/5 430/7/5 429/7/5
f 432/7/5 430/7/5 431/7/5
f 438/4/5 434/4/5 433/4/5
f 439/4/5 434/4/5 438/4/5
f 440/4/5 436/4/5 435/4/5
f 441/4/5 436/4/5 440/4/5
f 442/7/5 439/7/5 438/7/5
f 443/7/5 439/7/5 442/7/5
f 444/7/5 441/7/5 440/7/5
f 445/7/5 441/7/5 444/7/5
f 446/7/5 441/7/5 445/7/5
f 447/7/5 441/7/5 446/7/5
f 448/5/5 447/5/5 446/5/5
f 449/5/5 447/5/5 448/5/5
f 450/7/5 442/7/5 438/7/5
f 453/7/5 449/7/5 448/7/5
f 454/4/5 438/4/5 437/4/5
f 455/7/5 451/7/5 450/7/5
f 455/4/5 438/4/5 454/4/5
f 455/7/5 450/7/5 438/7/5
f 456/7/5 451/7/5 455/7/5
f 457/7/5 453/7/5 452/7/5
f 458/7/5 449/7/5 453/7/5
f 458/7/5 453/7/5 457/7/5
f 459/4/5 456/4/5 455/4/5
f 460/4/5 456/4/5 459/4/5
f 461/4/5 458/4/5 457/4/5
f 462/4/5 458/4/5 461/4/5
f 465/4/5 464/4/5 463/4/5
f 466/4/5 464/4/5 465/4/5
f 469/4/5 468/4/5 467/4/5
f 470/4/5 468/4/5 469/4/5
f 473/8/5 472/8/5 471/8/5
f 474/8/5 472/8/5 473/8/5
f 477/8/5 476/8/5 475/8/5
f 478/8/5 476/8/5 477/8/5
f 483/8/5 480/8/5 479/8/5
f 484/8/5 480/8/5 483/8/5
f 485/8/5 482/8/5 481/8/5
f 486/8/5 482/8/5 485/8/5
f 491/8/5 488/8/5 487/8/5
f 492/8/5 488/8/5 491/8/5
f 493/8/5 490/8/5 489/8/5
f 494/8/5 490/8/5 493/8/5
f 495/7/6 496/7/6 497/7/6
f 497/7/6 496/7/6 498/7/6
f 498/7/6 496/7/6 499/7/6
f 499/7/6 496/7/6 500/7/6
f 500/7/6 496/7/6 501/7/6
f 502/4/6 503/4/6 507/4/6
f 507/4/6 503/4/6 508/4/6
f 504/4/6 505/4/6 509/4/6
f 509/4/6 505/4/6 510/4/6
f 506/4/6 507/4/6 511/4/6
f 511/4/6 507/4/6 512/4/6
f 512/4/6 513/4/6 516/4/6
f 516/4/6 513/4/6 517/4/6
f 517/4/6 513/4/6 518/4/6
f 514/4/6 515/4/6 519/4/6
f 519/4/6 515/4/6 520/4/6
f 520/4/6 515/4/6 521/4/6
f 522/4/6 523/4/6 524/4/6
f 524/4/6 523/4/6 525/4/6
f 526/4/6 527/4/6 531/4/6
f 531/4/6 527/4/6 532/4/6
f 528/4/6 529/4/6 533/4/6
f 533/4/6 529/4/6 534/4/6
f 531/4/6 532/4/6 536/4/6
f 534/4/6 535/4/6 536/4/6
f 533/4/6 534/4/6 536/4/6
f 532/4/6 533/4/6 536/4/6
f 530/4/6 531/4/6 536/4/6
f 536/4/6 535/4/6 537/4/6
f 537/4/6 535/4/6 538/4/6
f 538/4/6 535/4/6 539/4/6
f 540/4/6 541/4/6 542/4/6
f 542/4/6 541/4/6 543/4/6
f 544/4/6 545/4/6 547/4/6
f 547/4/6 545/4/6 548/4/6
f 546/8/6 547/8/6 550/8/6
f 550/8/6 547/8/6 551/8/6
f 548/8/6 549/8/6 552/8/6
f 552/8/6 549/8/6 553/8/6
f 551/4/6 552/4/6 554/4/6
f 554/4/6 552/4/6 555/4/6
f 556/4/6 557/4/6 559/4/6
f 559/4/6 557/4/6 560/4/6
f 558/8/6 559/8/6 562/8/6
f 562/8/6 559/8/6 563/8/6
f 560/8/6 561/8/6 564/8/6
f 564/8/6 561/8/6 565/8/6
f 563/4/6 564/4/6 566/4/6
f 566/4/6 564/4/6 567/4/6
f 568/8/6 569/8/6 570/8/6
f 570/8/6 569/8/6 571/8/6
f 572/8/6 573/8/6 574/8/6
f 574/8/6 573/8/6 575/8/6
