# MagicaVoxel @ Ephtracy

# material
mtllib Girl1.mtl
usemtl palette

# normals
vn -1 0 0
vn 1 0 0
vn 0 0 1
vn 0 0 -1
vn 0 -1 0
vn 0 1 0

# texcoords
vt 0.00195313 0.5
vt 0.255859 0.5
vt 0.259766 0.5
vt 0.271484 0.5
vt 0.279297 0.5
vt 0.287109 0.5
vt 0.291016 0.5
vt 0.302734 0.5

# verts
v -3 8 4
v -3 8 -4
v -3 13 4
v -3 13 -4
v -2 0 -0
v -2 0 -3
v -2 1 -0
v -2 1 -3
v -2 8 5
v -2 8 4
v -2 8 -4
v -2 8 -5
v -2 13 5
v -2 13 4
v -2 13 -4
v -2 13 -5
v -2 14 4
v -2 14 -4
v -1 1 3
v -1 1 -0
v -1 1 -3
v -1 2 3
v -1 2 2
v -1 2 -0
v -1 2 -1
v -1 2 -2
v -1 2 -3
v -1 3 3
v -1 3 2
v -1 3 -0
v -1 3 -1
v -1 3 -2
v -1 3 -3
v -1 5 -0
v -1 5 -1
v -1 6 2
v -1 6 1
v -1 6 -0
v -1 6 -1
v -1 6 -2
v -1 6 -3
v -1 7 2
v -1 7 1
v -1 7 -2
v -1 7 -3
v -1 8 3
v -1 8 -3
v -1 13 6
v -1 13 5
v -1 13 4
v -1 13 -5
v -1 13 -6
v -1 14 5
v -1 14 4
v -1 15 6
v -1 15 5
v -1 15 -5
v -1 15 -6
v 0 0 3
v 0 0 -0
v 0 1 3
v 0 1 -0
v 0 4 5
v 0 4 3
v 0 4 -3
v 0 4 -5
v 0 5 5
v 0 5 3
v 0 5 -3
v 0 5 -5
v 0 6 5
v 0 6 4
v 0 6 -3
v 0 7 5
v 0 7 4
v 0 7 -3
v 0 8 5
v 0 8 4
v 0 8 3
v 0 8 -3
v 0 8 -4
v 0 8 -5
v 0 10 -6
v 0 10 -8
v 0 11 8
v 0 11 6
v 0 12 6
v 0 12 5
v 0 12 -5
v 0 12 -6
v 0 13 6
v 0 13 5
v 0 13 -4
v 0 13 -5
v 0 13 -6
v 0 13 -7
v 0 13 -8
v 0 14 8
v 0 14 7
v 0 14 5
v 0 14 4
v 0 14 -4
v 0 14 -6
v 0 14 -7
v 0 15 7
v 0 15 6
v 0 15 5
v 0 15 4
v 0 15 -4
v 0 15 -5
v 0 15 -6
v 0 16 6
v 0 16 5
v 0 16 -5
v 0 16 -6
v 2 4 5
v 2 4 3
v 2 4 -3
v 2 4 -5
v 2 5 5
v 2 5 3
v 2 5 -3
v 2 5 -5
v 2 6 -3
v 2 6 -4
v 2 6 -5
v 2 7 5
v 2 7 4
v 2 7 -3
v 2 7 -4
v 2 7 -5
v 2 8 5
v 2 8 4
v 2 8 3
v 2 8 -3
v 2 8 -4
v 2 8 -5
v 2 10 -6
v 2 10 -8
v 2 11 8
v 2 11 6
v 2 12 6
v 2 12 5
v 2 12 -5
v 2 12 -6
v 2 13 6
v 2 13 5
v 2 13 -4
v 2 13 -5
v 2 13 -6
v 2 13 -7
v 2 13 -8
v 2 14 8
v 2 14 7
v 2 14 5
v 2 14 4
v 2 14 -4
v 2 14 -6
v 2 14 -7
v 2 15 7
v 2 15 6
v 2 15 5
v 2 15 4
v 2 15 -4
v 2 15 -5
v 2 15 -6
v 2 16 6
v 2 16 5
v 2 16 -5
v 2 16 -6
v 3 0 -0
v 3 0 -3
v 3 1 3
v 3 1 -0
v 3 1 -1
v 3 1 -2
v 3 1 -3
v 3 2 3
v 3 2 2
v 3 2 -0
v 3 2 -1
v 3 2 -2
v 3 2 -3
v 3 3 3
v 3 3 2
v 3 4 2
v 3 4 1
v 3 4 -1
v 3 4 -2
v 3 5 2
v 3 5 1
v 3 5 -1
v 3 5 -2
v 3 6 2
v 3 6 1
v 3 6 -2
v 3 6 -3
v 3 7 2
v 3 7 1
v 3 7 -2
v 3 7 -3
v 3 8 3
v 3 8 1
v 3 8 -1
v 3 8 -3
v 3 13 6
v 3 13 5
v 3 13 4
v 3 13 -5
v 3 13 -6
v 3 14 5
v 3 14 4
v 3 15 6
v 3 15 5
v 3 15 -5
v 3 15 -6
v 4 8 5
v 4 8 4
v 4 8 1
v 4 8 -1
v 4 8 -4
v 4 8 -5
v 4 9 3
v 4 9 1
v 4 9 -1
v 4 9 -3
v 4 11 2
v 4 11 1
v 4 11 -2
v 4 11 -3
v 4 12 3
v 4 12 2
v 4 12 1
v 4 12 -1
v 4 12 -2
v 4 12 -3
v 4 13 5
v 4 13 4
v 4 13 -4
v 4 13 -5
v 4 14 4
v 4 14 -4
v 5 0 3
v 5 0 -0
v 5 1 3
v 5 1 -0
v 0 11 8
v 0 14 8
v 2 11 8
v 2 14 8
v 0 14 7
v 0 15 7
v 2 14 7
v 2 15 7
v -1 13 6
v -1 15 6
v 0 13 6
v 0 15 6
v 0 16 6
v 2 13 6
v 2 15 6
v 2 16 6
v 3 13 6
v 3 15 6
v -2 8 5
v -2 13 5
v -1 13 5
v 0 4 5
v 0 5 5
v 0 6 5
v 0 7 5
v 0 8 5
v 0 12 5
v 0 13 5
v 1 6 5
v 1 7 5
v 1 8 5
v 2 4 5
v 2 5 5
v 2 7 5
v 2 8 5
v 2 12 5
v 2 13 5
v 3 13 5
v 4 8 5
v 4 13 5
v -3 8 4
v -3 13 4
v -2 8 4
v -2 13 4
v -2 14 4
v -1 13 4
v -1 14 4
v 3 13 4
v 3 14 4
v 4 13 4
v 4 14 4
v -1 1 3
v -1 2 3
v -1 3 3
v -1 8 3
v 0 0 3
v 0 1 3
v 0 2 3
v 0 3 3
v 0 4 3
v 0 5 3
v 0 8 3
v 2 2 3
v 2 3 3
v 2 4 3
v 2 5 3
v 2 8 3
v 3 1 3
v 3 2 3
v 3 3 3
v 3 8 3
v 5 0 3
v 5 1 3
v -2 0 -0
v -2 1 -0
v -1 1 -0
v 0 0 -0
v 0 1 -0
v 0 14 -4
v 0 15 -4
v 2 14 -4
v 2 15 -4
v -1 13 -5
v -1 15 -5
v 0 13 -5
v 0 15 -5
v 0 16 -5
v 2 13 -5
v 2 15 -5
v 2 16 -5
v 3 13 -5
v 3 15 -5
v 0 10 -6
v 0 12 -6
v 2 10 -6
v 2 12 -6
v 0 11 6
v 0 12 6
v 2 11 6
v 2 12 6
v -1 14 5
v -1 15 5
v 0 14 5
v 0 15 5
v 0 16 5
v 2 14 5
v 2 15 5
v 2 16 5
v 3 14 5
v 3 15 5
v 0 14 4
v 0 15 4
v 2 14 4
v 2 15 4
v 3 0 -0
v 3 1 -0
v 5 0 -0
v 5 1 -0
v -2 0 -3
v -2 1 -3
v -1 1 -3
v -1 2 -3
v -1 3 -3
v -1 6 -3
v -1 7 -3
v -1 8 -3
v 0 4 -3
v 0 5 -3
v 0 6 -3
v 0 7 -3
v 0 8 -3
v 1 2 -3
v 1 3 -3
v 2 1 -3
v 2 2 -3
v 2 4 -3
v 2 5 -3
v 2 6 -3
v 2 7 -3
v 2 8 -3
v 3 0 -3
v 3 1 -3
v 3 2 -3
v 3 6 -3
v 3 7 -3
v 3 8 -3
v -3 8 -4
v -3 13 -4
v -2 8 -4
v -2 13 -4
v -2 14 -4
v 0 13 -4
v 0 14 -4
v 2 13 -4
v 2 14 -4
v 4 13 -4
v 4 14 -4
v -2 8 -5
v -2 13 -5
v -1 13 -5
v 0 4 -5
v 0 5 -5
v 0 8 -5
v 0 12 -5
v 0 13 -5
v 1 6 -5
v 1 7 -5
v 2 4 -5
v 2 5 -5
v 2 6 -5
v 2 7 -5
v 2 8 -5
v 2 12 -5
v 2 13 -5
v 3 13 -5
v 4 8 -5
v 4 13 -5
v -1 13 -6
v -1 15 -6
v 0 13 -6
v 0 14 -6
v 0 15 -6
v 0 16 -6
v 2 13 -6
v 2 14 -6
v 2 15 -6
v 2 16 -6
v 3 13 -6
v 3 15 -6
v 0 13 -7
v 0 14 -7
v 2 13 -7
v 2 14 -7
v 0 10 -8
v 0 13 -8
v 2 10 -8
v 2 13 -8
v 0 0 3
v 5 0 3
v -2 0 -0
v 0 0 -0
v 3 0 -0
v 5 0 -0
v -2 0 -3
v 3 0 -3
v -1 1 3
v 0 1 3
v -1 1 -0
v 0 1 -0
v 0 4 5
v 2 4 5
v 0 4 3
v 2 4 3
v 0 4 -3
v 2 4 -3
v 0 4 -5
v 2 4 -5
v -2 8 5
v 0 8 5
v 2 8 5
v 4 8 5
v -3 8 4
v -2 8 4
v 0 8 4
v 2 8 4
v 4 8 4
v -1 8 3
v 0 8 3
v 2 8 3
v 3 8 3
v 3 8 1
v 4 8 1
v 3 8 -1
v 4 8 -1
v -1 8 -3
v 0 8 -3
v 2 8 -3
v 3 8 -3
v -3 8 -4
v -2 8 -4
v 0 8 -4
v 2 8 -4
v 4 8 -4
v -2 8 -5
v 0 8 -5
v 2 8 -5
v 4 8 -5
v 0 10 -6
v 2 10 -6
v 0 10 -8
v 2 10 -8
v 0 11 8
v 2 11 8
v 0 11 6
v 2 11 6
v 0 12 6
v 2 12 6
v 0 12 5
v 2 12 5
v 0 12 -5
v 2 12 -5
v 0 12 -6
v 2 12 -6
v -1 13 6
v 0 13 6
v 2 13 6
v 3 13 6
v -1 13 5
v 0 13 5
v 2 13 5
v 3 13 5
v -1 13 -5
v 0 13 -5
v 2 13 -5
v 3 13 -5
v -1 13 -6
v 0 13 -6
v 2 13 -6
v 3 13 -6
v 3 1 3
v 5 1 3
v -2 1 -0
v -1 1 -0
v 3 1 -0
v 5 1 -0
v -2 1 -3
v -1 1 -3
v -2 13 5
v -1 13 5
v 3 13 5
v 4 13 5
v -3 13 4
v -2 13 4
v -1 13 4
v 3 13 4
v 4 13 4
v -3 13 -4
v -2 13 -4
v 0 13 -4
v 2 13 -4
v 4 13 -4
v -2 13 -5
v -1 13 -5
v 0 13 -5
v 2 13 -5
v 3 13 -5
v 4 13 -5
v 0 13 -7
v 2 13 -7
v 0 13 -8
v 2 13 -8
v 0 14 8
v 2 14 8
v 0 14 7
v 2 14 7
v -1 14 5
v 0 14 5
v 2 14 5
v 3 14 5
v -2 14 4
v -1 14 4
v 0 14 4
v 2 14 4
v 3 14 4
v 4 14 4
v -2 14 -4
v 0 14 -4
v 2 14 -4
v 4 14 -4
v 0 14 -6
v 2 14 -6
v 0 14 -7
v 2 14 -7
v 0 15 7
v 2 15 7
v -1 15 6
v 0 15 6
v 2 15 6
v 3 15 6
v -1 15 5
v 0 15 5
v 2 15 5
v 3 15 5
v 0 15 4
v 2 15 4
v 0 15 -4
v 2 15 -4
v -1 15 -5
v 0 15 -5
v 2 15 -5
v 3 15 -5
v -1 15 -6
v 0 15 -6
v 2 15 -6
v 3 15 -6
v 0 16 6
v 2 16 6
v 0 16 5
v 2 16 5
v 0 16 -5
v 2 16 -5
v 0 16 -6
v 2 16 -6

# faces
f 3/4/1 2/4/1 1/4/1
f 4/4/1 2/4/1 3/4/1
f 7/7/1 6/7/1 5/7/1
f 8/7/1 6/7/1 7/7/1
f 13/4/1 10/4/1 9/4/1
f 14/4/1 10/4/1 13/4/1
f 15/4/1 12/4/1 11/4/1
f 16/4/1 12/4/1 15/4/1
f 17/4/1 15/4/1 14/4/1
f 18/4/1 15/4/1 17/4/1
f 22/6/1 20/6/1 19/6/1
f 22/6/1 21/6/1 20/6/1
f 23/6/1 21/6/1 22/6/1
f 24/6/1 21/6/1 23/6/1
f 25/6/1 21/6/1 24/6/1
f 26/6/1 21/6/1 25/6/1
f 27/6/1 21/6/1 26/6/1
f 28/2/1 23/2/1 22/2/1
f 29/6/1 24/6/1 23/6/1
f 29/2/1 23/2/1 28/2/1
f 30/2/1 25/2/1 24/2/1
f 30/6/1 24/6/1 29/6/1
f 31/6/1 26/6/1 25/6/1
f 31/2/1 25/2/1 30/2/1
f 32/2/1 27/2/1 26/2/1
f 32/6/1 26/6/1 31/6/1
f 33/2/1 27/2/1 32/2/1
f 34/6/1 29/6/1 28/6/1
f 34/6/1 30/6/1 29/6/1
f 34/6/1 33/6/1 32/6/1
f 34/6/1 32/6/1 31/6/1
f 34/6/1 31/6/1 30/6/1
f 35/6/1 33/6/1 34/6/1
f 36/6/1 34/6/1 28/6/1
f 37/6/1 34/6/1 36/6/1
f 38/2/1 35/2/1 34/2/1
f 38/6/1 34/6/1 37/6/1
f 39/6/1 33/6/1 35/6/1
f 39/2/1 35/2/1 38/2/1
f 40/6/1 33/6/1 39/6/1
f 41/6/1 33/6/1 40/6/1
f 42/2/1 37/2/1 36/2/1
f 42/6/1 36/6/1 28/6/1
f 43/6/1 38/6/1 37/6/1
f 43/2/1 37/2/1 42/2/1
f 43/6/1 39/6/1 38/6/1
f 43/6/1 40/6/1 39/6/1
f 44/2/1 41/2/1 40/2/1
f 44/6/1 40/6/1 43/6/1
f 45/2/1 41/2/1 44/2/1
f 46/6/1 42/6/1 28/6/1
f 46/6/1 43/6/1 42/6/1
f 46/6/1 45/6/1 44/6/1
f 46/6/1 44/6/1 43/6/1
f 47/6/1 45/6/1 46/6/1
f 53/4/1 50/4/1 49/4/1
f 53/8/1 49/8/1 48/8/1
f 54/4/1 50/4/1 53/4/1
f 55/8/1 53/8/1 48/8/1
f 56/8/1 53/8/1 55/8/1
f 57/8/1 52/8/1 51/8/1
f 58/8/1 52/8/1 57/8/1
f 61/7/1 60/7/1 59/7/1
f 62/7/1 60/7/1 61/7/1
f 67/7/1 64/7/1 63/7/1
f 68/7/1 64/7/1 67/7/1
f 69/7/1 66/7/1 65/7/1
f 70/7/1 66/7/1 69/7/1
f 71/6/1 68/6/1 67/6/1
f 72/6/1 68/6/1 71/6/1
f 73/6/1 70/6/1 69/6/1
f 74/2/1 72/2/1 71/2/1
f 75/6/1 68/6/1 72/6/1
f 75/2/1 72/2/1 74/2/1
f 76/6/1 70/6/1 73/6/1
f 77/6/1 75/6/1 74/6/1
f 78/6/1 68/6/1 75/6/1
f 78/6/1 75/6/1 77/6/1
f 79/6/1 68/6/1 78/6/1
f 80/6/1 70/6/1 76/6/1
f 81/6/1 70/6/1 80/6/1
f 82/6/1 70/6/1 81/6/1
f 87/4/1 86/4/1 85/4/1
f 90/4/1 84/4/1 83/4/1
f 91/8/1 88/8/1 87/8/1
f 91/4/1 87/4/1 85/4/1
f 92/8/1 88/8/1 91/8/1
f 94/8/1 90/8/1 89/8/1
f 95/4/1 84/4/1 90/4/1
f 95/8/1 90/8/1 94/8/1
f 96/4/1 84/4/1 95/4/1
f 97/4/1 84/4/1 96/4/1
f 98/4/1 91/4/1 85/4/1
f 99/4/1 91/4/1 98/4/1
f 102/4/1 94/4/1 93/4/1
f 103/4/1 96/4/1 95/4/1
f 104/4/1 96/4/1 103/4/1
f 105/4/1 91/4/1 99/4/1
f 106/4/1 91/4/1 105/4/1
f 107/4/1 101/4/1 100/4/1
f 108/4/1 101/4/1 107/4/1
f 109/4/1 94/4/1 102/4/1
f 110/4/1 94/4/1 109/4/1
f 112/8/1 107/8/1 106/8/1
f 113/8/1 107/8/1 112/8/1
f 114/8/1 111/8/1 110/8/1
f 115/8/1 111/8/1 114/8/1
f 116/7/2 117/7/2 120/7/2
f 120/7/2 117/7/2 121/7/2
f 118/7/2 119/7/2 122/7/2
f 122/7/2 119/7/2 123/7/2
f 122/6/2 123/6/2 124/6/2
f 124/6/2 123/6/2 125/6/2
f 125/6/2 123/6/2 126/6/2
f 120/6/2 121/6/2 127/6/2
f 127/6/2 121/6/2 128/6/2
f 124/6/2 125/6/2 129/6/2
f 125/2/2 126/2/2 130/2/2
f 129/6/2 125/6/2 130/6/2
f 130/2/2 126/2/2 131/2/2
f 127/2/2 128/2/2 132/2/2
f 128/6/2 121/6/2 133/6/2
f 132/2/2 128/2/2 133/2/2
f 133/6/2 121/6/2 134/6/2
f 129/6/2 130/6/2 135/6/2
f 130/6/2 131/6/2 135/6/2
f 135/6/2 131/6/2 136/6/2
f 136/6/2 131/6/2 137/6/2
f 140/4/2 141/4/2 142/4/2
f 138/4/2 139/4/2 145/4/2
f 142/8/2 143/8/2 146/8/2
f 140/4/2 142/4/2 146/4/2
f 146/8/2 143/8/2 147/8/2
f 144/8/2 145/8/2 149/8/2
f 145/4/2 139/4/2 150/4/2
f 149/8/2 145/8/2 150/8/2
f 150/4/2 139/4/2 151/4/2
f 151/4/2 139/4/2 152/4/2
f 140/4/2 146/4/2 153/4/2
f 153/4/2 146/4/2 154/4/2
f 148/4/2 149/4/2 157/4/2
f 150/4/2 151/4/2 158/4/2
f 158/4/2 151/4/2 159/4/2
f 154/4/2 146/4/2 160/4/2
f 160/4/2 146/4/2 161/4/2
f 155/4/2 156/4/2 162/4/2
f 162/4/2 156/4/2 163/4/2
f 157/4/2 149/4/2 164/4/2
f 164/4/2 149/4/2 165/4/2
f 161/8/2 162/8/2 167/8/2
f 167/8/2 162/8/2 168/8/2
f 165/8/2 166/8/2 169/8/2
f 169/8/2 166/8/2 170/8/2
f 171/7/2 172/7/2 174/7/2
f 174/7/2 172/7/2 175/7/2
f 175/7/2 172/7/2 176/7/2
f 176/7/2 172/7/2 177/7/2
f 173/6/2 174/6/2 178/6/2
f 178/6/2 174/6/2 179/6/2
f 174/2/2 175/2/2 180/2/2
f 179/6/2 174/6/2 180/6/2
f 175/6/2 176/6/2 181/6/2
f 180/2/2 175/2/2 181/2/2
f 176/2/2 177/2/2 182/2/2
f 181/6/2 176/6/2 182/6/2
f 182/2/2 177/2/2 183/2/2
f 178/2/2 179/2/2 184/2/2
f 179/6/2 180/6/2 185/6/2
f 184/2/2 179/2/2 185/2/2
f 180/6/2 181/6/2 185/6/2
f 182/6/2 183/6/2 185/6/2
f 181/6/2 182/6/2 185/6/2
f 184/6/2 185/6/2 186/6/2
f 185/6/2 183/6/2 186/6/2
f 186/6/2 183/6/2 187/6/2
f 187/6/2 183/6/2 188/6/2
f 188/6/2 183/6/2 189/6/2
f 184/6/2 186/6/2 190/6/2
f 186/2/2 187/2/2 190/2/2
f 187/6/2 188/6/2 191/6/2
f 190/2/2 187/2/2 191/2/2
f 188/2/2 189/2/2 192/2/2
f 191/6/2 188/6/2 192/6/2
f 189/6/2 183/6/2 193/6/2
f 192/2/2 189/2/2 193/2/2
f 191/6/2 192/6/2 194/6/2
f 190/6/2 191/6/2 194/6/2
f 192/6/2 193/6/2 194/6/2
f 184/6/2 190/6/2 194/6/2
f 194/6/2 193/6/2 195/6/2
f 193/6/2 183/6/2 196/6/2
f 195/6/2 193/6/2 196/6/2
f 196/6/2 183/6/2 197/6/2
f 194/2/2 195/2/2 198/2/2
f 184/6/2 194/6/2 198/6/2
f 195/6/2 196/6/2 199/6/2
f 198/2/2 195/2/2 199/2/2
f 196/2/2 197/2/2 200/2/2
f 199/6/2 196/6/2 200/6/2
f 200/2/2 197/2/2 201/2/2
f 198/6/2 199/6/2 202/6/2
f 184/6/2 198/6/2 202/6/2
f 200/6/2 201/6/2 202/6/2
f 199/6/2 200/6/2 202/6/2
f 202/6/2 201/6/2 203/6/2
f 203/6/2 201/6/2 204/6/2
f 204/6/2 201/6/2 205/6/2
f 207/4/2 208/4/2 211/4/2
f 206/8/2 207/8/2 211/8/2
f 211/4/2 208/4/2 212/4/2
f 206/8/2 211/8/2 213/8/2
f 213/8/2 211/8/2 214/8/2
f 209/8/2 210/8/2 215/8/2
f 215/8/2 210/8/2 216/8/2
f 218/7/2 219/7/2 223/7/2
f 219/5/2 220/5/2 224/5/2
f 223/7/2 219/7/2 224/7/2
f 220/7/2 221/7/2 225/7/2
f 224/5/2 220/5/2 225/5/2
f 225/7/2 221/7/2 226/7/2
f 223/3/2 224/3/2 227/3/2
f 224/7/2 225/7/2 228/7/2
f 227/3/2 224/3/2 228/3/2
f 225/3/2 226/3/2 229/3/2
f 226/7/2 221/7/2 230/7/2
f 229/3/2 226/3/2 230/3/2
f 218/7/2 223/7/2 231/7/2
f 223/3/2 227/3/2 231/3/2
f 227/1/2 228/1/2 232/1/2
f 231/3/2 227/3/2 232/3/2
f 228/7/2 225/7/2 233/7/2
f 232/1/2 228/1/2 233/1/2
f 225/3/2 229/3/2 234/3/2
f 233/7/2 225/7/2 234/7/2
f 229/1/2 230/1/2 235/1/2
f 234/3/2 229/3/2 235/3/2
f 230/7/2 221/7/2 236/7/2
f 235/1/2 230/1/2 236/1/2
f 217/4/2 218/4/2 237/4/2
f 234/7/2 235/7/2 238/7/2
f 237/4/2 218/4/2 238/4/2
f 232/7/2 233/7/2 238/7/2
f 235/7/2 236/7/2 238/7/2
f 218/7/2 231/7/2 238/7/2
f 231/7/2 232/7/2 238/7/2
f 233/7/2 234/7/2 238/7/2
f 236/7/2 221/7/2 239/7/2
f 238/7/2 236/7/2 239/7/2
f 221/4/2 222/4/2 239/4/2
f 239/4/2 222/4/2 240/4/2
f 238/4/2 239/4/2 241/4/2
f 241/4/2 239/4/2 242/4/2
f 243/7/2 244/7/2 245/7/2
f 245/7/2 244/7/2 246/7/2
f 249/4/3 248/4/3 247/4/3
f 250/4/3 248/4/3 249/4/3
f 253/4/3 252/4/3 251/4/3
f 254/4/3 252/4/3 253/4/3
f 257/8/3 256/8/3 255/8/3
f 258/8/3 256/8/3 257/8/3
f 261/8/3 259/8/3 258/8/3
f 262/8/3 259/8/3 261/8/3
f 263/8/3 261/8/3 260/8/3
f 264/8/3 261/8/3 263/8/3
f 267/4/3 266/4/3 265/4/3
f 272/4/3 267/4/3 265/4/3
f 273/4/3 267/4/3 272/4/3
f 274/4/3 267/4/3 273/4/3
f 275/2/3 271/2/3 270/2/3
f 275/6/3 270/6/3 269/6/3
f 276/6/3 272/6/3 271/6/3
f 276/2/3 271/2/3 275/2/3
f 277/4/3 273/4/3 272/4/3
f 277/6/3 272/6/3 276/6/3
f 278/7/3 269/7/3 268/7/3
f 279/6/3 276/6/3 275/6/3
f 279/7/3 269/7/3 278/7/3
f 279/6/3 275/6/3 269/6/3
f 280/2/3 277/2/3 276/2/3
f 280/6/3 276/6/3 279/6/3
f 281/4/3 273/4/3 277/4/3
f 281/2/3 277/2/3 280/2/3
f 282/4/3 273/4/3 281/4/3
f 284/4/3 283/4/3 282/4/3
f 284/4/3 282/4/3 281/4/3
f 285/4/3 284/4/3 281/4/3
f 286/4/3 284/4/3 285/4/3
f 289/4/3 288/4/3 287/4/3
f 290/4/3 288/4/3 289/4/3
f 292/4/3 291/4/3 290/4/3
f 293/4/3 291/4/3 292/4/3
f 296/4/3 295/4/3 294/4/3
f 297/4/3 295/4/3 296/4/3
f 303/6/3 299/6/3 298/6/3
f 304/2/3 300/2/3 299/2/3
f 304/6/3 299/6/3 303/6/3
f 305/6/3 301/6/3 300/6/3
f 305/2/3 300/2/3 304/2/3
f 306/6/3 301/6/3 305/6/3
f 307/6/3 301/6/3 306/6/3
f 308/6/3 301/6/3 307/6/3
f 309/6/3 304/6/3 303/6/3
f 309/6/3 305/6/3 304/6/3
f 309/6/3 306/6/3 305/6/3
f 310/6/3 306/6/3 309/6/3
f 311/6/3 306/6/3 310/6/3
f 314/7/3 303/7/3 302/7/3
f 314/6/3 309/6/3 303/6/3
f 315/2/3 310/2/3 309/2/3
f 315/6/3 309/6/3 314/6/3
f 316/6/3 313/6/3 312/6/3
f 316/2/3 310/2/3 315/2/3
f 316/6/3 312/6/3 311/6/3
f 316/6/3 311/6/3 310/6/3
f 317/6/3 313/6/3 316/6/3
f 318/7/3 314/7/3 302/7/3
f 319/7/3 314/7/3 318/7/3
f 322/7/3 321/7/3 320/7/3
f 323/7/3 322/7/3 320/7/3
f 324/7/3 322/7/3 323/7/3
f 327/4/3 326/4/3 325/4/3
f 328/4/3 326/4/3 327/4/3
f 331/8/3 330/8/3 329/8/3
f 332/8/3 330/8/3 331/8/3
f 335/8/3 333/8/3 332/8/3
f 336/8/3 333/8/3 335/8/3
f 337/8/3 335/8/3 334/8/3
f 338/8/3 335/8/3 337/8/3
f 341/4/3 340/4/3 339/4/3
f 342/4/3 340/4/3 341/4/3
f 343/4/4 344/4/4 345/4/4
f 345/4/4 344/4/4 346/4/4
f 347/8/4 348/8/4 349/8/4
f 349/8/4 348/8/4 350/8/4
f 350/8/4 351/8/4 353/8/4
f 353/8/4 351/8/4 354/8/4
f 352/8/4 353/8/4 355/8/4
f 355/8/4 353/8/4 356/8/4
f 357/4/4 358/4/4 359/4/4
f 359/4/4 358/4/4 360/4/4
f 361/7/4 362/7/4 363/7/4
f 363/7/4 362/7/4 364/7/4
f 365/7/4 366/7/4 367/7/4
f 369/6/4 370/6/4 373/6/4
f 373/6/4 370/6/4 374/6/4
f 370/2/4 371/2/4 375/2/4
f 374/6/4 370/6/4 375/6/4
f 371/6/4 372/6/4 376/6/4
f 375/2/4 371/2/4 376/2/4
f 376/6/4 372/6/4 377/6/4
f 367/6/4 368/6/4 378/6/4
f 368/2/4 369/2/4 378/2/4
f 369/6/4 373/6/4 379/6/4
f 378/2/4 369/2/4 379/2/4
f 365/7/4 367/7/4 380/7/4
f 367/6/4 378/6/4 380/6/4
f 378/6/4 379/6/4 380/6/4
f 380/6/4 379/6/4 381/6/4
f 379/6/4 373/6/4 382/6/4
f 381/6/4 379/6/4 382/6/4
f 365/7/4 380/7/4 387/7/4
f 380/2/4 381/2/4 388/2/4
f 387/7/4 380/7/4 388/7/4
f 381/6/4 382/6/4 389/6/4
f 388/2/4 381/2/4 389/2/4
f 382/6/4 383/6/4 389/6/4
f 383/6/4 384/6/4 389/6/4
f 384/2/4 385/2/4 390/2/4
f 389/6/4 384/6/4 390/6/4
f 385/6/4 386/6/4 391/6/4
f 390/2/4 385/2/4 391/2/4
f 391/6/4 386/6/4 392/6/4
f 393/4/4 394/4/4 395/4/4
f 395/4/4 394/4/4 396/4/4
f 396/4/4 397/4/4 398/4/4
f 398/4/4 397/4/4 399/4/4
f 400/4/4 401/4/4 402/4/4
f 402/4/4 401/4/4 403/4/4
f 404/4/4 405/4/4 406/4/4
f 404/4/4 406/4/4 409/4/4
f 409/4/4 406/4/4 410/4/4
f 410/4/4 406/4/4 411/4/4
f 408/6/4 409/6/4 412/6/4
f 412/6/4 409/6/4 413/6/4
f 407/7/4 408/7/4 414/7/4
f 408/6/4 412/6/4 415/6/4
f 414/7/4 408/7/4 415/7/4
f 412/2/4 413/2/4 416/2/4
f 415/6/4 412/6/4 416/6/4
f 413/6/4 409/6/4 417/6/4
f 416/2/4 413/2/4 417/2/4
f 409/4/4 410/4/4 418/4/4
f 417/6/4 409/6/4 418/6/4
f 418/4/4 410/4/4 419/4/4
f 419/4/4 420/4/4 421/4/4
f 418/4/4 419/4/4 421/4/4
f 418/4/4 421/4/4 422/4/4
f 422/4/4 421/4/4 423/4/4
f 424/8/4 425/8/4 426/8/4
f 426/8/4 425/8/4 427/8/4
f 427/8/4 425/8/4 428/8/4
f 427/4/4 428/4/4 431/4/4
f 428/8/4 429/8/4 432/8/4
f 431/4/4 428/4/4 432/4/4
f 432/8/4 429/8/4 433/8/4
f 430/8/4 431/8/4 434/8/4
f 431/8/4 432/8/4 434/8/4
f 434/8/4 432/8/4 435/8/4
f 436/4/4 437/4/4 438/4/4
f 438/4/4 437/4/4 439/4/4
f 440/4/4 441/4/4 442/4/4
f 442/4/4 441/4/4 443/4/4
f 447/7/5 445/7/5 444/7/5
f 448/7/5 445/7/5 447/7/5
f 449/7/5 445/7/5 448/7/5
f 450/7/5 447/7/5 446/7/5
f 450/7/5 448/7/5 447/7/5
f 451/7/5 448/7/5 450/7/5
f 454/6/5 453/6/5 452/6/5
f 455/6/5 453/6/5 454/6/5
f 458/7/5 457/7/5 456/7/5
f 459/7/5 457/7/5 458/7/5
f 462/7/5 461/7/5 460/7/5
f 463/7/5 461/7/5 462/7/5
f 469/4/5 465/4/5 464/4/5
f 470/4/5 465/4/5 469/4/5
f 471/4/5 467/4/5 466/4/5
f 472/4/5 467/4/5 471/4/5
f 473/7/5 470/7/5 469/7/5
f 474/7/5 470/7/5 473/7/5
f 475/7/5 472/7/5 471/7/5
f 476/7/5 472/7/5 475/7/5
f 477/7/5 472/7/5 476/7/5
f 478/7/5 472/7/5 477/7/5
f 479/5/5 478/5/5 477/5/5
f 480/5/5 478/5/5 479/5/5
f 481/7/5 473/7/5 469/7/5
f 484/7/5 480/7/5 479/7/5
f 485/4/5 469/4/5 468/4/5
f 486/7/5 482/7/5 481/7/5
f 486/4/5 469/4/5 485/4/5
f 486/7/5 481/7/5 469/7/5
f 487/7/5 482/7/5 486/7/5
f 488/7/5 484/7/5 483/7/5
f 489/7/5 480/7/5 484/7/5
f 489/7/5 484/7/5 488/7/5
f 490/4/5 487/4/5 486/4/5
f 491/4/5 487/4/5 490/4/5
f 492/4/5 489/4/5 488/4/5
f 493/4/5 489/4/5 492/4/5
f 496/4/5 495/4/5 494/4/5
f 497/4/5 495/4/5 496/4/5
f 500/4/5 499/4/5 498/4/5
f 501/4/5 499/4/5 500/4/5
f 504/8/5 503/8/5 502/8/5
f 505/8/5 503/8/5 504/8/5
f 508/8/5 507/8/5 506/8/5
f 509/8/5 507/8/5 508/8/5
f 514/8/5 511/8/5 510/8/5
f 515/8/5 511/8/5 514/8/5
f 516/8/5 513/8/5 512/8/5
f 517/8/5 513/8/5 516/8/5
f 522/8/5 519/8/5 518/8/5
f 523/8/5 519/8/5 522/8/5
f 524/8/5 521/8/5 520/8/5
f 525/8/5 521/8/5 524/8/5
f 526/7/6 527/7/6 530/7/6
f 530/7/6 527/7/6 531/7/6
f 528/7/6 529/7/6 532/7/6
f 532/7/6 529/7/6 533/7/6
f 534/4/6 535/4/6 539/4/6
f 539/4/6 535/4/6 540/4/6
f 536/4/6 537/4/6 541/4/6
f 541/4/6 537/4/6 542/4/6
f 538/4/6 539/4/6 543/4/6
f 543/4/6 539/4/6 544/4/6
f 544/4/6 545/4/6 548/4/6
f 548/4/6 545/4/6 549/4/6
f 549/4/6 545/4/6 550/4/6
f 546/4/6 547/4/6 551/4/6
f 551/4/6 547/4/6 552/4/6
f 552/4/6 547/4/6 553/4/6
f 554/4/6 555/4/6 556/4/6
f 556/4/6 555/4/6 557/4/6
f 558/4/6 559/4/6 560/4/6
f 560/4/6 559/4/6 561/4/6
f 562/4/6 563/4/6 567/4/6
f 567/4/6 563/4/6 568/4/6
f 564/4/6 565/4/6 569/4/6
f 569/4/6 565/4/6 570/4/6
f 567/4/6 568/4/6 572/4/6
f 570/4/6 571/4/6 572/4/6
f 569/4/6 570/4/6 572/4/6
f 568/4/6 569/4/6 572/4/6
f 566/4/6 567/4/6 572/4/6
f 572/4/6 571/4/6 573/4/6
f 573/4/6 571/4/6 574/4/6
f 574/4/6 571/4/6 575/4/6
f 576/4/6 577/4/6 578/4/6
f 578/4/6 577/4/6 579/4/6
f 580/4/6 581/4/6 583/4/6
f 583/4/6 581/4/6 584/4/6
f 582/8/6 583/8/6 586/8/6
f 586/8/6 583/8/6 587/8/6
f 584/8/6 585/8/6 588/8/6
f 588/8/6 585/8/6 589/8/6
f 587/4/6 588/4/6 590/4/6
f 590/4/6 588/4/6 591/4/6
f 592/4/6 593/4/6 595/4/6
f 595/4/6 593/4/6 596/4/6
f 594/8/6 595/8/6 598/8/6
f 598/8/6 595/8/6 599/8/6
f 596/8/6 597/8/6 600/8/6
f 600/8/6 597/8/6 601/8/6
f 602/8/6 603/8/6 604/8/6
f 604/8/6 603/8/6 605/8/6
f 606/8/6 607/8/6 608/8/6
f 608/8/6 607/8/6 609/8/6
